<?xml version="1.0" encoding="UTF-8" standalone="no"?>
<!-- Created with Inkscape (http://www.inkscape.org/) -->

<svg
   xmlns:dc="http://purl.org/dc/elements/1.1/"
   xmlns:cc="http://creativecommons.org/ns#"
   xmlns:rdf="http://www.w3.org/1999/02/22-rdf-syntax-ns#"
   xmlns:svg="http://www.w3.org/2000/svg"
   xmlns="http://www.w3.org/2000/svg"
   xmlns:xlink="http://www.w3.org/1999/xlink"
   xmlns:sodipodi="http://sodipodi.sourceforge.net/DTD/sodipodi-0.dtd"
   xmlns:inkscape="http://www.inkscape.org/namespaces/inkscape"
   id="svg2"
   version="1.1"
   inkscape:version="0.91 r13725"
   width="2481"
   height="3503"
   sodipodi:docname="Pepper-and-Carrot_by-David-Revoy_E04P03.svg">
  <metadata
     id="metadata8">
    <rdf:RDF>
      <cc:Work
         rdf:about="">
        <dc:format>image/svg+xml</dc:format>
        <dc:type
           rdf:resource="http://purl.org/dc/dcmitype/StillImage" />
        <dc:title />
      </cc:Work>
    </rdf:RDF>
  </metadata>
  <defs
     id="defs6" />
  <sodipodi:namedview
     pagecolor="#ffffff"
     bordercolor="#666666"
     borderopacity="1"
     objecttolerance="10"
     gridtolerance="10"
     guidetolerance="10"
     inkscape:pageopacity="0"
     inkscape:pageshadow="2"
     inkscape:window-width="1366"
     inkscape:window-height="705"
     id="namedview4"
     showgrid="false"
     inkscape:zoom="0.47669615"
     inkscape:cx="1207.3203"
     inkscape:cy="3216.798"
     inkscape:window-x="-8"
     inkscape:window-y="-8"
     inkscape:window-maximized="1"
     inkscape:current-layer="layer1" />
  <g
     inkscape:groupmode="layer"
     id="layer2"
     inkscape:label="artwork"
     sodipodi:insensitive="true">
    <image
       sodipodi:absref="C:\Users\Mahwiii\Desktop\Manga\translations\pepper carrot\peppercarrot_ep04_translation-master\ar\..\gfx_Pepper-and-Carrot_by-David-Revoy_E04P03.png"
       xlink:href="../gfx_Pepper-and-Carrot_by-David-Revoy_E04P03.png"
       y="0"
       x="0"
       id="image10"
       height="3503"
       width="2481" />
  </g>
  <g
     inkscape:groupmode="layer"
     id="layer3"
     inkscape:label="speechbubbles">
    <path
       style="fill:#ffffff;stroke:none"
       d="M 85.162546,242.86513 C 83.960336,181.14936 110.40883,107.7891 153.68817,96.144618 196.96751,84.500131 465.05898,72.855646 487.90083,81.006786 c 22.84187,8.15114 50.49257,23.288974 73.33444,45.413494 22.84187,22.12452 40.87493,59.38687 37.26832,89.66254 -3.60662,30.27566 -20.43747,91.99143 -36.06612,108.29371 -15.62864,16.30229 -57.70578,54.72909 -99.78292,61.71578 -42.07714,6.98669 -91.36748,12.80893 -110.60274,11.64449 -19.23526,-1.16445 -117.81598,-8.15115 -117.81598,-8.15115 0,0 -52.89697,4.6578 -69.72783,-6.98669 -16.83085,-11.64448 -60.11019,-31.44011 -73.334434,-80.34695 -13.22424,-48.90683 -6.01102,-17.46672 -6.01102,-59.38688 z"
       id="path3971"
       inkscape:connector-curvature="0" />
    <path
       style="fill:#ffffff;stroke:none;stroke-width:1px;stroke-linecap:butt;stroke-linejoin:miter;stroke-opacity:1;color:#000000;fill-opacity:1;fill-rule:nonzero;marker:none;visibility:visible;display:inline;overflow:visible;enable-background:accumulate"
       d="m 570.91828,456.50332 c -88.75621,-26.38698 -125.93786,-37.18166 -148.72661,-95.95266 -22.78876,-58.77099 -39.58047,-5.99704 -39.58047,-5.99704 0,0 8.39585,103.1491 188.30708,101.9497 z"
       id="path3984"
       inkscape:connector-curvature="0" />
    <path
       style="fill:#ffffff;stroke:none;stroke-width:1px;stroke-linecap:butt;stroke-linejoin:miter;stroke-opacity:1;color:#000000;fill-opacity:1;fill-rule:nonzero;marker:none;visibility:visible;display:inline;overflow:visible;enable-background:accumulate"
       d="m 1049.4821,298.18144 c -33.5834,-47.97632 -29.9852,-141.53016 -20.3899,-163.11951 9.5953,-21.58934 22.7887,-53.973363 68.3663,-53.973363 45.5775,0 362.2212,-22.788755 408.9981,27.586383 46.7769,50.37515 45.5775,137.93194 4.7977,196.70294 -40.7799,58.771 -259.0722,46.77692 -259.0722,46.77692 0,0 -151.1254,7.19645 -202.7,-53.97337 z"
       id="path3992"
       inkscape:connector-curvature="0" />
    <path
       style="color:#000000;fill:#ffffff;fill-opacity:1;fill-rule:nonzero;stroke:none;stroke-width:1px;marker:none;visibility:visible;display:inline;overflow:visible;enable-background:accumulate"
       d="m 1146.6342,456.50332 c 86.3574,-52.77396 115.6987,-98.14741 141.122,-142.99485 11.9623,-21.10173 -40.3717,-44.11282 -40.3717,-44.11282 l -16.7917,47.97632 c 0,0 -16.7645,81.67766 -83.9586,139.13135 z"
       id="path4000"
       inkscape:connector-curvature="0"
       sodipodi:nodetypes="csccc" />
    <path
       style="color:#000000;fill:#ffffff;fill-opacity:1;fill-rule:nonzero;stroke:none;stroke-width:1px;marker:none;visibility:visible;display:inline;overflow:visible;enable-background:accumulate"
       d="m 404.81021,846.08607 c 56.98764,-65.48193 353.53813,-71.37977 391.35849,-22.20704 37.82035,49.17274 69.06326,169.72525 16.44364,209.38067 -52.61964,39.6554 -376.55923,55.5176 -411.09085,-3.1724 -34.53163,-58.69006 -53.69891,-118.51929 3.28872,-184.00123 z"
       id="path4008"
       inkscape:connector-curvature="0"
       sodipodi:nodetypes="zsssz" />
    <path
       style="color:#000000;fill:#ffffff;fill-opacity:1;fill-rule:nonzero;stroke:none;stroke-width:1px;marker:none;visibility:visible;display:inline;overflow:visible;enable-background:accumulate"
       d="m 1157.6896,916.45026 c -50.0655,-18.99475 -100.9594,-38.14301 -154.5315,-44.09381 -38.48708,-4.37587 -78.57566,1.00958 -113.15098,19.03609 -32.73956,16.67622 -60.16415,42.09485 -83.79625,69.90516 -13.4053,-7.41069 -22.60064,-20.28714 -31.82413,-32.14019 -3.37955,-5.27569 -8.76282,-10.89773 -10.49022,-16.28006 29.16601,-26.85941 65.28605,-45.62049 103.13999,-56.91895 60.13957,-17.92686 125.48697,-13.45925 184.38699,7.03526 37.6522,12.86195 73.1405,31.52397 106.2661,53.4565 z"
       id="path4010"
       inkscape:connector-curvature="0" />
    <path
       style="color:#000000;display:inline;overflow:visible;visibility:visible;fill:#ffffff;fill-opacity:1;fill-rule:nonzero;stroke:none;stroke-width:1px;stroke-linecap:butt;stroke-linejoin:miter;stroke-opacity:1;marker:none;enable-background:accumulate"
       d="m 1873.1081,1768.5288 -14.8732,-1.6736 3.4996,15.6199 c -23.5336,0.8476 -35.7951,-4.0548 -52.493,-6.6943 l 26.2466,20.0827 -4.3745,5.5785 c 4.2611,3.2618 10.691,5.4866 12.2483,10.0414 -11.8882,2.8384 -20.4358,2.8366 -30.2674,3.9265 9.2509,3.7722 16.9528,8.137 22.3936,13.367 l -31.4959,8.9255 28.8691,7.8088 c -21.7144,12.8404 -49.0068,20.9387 -74.3631,30.6831 l 90.1131,-4.4629 -13.9982,10.0414 c 9.0069,5.2263 8.2108,2.6394 12.2483,3.905 1.9664,3.7611 -30.9781,19.3993 -27.9961,17.8513 3.4996,-0.5579 33.2456,-2.7894 33.2456,-2.7894 0,0 -26.2467,15.62 -22.747,15.62 3.4995,0 32.3706,-3.905 32.3706,-3.905 l -9.6236,15.062 37.62,-8.3678 -15.7479,18.7282 c 9.7878,-1.1018 16.1029,-1.4864 12.6229,5.0257 -23.5496,23.1879 -59.6426,58.4863 -53.8662,66.3806 19.9567,-8.9065 50.3296,-35.3187 78.8633,-44.9484 19.3884,1.6084 20.5551,8.1964 28.8713,12.8306 l 34.9953,-19.5249 6.1243,13.3885 26.2464,-16.7356 0,17.2935 c 16.2882,-1.2102 24.5752,-11.3484 34.1207,-20.0827 l 2.6245,64.7109 56.8675,-54.6696 11.3736,22.872 8.7489,-21.1984 2.6246,17.8513 24.4969,-23.9877 18.3726,21.7562 17.4976,-20.0826 c 16.0093,21.9615 39.0497,39.4397 65.6164,54.6695 -3.6929,-22.5195 -6.7746,-44.3895 -5.2494,-61.3637 9.9153,-1.7689 19.8307,1.769 29.7461,6.6942 l -5.2493,-15.062 36.7452,10.0413 -16.6229,-23.4298 c 56.0903,-0.7507 44.8301,3.2702 57.7426,5.5785 l -10.4986,-15.0621 38.4949,11.7151 c -10.5161,-12.4644 -24.3289,-25.9797 -31.496,-37.3763 l 40.2448,2.7893 c -15.7706,-10.0274 -35.5847,-17.4765 -46.618,-30.5243 l 35.2445,-1.2732 -33.2457,-16.7357 26.2466,-9.4834 -20.9973,-2.2315 34.9954,-20.0826 -46.369,-1.6736 55.9928,-36.2604 -64.7415,7.8099 5.2492,-26.2191 -35.8702,18.9671 35.8702,-65.8266 c -28.9813,23.5456 -51.3116,42.4012 -90.6093,59.3687 l -12.633,-6.6103 -13.9922,3.4233 3.4995,-18.8056 -51.6181,22.8719 5.2494,-10.5992 -15.748,10.0414 3.4994,-13.9464 -27.1213,16.7356 2.497,-14.5817 -12.9958,9.561 -4.0017,-9.162 -15.2457,5.815 c -4.5872,-24.1737 3.2949,-48.3473 8.7489,-72.5209 -17.8995,27.6731 -40.6311,52.7053 -70.8658,73.6366 l -9.6237,-10.5954 -11.9992,9.7974 -12.1209,-12.6643 -18.249,15.1333 c -14.4313,-11.5289 -22.8361,-18.5925 -28.4966,-30.1216 2.7915,10.8051 4.8211,18.0636 0.7494,29.9627 -53.2732,-18.2178 -51.6784,-19.8425 -71.615,-29.9627 -5.4631,13.0078 -10.9071,17.3389 -13.9982,27.3349 z"
       id="path4024"
       inkscape:connector-curvature="0"
       sodipodi:nodetypes="cccccccccccccccccsccccccccccccccccccccccccccccccccccccccccccccccccccccccccccccccccccc" />
    <path
       style="color:#000000;fill:#ffffff;fill-opacity:1;fill-rule:nonzero;stroke:none;stroke-width:1px;marker:none;visibility:visible;display:inline;overflow:visible;enable-background:accumulate"
       d="m 1848.5853,1575.0785 c 10.0461,44.0989 27.0514,87.1709 29.0118,132.4629 l 18.7724,-35.7599 c 9.4018,15.7423 8.3262,35.1951 10.8083,53.3881 l 15.3592,-20.1465 c 21.7256,37.425 24.8572,77.202 36.9759,115.8421 l 23.8921,-37.271 c -16.9368,-37.6417 -39.8877,-72.0885 -50.0597,-113.3238 l -17.0658,18.1319 c -5.5461,-13.7459 -10.5425,-27.7351 -13.0837,-42.8112 l -19.3412,24.6794 z"
       id="path4032"
       inkscape:connector-curvature="0"
       sodipodi:nodetypes="cccccccccccc" />
    <path
       style="fill:#ffffff;stroke:none;stroke-width:1px;stroke-linecap:butt;stroke-linejoin:miter;stroke-opacity:1;color:#000000;fill-opacity:1;fill-rule:nonzero;marker:none;visibility:visible;display:inline;overflow:visible;enable-background:accumulate"
       d="m 514.05488,2345.9965 c 21.44462,-27.8354 202.46112,-58.0491 266.0819,-0.6861 63.62077,57.363 25.03112,126.1986 -11.4726,148.1008 -36.50373,21.9023 -143.92898,45.8904 -192.94827,27.1171 -49.01929,-18.7734 -87.20225,-46.8359 -89.69487,-104.2964 -1.01734,-23.4519 6.58922,-42.3999 28.03384,-70.2354 z"
       id="path4040"
       inkscape:connector-curvature="0"
       sodipodi:nodetypes="zssssz" />
    <path
       style="color:#000000;fill:#ffffff;fill-opacity:1;fill-rule:nonzero;stroke:none;stroke-width:1px;marker:none;visibility:visible;display:inline;overflow:visible;enable-background:accumulate"
       d="m 844.38604,2487.4707 c -46.71679,38.0588 -143.61096,79.6886 -134.17151,-10.1374 8.50339,-80.9185 -28.62326,-41.7422 -28.62326,-41.7422 l -16.6969,47.7054 c 0,0 42.33857,151.4647 179.49167,4.1742 z"
       id="path4048"
       inkscape:connector-curvature="0"
       sodipodi:nodetypes="csccc" />
    <path
       style="color:#000000;fill:#ffffff;fill-opacity:1;fill-rule:nonzero;stroke:none;stroke-width:1px;marker:none;visibility:visible;display:inline;overflow:visible;enable-background:accumulate"
       d="m 1710.5025,2645.636 c -36.5349,-36.5756 -57.0302,-81.4639 -45.446,-115.5458 11.5844,-34.082 34.7529,-111.3896 97.1297,-114.7147 62.3767,-3.325 378.7161,-37.4069 415.2511,24.1068 36.535,61.5136 62.3768,157.1091 33.8617,180.3846 -28.5151,23.2753 -81.0898,53.2009 -122.9713,53.2009 -41.8816,0 -96.2385,11.6377 -116.7338,8.3127 -20.4952,-3.3251 -70.3967,-10.8064 -76.6343,-10.8064 -6.2377,0 -101.5851,0 -111.3872,-2.4939 -9.802,-2.4938 -54.3569,7.4814 -73.0699,-22.4442 z"
       id="path4056"
       inkscape:connector-curvature="0" />
    <path
       style="fill:#ffffff;stroke:none;stroke-width:1px;stroke-linecap:butt;stroke-linejoin:miter;stroke-opacity:1;color:#000000;fill-opacity:1;fill-rule:nonzero;marker:none;visibility:visible;display:inline;overflow:visible;enable-background:accumulate"
       d="m 1690.508,2601.5167 c -30.8355,22.6731 -69.8333,55.3224 -105.2033,-7.2554 2.7207,2.7208 22.6731,97.9479 121.5279,44.4393 98.8548,-53.5086 105.2033,-71.6471 105.2033,-71.6471 z"
       id="path4064"
       inkscape:connector-curvature="0"
       sodipodi:nodetypes="ccscc" />
  </g>
  <g
     inkscape:groupmode="layer"
     id="layer1"
     inkscape:label="txt">
    <flowRoot
       xml:space="preserve"
       id="flowRoot2987"
       style="font-style:normal;font-variant:normal;font-weight:normal;font-stretch:normal;font-size:12px;line-height:125%;font-family:Lavi;-inkscape-font-specification:Lavi;letter-spacing:0px;word-spacing:0px;fill:#000000;fill-opacity:1;stroke:none"
       transform="matrix(0.97226124,0,0,0.98626652,-390.49722,-122.27941)"><flowRegion
         id="flowRegion2989"><rect
           id="rect2991"
           width="1228.9047"
           height="338.34705"
           x="120.55251"
           y="265.53046"
           style="font-style:normal;font-variant:normal;font-weight:normal;font-stretch:normal;font-family:Lavi;-inkscape-font-specification:Lavi" /></flowRegion><flowPara
         id="flowPara2995"
         style="font-style:normal;font-variant:normal;font-weight:normal;font-stretch:normal;font-size:71.48409271px;line-height:89.99999762%;font-family:Midan;-inkscape-font-specification:Midan;text-align:center;text-anchor:middle">اوووو، جَـزر!</flowPara><flowPara
         style="font-style:normal;font-variant:normal;font-weight:normal;font-stretch:normal;font-size:71.48409271px;line-height:89.99999762%;font-family:Midan;-inkscape-font-specification:Midan;text-align:center;text-anchor:middle"
         id="flowPara3757">أيها القطُ اللطيف،</flowPara><flowPara
         style="font-style:normal;font-variant:normal;font-weight:normal;font-stretch:normal;font-size:71.48409271px;line-height:89.99999762%;font-family:Midan;-inkscape-font-specification:Midan;text-align:center;text-anchor:middle"
         id="flowPara3759">لقد جئتَ بنفسك</flowPara><flowPara
         style="font-style:normal;font-variant:normal;font-weight:normal;font-stretch:normal;font-size:71.48409271px;line-height:89.99999762%;font-family:Midan;-inkscape-font-specification:Midan;text-align:center;text-anchor:middle"
         id="flowPara3761" /></flowRoot>    <flowRoot
       xml:space="preserve"
       id="flowRoot2987-4"
       style="font-style:normal;font-variant:normal;font-weight:normal;font-stretch:normal;font-size:12px;line-height:125%;font-family:Lavi;-inkscape-font-specification:Lavi;letter-spacing:0px;word-spacing:0px;fill:#000000;fill-opacity:1;stroke:none"
       transform="matrix(0.97226124,0,0,0.98626652,569.64689,-140.83612)"><flowRegion
         id="flowRegion2989-4"><rect
           id="rect2991-6"
           width="1228.9047"
           height="338.34705"
           x="120.55251"
           y="265.53046"
           style="font-style:normal;font-variant:normal;font-weight:normal;font-stretch:normal;font-family:Lavi;-inkscape-font-specification:Lavi" /></flowRegion><flowPara
         style="font-style:normal;font-variant:normal;font-weight:normal;font-stretch:normal;font-size:71.48409271px;line-height:89.99999762%;font-family:Midan;-inkscape-font-specification:Midan;text-align:center;text-anchor:middle"
         id="flowPara3761-5">تماماً في تلكَ اللحظةِ</flowPara><flowPara
         style="font-style:normal;font-variant:normal;font-weight:normal;font-stretch:normal;font-size:71.48409271px;line-height:89.99999762%;font-family:Midan;-inkscape-font-specification:Midan;text-align:center;text-anchor:middle"
         id="flowPara3740"> التي كنتُ احتاجُ فيها</flowPara><flowPara
         style="font-style:normal;font-variant:normal;font-weight:normal;font-stretch:normal;font-size:71.48409271px;line-height:89.99999762%;font-family:Midan;-inkscape-font-specification:Midan;text-align:center;text-anchor:middle"
         id="flowPara3810">لمساعدي المُفضل</flowPara></flowRoot>    <flowRoot
       xml:space="preserve"
       id="flowRoot2987-0"
       style="font-style:normal;font-variant:normal;font-weight:normal;font-stretch:normal;font-size:12px;line-height:125%;font-family:Lavi;-inkscape-font-specification:Lavi;letter-spacing:0px;word-spacing:0px;fill:#000000;fill-opacity:1;stroke:none"
       transform="matrix(0.97226124,0,0,0.98626652,-105.05583,583.66739)"><flowRegion
         id="flowRegion2989-5"><rect
           id="rect2991-3"
           width="1228.9047"
           height="338.34705"
           x="120.55251"
           y="265.53046"
           style="font-style:normal;font-variant:normal;font-weight:normal;font-stretch:normal;font-family:Lavi;-inkscape-font-specification:Lavi" /></flowRegion><flowPara
         style="font-style:normal;font-variant:normal;font-weight:normal;font-stretch:normal;font-size:71.48409271px;line-height:89.99999762%;font-family:Midan;-inkscape-font-specification:Midan;text-align:center;text-anchor:middle;"
         id="flowPara3761-54">ها هُنا، أُقدِمُ لكَ أخرَ</flowPara><flowPara
         style="font-style:normal;font-variant:normal;font-weight:normal;font-stretch:normal;font-size:71.48409271px;line-height:89.99999762%;font-family:Midan;-inkscape-font-specification:Midan;text-align:center;text-anchor:middle;"
         id="flowPara3749">أختارعٍ لي!</flowPara><flowPara
         style="font-style:normal;font-variant:normal;font-weight:normal;font-stretch:normal;font-size:71.48409271px;line-height:89.99999762%;font-family:Midan;-inkscape-font-specification:Midan;text-align:center;text-anchor:middle;"
         id="flowPara3859">تحفتي المُميزة!</flowPara></flowRoot>    <flowRoot
       xml:space="preserve"
       id="flowRoot2987-0-8"
       style="font-style:normal;font-variant:normal;font-weight:normal;font-stretch:normal;font-size:12px;line-height:125%;font-family:Lavi;-inkscape-font-specification:Lavi;letter-spacing:0px;word-spacing:0px;fill:#000000;fill-opacity:1;stroke:none"
       transform="matrix(1.4223517,0,0,1.37337,1045.9176,1435.7713)"><flowRegion
         id="flowRegion2989-5-3"><rect
           id="rect2991-3-9"
           width="1228.9047"
           height="338.34705"
           x="120.55251"
           y="265.53046"
           style="font-style:normal;font-variant:normal;font-weight:normal;font-stretch:normal;font-family:Lavi;-inkscape-font-specification:Lavi" /></flowRegion><flowPara
         style="font-style:normal;font-variant:normal;font-weight:900;font-stretch:normal;font-size:71.54885864px;font-family:Midan;-inkscape-font-specification:'Midan Heavy';text-align:center;text-anchor:middle"
         id="flowPara3899">جُرعةُ العبقرية!</flowPara></flowRoot>    <flowRoot
       xml:space="preserve"
       id="flowRoot2987-0-8-0"
       style="font-style:normal;font-variant:normal;font-weight:normal;font-stretch:normal;font-size:12px;line-height:125%;font-family:Lavi;-inkscape-font-specification:Lavi;letter-spacing:0px;word-spacing:0px;fill:#000000;fill-opacity:1;stroke:none"
       transform="matrix(0.99729969,0,0,0.93985282,-85.124577,2113.0806)"><flowRegion
         id="flowRegion2989-5-3-2"><rect
           id="rect2991-3-9-7"
           width="1228.9047"
           height="338.34705"
           x="120.55251"
           y="265.53046"
           style="font-style:normal;font-variant:normal;font-weight:normal;font-stretch:normal;font-family:Lavi;-inkscape-font-specification:Lavi" /></flowRegion><flowPara
         style="font-style:normal;font-variant:normal;font-weight:normal;font-stretch:normal;font-size:72.30282593px;line-height:112.99999952%;font-family:Midan;-inkscape-font-specification:Midan;text-align:center;text-anchor:middle"
         id="flowPara3933">خذ رشفةً</flowPara><flowPara
         style="font-style:normal;font-variant:normal;font-weight:normal;font-stretch:normal;font-size:72.30282593px;line-height:112.99999952%;font-family:Midan;-inkscape-font-specification:Midan;text-align:center;text-anchor:middle"
         id="flowPara3764">رجاءً</flowPara></flowRoot>    <flowRoot
       xml:space="preserve"
       id="flowRoot2987-0-8-0-9"
       style="font-style:normal;font-variant:normal;font-weight:normal;font-stretch:normal;font-size:12px;line-height:125%;font-family:Lavi;-inkscape-font-specification:Lavi;letter-spacing:0px;word-spacing:0px;fill:#000000;fill-opacity:1;stroke:none"
       transform="matrix(0.99729969,0,0,0.93985282,1216.7094,2230.8903)"><flowRegion
         id="flowRegion2989-5-3-2-1"><rect
           id="rect2991-3-9-7-5"
           width="1228.9047"
           height="338.34705"
           x="120.55251"
           y="265.53046"
           style="font-style:normal;font-variant:normal;font-weight:normal;font-stretch:normal;font-family:Lavi;-inkscape-font-specification:Lavi" /></flowRegion><flowPara
         style="font-style:normal;font-variant:normal;font-weight:normal;font-stretch:normal;font-size:72.30282593px;line-height:89.99999762%;font-family:Midan;-inkscape-font-specification:Midan;text-align:center;text-anchor:middle"
         id="flowPara3933-7">لو نَجَحت،</flowPara><flowPara
         style="font-style:normal;font-variant:normal;font-weight:normal;font-stretch:normal;font-size:72.30282593px;line-height:89.99999762%;font-family:Midan;-inkscape-font-specification:Midan;text-align:center;text-anchor:middle"
         id="flowPara3760">لابدَ من أن تأتيكَ موجةٌ </flowPara><flowPara
         style="font-style:normal;font-variant:normal;font-weight:normal;font-stretch:normal;font-size:72.30282593px;line-height:89.99999762%;font-family:Midan;-inkscape-font-specification:Midan;text-align:center;text-anchor:middle"
         id="flowPara3768">من العبقرية</flowPara></flowRoot>  </g>
</svg>
