<?xml version="1.0" encoding="UTF-8" standalone="no"?>
<!-- Created with Inkscape (http://www.inkscape.org/) -->

<svg
   xmlns:dc="http://purl.org/dc/elements/1.1/"
   xmlns:cc="http://creativecommons.org/ns#"
   xmlns:rdf="http://www.w3.org/1999/02/22-rdf-syntax-ns#"
   xmlns:svg="http://www.w3.org/2000/svg"
   xmlns="http://www.w3.org/2000/svg"
   xmlns:xlink="http://www.w3.org/1999/xlink"
   xmlns:sodipodi="http://sodipodi.sourceforge.net/DTD/sodipodi-0.dtd"
   xmlns:inkscape="http://www.inkscape.org/namespaces/inkscape"
   id="svg2"
   version="1.1"
   inkscape:version="0.91 r13725"
   width="2481"
   height="3503"
   sodipodi:docname="Pepper-and-Carrot_by-David-Revoy_E04P01.svg">
  <metadata
     id="metadata8">
    <rdf:RDF>
      <cc:Work
         rdf:about="">
        <dc:format>image/svg+xml</dc:format>
        <dc:type
           rdf:resource="http://purl.org/dc/dcmitype/StillImage" />
        <dc:title />
      </cc:Work>
    </rdf:RDF>
  </metadata>
  <defs
     id="defs6" />
  <sodipodi:namedview
     pagecolor="#ffffff"
     bordercolor="#666666"
     borderopacity="1"
     objecttolerance="10"
     gridtolerance="10"
     guidetolerance="10"
     inkscape:pageopacity="0"
     inkscape:pageshadow="2"
     inkscape:window-width="1366"
     inkscape:window-height="705"
     id="namedview4"
     showgrid="false"
     inkscape:zoom="0.47669614"
     inkscape:cx="1249.5875"
     inkscape:cy="184.9555"
     inkscape:window-x="-8"
     inkscape:window-y="-8"
     inkscape:window-maximized="1"
     inkscape:current-layer="layer1" />
  <g
     inkscape:groupmode="layer"
     id="layer2"
     inkscape:label="artwork"
     sodipodi:insensitive="true">
    <image
       sodipodi:absref="C:\Users\Mahwiii\Desktop\Manga\translations\pepper carrot\peppercarrot_ep04_translation-master\ar\..\gfx_Pepper-and-Carrot_by-David-Revoy_E04P01.png"
       xlink:href="../gfx_Pepper-and-Carrot_by-David-Revoy_E04P01.png"
       y="0"
       x="0"
       id="image10"
       height="3503"
       width="2481" />
  </g>
  <g
     inkscape:groupmode="layer"
     id="layer3"
     inkscape:label="speechbubbles">
    <path
       style="fill:#ffffff;stroke:none;stroke-width:1px;stroke-linecap:butt;stroke-linejoin:miter;stroke-opacity:1"
       d="m 479.75968,2399.6429 c -4.95992,-44.6393 -9.91984,-135.7215 0,-155.5612 6.31263,0 16.68338,-0.4509 16.68338,-0.4509 l -9.91985,-24.3487 18.03608,5.8618 9.01804,-8.1163 -5.86173,-13.527 16.23247,6.3126 8.11624,-13.0762 13.52706,9.469 6.76353,-13.5271 14.87976,10.8217 27.50502,-5.8618 c 67.49435,-2.3892 134.23399,-6.0363 205.16039,-2.7054 l 21.6433,-8.5671 6.31262,12.6252 11.27255,0.4509 10.82165,-5.4108 10.82165,5.8617 36.07215,-4.0581 11.72345,11.7235 13.97797,-9.9199 4.50901,13.0762 13.97797,-8.1162 2.25451,8.5671 33.36674,-9.9199 -4.95992,20.2906 c 0,0 24.79961,9.0181 42.38478,2.2545 1.8036,4.5091 -0.9018,12.6253 -0.9018,12.6253 l 9.018,4.509 0,11.7235 c 0,0 18.0361,15.3306 19.8397,19.3888 1.8036,4.0581 5.8617,114.98 -0.4509,132.5651 4.9599,0 8.1163,2.7054 7.6654,5.4109 -0.4509,2.7054 -4.0582,10.3707 -4.0582,10.3707 0,0 4.96,7.2144 3.6073,9.4689 -1.3528,2.2546 -4.0582,5.4109 -4.0582,5.4109 0,0 4.5091,5.8617 3.1563,7.6653 -1.3527,1.8036 -9.018,4.9599 -12.1743,6.7635 3.6072,3.6072 6.7635,11.2726 4.0581,13.0762 -2.7054,1.8036 -9.018,3.1563 -9.018,3.1563 l -2.2545,4.509 c 0,0 -0.9018,9.0181 -3.1563,9.469 -2.2546,0.4509 -11.7235,-4.5091 -13.0762,-3.6073 -1.3527,0.9018 -4.9599,8.1163 -7.2144,8.1163 -2.2545,0 -9.46898,-8.5672 -9.46898,-8.5672 -0.96362,1.9272 -120.04069,5.1615 -129.85976,3.1564 -9.87862,-2.0173 -48.69741,2.7054 -54.10824,2.7054 -5.41082,0 -27.95592,-1.3527 -31.11223,-2.2545 -3.15632,-0.9018 -15.78157,-4.0582 -20.29059,-3.6073 -4.50902,0.4509 -13.07616,4.96 -18.03608,4.96 -4.95992,0 -33.36674,-2.7054 -38.77757,-2.2545 -5.41082,0.4509 -30.21043,2.2545 -34.26854,2.2545 -4.05812,0 -49.59922,-4.96 -54.55914,-5.4109 -4.95992,-0.4509 -26.60322,4.5091 -30.66133,4.0582 -4.05812,-0.4509 -27.05412,-4.5091 -34.26855,-4.0582 -7.21443,0.4509 -34.26855,-5.8617 -36.07216,-5.4108 -1.80361,0.4509 -4.52726,0.9008 -21.19239,0 8.56714,-6.7635 5.86172,-12.6252 5.86172,-12.6252 l -6.31262,-3.6073 0.9018,-4.0581 -13.07616,-6.7635 1.80361,-4.9599 0.9018,-8.1163 -13.07615,-6.3126 20.74149,-18.0361 z"
       id="path3894"
       inkscape:connector-curvature="0"
       sodipodi:nodetypes="cccccccccccccccccccccccccccccccscscccccsccssscssssssssssscccccccccc" />
    <path
       style="fill:#ffffff;stroke:none;stroke-width:1px;stroke-linecap:butt;stroke-linejoin:miter;stroke-opacity:1;color:#000000;fill-opacity:1;fill-rule:nonzero;marker:none;visibility:visible;display:inline;overflow:visible;enable-background:accumulate"
       d="m 818.04625,2447.3394 c 1.81385,78.9025 3.6277,268.4498 28.11468,311.9822 24.48697,43.5324 33.55622,70.7401 98.85481,79.8094 -68.92629,-32.6493 -89.78557,-105.2033 -96.13404,-230.3589 -6.34847,-125.1557 43.5324,-212.2205 43.5324,-212.2205 l -68.01937,-3.6277 z"
       id="path3896"
       inkscape:connector-curvature="0" />
    <path
       style="color:#000000;display:inline;overflow:visible;visibility:visible;fill:#ffffff;fill-opacity:1;fill-rule:nonzero;stroke:none;stroke-width:1px;marker:none;enable-background:accumulate"
       d="m 690.29227,2529.7062 c 11.18796,-4.2148 11.18796,-12.6445 6.52631,-23.4157 3.26316,-0.4683 14.45111,2.3416 12.58645,-5.1515 2.797,-0.9366 6.52631,-0.9366 4.19549,-7.0248 3.26316,-0.4683 12.58645,1.8733 10.25564,-4.2148 6.06013,-1.4049 62.93226,-3.2782 83.44352,-0.9366 20.51126,2.3416 75.51872,0.4683 81.11271,0 5.59397,-0.4683 48.48115,0 52.21047,0 3.72932,0 18.64659,5.1514 23.30824,7.9613 6.99248,-3.7465 15.84962,-2.3415 15.84962,-2.3415 0,0 0,15.9227 1.3985,17.3276 1.39848,1.405 8.39096,-2.3415 9.78946,0 1.39849,2.3416 -9.78946,16.3911 -8.39098,16.8594 1.3985,0.4683 12.58645,5.6198 12.58645,7.493 0,1.8733 -8.85712,10.7712 -8.39096,11.2395 0.46616,0.4683 7.45864,6.5565 6.52631,11.708 8.391,1.8732 12.5865,6.5563 14.9173,9.8345 -3.7293,6.0882 -12.58647,11.708 -14.45113,14.9861 2.33082,5.6198 8.39103,13.1129 6.99243,15.4545 -1.3985,2.3415 -7.92477,1.8732 -12.58641,-0.9367 1.86465,7.0247 1.39849,63.2225 -6.99247,83.8284 2.33082,4.6831 6.5263,7.9613 7.45863,12.6445 0.93233,4.6832 -1.86466,12.1762 -1.3985,14.5177 0.46617,2.3416 4.19549,10.303 3.72933,14.0495 -0.46618,3.7465 -2.33083,7.493 -5.12781,9.8346 -0.46618,3.7465 1.86465,6.5565 -0.46618,7.4931 -2.33082,0.9366 -11.65412,-4.2149 -13.98495,-3.2783 -2.33082,0.9366 -0.46616,13.5812 -2.79699,15.9227 -2.33082,2.3416 -52.67664,8.4297 -63.8646,3.2782 -11.65411,-0.9366 -97.89464,19.201 -133.78934,11.2397 -4.19548,-0.9367 -3.26315,-4.2149 -6.5263,-5.1516 -3.26316,-0.9366 -5.12783,2.3417 -12.1203,1.405 -6.06014,-4.6832 -13.98494,-5.1515 -26.5714,-27.6306 -4.19548,0 -11.18795,2.3415 -12.12029,-1.405 -0.93233,-3.7465 0.46616,-6.5563 0.46616,-6.5563 0,0 -4.66165,1.4049 -5.12781,-1.405 -0.46616,-2.8099 6.06015,-10.3029 5.59399,-11.7078 -0.46618,-1.405 -13.51879,2.8099 -13.98495,-0.4684 -0.46617,-3.2782 5.12781,-11.2395 4.66165,-13.5811 -0.46618,-2.3416 -23.30826,-38.4019 -15.84962,-147.9875 3.72933,-1.4049 7.45864,-2.8099 6.99248,-4.6831 -0.46616,-1.8734 -6.06015,-5.6199 -6.06015,-5.6199 z"
       id="path3915"
       inkscape:connector-curvature="0" />
    <path
       style="color:#000000;fill:#ffffff;fill-opacity:1;fill-rule:nonzero;stroke:none;stroke-width:1px;marker:none;visibility:visible;display:inline;overflow:visible;enable-background:accumulate"
       d="m 2161.9635,2759.6873 c 75.5442,-65.8317 129.3057,-115.4309 140.8923,-189.8298 11.5865,-74.3988 -1.8538,-91.5331 -5.5615,-100.5511 -12.977,1.8036 -33.8327,13.978 -38.0039,19.3888 1.8539,-19.8397 -11.5865,-82.5151 -31.9788,-107.3147 -20.3923,-24.7996 -39.3943,-7.6653 -39.3943,-7.6653 0,0 61.177,94.6894 55.1519,157.8157 12.0501,-12.6253 34.7597,-36.974 40.3212,-32.465 5.5615,4.5091 8.3423,64.9299 -3.7077,92.4349 -12.05,27.5051 -38.9308,101.9039 -117.7192,168.1865 z"
       id="path3923"
       inkscape:connector-curvature="0" />
    <path
       style="fill:#ffffff;stroke:none;stroke-width:1px;stroke-linecap:butt;stroke-linejoin:miter;stroke-opacity:1;color:#000000;fill-opacity:1;fill-rule:nonzero;marker:none;visibility:visible;display:inline;overflow:visible;enable-background:accumulate"
       d="m 1846.2,2353.2992 c 0,0 37.5681,7.7521 43.5312,11.9264 5.9632,4.1742 29.8159,-2.9816 -3.5779,44.7238 33.9901,-15.5043 60.8244,-32.2012 73.3471,-30.4122 -5.3668,11.9263 -11.33,27.4306 -11.33,27.4306 0,0 31.0085,-12.5227 36.9717,-11.9263 -1.789,5.3668 2.3853,16.1005 2.3853,16.1005 l 16.1005,-2.3852 4.7706,14.3116 c 0,0 64.4023,-25.0454 72.1544,-22.0638 7.7522,2.9816 -3.5779,34.5865 -3.5779,34.5865 l 17.2933,-12.5227 8.3484,0.5963 20.2748,-20.2748 6.5595,11.33 4.7705,-4.1742 9.5411,4.7706 22.6601,-17.2933 7.7521,1.789 19.6785,27.4306 10.7338,-12.5227 5.3668,-0.5963 35.1828,1.1927 2.3852,-2.9816 5.9632,-1.1927 8.3485,-5.9631 4.7705,-13.7154 10.1374,0 20.2748,12.5227 9.5411,8.3485 7.1558,-20.2748 4.1742,-2.3853 1.1927,-12.5227 23.2564,9.5411 7.1558,5.9632 1.7889,-10.7337 7.7522,-0.5964 14.3116,4.1743 15.5043,11.33 23.2564,12.5227 -35.1828,-45.9165 -8.3484,-8.3484 30.4122,-8.3485 0,-95.4108 -11.9264,-131.19 -519.3928,6.5595 -13.119,86.4661 0.5963,76.925 -2.9816,25.6417 26.238,8.9448 -25.6417,13.7153 16.1006,9.541 z"
       id="path3931"
       inkscape:connector-curvature="0" />
  </g>
  <g
     inkscape:groupmode="layer"
     id="layer1"
     inkscape:label="txt">
    <flowRoot
       xml:space="preserve"
       id="flowRoot2987"
       style="font-style:normal;font-variant:normal;font-weight:normal;font-stretch:normal;font-size:12px;line-height:125%;font-family:Lavi;-inkscape-font-specification:Lavi;letter-spacing:0px;word-spacing:0px;fill:#000000;fill-opacity:1;stroke:none"
       transform="translate(1258.9135,-139.20814)"><flowRegion
         id="flowRegion2989"><rect
           id="rect2991"
           width="973.52362"
           height="213.03587"
           x="120.55251"
           y="265.53046"
           style="font-style:normal;font-variant:normal;font-weight:normal;font-stretch:normal;font-family:Lavi;-inkscape-font-specification:Lavi" /></flowRegion><flowPara
         id="flowPara2993"
         style="font-style:normal;font-variant:normal;font-weight:normal;font-stretch:normal;font-size:70px;font-family:Midan;-inkscape-font-specification:Midan;fill:#ffffff">ليلةُ ما قبلَ تحدي الجرعات</flowPara><flowPara
         id="flowPara2995"
         style="font-style:normal;font-variant:normal;font-weight:normal;font-stretch:normal;font-size:70px;font-family:Midan;-inkscape-font-specification:Midan;fill:#ffffff">          ٢:٠٠ صباحاً</flowPara></flowRoot>    <flowRoot
       xml:space="preserve"
       id="flowRoot2987-4"
       style="font-style:normal;font-variant:normal;font-weight:normal;font-stretch:normal;font-size:12px;line-height:125%;font-family:Lavi;-inkscape-font-specification:Lavi;text-align:center;letter-spacing:0px;word-spacing:0px;text-anchor:middle;fill:#000000;fill-opacity:1;stroke:none"
       transform="translate(343.11241,1947.0059)"><flowRegion
         id="flowRegion2989-5"><rect
           id="rect2991-7"
           width="602.40173"
           height="310.73996"
           x="120.55251"
           y="265.53046"
           style="font-style:normal;font-variant:normal;font-weight:normal;font-stretch:normal;font-family:Lavi;-inkscape-font-specification:Lavi;text-align:center;text-anchor:middle" /></flowRegion><flowPara
         style="font-style:normal;font-variant:normal;font-weight:normal;font-stretch:normal;font-size:70px;line-height:89.99999762%;font-family:Midan;-inkscape-font-specification:Midan;text-align:center;text-anchor:middle"
         id="flowPara3033">و أخيراً...</flowPara><flowPara
         style="font-style:normal;font-variant:normal;font-weight:normal;font-stretch:normal;font-size:70px;line-height:89.99999762%;font-family:Midan;-inkscape-font-specification:Midan;text-align:center;text-anchor:middle"
         id="flowPara3798">مع هذهِ الجُرعة، لا أَحد يستطيع الوصول الى مُستوى قُدراتي! و لا حتى زعفرانة!</flowPara></flowRoot>    <flowRoot
       xml:space="preserve"
       id="flowRoot2987-4-8"
       style="font-style:normal;font-variant:normal;font-weight:normal;font-stretch:normal;font-size:12px;line-height:125%;font-family:Lavi;-inkscape-font-specification:Lavi;text-align:center;letter-spacing:0px;word-spacing:0px;text-anchor:middle;fill:#000000;fill-opacity:1;stroke:none"
       transform="matrix(0.96141471,0,0,0.91963896,442.42648,2251.3449)"><flowRegion
         id="flowRegion2989-5-9"><rect
           id="rect2991-7-4"
           width="602.40173"
           height="310.73996"
           x="120.55251"
           y="265.53046"
           style="font-style:normal;font-variant:normal;font-weight:normal;font-stretch:normal;font-family:Lavi;-inkscape-font-specification:Lavi;text-align:center;text-anchor:middle" /></flowRegion><flowPara
         style="font-style:normal;font-variant:normal;font-weight:normal;font-stretch:normal;font-size:74.44473267px;line-height:89.99999762%;font-family:Midan;-inkscape-font-specification:Midan;text-align:center;text-anchor:middle;"
         id="flowPara3849">و لكن</flowPara><flowPara
         style="font-style:normal;font-variant:normal;font-weight:normal;font-stretch:normal;font-size:74.44473267px;line-height:89.99999762%;font-family:Midan;-inkscape-font-specification:Midan;text-align:center;text-anchor:middle;"
         id="flowPara3400"> لابُدَ لي من </flowPara><flowPara
         style="font-style:normal;font-variant:normal;font-weight:normal;font-stretch:normal;font-size:74.44473267px;line-height:89.99999762%;font-family:Midan;-inkscape-font-specification:Midan;text-align:center;text-anchor:middle;"
         id="flowPara3388">تجربتهِ على</flowPara><flowPara
         style="font-style:normal;font-variant:normal;font-weight:normal;font-stretch:normal;font-size:74.44473267px;line-height:89.99999762%;font-family:Midan;-inkscape-font-specification:Midan;text-align:center;text-anchor:middle;"
         id="flowPara3392">أحدٍ ما اولاً...</flowPara></flowRoot>    <flowRoot
       xml:space="preserve"
       id="flowRoot2987-4-8-2"
       style="font-style:normal;font-variant:normal;font-weight:normal;font-stretch:normal;font-size:12px;line-height:125%;font-family:Lavi;-inkscape-font-specification:Lavi;text-align:center;letter-spacing:0px;word-spacing:0px;text-anchor:middle;fill:#000000;fill-opacity:1;stroke:none"
       transform="matrix(1.4179226,0,0,1.4152108,1527.4333,1787.8167)"><flowRegion
         id="flowRegion2989-5-9-2"><rect
           id="rect2991-7-4-2"
           width="602.40173"
           height="310.73996"
           x="120.55251"
           y="265.53046"
           style="font-style:normal;font-variant:normal;font-weight:normal;font-stretch:normal;font-family:Lavi;-inkscape-font-specification:Lavi;text-align:center;text-anchor:middle" /></flowRegion><flowPara
         style="font-size:48px;text-align:center;text-anchor:middle"
         id="flowPara3798-1-6" /><flowPara
         style="font-style:normal;font-variant:normal;font-weight:900;font-stretch:normal;font-size:70.59324646px;line-height:100%;font-family:Midan;-inkscape-font-specification:'Midan Heavy';text-align:center;text-anchor:middle"
         id="flowPara3396">جَـــــــــــــزر!!!!!!</flowPara></flowRoot>  </g>
</svg>
