<?xml version="1.0" encoding="UTF-8" standalone="no"?>
<!-- Created with Inkscape (http://www.inkscape.org/) -->

<svg
   xmlns:dc="http://purl.org/dc/elements/1.1/"
   xmlns:cc="http://creativecommons.org/ns#"
   xmlns:rdf="http://www.w3.org/1999/02/22-rdf-syntax-ns#"
   xmlns:svg="http://www.w3.org/2000/svg"
   xmlns="http://www.w3.org/2000/svg"
   xmlns:xlink="http://www.w3.org/1999/xlink"
   xmlns:sodipodi="http://sodipodi.sourceforge.net/DTD/sodipodi-0.dtd"
   xmlns:inkscape="http://www.inkscape.org/namespaces/inkscape"
   id="svg2"
   version="1.1"
   inkscape:version="0.91 r13725"
   width="2481"
   height="3503"
   sodipodi:docname="Pepper-and-Carrot_by-David-Revoy_E04P01.svg">
  <metadata
     id="metadata8">
    <rdf:RDF>
      <cc:Work
         rdf:about="">
        <dc:format>image/svg+xml</dc:format>
        <dc:type
           rdf:resource="http://purl.org/dc/dcmitype/StillImage" />
        <dc:title />
      </cc:Work>
    </rdf:RDF>
  </metadata>
  <defs
     id="defs6" />
  <sodipodi:namedview
     pagecolor="#ffffff"
     bordercolor="#666666"
     borderopacity="1"
     objecttolerance="10"
     gridtolerance="10"
     guidetolerance="10"
     inkscape:pageopacity="0"
     inkscape:pageshadow="2"
     inkscape:window-width="960"
     inkscape:window-height="1024"
     id="namedview4"
     showgrid="false"
     inkscape:zoom="0.47669614"
     inkscape:cx="727.14766"
     inkscape:cy="3037.7468"
     inkscape:window-x="960"
     inkscape:window-y="30"
     inkscape:window-maximized="0"
     inkscape:current-layer="layer1" />
  <g
     inkscape:groupmode="layer"
     id="layer2"
     inkscape:label="artwork"
     sodipodi:insensitive="true">
    <image
       sodipodi:absref="/home/graphene/peppercarrot-translations/peppercarrot_ep04_translation/kr/../gfx_Pepper-and-Carrot_by-David-Revoy_E04P01.png"
       xlink:href="../gfx_Pepper-and-Carrot_by-David-Revoy_E04P01.png"
       y="0"
       x="0"
       id="image10"
       height="3503"
       width="2481" />
  </g>
  <g
     inkscape:groupmode="layer"
     id="layer3"
     inkscape:label="speechbubbles">
    <path
       style="fill:#ffffff;stroke:none;stroke-width:1px;stroke-linecap:butt;stroke-linejoin:miter;stroke-opacity:1"
       d="m 499.43772,2395.1205 c -4.61082,-41.4974 -9.22164,-126.1689 0,-144.6122 5.86832,0 15.50913,-0.4192 15.50913,-0.4192 l -9.22165,-22.6349 16.76663,5.4492 8.38331,-7.545 -5.44915,-12.5749 15.08996,5.8683 7.54498,-12.1559 12.57497,8.8026 6.28749,-12.575 13.83246,10.06 25.5691,-5.4492 c 62.74382,-2.2211 124.78605,-5.6115 190.72035,-2.515 l 20.11996,-7.9641 5.86831,11.7365 10.47914,0.4192 10.05998,-5.03 10.05998,5.4492 33.53324,-3.7725 10.89831,10.8984 12.99414,-9.2217 4.19165,12.1558 12.99414,-7.5449 2.09583,7.9641 31.01825,-9.2217 -4.61082,18.8624 c 0,0 23.05411,8.3834 39.40156,2.0958 1.67666,4.1918 -0.83833,11.7367 -0.83833,11.7367 l 8.38326,4.1917 0,10.8983 c 0,0 16.7667,14.2516 18.4433,18.0242 1.6767,3.7724 5.4491,106.8872 -0.4191,123.2346 4.6108,0 7.545,2.515 7.1258,5.03 -0.4191,2.515 -3.7725,9.6408 -3.7725,9.6408 0,0 4.6109,6.7066 3.3534,8.8024 -1.2576,2.096 -3.7726,5.0301 -3.7726,5.0301 0,0 4.1917,5.4491 2.9341,7.1258 -1.2574,1.6766 -8.3832,4.6108 -11.3174,6.2874 3.3533,3.3534 6.2875,10.4792 3.7725,12.1559 -2.515,1.6766 -8.3833,2.9341 -8.3833,2.9341 l -2.0958,4.1917 c 0,0 -0.8383,8.3833 -2.9341,8.8025 -2.096,0.4192 -10.89839,-4.1917 -12.15588,-3.3534 -1.2575,0.8383 -4.61081,7.545 -6.70662,7.545 -2.09582,0 -8.80252,-7.9642 -8.80252,-7.9642 -0.8958,1.7916 -111.59173,4.7982 -120.71969,2.9343 -9.18332,-1.8753 -45.26989,2.515 -50.29988,2.515 -5.02998,0 -25.98827,-1.2575 -28.92242,-2.0959 -2.93417,-0.8383 -14.6708,-3.7725 -18.86246,-3.3534 -4.19165,0.4192 -12.1558,4.6109 -16.76662,4.6109 -4.61082,0 -31.01825,-2.515 -36.04825,-2.0958 -5.02998,0.4192 -28.08409,2.0958 -31.85658,2.0958 -3.77249,0 -46.10822,-4.6109 -50.71904,-5.03 -4.61082,-0.4192 -24.73077,4.1917 -28.50326,3.7725 -3.77249,-0.4191 -25.14994,-4.1917 -31.85659,-3.7725 -6.70664,0.4191 -31.85658,-5.4492 -33.53325,-5.03 -1.67666,0.4192 -4.20861,0.8374 -19.70078,0 7.96415,-6.2875 5.44915,-11.7366 5.44915,-11.7366 l -5.86831,-3.3534 0.83832,-3.7725 -12.1558,-6.2874 1.67666,-4.6108 0.83833,-7.5451 -12.1558,-5.8683 19.28162,-16.7666 z"
       id="path3894"
       inkscape:connector-curvature="0"
       sodipodi:nodetypes="cccccccccccccccccccccccccccccccscscccccsccssscssssssssssscccccccccc" />
    <path
       style="fill:#ffffff;stroke:none;stroke-width:1px;stroke-linecap:butt;stroke-linejoin:miter;stroke-opacity:1;color:#000000;fill-opacity:1;fill-rule:nonzero;marker:none;visibility:visible;display:inline;overflow:visible;enable-background:accumulate"
       d="m 818.04625,2447.3394 c 1.81385,78.9025 3.6277,268.4498 28.11468,311.9822 24.48697,43.5324 33.55622,70.7401 98.85481,79.8094 -68.92629,-32.6493 -89.78557,-105.2033 -96.13404,-230.3589 -6.34847,-125.1557 43.5324,-212.2205 43.5324,-212.2205 l -68.01937,-3.6277 z"
       id="path3896"
       inkscape:connector-curvature="0" />
    <path
       style="color:#000000;display:inline;overflow:visible;visibility:visible;fill:#ffffff;fill-opacity:1;fill-rule:nonzero;stroke:none;stroke-width:1px;marker:none;enable-background:accumulate"
       d="m 700.70164,2523.7925 c 10.82165,-3.6193 10.82165,-10.8579 6.31263,-20.1072 3.15632,-0.4022 13.97796,2.0107 12.17435,-4.4236 2.70542,-0.8043 6.31263,-0.8043 4.05812,-6.0323 3.15632,-0.4021 12.17435,1.6086 9.91985,-3.6193 5.86172,-1.2064 60.87176,-2.815 80.71145,-0.8043 19.83968,2.0108 73.04611,0.4022 78.45694,0 5.41082,-0.4021 46.8938,0 50.50102,0 3.60721,0 18.03607,4.4236 22.54509,6.8365 6.76353,-3.2172 15.33067,-2.0107 15.33067,-2.0107 0,0 0,13.673 1.35271,14.8794 1.3527,1.2064 8.11623,-2.0107 9.46894,0 1.3527,2.0107 -9.46894,14.0751 -8.11624,14.4773 1.35271,0.4021 12.17435,4.8257 12.17435,6.4343 0,1.6085 -8.56713,9.2493 -8.11623,9.6514 0.4509,0.4021 7.21443,5.6301 6.31263,10.0537 8.11628,1.6086 12.17438,5.63 14.42888,8.445 -3.6072,5.228 -12.17437,10.0537 -13.97798,12.8687 2.25451,4.8257 8.11628,11.2601 6.76348,13.2708 -1.3527,2.0108 -7.66529,1.6086 -12.1743,-0.8042 1.8036,6.0321 1.3527,54.2895 -6.76353,71.984 2.25451,4.0214 6.31262,6.8364 7.21443,10.8579 0.9018,4.0215 -1.80361,10.4558 -1.35271,12.4665 0.4509,2.0107 4.05812,8.8472 3.60722,12.0644 -0.45091,3.2171 -2.25451,6.4343 -4.95992,8.445 -0.45091,3.2172 1.8036,5.6301 -0.45091,6.4344 -2.25451,0.8043 -11.27255,-3.6194 -13.52706,-2.8151 -2.25451,0.8043 -0.4509,11.6623 -2.70541,13.673 -2.25451,2.0107 -50.95192,7.2386 -61.77357,2.815 -11.27254,-0.8043 -94.68941,16.488 -129.40886,9.6515 -4.05811,-0.8042 -3.15631,-3.6193 -6.31262,-4.4236 -3.15632,-0.8043 -4.95993,2.0108 -11.72346,1.2065 -5.86172,-4.0215 -13.52705,-4.4237 -25.70141,-23.7267 -4.05811,0 -10.82164,2.0107 -11.72345,-1.2064 -0.9018,-3.2172 0.4509,-5.63 0.4509,-5.63 0,0 -4.50902,1.2064 -4.95992,-1.2065 -0.4509,-2.4128 5.86173,-8.8471 5.41083,-10.0535 -0.45091,-1.2066 -13.07616,2.4128 -13.52706,-0.4023 -0.4509,-2.815 4.95992,-9.6514 4.50902,-11.6622 -0.45091,-2.0107 -22.5451,-32.9759 -15.33067,-127.0779 3.60722,-1.2065 7.21443,-2.4129 6.76353,-4.0215 -0.4509,-1.6086 -5.86173,-4.8258 -5.86173,-4.8258 z"
       id="path3915"
       inkscape:connector-curvature="0" />
    <path
       style="color:#000000;fill:#ffffff;fill-opacity:1;fill-rule:nonzero;stroke:none;stroke-width:1px;marker:none;visibility:visible;display:inline;overflow:visible;enable-background:accumulate"
       d="m 2161.9635,2759.6873 c 75.5442,-65.8317 129.3057,-115.4309 140.8923,-189.8298 11.5865,-74.3988 -1.8538,-91.5331 -5.5615,-100.5511 -12.977,1.8036 -33.8327,13.978 -38.0039,19.3888 1.8539,-19.8397 -11.5865,-82.5151 -31.9788,-107.3147 -20.3923,-24.7996 -39.3943,-7.6653 -39.3943,-7.6653 0,0 61.177,94.6894 55.1519,157.8157 12.0501,-12.6253 34.7597,-36.974 40.3212,-32.465 5.5615,4.5091 8.3423,64.9299 -3.7077,92.4349 -12.05,27.5051 -38.9308,101.9039 -117.7192,168.1865 z"
       id="path3923"
       inkscape:connector-curvature="0" />
    <path
       style="fill:#ffffff;stroke:none;stroke-width:1px;stroke-linecap:butt;stroke-linejoin:miter;stroke-opacity:1;color:#000000;fill-opacity:1;fill-rule:nonzero;marker:none;visibility:visible;display:inline;overflow:visible;enable-background:accumulate"
       d="m 1846.2,2353.2992 c 0,0 37.5681,7.7521 43.5312,11.9264 5.9632,4.1742 29.8159,-2.9816 -3.5779,44.7238 33.9901,-15.5043 60.8244,-32.2012 73.3471,-30.4122 -5.3668,11.9263 -11.33,27.4306 -11.33,27.4306 0,0 31.0085,-12.5227 36.9717,-11.9263 -1.789,5.3668 2.3853,16.1005 2.3853,16.1005 l 16.1005,-2.3852 4.7706,14.3116 c 0,0 64.4023,-25.0454 72.1544,-22.0638 7.7522,2.9816 -3.5779,34.5865 -3.5779,34.5865 l 17.2933,-12.5227 8.3484,0.5963 20.2748,-20.2748 6.5595,11.33 4.7705,-4.1742 9.5411,4.7706 22.6601,-17.2933 7.7521,1.789 19.6785,27.4306 10.7338,-12.5227 5.3668,-0.5963 35.1828,1.1927 2.3852,-2.9816 5.9632,-1.1927 8.3485,-5.9631 4.7705,-13.7154 10.1374,0 20.2748,12.5227 9.5411,8.3485 7.1558,-20.2748 4.1742,-2.3853 1.1927,-12.5227 23.2564,9.5411 7.1558,5.9632 1.7889,-10.7337 7.7522,-0.5964 14.3116,4.1743 15.5043,11.33 23.2564,12.5227 -35.1828,-45.9165 -8.3484,-8.3484 30.4122,-8.3485 0,-95.4108 -11.9264,-131.19 -519.3928,6.5595 -13.119,86.4661 0.5963,76.925 -2.9816,25.6417 26.238,8.9448 -25.6417,13.7153 16.1006,9.541 z"
       id="path3931"
       inkscape:connector-curvature="0" />
  </g>
  <g
     inkscape:groupmode="layer"
     id="layer1"
     inkscape:label="txt">
    <flowRoot
       xml:space="preserve"
       id="flowRoot2987"
       style="font-style:normal;font-variant:normal;font-weight:normal;font-stretch:normal;font-size:12px;line-height:100%;font-family:Lavi;-inkscape-font-specification:Lavi;letter-spacing:0px;word-spacing:0px;fill:#000000;fill-opacity:1;stroke:none"
       transform="matrix(1.7003403,0,0,1.7003403,-31.875868,-310.68657)"><flowRegion
         id="flowRegion2989"><rect
           id="rect2991"
           width="973.52362"
           height="213.03587"
           x="120.55251"
           y="265.53046"
           style="font-style:normal;font-variant:normal;font-weight:normal;font-stretch:normal;line-height:100%;font-family:Lavi;-inkscape-font-specification:Lavi" /></flowRegion><flowPara
         id="flowPara2993"
         style="font-style:normal;font-variant:normal;font-weight:normal;font-stretch:normal;font-size:48px;line-height:100%;font-family:'Nanum Pen Script OTF';-inkscape-font-specification:'Nanum Pen Script OTF'">포션 대회 전날 밤</flowPara><flowPara
         id="flowPara2995"
         style="font-style:normal;font-variant:normal;font-weight:normal;font-stretch:normal;font-size:48px;line-height:100%;font-family:'Nanum Pen Script OTF';-inkscape-font-specification:'Nanum Pen Script OTF'">         오전 2월</flowPara></flowRoot>    <flowRoot
       xml:space="preserve"
       id="flowRoot2987-4"
       style="font-style:normal;font-variant:normal;font-weight:normal;font-stretch:normal;font-size:12px;line-height:125%;font-family:Lavi;-inkscape-font-specification:Lavi;text-align:center;letter-spacing:0px;word-spacing:0px;text-anchor:middle;fill:#000000;fill-opacity:1;stroke:none"
       transform="matrix(1.3847919,0,0,1.4023602,172.3364,1867.4584)"><flowRegion
         id="flowRegion2989-5"><rect
           id="rect2991-7"
           width="602.40173"
           height="310.73996"
           x="120.55251"
           y="265.53046"
           style="font-style:normal;font-variant:normal;font-weight:normal;font-stretch:normal;font-family:Lavi;-inkscape-font-specification:Lavi;text-align:center;text-anchor:middle" /></flowRegion><flowPara
         style="font-style:normal;font-variant:normal;font-weight:normal;font-stretch:normal;font-size:48px;line-height:100%;font-family:'Nanum Pen Script OTF';-inkscape-font-specification:'Nanum Pen Script OTF';text-align:center;text-anchor:middle"
         id="flowPara3033">드디어 ...</flowPara><flowPara
         style="font-style:normal;font-variant:normal;font-weight:normal;font-stretch:normal;font-size:48px;line-height:100%;font-family:'Nanum Pen Script OTF';-inkscape-font-specification:'Nanum Pen Script OTF';text-align:center;text-anchor:middle"
         id="flowPara3798"> 이 포션이면, 사프론도, 아니</flowPara><flowPara
         style="font-style:normal;font-variant:normal;font-weight:normal;font-stretch:normal;font-size:48px;line-height:100%;font-family:'Nanum Pen Script OTF';-inkscape-font-specification:'Nanum Pen Script OTF';text-align:center;text-anchor:middle"
         id="flowPara3363">아무도 나를 이길 수 없어!</flowPara></flowRoot>    <flowRoot
       xml:space="preserve"
       id="flowRoot2987-4-8"
       style="font-style:normal;font-variant:normal;font-weight:normal;font-stretch:normal;font-size:12px;line-height:125%;font-family:Lavi;-inkscape-font-specification:Lavi;text-align:center;letter-spacing:0px;word-spacing:0px;text-anchor:middle;fill:#000000;fill-opacity:1;stroke:none"
       transform="matrix(1.3122827,0,0,1.290073,296.45508,2180.898)"><flowRegion
         id="flowRegion2989-5-9"><rect
           id="rect2991-7-4"
           width="602.40173"
           height="310.73996"
           x="120.55251"
           y="265.53046"
           style="font-style:normal;font-variant:normal;font-weight:normal;font-stretch:normal;font-family:Lavi;-inkscape-font-specification:Lavi;text-align:center;text-anchor:middle" /></flowRegion><flowPara
         style="font-style:normal;font-variant:normal;font-weight:normal;font-stretch:normal;font-size:48px;line-height:100%;font-family:'Nanum Pen Script OTF';-inkscape-font-specification:'Nanum Pen Script OTF';text-align:center;text-anchor:middle"
         id="flowPara3391">이제 누구한테</flowPara><flowPara
         style="font-style:normal;font-variant:normal;font-weight:normal;font-stretch:normal;font-size:48px;line-height:100%;font-family:'Nanum Pen Script OTF';-inkscape-font-specification:'Nanum Pen Script OTF';text-align:center;text-anchor:middle"
         id="flowPara3374">실험을 해봐야</flowPara><flowPara
         style="font-style:normal;font-variant:normal;font-weight:normal;font-stretch:normal;font-size:48px;line-height:100%;font-family:'Nanum Pen Script OTF';-inkscape-font-specification:'Nanum Pen Script OTF';text-align:center;text-anchor:middle"
         id="flowPara3376">하는데 ...</flowPara></flowRoot>    <flowRoot
       xml:space="preserve"
       id="flowRoot2987-4-8-2"
       style="font-style:normal;font-variant:normal;font-weight:normal;font-stretch:normal;font-size:12px;line-height:125%;font-family:Lavi;-inkscape-font-specification:Lavi;text-align:center;letter-spacing:0px;word-spacing:0px;text-anchor:middle;fill:#000000;fill-opacity:1;stroke:none"
       transform="matrix(1.7438997,0,0,1.7405645,1390.0724,1732.7189)"><flowRegion
         id="flowRegion2989-5-9-2"><rect
           id="rect2991-7-4-2"
           width="602.40173"
           height="310.73996"
           x="120.55251"
           y="265.53046"
           style="font-style:normal;font-variant:normal;font-weight:normal;font-stretch:normal;font-family:Lavi;-inkscape-font-specification:Lavi;text-align:center;text-anchor:middle" /></flowRegion><flowPara
         style="font-style:normal;font-variant:normal;font-weight:normal;font-stretch:normal;font-size:48px;line-height:100%;font-family:'Nanum Pen Script OTF';-inkscape-font-specification:'Nanum Pen Script OTF';text-align:center;text-anchor:middle"
         id="flowPara3398">캐애애애애애애~</flowPara><flowPara
         style="font-style:normal;font-variant:normal;font-weight:normal;font-stretch:normal;font-size:48px;line-height:100%;font-family:'Nanum Pen Script OTF';-inkscape-font-specification:'Nanum Pen Script OTF';text-align:center;text-anchor:middle"
         id="flowPara3380">~애애애애럿 !!!</flowPara></flowRoot>  </g>
</svg>
