<?xml version="1.0" encoding="UTF-8" standalone="no"?>
<!-- Created with Inkscape (http://www.inkscape.org/) -->

<svg
   xmlns:dc="http://purl.org/dc/elements/1.1/"
   xmlns:cc="http://creativecommons.org/ns#"
   xmlns:rdf="http://www.w3.org/1999/02/22-rdf-syntax-ns#"
   xmlns:svg="http://www.w3.org/2000/svg"
   xmlns="http://www.w3.org/2000/svg"
   xmlns:xlink="http://www.w3.org/1999/xlink"
   xmlns:sodipodi="http://sodipodi.sourceforge.net/DTD/sodipodi-0.dtd"
   xmlns:inkscape="http://www.inkscape.org/namespaces/inkscape"
   id="svg2"
   version="1.1"
   inkscape:version="0.91 r13725"
   width="2481"
   height="3503"
   sodipodi:docname="Pepper-and-Carrot_by-David-Revoy_E04P07.svg">
  <metadata
     id="metadata8">
    <rdf:RDF>
      <cc:Work
         rdf:about="">
        <dc:format>image/svg+xml</dc:format>
        <dc:type
           rdf:resource="http://purl.org/dc/dcmitype/StillImage" />
        <dc:title />
      </cc:Work>
    </rdf:RDF>
  </metadata>
  <defs
     id="defs6" />
  <sodipodi:namedview
     pagecolor="#ffffff"
     bordercolor="#666666"
     borderopacity="1"
     objecttolerance="10"
     gridtolerance="10"
     guidetolerance="10"
     inkscape:pageopacity="0"
     inkscape:pageshadow="2"
     inkscape:window-width="960"
     inkscape:window-height="1024"
     id="namedview4"
     showgrid="false"
     inkscape:zoom="0.36"
     inkscape:cx="1101.3892"
     inkscape:cy="1644.9274"
     inkscape:window-x="960"
     inkscape:window-y="30"
     inkscape:window-maximized="0"
     inkscape:current-layer="layer1" />
  <g
     inkscape:groupmode="layer"
     id="layer2"
     inkscape:label="artwork"
     sodipodi:insensitive="true">
    <image
       sodipodi:absref="/home/graphene/peppercarrot-translations/peppercarrot_ep04_translation/kr/../gfx_Pepper-and-Carrot_by-David-Revoy_E04P07.png"
       xlink:href="../gfx_Pepper-and-Carrot_by-David-Revoy_E04P07.png"
       y="0"
       x="0"
       id="image10"
       height="3503"
       width="2481" />
  </g>
  <g
     inkscape:groupmode="layer"
     id="layer3"
     inkscape:label="speechbubbles">
    <path
       style="fill:#ffffff;stroke:none;display:inline"
       d="m 146.74525,78.026509 28.11467,35.370071 -16.32465,17.23158 8.16233,9.97617 -12.69695,9.97617 25.39389,7.2554 c -16.38445,22.15355 -38.44418,40.90193 -61.67089,58.95012 l 34.46315,-5.44155 c -1.68965,12.728 -9.29952,23.97594 -16.32465,35.37007 l 36.277,-15.41772 c 0.94796,8.60197 -6.16576,13.97926 -11.79003,19.95234 l 26.30082,-5.44155 -3.6277,7.2554 c 10.63196,-2.46964 20.73686,-4.41221 32.6493,-8.16232 l -15.41772,24.48697 31.74237,-15.41772 8.16232,9.97617 8.16233,-10.8831 9.06924,37.18392 17.23158,-38.99777 11.39957,22.93343 9.4597,-21.11958 c 11.68463,10.44356 17.56538,22.25534 21.7662,34.46315 9.24593,-14.5108 18.45147,-29.0216 31.74237,-43.5324 5.69469,4.31914 13.73874,14.12012 23.58004,28.11468 l 6.34848,-19.04543 c 17.14027,12.72738 31.93159,26.23775 40.81162,41.71855 l 0,-38.99777 22.67312,19.95234 7.2554,-30.83544 19.95234,21.7662 1.81385,-25.3939 26.30083,18.1385 -0.90693,-15.41773 26.30082,11.79003 c 0,0 -6.55681,-24.91228 -2.20017,-29.79838 4.35664,-4.88609 35.75639,7.12526 35.75639,7.12526 0,0 -10.3599,-18.22537 -7.2554,-21.7662 3.1045,-3.54083 34.46315,0.90692 34.46315,0.90692 l -26.30082,-29.92852 c 19.49915,-9.82475 39.02694,-19.62086 62.57781,-25.39389 0,0 -29.37154,-19.1463 -30.18676,-23.70813 -0.81521,-4.56184 13.86212,-9.84809 13.86212,-9.84809 l -28.11262,-13.34358 31.74031,-16.584944 -54.41549,1.81385 24.48697,-31.742375 -40.81162,27.207745 17.23158,-58.950116 c -19.79493,25.249004 -46.35945,43.728419 -74.36784,60.763966 l 9.97617,-20.859271 -36.27699,24.486971 -3.6277,-48.067018 -14.5108,37.18392 C 422.45207,65.2859 415.49801,43.649541 412.47424,20.890242 409.9402,41.447206 400.66406,62.004169 387.08034,82.561133 L 377.10417,37.21489 355.33797,72.58496 343.54795,45.377213 323.5956,78.933434 301.8294,27.238716 l -4.53462,48.973943 -12.69695,-19.952347 -7.2554,23.580047 -19.95235,-33.556221 4.53463,37.18392 C 241.56563,65.829751 227.81903,54.803925 211.13692,40.842589 l 18.13849,48.067017 -28.11467,-22.67312 10.8831,33.55622 -23.58005,-12.69695 3.6277,20.859274 z"
       id="path3497"
       inkscape:connector-curvature="0"
       sodipodi:nodetypes="ccccccccccccccccccccccccccccccccccczczccczccccccccccccccccccccccccccccccc" />
    <path
       style="color:#000000;display:inline;overflow:visible;visibility:visible;fill:#ffffff;fill-opacity:1;fill-rule:nonzero;stroke:none;stroke-width:1px;stroke-linecap:butt;stroke-linejoin:miter;stroke-opacity:1;marker:none;enable-background:accumulate"
       d="m 190.44151,300.64828 c -0.96164,-40.81162 29.81102,-66.20552 36.54254,-68.92629 6.73152,-2.72078 228.87168,-15.41773 253.87447,1.81385 25.00279,17.23157 30.77266,29.02159 27.88772,44.43931 -2.88493,15.41773 -18.27127,56.22935 -53.85216,68.01937 -35.58089,11.79002 -118.28242,17.23157 -161.55648,8.16232 -43.27406,-9.06924 -106.74267,-18.13849 -102.89609,-53.50856 z"
       id="path3517"
       inkscape:connector-curvature="0" />
    <path
       style="fill:#ffffff;stroke:none;stroke-width:1px;stroke-linecap:butt;stroke-linejoin:miter;stroke-opacity:1;color:#000000;fill-opacity:1;fill-rule:nonzero;marker:none;visibility:visible;display:inline;overflow:visible;enable-background:accumulate"
       d="m 409.93004,381.36459 c -5.44155,-29.0216 9.06925,-106.11021 120.62101,-99.76174 111.55176,6.34848 129.69026,42.62547 132.41103,53.50857 2.72078,10.8831 26.30082,72.55399 -60.76396,88.87864 -87.06479,16.32465 -165.06033,-0.90693 -192.26808,-42.62547 z"
       id="path3525"
       inkscape:connector-curvature="0" />
    <path
       style="color:#000000;display:inline;overflow:visible;visibility:visible;fill:#ffffff;fill-opacity:1;fill-rule:nonzero;stroke:none;stroke-width:1px;stroke-linecap:butt;stroke-linejoin:miter;stroke-opacity:1;marker:none;enable-background:accumulate"
       d="m 805.29711,361.41224 c 21.37814,-39.90469 66.34595,-73.46091 125.32013,-87.06478 58.97418,-13.60388 168.07646,-9.97618 187.24296,-5.44155 19.1667,4.53462 124.583,20.85927 147.4355,43.53239 22.8525,22.67312 53.8139,50.78779 60.4485,79.80939 6.6347,29.02159 0.7372,98.85481 -20.641,114.27253 -21.3781,15.41773 -118.6855,48.97395 -175.4481,50.7878 -56.7627,1.81385 -188.71738,-12.69695 -226.31342,-22.67313 -37.59604,-9.97617 -77.4036,-22.67312 -89.19844,-54.41549 -11.79484,-31.74237 -33.91016,-73.46091 -8.84613,-118.80716 z"
       id="path3533"
       inkscape:connector-curvature="0" />
    <path
       style="fill:#ffffff;stroke:none;stroke-width:1px;stroke-linecap:butt;stroke-linejoin:miter;stroke-opacity:1;color:#000000;fill-opacity:1;fill-rule:nonzero;marker:none;visibility:visible;display:inline;overflow:visible;enable-background:accumulate"
       d="M 950.45727,823.94393 C 1121.8661,759.55226 1165.3985,589.05039 1147.26,494.7302 c -18.1385,-94.32019 -40.8117,-38.99777 -40.8117,-38.99777 l -4.5346,33.55622 c 0,0 70.7402,243.05587 -151.45643,334.65528 z"
       id="path3541"
       inkscape:connector-curvature="0" />
    <path
       style="color:#000000;display:inline;overflow:visible;visibility:visible;fill:#ffffff;fill-opacity:1;fill-rule:nonzero;stroke:none;stroke-width:1px;stroke-linecap:butt;stroke-linejoin:miter;stroke-opacity:1;marker:none;enable-background:accumulate"
       d="m 1800.6694,1421.3547 c 30.4486,14.9733 61.5,29.7809 7.3531,68.0193 51.4162,-9.8619 19.9595,11.2936 7.3529,25.3939 91.8306,-27.8993 32.5616,17.1356 10.0269,44.4393 20.4611,-10.8815 53.0693,-41.5396 40.7757,0.907 6.5054,-1.952 14.16,-7.5421 17.3799,0.9069 8.2888,-5.8344 14.4468,-7.3326 18.0483,-3.6277 8.1465,-10.6176 13.4102,-13.4132 13.3691,-1.8138 7.7017,-8.747 10.0737,-5.7365 12.0322,-1.8139 13.218,-18.7794 18.1547,-13.4817 23.3959,-9.0692 7.4839,-11.2754 16.242,-8.7216 26.0697,5.4415 10.0554,-19.1765 20.8605,-18.0098 32.0858,-5.4415 3.2971,-4.7241 6.2913,-12.7337 10.6953,-5.4416 4.4564,-2.5224 8.9127,-8.9861 13.3691,-2.7208 47.0347,-24.8239 67.5503,-3.8551 89.573,14.5108 12.2795,-8.1084 21.1282,-23.7806 42.1127,-12.6969 1.9615,-11.3179 13.2132,-15.9134 32.7542,-14.5108 -20.0428,-13.6589 -21.0739,-21.4349 25.4014,-14.5108 -32.3935,-11.1854 -62.2457,-22.3708 -12.0323,-33.5562 -11.7605,-4.4407 -50.2007,6.0056 -8.0214,-47.1601 -29.9515,11.7341 -57.1417,14.7828 -65.5085,-32.6493 -16.1584,12.4739 -34.0492,18.6532 -48.1288,-9.9762 -12.8241,13.4143 -30.7672,10.1938 -40.1074,3.6277 -2.5271,14.6914 -21.6106,37.2228 -47.4602,-3.6277 5.6715,23.2186 1.3787,60.2009 -28.7436,-0.9069 -0.5974,10.63 11.8069,68.4385 -72.1931,-0.907 10.4783,46.5252 -17.4117,19.4535 -39.4389,3.6277 10.9231,29.1701 -5.5157,31.4259 -41.4443,14.5108 27.7165,27.6974 -0.7824,20.0503 -18.7167,19.0455 z"
       id="path3549"
       inkscape:connector-curvature="0"
       sodipodi:nodetypes="ccccccccccccccccccccccccccccc" />
    <path
       style="color:#000000;fill:#ffffff;fill-opacity:1;fill-rule:nonzero;stroke:none;stroke-width:1px;marker:none;visibility:visible;display:inline;overflow:visible;enable-background:accumulate"
       d="m 1643.3794,2038.9036 c 23.7472,2.3728 15.1535,-15.3286 1.0554,-36.4465 5.5113,0.9126 17.651,24.2663 11.6093,-13.9355 12.7096,3.9494 23.0989,2.3017 18.9971,-34.3026 10.3679,-1.1294 37.4665,18.9828 16.8863,-21.4392 22.2869,13.6616 36.8483,13.1986 48.548,7.5038 39.7585,28.5917 40.6066,12.0165 52.7696,8.5757 13.1875,8.0643 27.9449,8.1564 45.3818,-5.3598 4,10.7726 19.1899,8.5559 37.9941,2.1439 13.8336,25.3753 53.2886,11.7154 82.3206,13.9354 36.6076,24.9668 93.4959,5.3023 141.4225,5.3598 39.2445,-4.0899 88.8424,2.3364 110.8162,-19.2952 -4.9747,19.2227 10.5606,9.2806 26.3848,-1.072 3.1048,3.7535 -17.0735,21.6962 34.8279,-4.2878 -1.4013,8.8845 -7.0876,20.4894 24.274,8.5757 3.5625,5.4962 -21.84,27.1259 42.2157,-1.072 0.3418,7.7695 -11.7916,23.0265 32.7171,4.2878 -36.1064,46.1618 -16.0948,41.2212 8.4431,32.1587 -13.347,21.3309 -46.5011,48.4098 -4.2215,53.5979 -38.0188,6.2909 -28.3254,21.8124 -23.2186,36.4465 -47.65,-29.4686 -53.2487,-7.0735 -73.8775,-3.2159 -21.7777,-4.9023 -41.8405,-22.8673 -67.545,2.144 -39.3779,-10.2926 -47.185,-0.8521 -60.1574,5.3598 -68.7962,-19.7519 -67.1712,-3.7407 -98.1515,-4.2879 -18.3167,-24.433 -59.6512,-6.0043 -89.7083,-8.5756 -37.9941,-20.0352 -84.7665,-7.5561 -113.9823,2.1439 -11.9439,-8.2795 -20.4199,-20.8639 -50.6588,-6.4317 -19.7141,-15.8736 -40.4261,-16.5456 -62.2681,0 -5.7187,-9.9754 -21.5744,-11.5851 -61.2127,6.4317 17.8746,-16.5226 -5.6966,-23.0222 -31.6618,-28.9429 z"
       id="path3557"
       inkscape:connector-curvature="0"
       sodipodi:nodetypes="cccccccccccccccccccccccccccccc" />
    <path
       style="fill:#ffffff;stroke:none;stroke-width:1px;stroke-linecap:butt;stroke-linejoin:miter;stroke-opacity:1;color:#000000;fill-opacity:1;fill-rule:nonzero;marker:none;visibility:visible;display:inline;overflow:visible;enable-background:accumulate"
       d="m 40.779877,2160.8623 c -1.199408,-34.7828 47.976326,-69.5657 129.536083,-71.9645 81.55975,-2.3988 151.12542,25.1876 158.32187,61.1698 7.19645,35.9823 -71.96449,70.7651 -142.72957,71.9645 -70.76508,1.1994 -137.931934,-8.3959 -145.128383,-61.1698 z"
       id="path3565"
       inkscape:connector-curvature="0" />
    <path
       style="fill:#ffffff;stroke:none;stroke-width:1px;stroke-linecap:butt;stroke-linejoin:miter;stroke-opacity:1;color:#000000;fill-opacity:1;fill-rule:nonzero;marker:none;visibility:visible;display:inline;overflow:visible;enable-background:accumulate"
       d="m 247.07808,2310.7883 c 13.19349,-74.3633 59.9704,-118.7414 287.85795,-135.5331 227.88755,-16.7917 257.87275,69.5657 265.0692,112.7444 7.19645,43.1786 1.19941,106.7473 -62.36922,139.1313 -63.56863,32.384 -202.69998,39.5805 -253.07512,31.1846 -50.37514,-8.3958 -139.13134,-17.9911 -167.91714,-45.5775 -28.7858,-27.5864 -65.96745,-37.1817 -69.56567,-101.9497 z"
       id="path3573"
       inkscape:connector-curvature="0" />
    <path
       style="fill:#ffffff;stroke:none;stroke-width:1px;stroke-linecap:butt;stroke-linejoin:miter;stroke-opacity:1;color:#000000;fill-opacity:1;fill-rule:nonzero;marker:none;visibility:visible;display:inline;overflow:visible;enable-background:accumulate"
       d="m 892.35966,2295.196 c -49.17574,-37.1817 -124.73845,26.387 -124.73845,26.387 l 21.58935,11.9941 c 0,0 59.97041,-49.1758 103.1491,-38.3811 z"
       id="path3581"
       inkscape:connector-curvature="0" />
    <path
       style="fill:#ffffff;stroke:none;stroke-width:1px;stroke-linecap:butt;stroke-linejoin:miter;stroke-opacity:1;color:#000000;fill-opacity:1;fill-rule:nonzero;marker:none;visibility:visible;display:inline;overflow:visible;enable-background:accumulate"
       d="m 257.09349,2188.3533 49.68371,70.188 18.13849,-21.293 -52.0496,-57.57 -11.82945,7.0977 z"
       id="path3589"
       inkscape:connector-curvature="0" />
    <path
       style="color:#000000;display:inline;overflow:visible;visibility:visible;fill:#ffffff;fill-opacity:1;fill-rule:nonzero;stroke:none;stroke-width:1px;stroke-linecap:butt;stroke-linejoin:miter;stroke-opacity:1;marker:none;enable-background:accumulate"
       d="m 1568.9122,3028.6584 c -8.3485,-30.6141 16.6969,-71.7675 39.357,-77.79 22.6601,-6.0224 101.374,-18.0674 153.2537,-15.0562 51.8796,3.0114 97.7961,1.5057 106.1445,39.146 8.3485,37.6404 -24.449,75.2807 -57.8428,91.3406 -33.3938,16.0599 -103.163,25.5954 -150.2721,18.0673 -47.1091,-7.528 -85.2734,-30.6141 -90.6403,-55.7077 z"
       id="path3064"
       inkscape:connector-curvature="0" />
    <path
       style="fill:#ffffff;stroke:none;stroke-width:1px;stroke-linecap:butt;stroke-linejoin:miter;stroke-opacity:1;color:#000000;fill-opacity:1;fill-rule:nonzero;marker:none;visibility:visible;display:inline;overflow:visible;enable-background:accumulate"
       d="m 1503.9136,2986.5888 c 25.0453,32.7974 35.779,42.9348 82.2918,29.8159 46.5128,-13.119 50.0907,4.7705 50.0907,4.7705 l -22.6601,25.0453 c 0,0 -100.7777,20.8712 -109.7224,-59.6317 z"
       id="path3072"
       inkscape:connector-curvature="0" />
  </g>
  <g
     inkscape:groupmode="layer"
     id="layer1"
     inkscape:label="txt"
     style="display:inline">
    <flowRoot
       xml:space="preserve"
       id="flowRoot2987"
       style="font-style:normal;font-variant:normal;font-weight:normal;font-stretch:normal;font-size:25.00191307px;line-height:125%;font-family:Lavi;-inkscape-font-specification:Lavi;letter-spacing:0px;word-spacing:0px;fill:#000000;fill-opacity:1;stroke:none"
       transform="matrix(0.7129467,0,0,0.7129467,103.26889,51.272462)"><flowRegion
         id="flowRegion2989"><rect
           id="rect2991"
           width="1701.4777"
           height="694.69855"
           x="-494.1384"
           y="89.382004"
           style="font-style:normal;font-variant:normal;font-weight:normal;font-stretch:normal;font-family:Lavi;-inkscape-font-specification:Lavi" /></flowRegion><flowPara
         style="font-style:normal;font-variant:normal;font-weight:normal;font-stretch:normal;font-size:100.00765228px;line-height:100%;font-family:'Nanum Pen Script OTF';-inkscape-font-specification:'Nanum Pen Script OTF';text-align:center;text-anchor:middle"
         id="flowPara3407">아니면 무슨</flowPara><flowPara
         style="font-style:normal;font-variant:normal;font-weight:normal;font-stretch:normal;font-size:100.00765228px;line-height:100%;font-family:'Nanum Pen Script OTF';-inkscape-font-specification:'Nanum Pen Script OTF';text-align:center;text-anchor:middle"
         id="flowPara3404">뜻인데 ?</flowPara></flowRoot>    <flowRoot
       xml:space="preserve"
       id="flowRoot2987-9"
       style="font-style:normal;font-variant:normal;font-weight:normal;font-stretch:normal;font-size:12px;line-height:125%;font-family:Lavi;-inkscape-font-specification:Lavi;letter-spacing:0px;word-spacing:0px;fill:#000000;fill-opacity:1;stroke:none"
       transform="matrix(0.57817935,0,0,0.65223715,53.110939,76.940293)"><flowRegion
         id="flowRegion2989-8"><rect
           id="rect2991-8"
           width="816.64679"
           height="333.42978"
           x="120.55251"
           y="265.53046"
           style="font-style:normal;font-variant:normal;font-weight:normal;font-stretch:normal;font-family:Lavi;-inkscape-font-specification:Lavi" /></flowRegion><flowPara
         style="font-style:normal;font-variant:normal;font-weight:normal;font-stretch:normal;font-size:48px;font-family:'Nanum Pen Script OTF';-inkscape-font-specification:'Nanum Pen Script OTF';text-align:center;text-anchor:middle"
         id="flowPara2993-6"><flowSpan
           style="font-size:107.93770599px"
           id="flowSpan3406">박다</flowSpan><flowSpan
           style="font-size:92.75896454px"
           id="flowSpan3408"> (Embed)</flowSpan><flowSpan
           id="flowSpan3412"
           style="font-size:107.93770567px">?</flowSpan></flowPara></flowRoot>    <flowRoot
       xml:space="preserve"
       id="flowRoot2987-9-2"
       style="font-style:normal;font-variant:normal;font-weight:normal;font-stretch:normal;font-size:12px;line-height:125%;font-family:Lavi;-inkscape-font-specification:Lavi;letter-spacing:0px;word-spacing:0px;fill:#000000;fill-opacity:1;stroke:none"
       transform="matrix(0.58985794,0,0,0.60870198,222.74356,155.47535)"><flowRegion
         id="flowRegion2989-8-1"><rect
           id="rect2991-8-9"
           width="816.64679"
           height="333.42978"
           x="120.55251"
           y="265.53046"
           style="font-style:normal;font-variant:normal;font-weight:normal;font-stretch:normal;font-family:Lavi;-inkscape-font-specification:Lavi" /></flowRegion><flowPara
         style="font-style:normal;font-variant:normal;font-weight:normal;font-stretch:normal;font-size:106.2745285px;line-height:80.00000119%;font-family:'Nanum Pen Script OTF';-inkscape-font-specification:'Nanum Pen Script OTF';text-align:center;text-anchor:middle"
         id="flowPara2993-6-2">공허</flowPara><flowPara
         style="font-style:normal;font-variant:normal;font-weight:normal;font-stretch:normal;font-size:91.32967377px;line-height:80.00000119%;font-family:'Nanum Pen Script OTF';-inkscape-font-specification:'Nanum Pen Script OTF';text-align:center;text-anchor:middle"
         id="flowPara3409">(Empty)?</flowPara></flowRoot>    <flowRoot
       xml:space="preserve"
       id="flowRoot2987-9-2-0"
       style="font-style:normal;font-variant:normal;font-weight:normal;font-stretch:normal;font-size:12px;line-height:125%;font-family:Lavi;-inkscape-font-specification:Lavi;letter-spacing:0px;word-spacing:0px;fill:#000000;fill-opacity:1;stroke:none"
       transform="matrix(1.251696,0,0,1.251696,401.18647,-39.782628)"><flowRegion
         id="flowRegion2989-8-1-0"><rect
           id="rect2991-8-9-5"
           width="816.64679"
           height="333.42978"
           x="120.55251"
           y="265.53046"
           style="font-style:normal;font-variant:normal;font-weight:normal;font-stretch:normal;font-family:Lavi;-inkscape-font-specification:Lavi" /></flowRegion><flowPara
         style="font-style:normal;font-variant:normal;font-weight:normal;font-stretch:normal;font-size:48px;line-height:100%;font-family:'Nanum Pen Script OTF';-inkscape-font-specification:'Nanum Pen Script OTF';text-align:center;text-anchor:middle"
         id="flowPara3424">응 ? 캐럿,</flowPara><flowPara
         style="font-style:normal;font-variant:normal;font-weight:normal;font-stretch:normal;font-size:48px;line-height:100%;font-family:'Nanum Pen Script OTF';-inkscape-font-specification:'Nanum Pen Script OTF';text-align:center;text-anchor:middle"
         id="flowPara3429">이제 더 이상 생각나는</flowPara><flowPara
         style="font-style:normal;font-variant:normal;font-weight:normal;font-stretch:normal;font-size:48px;line-height:100%;font-family:'Nanum Pen Script OTF';-inkscape-font-specification:'Nanum Pen Script OTF';text-align:center;text-anchor:middle"
         id="flowPara3433">단어도 없다고</flowPara><flowPara
         style="font-style:normal;font-variant:normal;font-weight:normal;font-stretch:normal;font-size:48px;line-height:100%;font-family:'Nanum Pen Script OTF';-inkscape-font-specification:'Nanum Pen Script OTF';text-align:center;text-anchor:middle"
         id="flowPara3431">전혀 말이 안 되잖아 !</flowPara></flowRoot>    <flowRoot
       xml:space="preserve"
       id="flowRoot2987-9-2-0-6"
       style="font-style:normal;font-variant:normal;font-weight:normal;font-stretch:normal;font-size:12px;line-height:125%;font-family:Lavi;-inkscape-font-specification:Lavi;letter-spacing:0px;word-spacing:0px;display:inline;fill:#ffffff;fill-opacity:1;stroke:none"
       transform="matrix(1.5715199,0,0,1.5715199,-360.69659,1031.8414)"><flowRegion
         id="flowRegion2989-8-1-0-6"><rect
           id="rect2991-8-9-5-7"
           width="816.64679"
           height="333.42978"
           x="120.55251"
           y="265.53046"
           style="font-style:normal;font-variant:normal;font-weight:normal;font-stretch:normal;font-family:Lavi;-inkscape-font-specification:Lavi;fill:#ffffff" /></flowRegion><flowPara
         style="font-style:normal;font-variant:normal;font-weight:normal;font-stretch:normal;font-size:48px;font-family:'Nanum Pen Script OTF';-inkscape-font-specification:'Nanum Pen Script OTF';text-align:center;text-anchor:middle;fill:#ffffff"
         id="flowPara3211">... 전혀 말이 안 되잖아 ...</flowPara></flowRoot>    <flowRoot
       xml:space="preserve"
       id="flowRoot2987-9-2-0-6-6"
       style="font-style:normal;font-variant:normal;font-weight:normal;font-stretch:normal;font-size:12px;line-height:125%;font-family:Lavi;-inkscape-font-specification:Lavi;letter-spacing:0px;word-spacing:0px;display:inline;fill:#000000;fill-opacity:1;stroke:none"
       transform="matrix(1.9482125,0,0,1.9653388,981.16714,905.11028)"><flowRegion
         id="flowRegion2989-8-1-0-6-9"><rect
           id="rect2991-8-9-5-7-5"
           width="816.64679"
           height="333.42978"
           x="120.55251"
           y="265.53046"
           style="font-style:normal;font-variant:normal;font-weight:normal;font-stretch:normal;font-family:Lavi;-inkscape-font-specification:Lavi" /></flowRegion><flowPara
         style="font-style:normal;font-variant:normal;font-weight:normal;font-stretch:normal;font-size:48px;font-family:'Nanum Pen Script OTF';-inkscape-font-specification:'Nanum Pen Script OTF';text-align:center;text-anchor:middle"
         id="flowPara3211-4">으으으으!!!</flowPara></flowRoot>    <flowRoot
       xml:space="preserve"
       id="flowRoot2987-9-2-0-6-0"
       style="font-style:normal;font-variant:normal;font-weight:normal;font-stretch:normal;font-size:12px;line-height:125%;font-family:Lavi;-inkscape-font-specification:Lavi;letter-spacing:0px;word-spacing:0px;display:inline;fill:#000000;fill-opacity:1;stroke:none"
       transform="matrix(1.4355566,0,0,1.4355566,1255.4041,1588.8511)"><flowRegion
         id="flowRegion2989-8-1-0-6-3"><rect
           id="rect2991-8-9-5-7-9"
           width="816.64679"
           height="333.42978"
           x="120.55251"
           y="265.53046"
           style="font-style:normal;font-variant:normal;font-weight:normal;font-stretch:normal;font-family:Lavi;-inkscape-font-specification:Lavi" /></flowRegion><flowPara
         style="font-style:normal;font-variant:normal;font-weight:normal;font-stretch:normal;font-size:48px;font-family:'Nanum Pen Script OTF';-inkscape-font-specification:'Nanum Pen Script OTF';text-align:center;text-anchor:middle"
         id="flowPara3211-0">왜 난 하는 것마다 안 돼는 거야!</flowPara></flowRoot>    <flowRoot
       xml:space="preserve"
       id="flowRoot2987-9-2-0-6-0-6"
       style="font-style:normal;font-variant:normal;font-weight:normal;font-stretch:normal;font-size:18.28563118px;line-height:125%;font-family:Lavi;-inkscape-font-specification:Lavi;letter-spacing:0px;word-spacing:0px;display:inline;fill:#000000;fill-opacity:1;stroke:none"><flowRegion
         id="flowRegion2989-8-1-0-6-3-4"><rect
           id="rect2991-8-9-5-7-9-1"
           width="1244.4086"
           height="508.08118"
           x="-427.98184"
           y="2107.0989"
           style="font-style:normal;font-variant:normal;font-weight:normal;font-stretch:normal;font-family:Lavi;-inkscape-font-specification:Lavi" /></flowRegion><flowPara
         style="font-style:normal;font-variant:normal;font-weight:normal;font-stretch:normal;font-size:73.14252472px;font-family:'Nanum Pen Script OTF';-inkscape-font-specification:'Nanum Pen Script OTF';text-align:center;text-anchor:middle"
         id="flowPara3211-0-7">하 ...</flowPara></flowRoot>    <flowRoot
       xml:space="preserve"
       id="flowRoot2987-9-2-0-6-0-6-3"
       style="font-style:normal;font-variant:normal;font-weight:normal;font-stretch:normal;font-size:12px;line-height:125%;font-family:Lavi;-inkscape-font-specification:Lavi;letter-spacing:0px;word-spacing:0px;display:inline;fill:#000000;fill-opacity:1;stroke:none"
       transform="matrix(1.500737,0,0,1.500737,-253.2277,1819.0935)"><flowRegion
         id="flowRegion2989-8-1-0-6-3-4-7"><rect
           id="rect2991-8-9-5-7-9-1-9"
           width="816.64679"
           height="333.42978"
           x="120.55251"
           y="265.53046"
           style="font-style:normal;font-variant:normal;font-weight:normal;font-stretch:normal;font-family:Lavi;-inkscape-font-specification:Lavi" /></flowRegion><flowPara
         style="font-style:normal;font-variant:normal;font-weight:normal;font-stretch:normal;font-size:48px;line-height:100%;font-family:'Nanum Pen Script OTF';-inkscape-font-specification:'Nanum Pen Script OTF';text-align:center;text-anchor:middle"
         id="flowPara3406">다행히 아직 포선</flowPara><flowPara
         style="font-style:normal;font-variant:normal;font-weight:normal;font-stretch:normal;font-size:48px;line-height:100%;font-family:'Nanum Pen Script OTF';-inkscape-font-specification:'Nanum Pen Script OTF';text-align:center;text-anchor:middle"
         id="flowPara3419">하나 정도는 만들</flowPara><flowPara
         style="font-style:normal;font-variant:normal;font-weight:normal;font-stretch:normal;font-size:48px;line-height:100%;font-family:'Nanum Pen Script OTF';-inkscape-font-specification:'Nanum Pen Script OTF';text-align:center;text-anchor:middle"
         id="flowPara3421">시간이 있으니까...</flowPara></flowRoot>    <flowRoot
       xml:space="preserve"
       id="flowRoot2987-9-2-0-6-0-6-8"
       style="font-style:normal;font-variant:normal;font-weight:normal;font-stretch:normal;font-size:12px;line-height:125%;font-family:Lavi;-inkscape-font-specification:Lavi;letter-spacing:0px;word-spacing:0px;display:inline;fill:#ffffff;fill-opacity:1;stroke:none"
       transform="matrix(1.4153204,-0.2891204,-0.04384836,1.6651425,1316.8803,2127.5164)"><flowRegion
         id="flowRegion2989-8-1-0-6-3-4-1"><rect
           id="rect2991-8-9-5-7-9-1-8"
           width="816.64679"
           height="333.42978"
           x="120.55251"
           y="265.53046"
           style="font-style:normal;font-variant:normal;font-weight:normal;font-stretch:normal;font-family:Lavi;-inkscape-font-specification:Lavi;fill:#ffffff" /></flowRegion><flowPara
         style="font-style:normal;font-variant:normal;font-weight:normal;font-stretch:normal;font-size:48px;font-family:'Nanum Pen Script OTF';-inkscape-font-specification:'Nanum Pen Script OTF';text-align:center;text-anchor:middle;fill:#ffffff"
         id="flowPara3211-0-7-0">째...앵...그랑!</flowPara></flowRoot>    <flowRoot
       xml:space="preserve"
       id="flowRoot2987-9-2-0-6-0-6-3-9"
       style="font-style:normal;font-variant:normal;font-weight:normal;font-stretch:normal;font-size:12px;line-height:125%;font-family:Lavi;-inkscape-font-specification:Lavi;letter-spacing:0px;word-spacing:0px;display:inline;fill:#000000;fill-opacity:1;stroke:none"
       transform="matrix(1.3725419,0,0,1.4174625,989.59166,2597.6505)"><flowRegion
         id="flowRegion2989-8-1-0-6-3-4-7-5"><rect
           id="rect2991-8-9-5-7-9-1-9-4"
           width="816.64679"
           height="333.42978"
           x="120.55251"
           y="265.53046"
           style="font-style:normal;font-variant:normal;font-weight:normal;font-stretch:normal;font-family:Lavi;-inkscape-font-specification:Lavi" /></flowRegion><flowPara
         style="font-style:normal;font-variant:normal;font-weight:normal;font-stretch:normal;font-size:48px;font-family:'Nanum Pen Script OTF';-inkscape-font-specification:'Nanum Pen Script OTF';text-align:center;text-anchor:middle"
         id="flowPara3427">잘 자 캐럿</flowPara></flowRoot>    <flowRoot
       xml:space="preserve"
       id="flowRoot2987-9-2-0-6-0-6-3-3"
       style="font-style:normal;font-variant:normal;font-weight:normal;font-stretch:normal;font-size:12px;line-height:125%;font-family:Lavi;-inkscape-font-specification:Lavi;letter-spacing:0px;word-spacing:0px;display:inline;fill:#000000;fill-opacity:1;stroke:none"
       transform="matrix(1.3988725,0,0,1.3988725,1394.6858,3033.6276)"><flowRegion
         id="flowRegion2989-8-1-0-6-3-4-7-7"><rect
           id="rect2991-8-9-5-7-9-1-9-3"
           width="816.64679"
           height="333.42978"
           x="120.55251"
           y="265.53046"
           style="font-style:normal;font-variant:normal;font-weight:normal;font-stretch:normal;font-family:Lavi;-inkscape-font-specification:Lavi" /></flowRegion><flowPara
         style="font-style:normal;font-variant:normal;font-weight:normal;font-stretch:normal;font-size:48px;font-family:'Nanum Pen Script OTF';-inkscape-font-specification:'Nanum Pen Script OTF';text-align:center;text-anchor:middle"
         id="flowPara3333-0">다음 화에 계속...</flowPara></flowRoot>  </g>
</svg>
