<?xml version="1.0" encoding="UTF-8" standalone="no"?>
<!-- Created with Inkscape (http://www.inkscape.org/) -->

<svg
   xmlns:dc="http://purl.org/dc/elements/1.1/"
   xmlns:cc="http://creativecommons.org/ns#"
   xmlns:rdf="http://www.w3.org/1999/02/22-rdf-syntax-ns#"
   xmlns:svg="http://www.w3.org/2000/svg"
   xmlns="http://www.w3.org/2000/svg"
   xmlns:xlink="http://www.w3.org/1999/xlink"
   xmlns:sodipodi="http://sodipodi.sourceforge.net/DTD/sodipodi-0.dtd"
   xmlns:inkscape="http://www.inkscape.org/namespaces/inkscape"
   id="svg2"
   version="1.1"
   inkscape:version="0.91 r13725"
   width="2481"
   height="3503"
   sodipodi:docname="Pepper-and-Carrot_by-David-Revoy_E04P07.svg">
  <metadata
     id="metadata8">
    <rdf:RDF>
      <cc:Work
         rdf:about="">
        <dc:format>image/svg+xml</dc:format>
        <dc:type
           rdf:resource="http://purl.org/dc/dcmitype/StillImage" />
        <dc:title></dc:title>
        <cc:license
           rdf:resource="http://creativecommons.org/licenses/by/3.0/" />
      </cc:Work>
      <cc:License
         rdf:about="http://creativecommons.org/licenses/by/3.0/">
        <cc:permits
           rdf:resource="http://creativecommons.org/ns#Reproduction" />
        <cc:permits
           rdf:resource="http://creativecommons.org/ns#Distribution" />
        <cc:requires
           rdf:resource="http://creativecommons.org/ns#Notice" />
        <cc:requires
           rdf:resource="http://creativecommons.org/ns#Attribution" />
        <cc:permits
           rdf:resource="http://creativecommons.org/ns#DerivativeWorks" />
      </cc:License>
    </rdf:RDF>
  </metadata>
  <defs
     id="defs6" />
  <sodipodi:namedview
     pagecolor="#ffffff"
     bordercolor="#666666"
     borderopacity="1"
     objecttolerance="10"
     gridtolerance="10"
     guidetolerance="10"
     inkscape:pageopacity="0"
     inkscape:pageshadow="2"
     inkscape:window-width="1366"
     inkscape:window-height="750"
     id="namedview4"
     showgrid="false"
     inkscape:zoom="0.38544754"
     inkscape:cx="1315.2737"
     inkscape:cy="2735.5321"
     inkscape:window-x="-4"
     inkscape:window-y="-4"
     inkscape:window-maximized="1"
     inkscape:current-layer="layer1" />
  <g
     inkscape:groupmode="layer"
     id="layer2"
     inkscape:label="artwork"
     sodipodi:insensitive="true">
    <image
       sodipodi:absref="/home/next_ghost/src/pepper_carrot/ep4/cs/../gfx_Pepper-and-Carrot_by-David-Revoy_E04P07.png"
       xlink:href="../gfx_Pepper-and-Carrot_by-David-Revoy_E04P07.png"
       width="2481"
       height="3503"
       id="image10"
       x="0"
       y="0" />
  </g>
  <g
     inkscape:groupmode="layer"
     id="layer3"
     inkscape:label="speechbubbles">
    <path
       style="display:inline;fill:#ffffff;stroke:none"
       d="m 215.53864,78.026509 21.87223,35.370071 -12.70001,17.23158 6.35,9.97617 -9.87777,9.97617 19.75555,7.2554 c -12.74652,22.15355 -29.90821,40.90193 -47.97777,58.95012 l 26.81111,-5.44155 c -1.31449,12.728 -7.2347,23.97594 -12.7,35.37007 l 28.22222,-15.41772 c 0.73748,8.60197 -4.79674,13.97926 -9.17222,19.95234 l 20.46111,-5.44155 -2.82223,7.2554 c 8.27129,-2.46964 16.13255,-4.41221 25.4,-8.16232 l -11.99443,24.48697 24.69443,-15.41772 6.35,9.97617 6.35,-10.8831 7.05555,37.18392 13.40556,-38.99777 8.86847,22.93343 7.35931,-21.11958 c 9.09023,10.44356 13.66524,22.25534 16.93333,34.46315 7.19301,-14.5108 14.3546,-29.0216 24.69445,-43.5324 4.43027,4.31914 10.68825,14.12012 18.34443,28.11468 l 4.9389,-19.04543 c 13.33452,12.72738 24.84165,26.23775 31.74999,41.71855 l 0,-38.99777 17.63889,19.95234 5.64444,-30.83544 15.52222,21.7662 1.41111,-25.3939 20.46112,18.1385 -0.70556,-15.41773 20.46111,11.79003 c 0,0 -5.10097,-24.91228 -1.71166,-29.79838 3.38932,-4.88609 27.81721,7.12526 27.81721,7.12526 0,0 -8.05963,-18.22537 -5.64444,-21.7662 2.41518,-3.54083 26.81111,0.90692 26.81111,0.90692 l -20.46111,-29.92852 c 15.16965,-9.82475 30.36158,-19.62086 48.68333,-25.39389 0,0 -22.85002,-19.1463 -23.48424,-23.70813 -0.6342,-4.56184 10.78424,-9.84809 10.78424,-9.84809 L 549.268,110.02918 573.96084,93.444236 531.62751,95.258086 550.6775,63.515711 518.92751,90.723456 532.33307,31.77334 C 516.93332,57.022344 496.26705,75.501759 474.47751,92.537306 L 482.23862,71.678035 454.0164,96.165006 451.19418,48.097988 439.9053,85.281908 C 430.02881,65.2859 424.6188,43.649541 422.26641,20.890242 c -1.97139,20.556964 -9.1879,41.113927 -19.75556,61.670891 l -7.76111,-45.346243 -16.93333,35.37007 -9.17222,-27.207747 -15.52222,33.556221 -16.93334,-51.694718 -3.52777,48.973943 -9.87778,-19.952347 -5.64444,23.580047 -15.52223,-33.556221 3.52778,37.18392 C 289.30555,65.829751 278.61118,54.803925 265.63309,40.842589 l 14.1111,48.067017 -21.87222,-22.67312 8.46667,33.55622 -18.34445,-12.69695 2.82223,20.859274 z"
       id="path3497"
       inkscape:connector-curvature="0"
       sodipodi:nodetypes="ccccccccccccccccccccccccccccccccccczczccczccccccccccccccccccccccccccccccc" />
    <path
       style="fill:#ffffff;stroke:none;stroke-width:1px;stroke-linecap:butt;stroke-linejoin:miter;stroke-opacity:1;color:#000000;fill-opacity:1;fill-rule:nonzero;marker:none;visibility:visible;display:inline;overflow:visible;enable-background:accumulate"
       d="m 208.59272,300.64828 c -0.90692,-40.81162 28.11467,-66.20552 34.46315,-68.92629 6.34847,-2.72078 215.84812,-15.41773 239.42816,1.81385 23.58005,17.23157 29.0216,29.02159 26.30082,44.43931 -2.72077,15.41773 -17.23157,56.22935 -50.78779,68.01937 -33.55622,11.79002 -111.55176,17.23157 -152.36338,8.16232 -40.81162,-9.06924 -100.66866,-18.13849 -97.04096,-53.50856 z"
       id="path3517"
       inkscape:connector-curvature="0" />
    <path
       style="fill:#ffffff;stroke:none;stroke-width:1px;stroke-linecap:butt;stroke-linejoin:miter;stroke-opacity:1;color:#000000;fill-opacity:1;fill-rule:nonzero;marker:none;visibility:visible;display:inline;overflow:visible;enable-background:accumulate"
       d="m 409.93004,381.36459 c -5.44155,-29.0216 9.06925,-106.11021 120.62101,-99.76174 111.55176,6.34848 129.69026,42.62547 132.41103,53.50857 2.72078,10.8831 26.30082,72.55399 -60.76396,88.87864 -87.06479,16.32465 -165.06033,-0.90693 -192.26808,-42.62547 z"
       id="path3525"
       inkscape:connector-curvature="0" />
    <path
       style="fill:#ffffff;stroke:none;stroke-width:1px;stroke-linecap:butt;stroke-linejoin:miter;stroke-opacity:1;color:#000000;fill-opacity:1;fill-rule:nonzero;marker:none;visibility:visible;display:inline;overflow:visible;enable-background:accumulate"
       d="m 746.39917,361.41224 c 26.30082,-39.90469 81.62324,-73.46091 154.17723,-87.06478 72.55399,-13.60388 206.7789,-9.97618 230.3589,-5.44155 23.5801,4.53462 153.2703,20.85927 181.385,43.53239 28.1147,22.67312 66.2055,50.78779 74.3678,79.80939 8.1624,29.02159 0.907,98.85481 -25.3939,114.27253 -26.3008,15.41773 -146.0149,48.97395 -215.8481,50.7878 -69.8332,1.81385 -232.17275,-12.69695 -278.42592,-22.67313 -46.25317,-9.97617 -95.22711,-22.67312 -109.73791,-54.41549 -14.5108,-31.74237 -41.71855,-73.46091 -10.8831,-118.80716 z"
       id="path3533"
       inkscape:connector-curvature="0" />
    <path
       style="fill:#ffffff;stroke:none;stroke-width:1px;stroke-linecap:butt;stroke-linejoin:miter;stroke-opacity:1;color:#000000;fill-opacity:1;fill-rule:nonzero;marker:none;visibility:visible;display:inline;overflow:visible;enable-background:accumulate"
       d="M 950.45727,823.94393 C 1121.8661,759.55226 1165.3985,589.05039 1147.26,494.7302 c -18.1385,-94.32019 -40.8117,-38.99777 -40.8117,-38.99777 l -4.5346,33.55622 c 0,0 70.7402,243.05587 -151.45643,334.65528 z"
       id="path3541"
       inkscape:connector-curvature="0" />
    <path
       style="fill:#ffffff;stroke:none;stroke-width:1px;stroke-linecap:butt;stroke-linejoin:miter;stroke-opacity:1;color:#000000;fill-opacity:1;fill-rule:nonzero;marker:none;visibility:visible;display:inline;overflow:visible;enable-background:accumulate"
       d="m 1772.1312,1416.1659 c 41.3111,14.9733 83.4399,29.7809 9.9762,68.0193 69.7589,-9.8619 27.08,11.2936 9.9761,25.3939 124.591,-27.8993 44.1779,17.1356 13.6039,44.4393 27.7606,-10.8815 72.0018,-41.5396 55.3224,0.907 8.8262,-1.952 19.2115,-7.5421 23.5801,0.9069 11.2458,-5.8344 19.6007,-7.3326 24.487,-3.6277 11.0527,-10.6176 18.1944,-13.4132 18.1385,-1.8138 10.4494,-8.747 13.6675,-5.7365 16.3246,-1.8139 17.9337,-18.7794 24.6315,-13.4817 31.7424,-9.0692 10.1538,-11.2754 22.0363,-8.7216 35.37,5.4415 13.6427,-19.1765 28.3025,-18.0098 43.5324,-5.4415 4.4732,-4.7241 8.5356,-12.7337 14.5108,-5.4416 6.0462,-2.5224 12.0923,-8.9861 18.1385,-2.7208 63.8142,-24.8239 91.6486,-3.8551 121.528,14.5108 16.6601,-8.1084 28.6656,-23.7806 57.1362,-12.6969 2.6614,-11.3179 17.927,-15.9134 44.4393,-14.5108 -27.1931,-13.6589 -28.5921,-21.4349 34.4632,-14.5108 -43.9498,-11.1854 -84.4517,-22.3708 -16.3247,-33.5562 -15.9561,-4.4407 -68.1098,6.0056 -10.8831,-47.1601 -40.6366,11.7341 -77.5269,14.7828 -88.8786,-32.6493 -21.9228,12.4739 -46.196,18.6532 -65.2986,-9.9762 -17.399,13.4143 -41.7433,10.1938 -54.4155,3.6277 -3.4286,14.6914 -29.3201,37.2228 -64.3916,-3.6277 7.6949,23.2186 1.8706,60.2009 -38.9978,-0.9069 -0.8105,10.63 16.0189,68.4385 -97.9479,-0.907 14.2165,46.5252 -23.6232,19.4535 -53.5086,3.6277 14.8199,29.1701 -7.4834,31.4259 -56.2293,14.5108 37.6041,27.6974 -1.0616,20.0503 -25.3939,19.0455 z"
       id="path3549"
       inkscape:connector-curvature="0"
       sodipodi:nodetypes="ccccccccccccccccccccccccccccc" />
    <path
       style="color:#000000;fill:#ffffff;fill-opacity:1;fill-rule:nonzero;stroke:none;stroke-width:1px;marker:none;visibility:visible;display:inline;overflow:visible;enable-background:accumulate"
       d="m 1643.3794,2038.9036 c 23.7472,2.3728 15.1535,-15.3286 1.0554,-36.4465 5.5113,0.9126 17.651,24.2663 11.6093,-13.9355 12.7096,3.9494 23.0989,2.3017 18.9971,-34.3026 10.3679,-1.1294 37.4665,18.9828 16.8863,-21.4392 22.2869,13.6616 36.8483,13.1986 48.548,7.5038 39.7585,28.5917 40.6066,12.0165 52.7696,8.5757 13.1875,8.0643 27.9449,8.1564 45.3818,-5.3598 4,10.7726 19.1899,8.5559 37.9941,2.1439 13.8336,25.3753 53.2886,11.7154 82.3206,13.9354 36.6076,24.9668 93.4959,5.3023 141.4225,5.3598 39.2445,-4.0899 88.8424,2.3364 110.8162,-19.2952 -4.9747,19.2227 10.5606,9.2806 26.3848,-1.072 3.1048,3.7535 -17.0735,21.6962 34.8279,-4.2878 -1.4013,8.8845 -7.0876,20.4894 24.274,8.5757 3.5625,5.4962 -21.84,27.1259 42.2157,-1.072 0.3418,7.7695 -11.7916,23.0265 32.7171,4.2878 -36.1064,46.1618 -16.0948,41.2212 8.4431,32.1587 -13.347,21.3309 -46.5011,48.4098 -4.2215,53.5979 -38.0188,6.2909 -28.3254,21.8124 -23.2186,36.4465 -47.65,-29.4686 -53.2487,-7.0735 -73.8775,-3.2159 -21.7777,-4.9023 -41.8405,-22.8673 -67.545,2.144 -39.3779,-10.2926 -47.185,-0.8521 -60.1574,5.3598 -68.7962,-19.7519 -67.1712,-3.7407 -98.1515,-4.2879 -18.3167,-24.433 -59.6512,-6.0043 -89.7083,-8.5756 -37.9941,-20.0352 -84.7665,-7.5561 -113.9823,2.1439 -11.9439,-8.2795 -20.4199,-20.8639 -50.6588,-6.4317 -19.7141,-15.8736 -40.4261,-16.5456 -62.2681,0 -5.7187,-9.9754 -21.5744,-11.5851 -61.2127,6.4317 17.8746,-16.5226 -5.6966,-23.0222 -31.6618,-28.9429 z"
       id="path3557"
       inkscape:connector-curvature="0"
       sodipodi:nodetypes="cccccccccccccccccccccccccccccc" />
    <path
       style="fill:#ffffff;stroke:none;stroke-width:1px;stroke-linecap:butt;stroke-linejoin:miter;stroke-opacity:1;color:#000000;fill-opacity:1;fill-rule:nonzero;marker:none;visibility:visible;display:inline;overflow:visible;enable-background:accumulate"
       d="m 40.779877,2160.8623 c -1.199408,-34.7828 47.976326,-69.5657 129.536083,-71.9645 81.55975,-2.3988 151.12542,25.1876 158.32187,61.1698 7.19645,35.9823 -71.96449,70.7651 -142.72957,71.9645 -70.76508,1.1994 -137.931934,-8.3959 -145.128383,-61.1698 z"
       id="path3565"
       inkscape:connector-curvature="0" />
    <path
       style="fill:#ffffff;stroke:none;stroke-width:1px;stroke-linecap:butt;stroke-linejoin:miter;stroke-opacity:1;color:#000000;fill-opacity:1;fill-rule:nonzero;marker:none;visibility:visible;display:inline;overflow:visible;enable-background:accumulate"
       d="m 247.07808,2310.7883 c 13.19349,-74.3633 59.9704,-118.7414 287.85795,-135.5331 227.88755,-16.7917 257.87275,69.5657 265.0692,112.7444 7.19645,43.1786 1.19941,106.7473 -62.36922,139.1313 -63.56863,32.384 -202.69998,39.5805 -253.07512,31.1846 -50.37514,-8.3958 -139.13134,-17.9911 -167.91714,-45.5775 -28.7858,-27.5864 -65.96745,-37.1817 -69.56567,-101.9497 z"
       id="path3573"
       inkscape:connector-curvature="0" />
    <path
       style="fill:#ffffff;stroke:none;stroke-width:1px;stroke-linecap:butt;stroke-linejoin:miter;stroke-opacity:1;color:#000000;fill-opacity:1;fill-rule:nonzero;marker:none;visibility:visible;display:inline;overflow:visible;enable-background:accumulate"
       d="m 892.35966,2295.196 c -49.17574,-37.1817 -124.73845,26.387 -124.73845,26.387 l 21.58935,11.9941 c 0,0 59.97041,-49.1758 103.1491,-38.3811 z"
       id="path3581"
       inkscape:connector-curvature="0" />
    <path
       style="fill:#ffffff;stroke:none;stroke-width:1px;stroke-linecap:butt;stroke-linejoin:miter;stroke-opacity:1;color:#000000;fill-opacity:1;fill-rule:nonzero;marker:none;visibility:visible;display:inline;overflow:visible;enable-background:accumulate"
       d="m 257.09349,2188.3533 49.68371,70.188 18.13849,-21.293 -52.0496,-57.57 -11.82945,7.0977 z"
       id="path3589"
       inkscape:connector-curvature="0" />
    <path
       style="fill:#ffffff;stroke:none;stroke-width:1px;stroke-linecap:butt;stroke-linejoin:miter;stroke-opacity:1;color:#000000;fill-opacity:1;fill-rule:nonzero;marker:none;visibility:visible;display:inline;overflow:visible;enable-background:accumulate"
       d="m 1568.9122,3046.2205 c -8.3485,-36.3753 16.6969,-85.2734 39.357,-92.4292 22.6601,-7.1558 101.374,-21.4675 153.2537,-17.8896 51.8796,3.578 97.7961,1.789 106.1445,46.5128 8.3485,44.7239 -24.449,89.4477 -57.8428,108.5299 -33.3938,19.0822 -103.163,30.4122 -150.2721,21.4674 -47.1091,-8.9447 -85.2734,-36.3754 -90.6403,-66.1913 z"
       id="path3064"
       inkscape:connector-curvature="0" />
    <path
       style="fill:#ffffff;stroke:none;stroke-width:1px;stroke-linecap:butt;stroke-linejoin:miter;stroke-opacity:1;color:#000000;fill-opacity:1;fill-rule:nonzero;marker:none;visibility:visible;display:inline;overflow:visible;enable-background:accumulate"
       d="m 1503.9136,2986.5888 c 25.0453,32.7974 35.779,42.9348 82.2918,29.8159 46.5128,-13.119 50.0907,4.7705 50.0907,4.7705 l -22.6601,25.0453 c 0,0 -100.7777,20.8712 -109.7224,-59.6317 z"
       id="path3072"
       inkscape:connector-curvature="0" />
  </g>
  <g
     inkscape:groupmode="layer"
     id="layer1"
     inkscape:label="txt"
     style="display:inline">
    <flowRoot
       xml:space="preserve"
       id="flowRoot2987"
       style="font-style:normal;font-variant:normal;font-weight:normal;font-stretch:normal;font-size:12px;line-height:125%;font-family:Lavi;-inkscape-font-specification:Lavi;letter-spacing:0px;word-spacing:0px;fill:#000000;fill-opacity:1;stroke:none"
       transform="translate(-147.63305,-137.61037)"><flowRegion
         id="flowRegion2989"><rect
           id="rect2991"
           width="816.64679"
           height="333.42978"
           x="120.55251"
           y="265.53046"
           style="font-style:normal;font-variant:normal;font-weight:normal;font-stretch:normal;font-family:Lavi;-inkscape-font-specification:Lavi" /></flowRegion><flowPara
         style="font-size:48px;text-align:center;text-anchor:middle"
         id="flowPara2993">Tak co?</flowPara></flowRoot>    <flowRoot
       xml:space="preserve"
       id="flowRoot2987-9"
       style="font-style:normal;font-variant:normal;font-weight:normal;font-stretch:normal;font-size:12px;line-height:125%;font-family:Lavi;-inkscape-font-specification:Lavi;letter-spacing:0px;word-spacing:0px;fill:#000000;fill-opacity:1;stroke:none"
       transform="translate(-169.72842,-9.076719)"><flowRegion
         id="flowRegion2989-8"><rect
           id="rect2991-8"
           width="816.64679"
           height="333.42978"
           x="120.55251"
           y="265.53046"
           style="font-style:normal;font-variant:normal;font-weight:normal;font-stretch:normal;font-family:Lavi;-inkscape-font-specification:Lavi" /></flowRegion><flowPara
         style="font-size:48px;text-align:center;text-anchor:middle"
         id="flowPara2993-6">Ementál?</flowPara></flowRoot>    <flowRoot
       xml:space="preserve"
       id="flowRoot2987-9-2"
       style="font-style:normal;font-variant:normal;font-weight:normal;font-stretch:normal;font-size:12px;line-height:125%;font-family:Lavi;-inkscape-font-specification:Lavi;letter-spacing:0px;word-spacing:0px;fill:#000000;fill-opacity:1;stroke:none"
       transform="translate(11.690198,61.94534)"><flowRegion
         id="flowRegion2989-8-1"><rect
           id="rect2991-8-9"
           width="816.64679"
           height="333.42978"
           x="120.55251"
           y="265.53046"
           style="font-style:normal;font-variant:normal;font-weight:normal;font-stretch:normal;font-family:Lavi;-inkscape-font-specification:Lavi" /></flowRegion><flowPara
         style="font-size:48px;text-align:center;text-anchor:middle"
         id="flowPara3411">Emoce?</flowPara></flowRoot>    <flowRoot
       xml:space="preserve"
       id="flowRoot2987-9-2-0"
       style="font-style:normal;font-variant:normal;font-weight:normal;font-stretch:normal;font-size:12px;line-height:125%;font-family:Lavi;-inkscape-font-specification:Lavi;letter-spacing:0px;word-spacing:0px;fill:#000000;fill-opacity:1;stroke:none"
       transform="translate(530.45216,53.62969)"><flowRegion
         id="flowRegion2989-8-1-0"><rect
           id="rect2991-8-9-5"
           width="816.64679"
           height="333.42978"
           x="120.55251"
           y="265.53046"
           style="font-style:normal;font-variant:normal;font-weight:normal;font-stretch:normal;font-family:Lavi;-inkscape-font-specification:Lavi" /></flowRegion><flowPara
         style="font-size:48px;text-align:center;text-anchor:middle"
         id="flowPara2993-6-2-3">No tak, Karotko,</flowPara><flowPara
         style="font-size:48px;text-align:center;text-anchor:middle"
         id="flowPara3089">snaž se trochu, tohle</flowPara><flowPara
         style="font-size:48px;text-align:center;text-anchor:middle"
         id="flowPara3420">vůbec nedává smysl</flowPara></flowRoot>    <flowRoot
       xml:space="preserve"
       id="flowRoot2987-9-2-0-6"
       style="font-style:normal;font-variant:normal;font-weight:normal;font-stretch:normal;font-size:12px;line-height:125%;font-family:Lavi;-inkscape-font-specification:Lavi;letter-spacing:0px;word-spacing:0px;display:inline;fill:#ffffff;fill-opacity:1;stroke:none"
       transform="translate(-56.385028,1182.239)"><flowRegion
         id="flowRegion2989-8-1-0-6"><rect
           id="rect2991-8-9-5-7"
           width="816.64679"
           height="333.42978"
           x="120.55251"
           y="265.53046"
           style="font-style:normal;font-variant:normal;font-weight:normal;font-stretch:normal;font-family:Lavi;-inkscape-font-specification:Lavi;fill:#ffffff" /></flowRegion><flowPara
         style="font-size:48px;text-align:center;text-anchor:middle;fill:#ffffff"
         id="flowPara3211">...to vůbec nedává smysl...</flowPara></flowRoot>    <flowRoot
       xml:space="preserve"
       id="flowRoot2987-9-2-0-6-6"
       style="font-style:normal;font-variant:normal;font-weight:normal;font-stretch:normal;font-size:12px;line-height:125%;font-family:Lavi;-inkscape-font-specification:Lavi;letter-spacing:0px;word-spacing:0px;display:inline;fill:#000000;fill-opacity:1;stroke:none"
       transform="matrix(1.5197253,0,0,1.5330849,1257.5688,1015.7836)"><flowRegion
         id="flowRegion2989-8-1-0-6-9"><rect
           id="rect2991-8-9-5-7-5"
           width="816.64679"
           height="333.42978"
           x="120.55251"
           y="265.53046"
           style="font-style:normal;font-variant:normal;font-weight:normal;font-stretch:normal;font-family:Lavi;-inkscape-font-specification:Lavi" /></flowRegion><flowPara
         style="font-size:48px;text-align:center;text-anchor:middle"
         id="flowPara3211-4">Grrrrrrr!!!</flowPara></flowRoot>    <flowRoot
       xml:space="preserve"
       id="flowRoot2987-9-2-0-6-0"
       style="font-style:normal;font-variant:normal;font-weight:normal;font-stretch:normal;font-size:12px;line-height:125%;font-family:Lavi;-inkscape-font-specification:Lavi;letter-spacing:0px;word-spacing:0px;display:inline;fill:#000000;fill-opacity:1;stroke:none"
       transform="translate(1483.8732,1705.0029)"><flowRegion
         id="flowRegion2989-8-1-0-6-3"><rect
           id="rect2991-8-9-5-7-9"
           width="816.64679"
           height="333.42978"
           x="120.55251"
           y="265.53046"
           style="font-style:normal;font-variant:normal;font-weight:normal;font-stretch:normal;font-family:Lavi;-inkscape-font-specification:Lavi" /></flowRegion><flowPara
         style="font-size:48px;text-align:center;text-anchor:middle"
         id="flowPara3211-0">Proč mi nikdy nic nevyjde!</flowPara></flowRoot>    <flowRoot
       xml:space="preserve"
       id="flowRoot2987-9-2-0-6-0-6"
       style="font-style:normal;font-variant:normal;font-weight:normal;font-stretch:normal;font-size:12px;line-height:125%;font-family:Lavi;-inkscape-font-specification:Lavi;letter-spacing:0px;word-spacing:0px;display:inline;fill:#000000;fill-opacity:1;stroke:none"
       transform="translate(-335.4565,1855.8694)"><flowRegion
         id="flowRegion2989-8-1-0-6-3-4"><rect
           id="rect2991-8-9-5-7-9-1"
           width="816.64679"
           height="333.42978"
           x="120.55251"
           y="265.53046"
           style="font-style:normal;font-variant:normal;font-weight:normal;font-stretch:normal;font-family:Lavi;-inkscape-font-specification:Lavi" /></flowRegion><flowPara
         style="font-size:48px;text-align:center;text-anchor:middle"
         id="flowPara3211-0-7">No co...</flowPara></flowRoot>    <flowRoot
       xml:space="preserve"
       id="flowRoot2987-9-2-0-6-0-6-3"
       style="font-style:normal;font-variant:normal;font-weight:normal;font-stretch:normal;font-size:12px;line-height:125%;font-family:Lavi;-inkscape-font-specification:Lavi;letter-spacing:0px;word-spacing:0px;display:inline;fill:#000000;fill-opacity:1;stroke:none"
       transform="translate(-0.47693864,1967.3146)"><flowRegion
         id="flowRegion2989-8-1-0-6-3-4-7"><rect
           id="rect2991-8-9-5-7-9-1-9"
           width="816.64679"
           height="333.42978"
           x="120.55251"
           y="265.53046"
           style="font-style:normal;font-variant:normal;font-weight:normal;font-stretch:normal;font-family:Lavi;-inkscape-font-specification:Lavi" /></flowRegion><flowPara
         style="font-size:48px;text-align:center;text-anchor:middle"
         id="flowPara3333">Pořád mám čas</flowPara><flowPara
         style="font-size:48px;text-align:center;text-anchor:middle"
         id="flowPara3429">vymyslet další</flowPara><flowPara
         style="font-size:48px;text-align:center;text-anchor:middle"
         id="flowPara3431">lektvar</flowPara></flowRoot>    <flowRoot
       xml:space="preserve"
       id="flowRoot2987-9-2-0-6-0-6-8"
       style="font-style:normal;font-variant:normal;font-weight:normal;font-stretch:normal;font-size:12px;line-height:125%;font-family:Lavi;-inkscape-font-specification:Lavi;letter-spacing:0px;word-spacing:0px;display:inline;fill:#ffffff;fill-opacity:1;stroke:none"
       transform="matrix(1.4153204,-0.2891204,-0.04384836,1.6651425,1406.8803,2127.5164)"><flowRegion
         id="flowRegion2989-8-1-0-6-3-4-1"><rect
           id="rect2991-8-9-5-7-9-1-8"
           width="816.64679"
           height="333.42978"
           x="120.55251"
           y="265.53046"
           style="font-style:normal;font-variant:normal;font-weight:normal;font-stretch:normal;font-family:Lavi;-inkscape-font-specification:Lavi;fill:#ffffff" /></flowRegion><flowPara
         style="font-size:48px;text-align:center;text-anchor:middle;fill:#ffffff"
         id="flowPara3211-0-7-0">TŘÍÍÍSK!</flowPara></flowRoot>    <flowRoot
       xml:space="preserve"
       id="flowRoot2987-9-2-0-6-0-6-3-9"
       style="font-style:normal;font-variant:normal;font-weight:normal;font-stretch:normal;font-size:12px;line-height:125%;font-family:Lavi;-inkscape-font-specification:Lavi;letter-spacing:0px;word-spacing:0px;display:inline;fill:#000000;fill-opacity:1;stroke:none"
       transform="matrix(0.8245878,0,0,0.85157493,1279.9405,2747.5837)"><flowRegion
         id="flowRegion2989-8-1-0-6-3-4-7-5"><rect
           id="rect2991-8-9-5-7-9-1-9-4"
           width="816.64679"
           height="333.42978"
           x="120.55251"
           y="265.53046"
           style="font-style:normal;font-variant:normal;font-weight:normal;font-stretch:normal;font-family:Lavi;-inkscape-font-specification:Lavi" /></flowRegion><flowPara
         style="font-size:48px;text-align:center;text-anchor:middle"
         id="flowPara3427">Dobrou noc,</flowPara><flowPara
         style="font-size:48px;text-align:center;text-anchor:middle"
         id="flowPara3407">Karotko</flowPara></flowRoot>    <flowRoot
       xml:space="preserve"
       id="flowRoot2987-9-2-0-6-0-6-3-3"
       style="font-style:normal;font-variant:normal;font-weight:normal;font-stretch:normal;font-size:12px;line-height:125%;font-family:Lavi;-inkscape-font-specification:Lavi;letter-spacing:0px;word-spacing:0px;display:inline;fill:#000000;fill-opacity:1;stroke:none"
       transform="translate(1604.9819,3150.4042)"><flowRegion
         id="flowRegion2989-8-1-0-6-3-4-7-7"><rect
           id="rect2991-8-9-5-7-9-1-9-3"
           width="816.64679"
           height="333.42978"
           x="120.55251"
           y="265.53046"
           style="font-style:normal;font-variant:normal;font-weight:normal;font-stretch:normal;font-family:Lavi;-inkscape-font-specification:Lavi" /></flowRegion><flowPara
         style="font-size:48px;text-align:center;text-anchor:middle"
         id="flowPara3333-0">Pokračování příště...</flowPara></flowRoot>  </g>
</svg>
