<?xml version="1.0" encoding="UTF-8" standalone="no"?>
<!-- Created with Inkscape (http://www.inkscape.org/) -->

<svg
   xmlns:dc="http://purl.org/dc/elements/1.1/"
   xmlns:cc="http://creativecommons.org/ns#"
   xmlns:rdf="http://www.w3.org/1999/02/22-rdf-syntax-ns#"
   xmlns:svg="http://www.w3.org/2000/svg"
   xmlns="http://www.w3.org/2000/svg"
   xmlns:xlink="http://www.w3.org/1999/xlink"
   xmlns:sodipodi="http://sodipodi.sourceforge.net/DTD/sodipodi-0.dtd"
   xmlns:inkscape="http://www.inkscape.org/namespaces/inkscape"
   id="svg2"
   version="1.1"
   inkscape:version="0.48.4 r9939"
   width="2481"
   height="3503"
   sodipodi:docname="Pepper-and-Carrot_by-David-Revoy_E04P01.svg">
  <metadata
     id="metadata8">
    <rdf:RDF>
      <cc:Work
         rdf:about="">
        <dc:format>image/svg+xml</dc:format>
        <dc:type
           rdf:resource="http://purl.org/dc/dcmitype/StillImage" />
        <dc:title />
      </cc:Work>
    </rdf:RDF>
  </metadata>
  <defs
     id="defs6" />
  <sodipodi:namedview
     pagecolor="#ffffff"
     bordercolor="#666666"
     borderopacity="1"
     objecttolerance="10"
     gridtolerance="10"
     guidetolerance="10"
     inkscape:pageopacity="0"
     inkscape:pageshadow="2"
     inkscape:window-width="1920"
     inkscape:window-height="1005"
     id="namedview4"
     showgrid="false"
     inkscape:zoom="0.36045077"
     inkscape:cx="1385.0943"
     inkscape:cy="1089.6488"
     inkscape:window-x="0"
     inkscape:window-y="25"
     inkscape:window-maximized="1"
     inkscape:current-layer="layer1" />
  <g
     inkscape:groupmode="layer"
     id="layer2"
     inkscape:label="artwork"
     sodipodi:insensitive="true">
    <image
       sodipodi:absref="/home/deevad/Production/Webcomics/2014-11-21_ep04_Moment-of-genius/lang/la/../gfx_Pepper-and-Carrot_by-David-Revoy_E04P01.png"
       xlink:href="../gfx_Pepper-and-Carrot_by-David-Revoy_E04P01.png"
       width="2481"
       height="3503"
       id="image10"
       x="0"
       y="0" />
  </g>
  <g
     inkscape:groupmode="layer"
     id="layer3"
     inkscape:label="speechbubbles">
    <path
       style="fill:#ffffff;stroke:none"
       d="m 509.91797,2459.3686 c -5.08927,-45.2236 -10.17857,-137.4982 0,-157.5978 6.47729,0 17.11854,-0.4566 17.11854,-0.4566 l -10.17858,-24.6675 18.50651,5.9385 9.25324,-8.2226 -6.01461,-13.704 16.65586,6.3952 8.32794,-13.2474 13.87987,9.593 6.93995,-13.7042 15.26787,10.9634 28.22243,-5.9385 c 69.25478,-2.4206 137.7352,-6.1154 210.51155,-2.7408 l 22.20782,-8.6793 6.47728,12.7905 11.56656,0.4567 11.10393,-5.4816 11.1039,5.9384 37.013,-4.1112 12.02925,11.877 14.34255,-10.0497 4.62662,13.2473 14.34255,-8.2224 2.31332,8.6791 34.23708,-10.0497 -5.0893,20.5562 c 0,0 25.4464,9.1362 43.4903,2.284 1.8507,4.5681 -0.9253,12.7907 -0.9253,12.7907 l 9.2533,4.568 0,11.8769 c 0,0 18.5065,15.5313 20.357,19.6426 1.8507,4.1113 6.0147,116.4853 -0.4625,134.3006 5.0892,0 8.3279,2.7409 7.8652,5.4818 -0.4626,2.7408 -4.1641,10.5064 -4.1641,10.5064 0,0 5.0895,7.3089 3.7015,9.593 -1.388,2.284 -4.164,5.4816 -4.164,5.4816 0,0 4.6266,5.9384 3.2386,7.7658 -1.388,1.827 -9.2532,5.0248 -12.492,6.852 3.7014,3.6544 6.94,11.4201 4.1641,13.2473 -2.776,1.8273 -9.2532,3.1976 -9.2532,3.1976 l -2.3133,4.5681 c 0,0 -0.9253,9.1361 -3.2386,9.5929 -2.3136,0.4569 -12.0294,-4.5681 -13.4173,-3.6546 -1.388,0.9137 -5.0894,8.2227 -7.4026,8.2227 -2.3133,0 -9.716,-8.6794 -9.716,-8.6794 -0.9887,1.9524 -123.17171,5.229 -133.24687,3.1977 -10.1363,-2.0437 -49.96759,2.7408 -55.51956,2.7408 -5.55194,0 -28.68508,-1.3703 -31.92371,-2.284 -3.23866,-0.9136 -16.1932,-4.1113 -20.81984,-3.6545 -4.62663,0.4567 -13.41721,5.025 -18.50651,5.025 -5.08928,0 -34.23702,-2.7408 -39.78898,-2.2841 -5.55197,0.4568 -30.99842,2.2841 -35.16237,2.2841 -4.16397,0 -50.89292,-5.025 -55.98221,-5.4818 -5.08927,-0.4569 -27.29711,4.5681 -31.46106,4.1113 -4.16397,-0.4568 -27.75977,-4.5682 -35.16238,-4.1113 -7.4026,0.4568 -35.16236,-5.9384 -37.01303,-5.4816 -1.85065,0.4568 -4.64533,0.9126 -21.74513,0 8.79059,-6.8521 6.01461,-12.7905 6.01461,-12.7905 l -6.47728,-3.6545 0.92532,-4.1112 -13.41723,-6.852 1.85066,-5.025 0.92533,-8.2224 -13.41722,-6.3953 21.28249,-18.2722 z"
       id="path3894"
       inkscape:connector-curvature="0"
       sodipodi:nodetypes="cccccccccccccccccccccccccccccccscscccccsccssscssssssssssscccccccccc" />
    <path
       style="color:#000000;fill:#ffffff;fill-opacity:1;fill-rule:nonzero;stroke:none;stroke-width:1px;marker:none;visibility:visible;display:inline;overflow:visible;enable-background:accumulate"
       d="m 780.27518,2515.2788 c 17.06554,77.0562 55.5667,262.6609 88.02344,300.6246 32.45673,37.9637 46.6252,62.8989 112.44368,59.1459 -73.94569,-18.6774 -108.46592,-85.8157 -138.94095,-207.3702 -30.47505,-121.5546 1.59342,-216.6335 1.59342,-216.6335 l -67.4335,9.6187 z"
       id="path3896"
       inkscape:connector-curvature="0" />
    <path
       style="color:#000000;fill:#ffffff;fill-opacity:1;fill-rule:nonzero;stroke:none;stroke-width:1px;marker:none;visibility:visible;display:inline;overflow:visible;enable-background:accumulate"
       d="m 677.26133,2599.6703 c 11.92058,-3.9996 11.92058,-11.9992 6.95368,-22.2206 3.47683,-0.4444 15.3974,2.222 13.41065,-4.8886 2.98015,-0.8888 6.95366,-0.8888 4.47022,-6.6663 3.47684,-0.4444 13.41065,1.7777 10.9272,-3.9997 6.45697,-1.3332 67.05328,-3.1109 88.90768,-0.8888 21.8544,2.2221 80.46394,0.4444 86.42423,0 5.9603,-0.4444 51.65586,0 55.6294,0 3.97352,0 19.86763,4.8885 24.83458,7.555 7.4503,-3.5553 16.8874,-2.2219 16.8874,-2.2219 0,0 0,15.11 1.4901,16.4432 1.4901,1.3333 8.9405,-2.222 10.4306,0 1.49,2.2221 -10.4306,15.5546 -8.9405,15.9989 1.49,0.4445 13.41073,5.3331 13.41073,7.1107 0,1.7777 -9.43723,10.2215 -8.94063,10.6659 0.4968,0.4444 7.94723,6.2219 6.95393,11.1105 8.9403,1.7775 13.4106,6.2217 15.894,9.3326 -3.9736,5.7775 -13.4107,11.1105 -15.3974,14.2213 2.4835,5.333 8.9405,12.4436 7.4503,14.6658 -1.4901,2.222 -8.44383,1.7776 -13.41073,-0.8889 1.9869,6.6662 1.4902,59.9959 -7.4503,79.5502 2.4835,4.4441 6.9537,7.555 7.9471,11.9992 0.9934,4.4442 -1.9869,11.5549 -1.4901,13.7768 0.4967,2.2221 4.4702,9.7772 3.9736,13.3325 -0.4968,3.5553 -2.4835,7.1106 -5.4636,9.3327 -0.4969,3.5553 1.9867,6.2219 -0.4969,7.1107 -2.4834,0.8888 -12.4172,-3.9998 -14.9005,-3.1109 -2.4835,0.8888 -0.4968,12.8881 -2.9803,15.11 -2.4834,2.2221 -56.12601,7.9995 -68.04659,3.1109 -12.41727,-0.8888 -104.30511,18.2211 -142.55031,10.666 -4.47021,-0.8888 -3.47684,-3.9997 -6.95368,-4.8886 -3.47684,-0.8888 -5.4636,2.2222 -12.91397,1.3333 -6.45698,-4.4442 -14.90072,-4.8886 -28.31138,-26.2205 -4.47021,0 -11.92058,2.222 -12.91396,-1.3333 -0.99339,-3.5553 0.49669,-6.2216 0.49669,-6.2216 0,0 -4.96691,1.3331 -5.4636,-1.3334 -0.49669,-2.6665 6.45698,-9.777 5.96029,-11.1103 -0.49669,-1.3332 -14.40404,2.6665 -14.90073,-0.4444 -0.49669,-3.111 5.4636,-10.666 4.96691,-12.8881 -0.49669,-2.2221 -24.83455,-36.442 -16.88749,-140.435 3.97353,-1.3333 7.94706,-2.6665 7.45036,-4.4441 -0.49669,-1.7778 -6.45698,-5.3331 -6.45698,-5.3331 z"
       id="path3915"
       inkscape:connector-curvature="0" />
    <path
       style="color:#000000;fill:#ffffff;fill-opacity:1;fill-rule:nonzero;stroke:none;stroke-width:1px;marker:none;visibility:visible;display:inline;overflow:visible;enable-background:accumulate"
       d="m 2161.9635,2759.6873 c 75.5442,-65.8317 129.3057,-115.4309 140.8923,-189.8298 11.5865,-74.3988 -1.8538,-91.5331 -5.5615,-100.5511 -12.977,1.8036 -33.8327,13.978 -38.0039,19.3888 1.8539,-19.8397 -11.5865,-82.5151 -31.9788,-107.3147 -20.3923,-24.7996 -39.3943,-7.6653 -39.3943,-7.6653 0,0 61.177,94.6894 55.1519,157.8157 12.0501,-12.6253 34.7597,-36.974 40.3212,-32.465 5.5615,4.5091 8.3423,64.9299 -3.7077,92.4349 -12.05,27.5051 -38.9308,101.9039 -117.7192,168.1865 z"
       id="path3923"
       inkscape:connector-curvature="0" />
    <path
       style="color:#000000;fill:#ffffff;fill-opacity:1;fill-rule:nonzero;stroke:none;stroke-width:1px;marker:none;visibility:visible;display:inline;overflow:visible;enable-background:accumulate"
       d="m 1837.8041,2353.2992 c 0,0 38.1255,7.7521 44.1771,11.9264 6.0516,4.1742 30.2582,-2.9816 -3.631,44.7238 34.4944,-15.5043 61.7268,-32.2012 74.4353,-30.4122 -5.4464,11.9263 -11.4981,27.4306 -11.4981,27.4306 0,0 31.4685,-12.5227 37.5202,-11.9263 -1.8155,5.3668 2.4207,16.1005 2.4207,16.1005 l 16.3394,-2.3852 4.8413,14.3116 c 0,0 65.3578,-25.0454 73.2249,-22.0638 7.8672,2.9816 -3.6309,34.5865 -3.6309,34.5865 l 17.5498,-12.5227 8.4723,0.5963 20.5756,-20.2748 6.6568,11.33 4.8413,-4.1742 9.6826,4.7706 22.9963,-17.2933 7.8671,1.789 19.9705,27.4306 10.893,-12.5227 5.4464,-0.5963 35.7048,1.1927 2.4206,-2.9816 6.0517,-1.1927 8.4723,-5.9631 4.8413,-13.7154 10.2878,0 20.5756,12.5227 9.6827,8.3485 7.2619,-20.2748 4.2362,-2.3853 1.2104,-12.5227 23.6014,9.5411 7.262,5.9632 1.8154,-10.7337 7.8672,-0.5964 14.5239,4.1743 15.7344,11.33 23.6014,12.5227 -35.7048,-45.9165 -8.4722,-8.3484 30.8634,-8.3485 0,-95.4108 -12.1034,-131.19 -527.0986,6.5595 -13.3136,86.4661 0.6051,76.925 -3.0258,25.6417 26.6273,8.9448 -26.0221,13.7153 16.3394,9.541 z"
       id="path3931"
       inkscape:connector-curvature="0" />
  </g>
  <g
     inkscape:groupmode="layer"
     id="layer1"
     inkscape:label="txt">
    <flowRoot
       xml:space="preserve"
       id="flowRoot2987"
       style="font-size:12px;font-style:normal;font-variant:normal;font-weight:normal;font-stretch:normal;line-height:125%;letter-spacing:0px;word-spacing:0px;fill:#000000;fill-opacity:1;stroke:none;font-family:Lavi;-inkscape-font-specification:Lavi"
       transform="translate(52.552065,-126.62151)"><flowRegion
         id="flowRegion2989"><rect
           id="rect2991"
           width="973.52362"
           height="213.03587"
           x="120.55251"
           y="265.53046"
           style="font-style:normal;font-variant:normal;font-weight:normal;font-stretch:normal;font-family:Lavi;-inkscape-font-specification:Lavi" /></flowRegion><flowPara
         id="flowPara2993"
         style="font-size:48px">Pridie agonem potionum,</flowPara><flowPara
         id="flowPara2995"
         style="font-size:48px">        tertia vigilia…</flowPara></flowRoot>    <flowRoot
       xml:space="preserve"
       id="flowRoot2987-4"
       style="font-size:12px;font-style:normal;font-variant:normal;font-weight:normal;font-stretch:normal;text-align:center;line-height:125%;letter-spacing:0px;word-spacing:0px;text-anchor:middle;fill:#000000;fill-opacity:1;stroke:none;font-family:Lavi;-inkscape-font-specification:Lavi"
       transform="translate(320.07257,2003.8417)"><flowRegion
         id="flowRegion2989-5"><rect
           id="rect2991-7"
           width="707.29022"
           height="356.89087"
           x="120.55251"
           y="265.53046"
           style="font-style:normal;font-variant:normal;font-weight:normal;font-stretch:normal;text-align:center;text-anchor:middle;font-family:Lavi;-inkscape-font-specification:Lavi" /></flowRegion><flowPara
         style="font-size:48px;text-align:center;text-anchor:middle"
         id="flowPara3033">Tandem…</flowPara><flowPara
         style="font-size:48px;text-align:center;text-anchor:middle"
         id="flowPara3798">Ob hanc potionem nemo, </flowPara><flowPara
         style="font-size:48px;text-align:center;text-anchor:middle"
         id="flowPara3034">ne Crocus quidem, </flowPara><flowPara
         style="font-size:48px;text-align:center;text-anchor:middle"
         id="flowPara3038">erit mihi aemulus !</flowPara></flowRoot>    <flowRoot
       xml:space="preserve"
       id="flowRoot2987-4-8"
       style="font-size:12px;font-style:normal;font-variant:normal;font-weight:normal;font-stretch:normal;text-align:center;line-height:125%;letter-spacing:0px;word-spacing:0px;text-anchor:middle;fill:#000000;fill-opacity:1;stroke:none;font-family:Lavi;-inkscape-font-specification:Lavi"
       transform="matrix(0.96141471,0,0,0.91963896,435.33509,2357.2567)"><flowRegion
         id="flowRegion2989-5-9"><rect
           id="rect2991-7-4"
           width="602.40173"
           height="310.73996"
           x="120.55251"
           y="265.53046"
           style="font-style:normal;font-variant:normal;font-weight:normal;font-stretch:normal;text-align:center;text-anchor:middle;font-family:Lavi;-inkscape-font-specification:Lavi" /></flowRegion><flowPara
         style="font-size:48px;text-align:center;text-anchor:middle"
         id="flowPara3849">Tantum mihi</flowPara><flowPara
         style="font-size:48px;text-align:center;text-anchor:middle"
         id="flowPara3026">oportet eam</flowPara><flowPara
         style="font-size:48px;text-align:center;text-anchor:middle"
         id="flowPara3028">probare…</flowPara></flowRoot>    <flowRoot
       xml:space="preserve"
       id="flowRoot2987-4-8-2"
       style="font-size:12px;font-style:normal;font-variant:normal;font-weight:normal;font-stretch:normal;text-align:center;line-height:125%;letter-spacing:0px;word-spacing:0px;text-anchor:middle;fill:#000000;fill-opacity:1;stroke:none;font-family:Lavi;-inkscape-font-specification:Lavi"
       transform="matrix(1.4179226,0,0,1.4152108,1527.4333,1745.8167)"><flowRegion
         id="flowRegion2989-5-9-2"><rect
           id="rect2991-7-4-2"
           width="602.40173"
           height="310.73996"
           x="120.55251"
           y="265.53046"
           style="font-style:normal;font-variant:normal;font-weight:normal;font-stretch:normal;text-align:center;text-anchor:middle;font-family:Lavi;-inkscape-font-specification:Lavi" /></flowRegion><flowPara
         style="font-size:48px;text-align:center;text-anchor:middle"
         id="flowPara3798-1-6" /><flowPara
         style="font-size:48px;text-align:center;text-anchor:middle"
         id="flowPara3849-2">CAROOOOO~</flowPara><flowPara
         style="font-size:48px;text-align:center;text-anchor:middle"
         id="flowPara3892">~OOOOOTA !!!</flowPara></flowRoot>  </g>
</svg>
