<?xml version="1.0" encoding="UTF-8" standalone="no"?>
<!-- Created with Inkscape (http://www.inkscape.org/) -->

<svg
   xmlns:dc="http://purl.org/dc/elements/1.1/"
   xmlns:cc="http://creativecommons.org/ns#"
   xmlns:rdf="http://www.w3.org/1999/02/22-rdf-syntax-ns#"
   xmlns:svg="http://www.w3.org/2000/svg"
   xmlns="http://www.w3.org/2000/svg"
   xmlns:xlink="http://www.w3.org/1999/xlink"
   xmlns:sodipodi="http://sodipodi.sourceforge.net/DTD/sodipodi-0.dtd"
   xmlns:inkscape="http://www.inkscape.org/namespaces/inkscape"
   id="svg2"
   version="1.1"
   inkscape:version="0.91 r13725"
   width="2481"
   height="3503"
   sodipodi:docname="Pepper-and-Carrot_by-David-Revoy_E04P03.svg">
  <metadata
     id="metadata8">
    <rdf:RDF>
      <cc:Work
         rdf:about="">
        <dc:format>image/svg+xml</dc:format>
        <dc:type
           rdf:resource="http://purl.org/dc/dcmitype/StillImage" />
        <dc:title />
      </cc:Work>
    </rdf:RDF>
  </metadata>
  <defs
     id="defs6" />
  <sodipodi:namedview
     pagecolor="#ffffff"
     bordercolor="#666666"
     borderopacity="1"
     objecttolerance="10"
     gridtolerance="10"
     guidetolerance="10"
     inkscape:pageopacity="0"
     inkscape:pageshadow="2"
     inkscape:window-width="1400"
     inkscape:window-height="1005"
     id="namedview4"
     showgrid="false"
     inkscape:zoom="0.47669615"
     inkscape:cx="1130.3656"
     inkscape:cy="2954.8073"
     inkscape:window-x="508"
     inkscape:window-y="0"
     inkscape:window-maximized="0"
     inkscape:current-layer="layer1" />
  <g
     inkscape:groupmode="layer"
     id="layer2"
     inkscape:label="artwork"
     sodipodi:insensitive="true">
    <image
       sodipodi:absref="C:\Users\Kari\Documents\Pepper and Carrot\Episode 4\fi\..\peppercarrot_ep04_translation-master\en\.\..\gfx_Pepper-and-Carrot_by-David-Revoy_E04P03.png"
       xlink:href="../gfx_Pepper-and-Carrot_by-David-Revoy_E04P03.png"
       width="2481"
       height="3503"
       id="image10"
       x="0"
       y="0" />
  </g>
  <g
     inkscape:groupmode="layer"
     id="layer3"
     inkscape:label="speechbubbles">
    <path
       style="fill:#ffffff;stroke:none"
       d="m 95.651403,240.84348 c -1.20221,-49.15821 25.246287,-107.59157 68.525627,-116.8667 43.27934,-9.27513 311.37081,-18.55027 334.21266,-12.05767 22.84187,6.49259 50.49257,18.55026 73.33444,36.17302 22.84187,17.62275 40.87493,47.30318 37.26832,71.41854 -3.60662,24.11535 -20.43747,73.27356 -36.06612,86.25875 -15.62864,12.98519 -57.70578,43.59314 -99.78292,49.15822 -42.07714,5.56508 -91.36748,10.20265 -110.60274,9.27514 -19.23526,-0.92752 -117.81598,-6.4926 -117.81598,-6.4926 0,0 -52.89697,3.71005 -69.72783,-5.56508 -16.83085,-9.27513 -60.11019,-25.04287 -73.33444,-63.99843 -13.224232,-38.95557 -6.011017,-13.9127 -6.011017,-47.30319 z"
       id="path3971"
       inkscape:connector-curvature="0" />
    <path
       style="color:#000000;display:inline;overflow:visible;visibility:visible;fill:#ffffff;fill-opacity:1;fill-rule:nonzero;stroke:none;stroke-width:1px;stroke-linecap:butt;stroke-linejoin:miter;stroke-opacity:1;marker:none;enable-background:accumulate"
       d="m 522.66952,433.42976 c -66.01476,-21.46601 -93.66958,-30.24757 -110.61931,-78.05824 -16.94974,-47.81065 -29.43901,-4.87863 -29.43901,-4.87863 0,0 6.24463,83.91259 140.05832,82.93687 z"
       id="path3984"
       inkscape:connector-curvature="0" />
    <path
       style="fill:#ffffff;stroke:none;stroke-width:1px;stroke-linecap:butt;stroke-linejoin:miter;stroke-opacity:1;color:#000000;fill-opacity:1;fill-rule:nonzero;marker:none;visibility:visible;display:inline;overflow:visible;enable-background:accumulate"
       d="m 1049.4821,298.18144 c -33.5834,-47.97632 -29.9852,-141.53016 -20.3899,-163.11951 9.5953,-21.58934 22.7887,-53.973363 68.3663,-53.973363 45.5775,0 362.2212,-22.788755 408.9981,27.586383 46.7769,50.37515 45.5775,137.93194 4.7977,196.70294 -40.7799,58.771 -259.0722,46.77692 -259.0722,46.77692 0,0 -151.1254,7.19645 -202.7,-53.97337 z"
       id="path3992"
       inkscape:connector-curvature="0" />
    <path
       style="color:#000000;fill:#ffffff;fill-opacity:1;fill-rule:nonzero;stroke:none;stroke-width:1px;marker:none;visibility:visible;display:inline;overflow:visible;enable-background:accumulate"
       d="m 1146.6342,456.50332 c 86.3574,-52.77396 115.6987,-98.14741 141.122,-142.99485 11.9623,-21.10173 -40.3717,-44.11282 -40.3717,-44.11282 l -16.7917,47.97632 c 0,0 -16.7645,81.67766 -83.9586,139.13135 z"
       id="path4000"
       inkscape:connector-curvature="0"
       sodipodi:nodetypes="csccc" />
    <path
       style="color:#000000;display:inline;overflow:visible;visibility:visible;fill:#ffffff;fill-opacity:1;fill-rule:nonzero;stroke:none;stroke-width:1px;marker:none;enable-background:accumulate"
       d="m 400.61467,860.38391 c 56.98764,-62.5104 353.53813,-68.1406 391.35849,-21.19929 37.82035,46.9413 69.06326,162.02328 16.44364,199.87908 -52.61964,37.8559 -376.55923,52.9982 -411.09085,-3.0285 -34.53163,-56.02662 -53.69891,-113.14087 3.28872,-175.65129 z"
       id="path4008"
       inkscape:connector-curvature="0"
       sodipodi:nodetypes="zsssz" />
    <path
       style="color:#000000;fill:#ffffff;fill-opacity:1;fill-rule:nonzero;stroke:none;stroke-width:1px;marker:none;visibility:visible;display:inline;overflow:visible;enable-background:accumulate"
       d="m 1157.6896,916.45026 c -50.0655,-18.99475 -100.9594,-38.14301 -154.5315,-44.09381 -38.48708,-4.37587 -78.57566,1.00958 -113.15098,19.03609 -32.73956,16.67622 -60.16415,42.09485 -83.79625,69.90516 -13.4053,-7.41069 -22.60064,-20.28714 -31.82413,-32.14019 -3.37955,-5.27569 -8.76282,-10.89773 -10.49022,-16.28006 29.16601,-26.85941 65.28605,-45.62049 103.13999,-56.91895 60.13957,-17.92686 125.48697,-13.45925 184.38699,7.03526 37.6522,12.86195 73.1405,31.52397 106.2661,53.4565 z"
       id="path4010"
       inkscape:connector-curvature="0" />
    <path
       style="fill:#ffffff;stroke:none;stroke-width:1px;stroke-linecap:butt;stroke-linejoin:miter;stroke-opacity:1;color:#000000;fill-opacity:1;fill-rule:nonzero;marker:none;visibility:visible;display:inline;overflow:visible;enable-background:accumulate"
       d="m 1944.831,1785.1574 -11.6581,-2.0573 2.7431,19.2015 c -18.4465,1.0419 -28.0575,-4.9846 -41.1459,-8.2292 l 20.5729,24.6875 -3.4288,6.8577 c 3.3401,4.0097 8.38,6.7445 9.6007,12.3438 -9.3185,3.4893 -16.0183,3.487 -23.7247,4.8268 7.2512,4.6372 13.2882,10.0028 17.5528,16.4319 l -24.6875,10.9722 22.6287,9.5992 c -17.0206,15.7848 -38.4133,25.74 -58.2885,37.7187 l 70.6338,-5.4862 -10.9722,12.3438 c 7.0598,6.4246 6.4359,3.2445 9.6007,4.8004 1.5412,4.6235 -24.2819,23.8474 -21.9445,21.9445 2.7431,-0.6858 26.0591,-3.4289 26.0591,-3.4289 0,0 -20.573,19.2015 -17.8299,19.2015 2.743,0 25.3733,-4.8004 25.3733,-4.8004 l -7.5434,18.5157 29.4879,-10.2865 -12.3438,23.0224 c 7.672,-1.3544 12.622,-1.8272 9.8944,6.1781 -18.4591,28.5047 -46.7501,71.897 -42.2223,81.6014 15.6428,-10.9487 39.4501,-43.4171 61.8158,-55.2549 15.1973,1.9773 16.1118,10.0758 22.6303,15.7726 l 27.4306,-24.0018 4.8004,16.4584 20.5729,-20.573 0,21.2588 c 12.7673,-1.4877 19.263,-13.9505 26.7449,-24.6876 l 2.0573,79.5488 44.5747,-67.205 8.915,28.1164 6.8577,-26.0591 2.0573,21.9445 19.2014,-29.4879 14.4011,26.7448 13.7153,-24.6875 c 12.5486,26.9972 30.6086,48.483 51.4324,67.205 -2.8946,-27.6831 -5.3101,-54.5679 -4.1146,-75.4342 7.772,-2.1744 15.544,2.1747 23.316,8.2292 l -4.1146,-18.5157 28.8022,12.3438 -13.0296,-28.8022 c 43.9655,-0.9228 35.1394,4.0201 45.2606,6.8577 l -8.2292,-18.5157 30.1737,14.4011 c -8.2429,-15.3223 -19.0698,-31.9366 -24.6876,-45.9463 l 31.5452,3.4288 c -12.3615,-12.3266 -27.8924,-21.4838 -36.5408,-37.5234 l 27.6259,-1.5652 -26.0591,-20.573 20.5729,-11.658 -16.4583,-2.7431 27.4306,-24.6875 -36.3456,-2.0573 43.889,-44.5748 -50.7466,9.6008 4.1145,-32.231 -28.1163,23.316 28.1163,-80.9203 c -22.7165,28.9445 -40.2199,52.1236 -71.0227,72.9817 l -9.9023,-8.1261 -10.9675,4.2083 2.743,-23.1176 -40.4601,28.1163 4.1146,-13.0295 -12.3438,12.3438 2.743,-17.1442 -21.2587,20.573 1.9573,-17.9252 -10.1865,11.7533 -3.1367,-11.2628 -11.9501,7.1482 c -3.5957,-29.7165 2.5827,-59.433 6.8576,-89.1495 -14.0302,34.0184 -31.848,64.7903 -55.547,90.5211 l -7.5434,-13.0249 -9.4055,12.0439 -9.5007,-15.5681 -14.3042,18.6033 c -11.3117,-14.1725 -17.8998,-22.8558 -22.3366,-37.0283 2.1881,13.2826 3.779,22.2054 0.5873,36.8329 -41.7573,-22.3951 -40.5072,-24.3922 -56.1343,-36.8329 -4.2821,15.9904 -8.5493,21.3145 -10.9722,33.6025 z"
       id="path4024"
       inkscape:connector-curvature="0"
       sodipodi:nodetypes="cccccccccccccccccsccccccccccccccccccccccccccccccccccccccccccccccccccccccccccccccccccc" />
    <path
       style="color:#000000;fill:#ffffff;fill-opacity:1;fill-rule:nonzero;stroke:none;stroke-width:1px;marker:none;visibility:visible;display:inline;overflow:visible;enable-background:accumulate"
       d="m 1848.5853,1575.0785 c 10.0461,44.0989 27.0514,87.1709 29.0118,132.4629 l 18.7724,-35.7599 c 9.4018,15.7423 8.3262,35.1951 10.8083,53.3881 l 15.3592,-20.1465 c 21.7256,37.425 24.8572,77.202 36.9759,115.8421 l 23.8921,-37.271 c -16.9368,-37.6417 -39.8877,-72.0885 -50.0597,-113.3238 l -17.0658,18.1319 c -5.5461,-13.7459 -10.5425,-27.7351 -13.0837,-42.8112 l -19.3412,24.6794 z"
       id="path4032"
       inkscape:connector-curvature="0"
       sodipodi:nodetypes="cccccccccccc" />
    <path
       style="fill:#ffffff;stroke:none;stroke-width:1px;stroke-linecap:butt;stroke-linejoin:miter;stroke-opacity:1;color:#000000;fill-opacity:1;fill-rule:nonzero;marker:none;visibility:visible;display:inline;overflow:visible;enable-background:accumulate"
       d="m 514.05488,2345.9965 c 21.44462,-27.8354 202.46112,-58.0491 266.0819,-0.6861 63.62077,57.363 25.03112,126.1986 -11.4726,148.1008 -36.50373,21.9023 -143.92898,45.8904 -192.94827,27.1171 -49.01929,-18.7734 -87.20225,-46.8359 -89.69487,-104.2964 -1.01734,-23.4519 6.58922,-42.3999 28.03384,-70.2354 z"
       id="path4040"
       inkscape:connector-curvature="0"
       sodipodi:nodetypes="zssssz" />
    <path
       style="color:#000000;fill:#ffffff;fill-opacity:1;fill-rule:nonzero;stroke:none;stroke-width:1px;marker:none;visibility:visible;display:inline;overflow:visible;enable-background:accumulate"
       d="m 844.38604,2487.4707 c -46.71679,38.0588 -143.61096,79.6886 -134.17151,-10.1374 8.50339,-80.9185 -28.62326,-41.7422 -28.62326,-41.7422 l -16.6969,47.7054 c 0,0 42.33857,151.4647 179.49167,4.1742 z"
       id="path4048"
       inkscape:connector-curvature="0"
       sodipodi:nodetypes="csccc" />
    <path
       style="color:#000000;fill:#ffffff;fill-opacity:1;fill-rule:nonzero;stroke:none;stroke-width:1px;marker:none;visibility:visible;display:inline;overflow:visible;enable-background:accumulate"
       d="m 1710.5025,2645.636 c -36.5349,-36.5756 -57.0302,-81.4639 -45.446,-115.5458 11.5844,-34.082 34.7529,-111.3896 97.1297,-114.7147 62.3767,-3.325 378.7161,-37.4069 415.2511,24.1068 36.535,61.5136 62.3768,157.1091 33.8617,180.3846 -28.5151,23.2753 -81.0898,53.2009 -122.9713,53.2009 -41.8816,0 -96.2385,11.6377 -116.7338,8.3127 -20.4952,-3.3251 -70.3967,-10.8064 -76.6343,-10.8064 -6.2377,0 -101.5851,0 -111.3872,-2.4939 -9.802,-2.4938 -54.3569,7.4814 -73.0699,-22.4442 z"
       id="path4056"
       inkscape:connector-curvature="0" />
    <path
       style="fill:#ffffff;stroke:none;stroke-width:1px;stroke-linecap:butt;stroke-linejoin:miter;stroke-opacity:1;color:#000000;fill-opacity:1;fill-rule:nonzero;marker:none;visibility:visible;display:inline;overflow:visible;enable-background:accumulate"
       d="m 1690.508,2601.5167 c -30.8355,22.6731 -69.8333,55.3224 -105.2033,-7.2554 2.7207,2.7208 22.6731,97.9479 121.5279,44.4393 98.8548,-53.5086 105.2033,-71.6471 105.2033,-71.6471 z"
       id="path4064"
       inkscape:connector-curvature="0"
       sodipodi:nodetypes="ccscc" />
  </g>
  <g
     inkscape:groupmode="layer"
     id="layer1"
     inkscape:label="txt">
    <flowRoot
       xml:space="preserve"
       id="flowRoot2987"
       style="font-style:normal;font-variant:normal;font-weight:normal;font-stretch:normal;font-size:12px;line-height:125%;font-family:Lavi;-inkscape-font-specification:Lavi;letter-spacing:0px;word-spacing:0px;fill:#000000;fill-opacity:1;stroke:none"
       transform="matrix(0.97226124,0,0,0.98626652,-371.61727,-117.49723)"><flowRegion
         id="flowRegion2989"><rect
           id="rect2991"
           width="1228.9047"
           height="338.34705"
           x="120.55251"
           y="265.53046"
           style="font-style:normal;font-variant:normal;font-weight:normal;font-stretch:normal;font-family:Lavi;-inkscape-font-specification:Lavi" /></flowRegion><flowPara
         id="flowPara2995"
         style="font-size:48px;text-align:center;text-anchor:middle">Oi, Carrot!</flowPara><flowPara
         style="font-size:48px;text-align:center;text-anchor:middle"
         id="flowPara3757">Sinä suloinen kisuli</flowPara><flowPara
         style="font-size:48px;text-align:center;text-anchor:middle"
         id="flowPara3761">tulit ihan omin päin</flowPara></flowRoot>    <flowRoot
       xml:space="preserve"
       id="flowRoot2987-4"
       style="font-style:normal;font-variant:normal;font-weight:normal;font-stretch:normal;font-size:12px;line-height:125%;font-family:Lavi;-inkscape-font-specification:Lavi;letter-spacing:0px;word-spacing:0px;fill:#000000;fill-opacity:1;stroke:none"
       transform="matrix(0.97226124,0,0,0.98626652,571.64689,-136.83612)"><flowRegion
         id="flowRegion2989-4"><rect
           id="rect2991-6"
           width="1228.9047"
           height="338.34705"
           x="120.55251"
           y="265.53046"
           style="font-style:normal;font-variant:normal;font-weight:normal;font-stretch:normal;font-family:Lavi;-inkscape-font-specification:Lavi" /></flowRegion><flowPara
         style="font-size:48px;text-align:center;text-anchor:middle"
         id="flowPara3808">ja juuri sillä hetkellä,</flowPara><flowPara
         style="font-size:48px;text-align:center;text-anchor:middle"
         id="flowPara3387">kun tarvitsen </flowPara><flowPara
         style="font-size:48px;text-align:center;text-anchor:middle"
         id="flowPara3810">suosikkiapulaistani</flowPara></flowRoot>    <flowRoot
       xml:space="preserve"
       id="flowRoot2987-0"
       style="font-style:normal;font-variant:normal;font-weight:normal;font-stretch:normal;font-size:12px;line-height:125%;font-family:Lavi;-inkscape-font-specification:Lavi;letter-spacing:0px;word-spacing:0px;fill:#000000;fill-opacity:1;stroke:none"
       transform="matrix(0.97226124,0,0,0.98626652,-111.25138,587.86293)"><flowRegion
         id="flowRegion2989-5"><rect
           id="rect2991-3"
           width="1228.9047"
           height="338.34705"
           x="120.55251"
           y="265.53046"
           style="font-style:normal;font-variant:normal;font-weight:normal;font-stretch:normal;font-family:Lavi;-inkscape-font-specification:Lavi" /></flowRegion><flowPara
         style="font-size:48px;text-align:center;text-anchor:middle"
         id="flowPara3391">Ta-daa!</flowPara><flowPara
         style="font-size:48px;text-align:center;text-anchor:middle"
         id="flowPara3405">Saanko esitellä</flowPara><flowPara
         style="font-size:48px;text-align:center;text-anchor:middle"
         id="flowPara3395">mestariteokseni</flowPara><flowPara
         style="font-size:48px;text-align:center;text-anchor:middle"
         id="flowPara3859" /></flowRoot>    <flowRoot
       xml:space="preserve"
       id="flowRoot2987-0-8"
       style="font-style:normal;font-variant:normal;font-weight:normal;font-stretch:normal;font-size:12px;line-height:125%;font-family:Lavi;-inkscape-font-specification:Lavi;letter-spacing:0px;word-spacing:0px;fill:#000000;fill-opacity:1;stroke:none"
       transform="matrix(1.4223517,0,0,1.37337,1069.9176,1455.7713)"><flowRegion
         id="flowRegion2989-5-3"><rect
           id="rect2991-3-9"
           width="1228.9047"
           height="338.34705"
           x="120.55251"
           y="265.53046"
           style="font-style:normal;font-variant:normal;font-weight:normal;font-stretch:normal;font-family:Lavi;-inkscape-font-specification:Lavi" /></flowRegion><flowPara
         style="font-size:48px;text-align:center;text-anchor:middle"
         id="flowPara3859-0">nerouden</flowPara><flowPara
         style="font-size:48px;text-align:center;text-anchor:middle"
         id="flowPara3899">juoma</flowPara></flowRoot>    <flowRoot
       xml:space="preserve"
       id="flowRoot2987-0-8-0"
       style="font-style:normal;font-variant:normal;font-weight:normal;font-stretch:normal;font-size:12px;line-height:125%;font-family:Lavi;-inkscape-font-specification:Lavi;letter-spacing:0px;word-spacing:0px;fill:#000000;fill-opacity:1;stroke:none"
       transform="matrix(0.99729969,0,0,0.93985282,-85.124577,2113.0806)"><flowRegion
         id="flowRegion2989-5-3-2"><rect
           id="rect2991-3-9-7"
           width="1228.9047"
           height="338.34705"
           x="120.55251"
           y="265.53046"
           style="font-style:normal;font-variant:normal;font-weight:normal;font-stretch:normal;font-family:Lavi;-inkscape-font-specification:Lavi" /></flowRegion><flowPara
         style="font-size:48px;text-align:center;text-anchor:middle"
         id="flowPara3899-2">Ole hyvä ja</flowPara><flowPara
         style="font-size:48px;text-align:center;text-anchor:middle"
         id="flowPara3933">ota siemaus</flowPara></flowRoot>    <flowRoot
       xml:space="preserve"
       id="flowRoot2987-0-8-0-9"
       style="font-style:normal;font-variant:normal;font-weight:normal;font-stretch:normal;font-size:12px;line-height:125%;font-family:Lavi;-inkscape-font-specification:Lavi;letter-spacing:0px;word-spacing:0px;fill:#000000;fill-opacity:1;stroke:none"
       transform="matrix(0.99729969,0,0,0.93985282,1216.7094,2216.8903)"><flowRegion
         id="flowRegion2989-5-3-2-1"><rect
           id="rect2991-3-9-7-5"
           width="1228.9047"
           height="338.34705"
           x="120.55251"
           y="265.53046"
           style="font-style:normal;font-variant:normal;font-weight:normal;font-stretch:normal;font-family:Lavi;-inkscape-font-specification:Lavi" /></flowRegion><flowPara
         style="font-size:48px;text-align:center;text-anchor:middle"
         id="flowPara3399">Jos se toimii,</flowPara><flowPara
         style="font-size:48px;text-align:center;text-anchor:middle"
         id="flowPara3403">sinusta tulee</flowPara><flowPara
         style="font-size:48px;text-align:center;text-anchor:middle"
         id="flowPara3969">hetkeksi nero</flowPara></flowRoot>  </g>
</svg>
