<?xml version="1.0" encoding="UTF-8" standalone="no"?>
<!-- Created with Inkscape (http://www.inkscape.org/) -->

<svg
   xmlns:dc="http://purl.org/dc/elements/1.1/"
   xmlns:cc="http://creativecommons.org/ns#"
   xmlns:rdf="http://www.w3.org/1999/02/22-rdf-syntax-ns#"
   xmlns:svg="http://www.w3.org/2000/svg"
   xmlns="http://www.w3.org/2000/svg"
   xmlns:xlink="http://www.w3.org/1999/xlink"
   xmlns:sodipodi="http://sodipodi.sourceforge.net/DTD/sodipodi-0.dtd"
   xmlns:inkscape="http://www.inkscape.org/namespaces/inkscape"
   id="svg2"
   version="1.1"
   inkscape:version="0.91 r13725"
   width="2481"
   height="1572"
   sodipodi:docname="Pepper-and-Carrot_by-David-Revoy_E04P06.svg">
  <metadata
     id="metadata8">
    <rdf:RDF>
      <cc:Work
         rdf:about="">
        <dc:format>image/svg+xml</dc:format>
        <dc:type
           rdf:resource="http://purl.org/dc/dcmitype/StillImage" />
        <dc:title />
      </cc:Work>
    </rdf:RDF>
  </metadata>
  <defs
     id="defs6" />
  <sodipodi:namedview
     pagecolor="#ffffff"
     bordercolor="#666666"
     borderopacity="1"
     objecttolerance="10"
     gridtolerance="10"
     guidetolerance="10"
     inkscape:pageopacity="0"
     inkscape:pageshadow="2"
     inkscape:window-width="1278"
     inkscape:window-height="1005"
     id="namedview4"
     showgrid="false"
     inkscape:zoom="0.47558154"
     inkscape:cx="1177.6738"
     inkscape:cy="672.03869"
     inkscape:window-x="633"
     inkscape:window-y="2"
     inkscape:window-maximized="0"
     inkscape:current-layer="layer3" />
  <g
     inkscape:groupmode="layer"
     id="layer1"
     inkscape:label="artwork"
     sodipodi:insensitive="true">
    <image
       sodipodi:absref="C:\Users\Kari\Documents\Pepper and Carrot\Episode 4\fi\..\peppercarrot_ep04_translation-master\en\.\..\gfx_Pepper-and-Carrot_by-David-Revoy_E04P06.png"
       xlink:href="../gfx_Pepper-and-Carrot_by-David-Revoy_E04P06.png"
       y="0"
       x="0"
       id="image10"
       height="1572"
       width="2481" />
  </g>
  <g
     inkscape:groupmode="layer"
     id="layer2"
     inkscape:label="speechbubbles"
     style="display:inline">
    <path
       style="fill:#ffffff;stroke:none"
       d="m 1198.1712,707.14115 c -8.9991,-106.29064 26.9974,-102.49454 73.2787,-125.27111 46.2813,-22.77655 295.686,-16.44973 350.9665,8.85756 55.2804,25.30728 74.5643,64.53361 62.994,126.53647 -11.5704,62.00287 -62.994,105.02527 -95.1338,115.14818 -32.1398,10.12292 -217.265,39.22631 -304.6852,-1.26537 -87.4202,-40.49167 -87.4202,-124.00573 -87.4202,-124.00573 z"
       id="path3008"
       inkscape:connector-curvature="0" />
    <path
       style="color:#000000;fill:#ffffff;fill-opacity:1;fill-rule:nonzero;stroke:none;stroke-width:1;marker:none;visibility:visible;display:inline;overflow:visible;enable-background:accumulate"
       d="M 824.06411,936.91784 C 923.05465,810.92988 1121.0357,706.79697 1195.6,708.08256 c 74.5643,1.28559 78.4211,-33.42537 78.4211,-33.42537 0,0 -255.8327,-64.27958 -449.95699,262.26065 z"
       id="path3010"
       inkscape:connector-curvature="0" />
    <path
       style="color:#000000;display:inline;overflow:visible;visibility:visible;fill:#ffffff;fill-opacity:1;fill-rule:nonzero;stroke:none;stroke-width:1px;marker:none;enable-background:accumulate"
       d="m 1945.9064,688.631 c 37.448,-53.4122 241.1309,-48.85248 308.8999,-25.71183 67.7688,23.14065 92.9852,62.99398 96.1371,77.13549 3.1521,14.1415 -4.728,79.70667 -39.4004,92.56258 -34.6724,12.85592 -133.9617,19.28387 -168.6341,19.28387 -34.6725,0 -145.3545,-8.18268 -173.3623,-26.99742 -26.7924,-17.99828 -61.0883,-82.8605 -23.6402,-136.27269 z"
       id="path3330"
       inkscape:connector-curvature="0"
       sodipodi:nodetypes="zsssssz" />
    <path
       style="fill:#ffffff;stroke:none;stroke-width:1px;stroke-linecap:butt;stroke-linejoin:miter;stroke-opacity:1;color:#000000;fill-opacity:1;fill-rule:nonzero;marker:none;visibility:visible;display:inline;overflow:visible;enable-background:accumulate"
       d="m 2004.2371,1093.76 c -25.7119,-17.9983 -34.711,-34.711 -32.1398,-44.9957 2.5712,-10.2847 25.7118,-62.994 53.9948,-69.42195 28.283,-6.42796 101.5617,-14.14151 118.2744,-7.71355 16.7127,6.42795 64.2796,48.8525 64.2796,70.7075 0,21.8551 -8.9991,64.2796 -34.711,77.1355 -25.7118,12.8559 -138.8439,20.5695 -169.698,-25.7118 z"
       id="path3349"
       inkscape:connector-curvature="0" />
    <path
       style="fill:#ffffff;stroke:none;stroke-width:1px;stroke-linecap:butt;stroke-linejoin:miter;stroke-opacity:1;color:#000000;fill-opacity:1;fill-rule:nonzero;marker:none;visibility:visible;display:inline;overflow:visible;enable-background:accumulate"
       d="m 1825.5398,1177.3234 c -1.2855,-32.1398 21.8551,-53.9948 34.711,-64.2795 12.8559,-10.2848 93.8482,-33.4254 123.4168,-33.4254 29.5686,0 151.6998,23.1406 173.5548,46.2813 21.8551,23.1406 50.1381,23.1406 35.9966,61.7084 -14.1415,38.5677 -102.8473,57.8516 -122.1312,61.7083 -19.2839,3.8568 -74.5643,6.428 -92.5626,5.1424 -17.9983,-1.2856 -156.8421,-24.4262 -152.9854,-77.1355 z"
       id="path3357"
       inkscape:connector-curvature="0" />
    <path
       style="fill:#ffffff;stroke:none;stroke-width:1px;stroke-linecap:butt;stroke-linejoin:miter;stroke-opacity:1;color:#000000;fill-opacity:1;fill-rule:nonzero;marker:none;visibility:visible;display:inline;overflow:visible;enable-background:accumulate"
       d="m 1986.2388,1289.1699 c -2.5712,-19.2839 43.7101,-120.8456 200.5522,-107.9897 156.8422,12.8559 187.6964,86.1346 186.4108,111.8465 -1.2856,25.7118 -39.8533,65.5651 -62.994,71.9931 -23.1406,6.4279 -83.5634,21.855 -122.1312,16.7127 -38.5677,-5.1424 -156.8421,-30.8542 -179.9828,-53.9949 -23.1406,-23.1406 -19.2838,-33.4254 -21.855,-38.5677 z"
       id="path3365"
       inkscape:connector-curvature="0" />
    <path
       style="color:#000000;fill:#ffffff;fill-opacity:1;fill-rule:nonzero;stroke:none;stroke-width:1px;marker:none;visibility:visible;display:inline;overflow:visible;enable-background:accumulate"
       d="m 1788.2577,1403.5875 c -1.2856,-31.497 17.9983,-53.9948 71.9931,-74.5643 53.9949,-20.5694 128.5592,-15.4271 147.843,-8.9991 19.2839,6.4279 114.4177,25.7118 133.7015,48.8525 19.2839,23.1406 34.711,32.1397 28.283,53.9948 -6.4279,21.855 -12.8559,44.9957 -35.9965,52.7092 -23.1407,7.7136 -187.6964,17.9983 -214.6938,12.856 -26.9974,-5.1424 -70.7076,-6.428 -93.8481,-21.8551 -23.4599,-15.6399 -35.9966,-31.497 -37.2822,-62.994 z"
       id="path3373"
       inkscape:connector-curvature="0"
       sodipodi:nodetypes="zsssssssz" />
    <path
       style="font-size:medium;font-style:normal;font-variant:normal;font-weight:normal;font-stretch:normal;text-indent:0;text-align:start;text-decoration:none;line-height:normal;letter-spacing:normal;word-spacing:normal;text-transform:none;direction:ltr;block-progression:tb;writing-mode:lr-tb;text-anchor:start;baseline-shift:baseline;color:#000000;fill:#ffffff;fill-opacity:1;stroke:none;stroke-width:31.89999999999999858;marker:none;visibility:visible;display:inline;overflow:visible;enable-background:accumulate;font-family:Sans;-inkscape-font-specification:Sans;stroke-miterlimit:4;stroke-dasharray:none;fill-rule:nonzero"
       d="m 1638.1562,691.96875 -16.5,27.3125 c 39.9649,24.20406 68.3715,40.00378 95.0313,47.53125 26.6598,7.52747 51.5829,5.36984 77.8125,-5 47.2096,-18.66429 110.0919,-37.57626 158.9375,-20.96875 28.0325,9.53104 66.3123,22.50876 95.7813,41.25 29.4689,18.74124 48.4051,40.4879 46.5937,71.28125 -2.0735,35.24981 -12.0963,53.68385 -19.4063,76.375 -7.3099,22.69115 -9.4829,49.74132 7.3126,87.5312 l 29.1562,-12.9374 c -14.5058,-32.63818 -12.1987,-45.86172 -6.0938,-64.81255 6.105,-18.95083 18.477,-43.51348 20.875,-84.28125 2.6603,-45.22424 -27.0608,-78.27967 -61.3124,-100.0625 -34.2517,-21.78283 -74.7622,-35.05789 -102.625,-44.53125 -62.945,-21.40127 -132.0074,2.15549 -180.9376,21.5 -21.8403,8.63455 -36.5863,9.8249 -57.4374,3.9375 -20.8512,-5.8874 -47.7811,-20.25912 -87.1876,-44.125 z"
       id="path3381"
       inkscape:connector-curvature="0" />
  </g>
  <g
     inkscape:groupmode="layer"
     id="layer3"
     inkscape:label="txt">
    <flowRoot
       xml:space="preserve"
       id="flowRoot3056"
       style="font-size:12px;font-style:normal;font-variant:normal;font-weight:normal;font-stretch:normal;line-height:125%;letter-spacing:0px;word-spacing:0px;fill:#000000;fill-opacity:1;stroke:none;font-family:Arial;-inkscape-font-specification:Arial"
       transform="matrix(1.1341713,0.18207417,0,1.187399,-751.15,-663.24806)"><flowRegion
         id="flowRegion3058"><rect
           id="rect3060"
           width="343.2529"
           height="151.69978"
           x="1244.4525"
           y="652.80212" /></flowRegion><flowPara
         id="flowPara3062"
         style="font-size:48px;font-style:normal;font-variant:normal;font-weight:normal;font-stretch:normal;font-family:Lavi;-inkscape-font-specification:Lavi">Poc</flowPara></flowRoot>    <flowRoot
       xml:space="preserve"
       id="flowRoot3056-3"
       style="font-style:normal;font-variant:normal;font-weight:normal;font-stretch:normal;font-size:12px;line-height:125%;font-family:Arial;-inkscape-font-specification:Arial;text-align:center;letter-spacing:0px;word-spacing:0px;text-anchor:middle;fill:#000000;fill-opacity:1;stroke:none"
       transform="matrix(0.97543578,0,0,0.98221981,-121.84634,-3.7185336)"
       inkscape:transform-center-x="289.67675"
       inkscape:transform-center-y="-423.01567"><flowRegion
         id="flowRegion3058-9"><rect
           id="rect3060-3"
           width="707.07532"
           height="374.10709"
           x="1244.4525"
           y="652.80212"
           style="text-align:center;text-anchor:middle" /></flowRegion><flowPara
         id="flowPara3062-1"
         style="font-style:normal;font-variant:normal;font-weight:normal;font-stretch:normal;font-size:48px;font-family:Lavi;-inkscape-font-specification:Lavi;text-align:center;text-anchor:middle">Wau ... Carrot !</flowPara><flowPara
         style="font-style:normal;font-variant:normal;font-weight:normal;font-stretch:normal;font-size:48px;font-family:Lavi;-inkscape-font-specification:Lavi;text-align:center;text-anchor:middle"
         id="flowPara3091">uskomatonta ...</flowPara><flowPara
         style="font-style:normal;font-variant:normal;font-weight:normal;font-stretch:normal;font-size:48px;font-family:Lavi;-inkscape-font-specification:Lavi;text-align:center;text-anchor:middle"
         id="flowPara3095">oikea aakkonen</flowPara></flowRoot>    <flowRoot
       xml:space="preserve"
       id="flowRoot3056-3-6"
       style="font-style:normal;font-variant:normal;font-weight:normal;font-stretch:normal;font-size:12px;line-height:125%;font-family:Arial;-inkscape-font-specification:Arial;text-align:center;letter-spacing:0px;word-spacing:0px;text-anchor:middle;fill:#000000;fill-opacity:1;stroke:none"
       transform="translate(535.67374,35.593773)"
       inkscape:transform-center-x="296.97162"
       inkscape:transform-center-y="-430.67313"><flowRegion
         id="flowRegion3058-9-8"><rect
           id="rect3060-3-7"
           width="707.07532"
           height="374.10709"
           x="1244.4525"
           y="652.80212"
           style="text-align:center;text-anchor:middle" /></flowRegion><flowPara
         style="font-style:normal;font-variant:normal;font-weight:normal;font-stretch:normal;font-size:48px;font-family:Lavi;-inkscape-font-specification:Lavi;text-align:center;text-anchor:middle"
         id="flowPara3142">Sinä ... sinä</flowPara><flowPara
         style="font-style:normal;font-variant:normal;font-weight:normal;font-stretch:normal;font-size:48px;font-family:Lavi;-inkscape-font-specification:Lavi;text-align:center;text-anchor:middle"
         id="flowPara3386">osaat kirjoittaa?</flowPara></flowRoot>    <flowRoot
       xml:space="preserve"
       id="flowRoot3056-3-6-2"
       style="font-style:normal;font-variant:normal;font-weight:normal;font-stretch:normal;font-size:12px;line-height:125%;font-family:Arial;-inkscape-font-specification:Arial;text-align:center;letter-spacing:0px;word-spacing:0px;text-anchor:middle;fill:#000000;fill-opacity:1;stroke:none"
       transform="matrix(1.3494989,0,0,1.2900299,-52.293327,171.08108)"
       inkscape:transform-center-x="400.76277"
       inkscape:transform-center-y="-555.58119"><flowRegion
         id="flowRegion3058-9-8-1"><rect
           id="rect3060-3-7-9"
           width="707.07532"
           height="374.10709"
           x="1244.4525"
           y="652.80212"
           style="text-align:center;text-anchor:middle" /></flowRegion><flowPara
         style="font-style:normal;font-variant:normal;font-weight:normal;font-stretch:normal;font-size:48px;font-family:Lavi;-inkscape-font-specification:Lavi;text-align:center;text-anchor:middle"
         id="flowPara3142-7">E?</flowPara></flowRoot>    <flowRoot
       xml:space="preserve"
       id="flowRoot3056-3-6-2-5"
       style="font-style:normal;font-variant:normal;font-weight:normal;font-stretch:normal;font-size:12px;line-height:125%;font-family:Arial;-inkscape-font-specification:Arial;text-align:center;letter-spacing:0px;word-spacing:0px;text-anchor:middle;fill:#000000;fill-opacity:1;stroke:none"
       transform="matrix(1.3091913,0,0,1.2900299,-85.918748,284.99607)"
       inkscape:transform-center-x="388.79259"
       inkscape:transform-center-y="-555.58119"><flowRegion
         id="flowRegion3058-9-8-1-0"><rect
           id="rect3060-3-7-9-7"
           width="707.07532"
           height="374.10709"
           x="1244.4525"
           y="652.80212"
           style="text-align:center;text-anchor:middle" /></flowRegion><flowPara
         style="font-style:normal;font-variant:normal;font-weight:normal;font-stretch:normal;font-size:48px;font-family:Lavi;-inkscape-font-specification:Lavi;text-align:center;text-anchor:middle"
         id="flowPara3142-7-7">Energia?</flowPara></flowRoot>    <flowRoot
       xml:space="preserve"
       id="flowRoot3056-3-6-2-5-3"
       style="font-style:normal;font-variant:normal;font-weight:normal;font-stretch:normal;font-size:12px;line-height:125%;font-family:Arial;-inkscape-font-specification:Arial;text-align:center;letter-spacing:0px;word-spacing:0px;text-anchor:middle;fill:#000000;fill-opacity:1;stroke:none"
       transform="matrix(1.2633476,0,0,1.2900299,167.75887,399.17408)"
       inkscape:transform-center-x="375.17819"
       inkscape:transform-center-y="-555.58119"><flowRegion
         id="flowRegion3058-9-8-1-0-8"><rect
           id="rect3060-3-7-9-7-4"
           width="707.07532"
           height="374.10709"
           x="1244.4525"
           y="652.80212"
           style="text-align:center;text-anchor:middle" /></flowRegion><flowPara
         style="font-style:normal;font-variant:normal;font-weight:normal;font-stretch:normal;font-size:48px;font-family:Lavi;-inkscape-font-specification:Lavi;text-align:center;text-anchor:middle"
         id="flowPara3142-7-7-5">Entsyymi?</flowPara></flowRoot>    <flowRoot
       xml:space="preserve"
       id="flowRoot3056-3-6-2-5-3-4"
       style="font-style:normal;font-variant:normal;font-weight:normal;font-stretch:normal;font-size:12px;line-height:125%;font-family:Arial;-inkscape-font-specification:Arial;text-align:center;letter-spacing:0px;word-spacing:0px;text-anchor:middle;fill:#000000;fill-opacity:1;stroke:none"
       transform="matrix(1.2879022,0,0,1.2900299,-77.600091,516.17517)"
       inkscape:transform-center-x="382.47022"
       inkscape:transform-center-y="-555.58119"><flowRegion
         id="flowRegion3058-9-8-1-0-8-6"><rect
           id="rect3060-3-7-9-7-4-5"
           width="707.07532"
           height="374.10709"
           x="1244.4525"
           y="652.80212"
           style="text-align:center;text-anchor:middle" /></flowRegion><flowPara
         style="font-style:normal;font-variant:normal;font-weight:normal;font-stretch:normal;font-size:48px;font-family:Lavi;-inkscape-font-specification:Lavi;text-align:center;text-anchor:middle"
         id="flowPara3142-7-7-5-8">Eroosio?</flowPara></flowRoot>    <flowRoot
       xml:space="preserve"
       id="flowRoot3056-6"
       style="font-size:12px;font-style:normal;font-variant:normal;font-weight:normal;font-stretch:normal;line-height:125%;letter-spacing:0px;word-spacing:0px;fill:#000000;fill-opacity:1;stroke:none;font-family:Arial;-inkscape-font-specification:Arial"
       transform="matrix(0.96197299,0.18870539,0,1.2306446,843.86451,-838.15112)"><flowRegion
         id="flowRegion3058-8"><rect
           id="rect3060-0"
           width="343.2529"
           height="151.69978"
           x="1244.4525"
           y="652.80212" /></flowRegion><flowPara
         id="flowPara3062-10"
         style="font-size:48px;font-style:normal;font-variant:normal;font-weight:normal;font-stretch:normal;font-family:Lavi;-inkscape-font-specification:Lavi">Shrrrrrrr</flowPara></flowRoot>    <flowRoot
       xml:space="preserve"
       id="flowRoot3056-6-3"
       style="font-size:12px;font-style:normal;font-variant:normal;font-weight:normal;font-stretch:normal;line-height:125%;letter-spacing:0px;word-spacing:0px;fill:#000000;fill-opacity:1;stroke:none;font-family:Arial;-inkscape-font-specification:Arial"
       transform="matrix(0.99280872,0.16548791,-0.03557294,0.96123,657.07081,131.52366)"><flowRegion
         id="flowRegion3058-8-4"><rect
           id="rect3060-0-8"
           width="343.2529"
           height="151.69978"
           x="1244.4525"
           y="652.80212" /></flowRegion><flowPara
         id="flowPara3062-10-4"
         style="font-size:48px;font-style:normal;font-variant:normal;font-weight:normal;font-stretch:normal;font-family:Lavi;-inkscape-font-specification:Lavi">Shrr</flowPara></flowRoot>  </g>
</svg>
