<?xml version="1.0" encoding="UTF-8" standalone="no"?>
<!-- Created with Inkscape (http://www.inkscape.org/) -->

<svg
   xmlns:dc="http://purl.org/dc/elements/1.1/"
   xmlns:cc="http://creativecommons.org/ns#"
   xmlns:rdf="http://www.w3.org/1999/02/22-rdf-syntax-ns#"
   xmlns:svg="http://www.w3.org/2000/svg"
   xmlns="http://www.w3.org/2000/svg"
   xmlns:xlink="http://www.w3.org/1999/xlink"
   xmlns:sodipodi="http://sodipodi.sourceforge.net/DTD/sodipodi-0.dtd"
   xmlns:inkscape="http://www.inkscape.org/namespaces/inkscape"
   id="svg2"
   version="1.1"
   inkscape:version="0.91 r13725"
   width="2481"
   height="3503"
   sodipodi:docname="Pepper-and-Carrot_by-David-Revoy_E04P07.svg">
  <metadata
     id="metadata8">
    <rdf:RDF>
      <cc:Work
         rdf:about="">
        <dc:format>image/svg+xml</dc:format>
        <dc:type
           rdf:resource="http://purl.org/dc/dcmitype/StillImage" />
        <dc:title />
      </cc:Work>
    </rdf:RDF>
  </metadata>
  <defs
     id="defs6" />
  <sodipodi:namedview
     pagecolor="#ffffff"
     bordercolor="#666666"
     borderopacity="1"
     objecttolerance="10"
     gridtolerance="10"
     guidetolerance="10"
     inkscape:pageopacity="0"
     inkscape:pageshadow="2"
     inkscape:window-width="1446"
     inkscape:window-height="1006"
     id="namedview4"
     showgrid="false"
     inkscape:zoom="0.54510514"
     inkscape:cx="1216.3815"
     inkscape:cy="2869.1776"
     inkscape:window-x="460"
     inkscape:window-y="0"
     inkscape:window-maximized="0"
     inkscape:current-layer="layer1" />
  <g
     inkscape:groupmode="layer"
     id="layer2"
     inkscape:label="artwork"
     sodipodi:insensitive="true">
    <image
       sodipodi:absref="C:\Users\Kari\Documents\Pepper and Carrot\Episode 4\fi\..\peppercarrot_ep04_translation-master\en\.\..\gfx_Pepper-and-Carrot_by-David-Revoy_E04P07.png"
       xlink:href="../gfx_Pepper-and-Carrot_by-David-Revoy_E04P07.png"
       width="2481"
       height="3503"
       id="image10"
       x="0"
       y="0" />
  </g>
  <g
     inkscape:groupmode="layer"
     id="layer3"
     inkscape:label="speechbubbles">
    <path
       style="display:inline;fill:#ffffff;stroke:none"
       d="m 148.9705,78.026509 30.27039,35.370071 -17.57636,17.23158 8.78818,9.97617 -13.67049,9.97617 27.34098,7.2554 c -17.64074,22.15355 -41.39191,40.90193 -66.39955,58.95012 l 37.10564,-5.44155 c -1.81921,12.728 -10.01257,23.97594 -17.57636,35.37007 l 39.05857,-15.41772 c 1.02064,8.60197 -6.63853,13.97926 -12.69404,19.95234 l 28.31745,-5.44155 -3.90585,7.2554 c 11.44717,-2.46964 22.32687,-4.41221 35.15271,-8.16232 l -16.59989,24.48697 34.17624,-15.41772 8.78817,9.97617 8.78819,-10.8831 9.76463,37.18392 18.55282,-38.99777 12.27364,22.93343 10.18503,-21.11958 c 12.58056,10.44356 18.91222,22.25534 23.43514,34.46315 9.95487,-14.5108 19.86625,-29.0216 34.17624,-43.5324 6.13133,4.31914 14.79217,14.12012 25.38806,28.11468 l 6.83525,-19.04543 c 18.45451,12.72738 34.37997,26.23775 43.94088,41.71855 l 0,-38.99777 24.4116,19.95234 7.81171,-30.83544 21.4822,21.7662 1.95293,-25.3939 28.31747,18.1385 -0.97647,-15.41773 28.31745,11.79003 c 0,0 -7.05956,-24.91228 -2.36887,-29.79838 4.69069,-4.88609 38.49804,7.12526 38.49804,7.12526 0,0 -11.15425,-18.22537 -7.81171,-21.7662 3.34254,-3.54083 37.10563,0.90692 37.10563,0.90692 L 591.3087,182.32287 c 20.99426,-9.82475 42.01936,-19.62086 67.37601,-25.39389 0,0 -31.62363,-19.1463 -32.50135,-23.70813 -0.87772,-4.56184 14.925,-9.84809 14.925,-9.84809 l -30.26817,-13.34358 34.17402,-16.584944 -58.58784,1.81385 26.36453,-31.742375 -43.94088,27.207745 18.55282,-58.950116 c -21.31272,25.249004 -49.91409,43.728419 -80.07005,60.763966 l 10.7411,-20.859271 -39.05855,24.486971 -3.90586,-48.067018 -15.62342,37.18392 C 445.81735,65.2859 438.33008,43.649541 435.07446,20.890242 c -2.72834,20.556964 -12.71574,41.113927 -27.341,61.670891 L 396.99236,37.21489 373.55722,72.58496 360.86319,45.377213 339.38098,78.933434 315.94584,27.238716 l -4.88231,48.973943 -13.6705,-19.952347 -7.81171,23.580047 -21.48221,-33.556221 4.88232,37.18392 C 251.0613,65.829751 236.26067,54.803925 218.29945,40.842589 l 19.52927,48.067017 -30.27038,-22.67312 11.71757,33.55622 -25.38807,-12.69695 3.90586,20.859274 z"
       id="path3497"
       inkscape:connector-curvature="0"
       sodipodi:nodetypes="ccccccccccccccccccccccccccccccccccczczccczccccccccccccccccccccccccccccccc" />
    <path
       style="fill:#ffffff;stroke:none;stroke-width:1px;stroke-linecap:butt;stroke-linejoin:miter;stroke-opacity:1;color:#000000;fill-opacity:1;fill-rule:nonzero;marker:none;visibility:visible;display:inline;overflow:visible;enable-background:accumulate"
       d="m 208.59272,300.64828 c -0.90692,-40.81162 28.11467,-66.20552 34.46315,-68.92629 6.34847,-2.72078 215.84812,-15.41773 239.42816,1.81385 23.58005,17.23157 29.0216,29.02159 26.30082,44.43931 -2.72077,15.41773 -17.23157,56.22935 -50.78779,68.01937 -33.55622,11.79002 -111.55176,17.23157 -152.36338,8.16232 -40.81162,-9.06924 -100.66866,-18.13849 -97.04096,-53.50856 z"
       id="path3517"
       inkscape:connector-curvature="0" />
    <path
       style="fill:#ffffff;stroke:none;stroke-width:1px;stroke-linecap:butt;stroke-linejoin:miter;stroke-opacity:1;color:#000000;fill-opacity:1;fill-rule:nonzero;marker:none;visibility:visible;display:inline;overflow:visible;enable-background:accumulate"
       d="m 409.93004,381.36459 c -5.44155,-29.0216 9.06925,-106.11021 120.62101,-99.76174 111.55176,6.34848 129.69026,42.62547 132.41103,53.50857 2.72078,10.8831 26.30082,72.55399 -60.76396,88.87864 -87.06479,16.32465 -165.06033,-0.90693 -192.26808,-42.62547 z"
       id="path3525"
       inkscape:connector-curvature="0" />
    <path
       style="color:#000000;display:inline;overflow:visible;visibility:visible;fill:#ffffff;fill-opacity:1;fill-rule:nonzero;stroke:none;stroke-width:1px;stroke-linecap:butt;stroke-linejoin:miter;stroke-opacity:1;marker:none;enable-background:accumulate"
       d="m 746.39917,345.43599 c 26.30082,-43.15654 81.62324,-79.44727 154.17723,-94.15972 72.55399,-14.71247 206.7789,-10.78915 230.3589,-5.88499 23.5801,4.90415 153.2703,22.5591 181.385,47.07986 28.1147,24.52077 66.2055,54.92651 74.3678,86.31309 8.1624,31.38657 0.907,106.91053 -25.3939,123.58465 -26.3008,16.67412 -146.0149,52.96485 -215.8481,54.92651 -69.8332,1.96167 -232.17275,-13.73163 -278.42592,-24.52077 -46.25317,-10.78913 -95.22711,-24.52076 -109.73791,-58.84983 -14.5108,-34.32907 -41.71855,-79.44727 -10.8831,-128.4888 z"
       id="path3533"
       inkscape:connector-curvature="0" />
    <path
       style="fill:#ffffff;stroke:none;stroke-width:1px;stroke-linecap:butt;stroke-linejoin:miter;stroke-opacity:1;color:#000000;fill-opacity:1;fill-rule:nonzero;marker:none;visibility:visible;display:inline;overflow:visible;enable-background:accumulate"
       d="M 950.45727,823.94393 C 1121.8661,759.55226 1165.3985,589.05039 1147.26,494.7302 c -18.1385,-94.32019 -40.8117,-38.99777 -40.8117,-38.99777 l -4.5346,33.55622 c 0,0 70.7402,243.05587 -151.45643,334.65528 z"
       id="path3541"
       inkscape:connector-curvature="0" />
    <path
       style="fill:#ffffff;stroke:none;stroke-width:1px;stroke-linecap:butt;stroke-linejoin:miter;stroke-opacity:1;color:#000000;fill-opacity:1;fill-rule:nonzero;marker:none;visibility:visible;display:inline;overflow:visible;enable-background:accumulate"
       d="m 1772.1312,1416.1659 c 41.3111,14.9733 83.4399,29.7809 9.9762,68.0193 69.7589,-9.8619 27.08,11.2936 9.9761,25.3939 124.591,-27.8993 44.1779,17.1356 13.6039,44.4393 27.7606,-10.8815 72.0018,-41.5396 55.3224,0.907 8.8262,-1.952 19.2115,-7.5421 23.5801,0.9069 11.2458,-5.8344 19.6007,-7.3326 24.487,-3.6277 11.0527,-10.6176 18.1944,-13.4132 18.1385,-1.8138 10.4494,-8.747 13.6675,-5.7365 16.3246,-1.8139 17.9337,-18.7794 24.6315,-13.4817 31.7424,-9.0692 10.1538,-11.2754 22.0363,-8.7216 35.37,5.4415 13.6427,-19.1765 28.3025,-18.0098 43.5324,-5.4415 4.4732,-4.7241 8.5356,-12.7337 14.5108,-5.4416 6.0462,-2.5224 12.0923,-8.9861 18.1385,-2.7208 63.8142,-24.8239 91.6486,-3.8551 121.528,14.5108 16.6601,-8.1084 28.6656,-23.7806 57.1362,-12.6969 2.6614,-11.3179 17.927,-15.9134 44.4393,-14.5108 -27.1931,-13.6589 -28.5921,-21.4349 34.4632,-14.5108 -43.9498,-11.1854 -84.4517,-22.3708 -16.3247,-33.5562 -15.9561,-4.4407 -68.1098,6.0056 -10.8831,-47.1601 -40.6366,11.7341 -77.5269,14.7828 -88.8786,-32.6493 -21.9228,12.4739 -46.196,18.6532 -65.2986,-9.9762 -17.399,13.4143 -41.7433,10.1938 -54.4155,3.6277 -3.4286,14.6914 -29.3201,37.2228 -64.3916,-3.6277 7.6949,23.2186 1.8706,60.2009 -38.9978,-0.9069 -0.8105,10.63 16.0189,68.4385 -97.9479,-0.907 14.2165,46.5252 -23.6232,19.4535 -53.5086,3.6277 14.8199,29.1701 -7.4834,31.4259 -56.2293,14.5108 37.6041,27.6974 -1.0616,20.0503 -25.3939,19.0455 z"
       id="path3549"
       inkscape:connector-curvature="0"
       sodipodi:nodetypes="ccccccccccccccccccccccccccccc" />
    <path
       style="color:#000000;display:inline;overflow:visible;visibility:visible;fill:#ffffff;fill-opacity:1;fill-rule:nonzero;stroke:none;stroke-width:1px;marker:none;enable-background:accumulate"
       d="m 1623.1998,2041.7363 c 24.9891,2.3131 15.946,-14.9428 1.1106,-35.5293 5.7995,0.8897 18.574,23.6556 12.2164,-13.5847 13.3743,3.85 24.3069,2.2437 19.9907,-33.4393 10.91,-1.101 39.4258,18.505 17.7693,-20.8997 23.4524,13.3178 38.7753,12.8664 51.0869,7.315 41.8377,27.8721 42.7301,11.714 55.5292,8.3598 13.8772,7.8614 29.4063,7.9512 47.7551,-5.2249 4.2091,10.5015 20.1934,8.3406 39.981,2.09 14.5571,24.7367 56.0754,11.4205 86.6256,13.5847 38.5222,24.3384 98.3855,5.1688 148.8185,5.2249 41.2968,-3.987 93.4884,2.2776 116.6114,-18.8096 -5.2348,18.7389 11.1129,9.047 27.7647,-1.045 3.2671,3.659 -17.9664,21.1501 36.6492,-4.1799 -1.4746,8.6609 -7.4582,19.9737 25.5435,8.3598 3.7488,5.3579 -22.9822,26.4433 44.4234,-1.045 0.3597,7.574 -12.4084,22.447 34.428,4.1799 -37.9946,45.0001 -16.9364,40.1838 8.8847,31.3494 -14.0451,20.794 -48.9329,47.1914 -4.4423,52.249 -40.007,6.1325 -29.8067,21.2634 -24.4328,35.5292 -50.142,-28.7269 -56.0335,-6.8955 -77.741,-3.135 -22.9166,-4.7789 -44.0286,-22.2917 -71.0774,2.0901 -41.4372,-10.0336 -49.6526,-0.8307 -63.3034,5.2249 -72.3939,-19.2548 -70.6839,-3.6466 -103.2844,-4.18 -19.2747,-23.8181 -62.7707,-5.8532 -94.3997,-8.3598 -39.9811,-19.5309 -89.1995,-7.3659 -119.9431,2.09 -12.5686,-8.0711 -21.4879,-20.3388 -53.3081,-6.2699 -20.7451,-15.4741 -42.5402,-16.1291 -65.5246,0 -6.0178,-9.7243 -22.7026,-11.2935 -64.4137,6.2699 18.8093,-16.1068 -5.9946,-22.4428 -33.3177,-28.2145 z"
       id="path3557"
       inkscape:connector-curvature="0"
       sodipodi:nodetypes="cccccccccccccccccccccccccccccc" />
    <path
       style="fill:#ffffff;stroke:none;stroke-width:1px;stroke-linecap:butt;stroke-linejoin:miter;stroke-opacity:1;color:#000000;fill-opacity:1;fill-rule:nonzero;marker:none;visibility:visible;display:inline;overflow:visible;enable-background:accumulate"
       d="m 40.779877,2160.8623 c -1.199408,-34.7828 47.976326,-69.5657 129.536083,-71.9645 81.55975,-2.3988 151.12542,25.1876 158.32187,61.1698 7.19645,35.9823 -71.96449,70.7651 -142.72957,71.9645 -70.76508,1.1994 -137.931934,-8.3959 -145.128383,-61.1698 z"
       id="path3565"
       inkscape:connector-curvature="0" />
    <path
       style="fill:#ffffff;stroke:none;stroke-width:1px;stroke-linecap:butt;stroke-linejoin:miter;stroke-opacity:1;color:#000000;fill-opacity:1;fill-rule:nonzero;marker:none;visibility:visible;display:inline;overflow:visible;enable-background:accumulate"
       d="m 247.07808,2310.7883 c 13.19349,-74.3633 59.9704,-118.7414 287.85795,-135.5331 227.88755,-16.7917 257.87275,69.5657 265.0692,112.7444 7.19645,43.1786 1.19941,106.7473 -62.36922,139.1313 -63.56863,32.384 -202.69998,39.5805 -253.07512,31.1846 -50.37514,-8.3958 -139.13134,-17.9911 -167.91714,-45.5775 -28.7858,-27.5864 -65.96745,-37.1817 -69.56567,-101.9497 z"
       id="path3573"
       inkscape:connector-curvature="0" />
    <path
       style="fill:#ffffff;stroke:none;stroke-width:1px;stroke-linecap:butt;stroke-linejoin:miter;stroke-opacity:1;color:#000000;fill-opacity:1;fill-rule:nonzero;marker:none;visibility:visible;display:inline;overflow:visible;enable-background:accumulate"
       d="m 892.35966,2295.196 c -49.17574,-37.1817 -124.73845,26.387 -124.73845,26.387 l 21.58935,11.9941 c 0,0 59.97041,-49.1758 103.1491,-38.3811 z"
       id="path3581"
       inkscape:connector-curvature="0" />
    <path
       style="fill:#ffffff;stroke:none;stroke-width:1px;stroke-linecap:butt;stroke-linejoin:miter;stroke-opacity:1;color:#000000;fill-opacity:1;fill-rule:nonzero;marker:none;visibility:visible;display:inline;overflow:visible;enable-background:accumulate"
       d="m 257.09349,2188.3533 49.68371,70.188 18.13849,-21.293 -52.0496,-57.57 -11.82945,7.0977 z"
       id="path3589"
       inkscape:connector-curvature="0" />
    <path
       style="fill:#ffffff;stroke:none;stroke-width:1px;stroke-linecap:butt;stroke-linejoin:miter;stroke-opacity:1;color:#000000;fill-opacity:1;fill-rule:nonzero;marker:none;visibility:visible;display:inline;overflow:visible;enable-background:accumulate"
       d="m 1568.9122,3046.2205 c -8.3485,-36.3753 16.6969,-85.2734 39.357,-92.4292 22.6601,-7.1558 101.374,-21.4675 153.2537,-17.8896 51.8796,3.578 97.7961,1.789 106.1445,46.5128 8.3485,44.7239 -24.449,89.4477 -57.8428,108.5299 -33.3938,19.0822 -103.163,30.4122 -150.2721,21.4674 -47.1091,-8.9447 -85.2734,-36.3754 -90.6403,-66.1913 z"
       id="path3064"
       inkscape:connector-curvature="0" />
    <path
       style="fill:#ffffff;stroke:none;stroke-width:1px;stroke-linecap:butt;stroke-linejoin:miter;stroke-opacity:1;color:#000000;fill-opacity:1;fill-rule:nonzero;marker:none;visibility:visible;display:inline;overflow:visible;enable-background:accumulate"
       d="m 1503.9136,2986.5888 c 25.0453,32.7974 35.779,42.9348 82.2918,29.8159 46.5128,-13.119 50.0907,4.7705 50.0907,4.7705 l -22.6601,25.0453 c 0,0 -100.7777,20.8712 -109.7224,-59.6317 z"
       id="path3072"
       inkscape:connector-curvature="0" />
  </g>
  <g
     inkscape:groupmode="layer"
     id="layer1"
     inkscape:label="txt"
     style="display:inline">
    <flowRoot
       xml:space="preserve"
       id="flowRoot2987"
       style="font-style:normal;font-variant:normal;font-weight:normal;font-stretch:normal;font-size:12px;line-height:125%;font-family:Lavi;-inkscape-font-specification:Lavi;letter-spacing:0px;word-spacing:0px;fill:#000000;fill-opacity:1;stroke:none"
       transform="translate(-159.63305,-149.61037)"><flowRegion
         id="flowRegion2989"><rect
           id="rect2991"
           width="816.64679"
           height="333.42978"
           x="120.55251"
           y="265.53046"
           style="font-style:normal;font-variant:normal;font-weight:normal;font-stretch:normal;font-family:Lavi;-inkscape-font-specification:Lavi" /></flowRegion><flowPara
         id="flowPara2995"
         style="font-size:48px;text-align:center;text-anchor:middle">Mitä tuo nyt</flowPara><flowPara
         style="font-size:48px;text-align:center;text-anchor:middle"
         id="flowPara2993">sitten tarkoittaa?</flowPara></flowRoot>    <flowRoot
       xml:space="preserve"
       id="flowRoot2987-9"
       style="font-style:normal;font-variant:normal;font-weight:normal;font-stretch:normal;font-size:12px;line-height:125%;font-family:Lavi;-inkscape-font-specification:Lavi;letter-spacing:0px;word-spacing:0px;fill:#000000;fill-opacity:1;stroke:none"
       transform="translate(-169.72842,-9.076719)"><flowRegion
         id="flowRegion2989-8"><rect
           id="rect2991-8"
           width="816.64679"
           height="333.42978"
           x="120.55251"
           y="265.53046"
           style="font-style:normal;font-variant:normal;font-weight:normal;font-stretch:normal;font-family:Lavi;-inkscape-font-specification:Lavi" /></flowRegion><flowPara
         style="font-size:48px;text-align:center;text-anchor:middle"
         id="flowPara2993-6">Empatia?</flowPara></flowRoot>    <flowRoot
       xml:space="preserve"
       id="flowRoot2987-9-2"
       style="font-style:normal;font-variant:normal;font-weight:normal;font-stretch:normal;font-size:12px;line-height:125%;font-family:Lavi;-inkscape-font-specification:Lavi;letter-spacing:0px;word-spacing:0px;fill:#000000;fill-opacity:1;stroke:none"
       transform="translate(19.690198,57.94534)"><flowRegion
         id="flowRegion2989-8-1"><rect
           id="rect2991-8-9"
           width="816.64679"
           height="333.42978"
           x="120.55251"
           y="265.53046"
           style="font-style:normal;font-variant:normal;font-weight:normal;font-stretch:normal;font-family:Lavi;-inkscape-font-specification:Lavi" /></flowRegion><flowPara
         style="font-size:48px;text-align:center;text-anchor:middle"
         id="flowPara2993-6-2">Emootio?</flowPara></flowRoot>    <flowRoot
       xml:space="preserve"
       id="flowRoot2987-9-2-0"
       style="font-style:normal;font-variant:normal;font-weight:normal;font-stretch:normal;font-size:12px;line-height:125%;font-family:Lavi;-inkscape-font-specification:Lavi;letter-spacing:0px;word-spacing:0px;fill:#000000;fill-opacity:1;stroke:none"
       transform="translate(530.45216,22.291656)"><flowRegion
         id="flowRegion2989-8-1-0"><rect
           id="rect2991-8-9-5"
           width="816.64679"
           height="333.42978"
           x="120.55251"
           y="265.53046"
           style="font-style:normal;font-variant:normal;font-weight:normal;font-stretch:normal;font-family:Lavi;-inkscape-font-specification:Lavi" /></flowRegion><flowPara
         style="font-size:48px;text-align:center;text-anchor:middle"
         id="flowPara2993-6-2-3">Kuules nyt, Carrot!</flowPara><flowPara
         style="font-size:48px;text-align:center;text-anchor:middle"
         id="flowPara3087">En keksi enää vaihtoehtoja.</flowPara><flowPara
         style="font-size:48px;text-align:center;text-anchor:middle"
         id="flowPara3089">Eihän tuossa ole</flowPara><flowPara
         style="font-size:48px;text-align:center;text-anchor:middle"
         id="flowPara3411">mitään järkeä.</flowPara></flowRoot>    <flowRoot
       xml:space="preserve"
       id="flowRoot2987-9-2-0-6"
       style="font-style:normal;font-variant:normal;font-weight:normal;font-stretch:normal;font-size:12px;line-height:125%;font-family:Lavi;-inkscape-font-specification:Lavi;letter-spacing:0px;word-spacing:0px;display:inline;fill:#ffffff;fill-opacity:1;stroke:none"
       transform="translate(-50.881503,1182.239)"><flowRegion
         id="flowRegion2989-8-1-0-6"><rect
           id="rect2991-8-9-5-7"
           width="816.64679"
           height="333.42978"
           x="120.55251"
           y="265.53046"
           style="font-style:normal;font-variant:normal;font-weight:normal;font-stretch:normal;font-family:Lavi;-inkscape-font-specification:Lavi;fill:#ffffff" /></flowRegion><flowPara
         style="font-size:48px;text-align:center;text-anchor:middle;fill:#ffffff"
         id="flowPara3211">...eihän tuossa ole mitään järkeä...</flowPara></flowRoot>    <flowRoot
       xml:space="preserve"
       id="flowRoot2987-9-2-0-6-6"
       style="font-size:12px;font-style:normal;font-variant:normal;font-weight:normal;font-stretch:normal;line-height:125%;letter-spacing:0px;word-spacing:0px;fill:#000000;fill-opacity:1;stroke:none;display:inline;font-family:Lavi;-inkscape-font-specification:Lavi"
       transform="matrix(1.5197253,0,0,1.5330849,1257.5688,1015.7836)"><flowRegion
         id="flowRegion2989-8-1-0-6-9"><rect
           id="rect2991-8-9-5-7-5"
           width="816.64679"
           height="333.42978"
           x="120.55251"
           y="265.53046"
           style="font-style:normal;font-variant:normal;font-weight:normal;font-stretch:normal;font-family:Lavi;-inkscape-font-specification:Lavi" /></flowRegion><flowPara
         style="font-size:48px;text-align:center;text-anchor:middle"
         id="flowPara3211-4">Grrrrrrr !!!</flowPara></flowRoot>    <flowRoot
       xml:space="preserve"
       id="flowRoot2987-9-2-0-6-0"
       style="font-style:normal;font-variant:normal;font-weight:normal;font-stretch:normal;font-size:12px;line-height:125%;font-family:Lavi;-inkscape-font-specification:Lavi;letter-spacing:0px;word-spacing:0px;display:inline;fill:#000000;fill-opacity:1;stroke:none"
       transform="translate(1480.2042,1714.1754)"><flowRegion
         id="flowRegion2989-8-1-0-6-3"><rect
           id="rect2991-8-9-5-7-9"
           width="816.64679"
           height="333.42978"
           x="120.55251"
           y="265.53046"
           style="font-style:normal;font-variant:normal;font-weight:normal;font-stretch:normal;font-family:Lavi;-inkscape-font-specification:Lavi" /></flowRegion><flowPara
         style="font-size:48px;text-align:center;text-anchor:middle"
         id="flowPara3211-0">mikään ei koskaan onnistu minulle!</flowPara></flowRoot>    <flowRoot
       xml:space="preserve"
       id="flowRoot2987-9-2-0-6-0-6"
       style="font-style:normal;font-variant:normal;font-weight:normal;font-stretch:normal;font-size:12px;line-height:125%;font-family:Lavi;-inkscape-font-specification:Lavi;letter-spacing:0px;word-spacing:0px;display:inline;fill:#000000;fill-opacity:1;stroke:none"
       transform="translate(-335.4565,1855.8694)"><flowRegion
         id="flowRegion2989-8-1-0-6-3-4"><rect
           id="rect2991-8-9-5-7-9-1"
           width="816.64679"
           height="333.42978"
           x="120.55251"
           y="265.53046"
           style="font-style:normal;font-variant:normal;font-weight:normal;font-stretch:normal;font-family:Lavi;-inkscape-font-specification:Lavi" /></flowRegion><flowPara
         style="font-size:48px;text-align:center;text-anchor:middle"
         id="flowPara3211-0-7">Pyh ...</flowPara></flowRoot>    <flowRoot
       xml:space="preserve"
       id="flowRoot2987-9-2-0-6-0-6-3"
       style="font-style:normal;font-variant:normal;font-weight:normal;font-stretch:normal;font-size:12px;line-height:125%;font-family:Lavi;-inkscape-font-specification:Lavi;letter-spacing:0px;word-spacing:0px;display:inline;fill:#000000;fill-opacity:1;stroke:none"
       transform="translate(-0.47693864,1967.3146)"><flowRegion
         id="flowRegion2989-8-1-0-6-3-4-7"><rect
           id="rect2991-8-9-5-7-9-1-9"
           width="816.64679"
           height="333.42978"
           x="120.55251"
           y="265.53046"
           style="font-style:normal;font-variant:normal;font-weight:normal;font-stretch:normal;font-family:Lavi;-inkscape-font-specification:Lavi" /></flowRegion><flowPara
         style="font-size:48px;text-align:center;text-anchor:middle"
         id="flowPara3211-0-7-6">Minulla on vielä</flowPara><flowPara
         style="font-size:48px;text-align:center;text-anchor:middle"
         id="flowPara3333">aikaa keksiä</flowPara><flowPara
         style="font-size:48px;text-align:center;text-anchor:middle"
         id="flowPara3417">toinen juoma</flowPara></flowRoot>    <flowRoot
       xml:space="preserve"
       id="flowRoot2987-9-2-0-6-0-6-8"
       style="font-size:12px;font-style:normal;font-variant:normal;font-weight:normal;font-stretch:normal;line-height:125%;letter-spacing:0px;word-spacing:0px;fill:#ffffff;fill-opacity:1;stroke:none;display:inline;font-family:Lavi;-inkscape-font-specification:Lavi"
       transform="matrix(1.4153204,-0.2891204,-0.04384836,1.6651425,1316.8803,2127.5164)"><flowRegion
         id="flowRegion2989-8-1-0-6-3-4-1"><rect
           id="rect2991-8-9-5-7-9-1-8"
           width="816.64679"
           height="333.42978"
           x="120.55251"
           y="265.53046"
           style="font-style:normal;font-variant:normal;font-weight:normal;font-stretch:normal;fill:#ffffff;font-family:Lavi;-inkscape-font-specification:Lavi" /></flowRegion><flowPara
         style="font-size:48px;text-align:center;text-anchor:middle;fill:#ffffff"
         id="flowPara3211-0-7-0">CR...A...CKKKK !</flowPara></flowRoot>    <flowRoot
       xml:space="preserve"
       id="flowRoot2987-9-2-0-6-0-6-3-9"
       style="font-style:normal;font-variant:normal;font-weight:normal;font-stretch:normal;font-size:12px;line-height:125%;font-family:Lavi;-inkscape-font-specification:Lavi;letter-spacing:0px;word-spacing:0px;display:inline;fill:#000000;fill-opacity:1;stroke:none"
       transform="matrix(0.8245878,0,0,0.85157493,1279.9405,2747.5837)"><flowRegion
         id="flowRegion2989-8-1-0-6-3-4-7-5"><rect
           id="rect2991-8-9-5-7-9-1-9-4"
           width="816.64679"
           height="333.42978"
           x="120.55251"
           y="265.53046"
           style="font-style:normal;font-variant:normal;font-weight:normal;font-stretch:normal;font-family:Lavi;-inkscape-font-specification:Lavi" /></flowRegion><flowPara
         style="font-size:48px;text-align:center;text-anchor:middle"
         id="flowPara3427">Nuku hyvin,</flowPara><flowPara
         style="font-size:48px;text-align:center;text-anchor:middle"
         id="flowPara3421">Carrot!</flowPara></flowRoot>    <flowRoot
       xml:space="preserve"
       id="flowRoot2987-9-2-0-6-0-6-3-3"
       style="font-style:normal;font-variant:normal;font-weight:normal;font-stretch:normal;font-size:12px;line-height:125%;font-family:Lavi;-inkscape-font-specification:Lavi;letter-spacing:0px;word-spacing:0px;display:inline;fill:#000000;fill-opacity:1;stroke:none"
       transform="translate(1604.9819,3150.4042)"><flowRegion
         id="flowRegion2989-8-1-0-6-3-4-7-7"><rect
           id="rect2991-8-9-5-7-9-1-9-3"
           width="816.64679"
           height="333.42978"
           x="120.55251"
           y="265.53046"
           style="font-style:normal;font-variant:normal;font-weight:normal;font-stretch:normal;font-family:Lavi;-inkscape-font-specification:Lavi" /></flowRegion><flowPara
         style="font-size:48px;text-align:center;text-anchor:middle"
         id="flowPara3333-0">Jatkuu ...</flowPara></flowRoot>  </g>
</svg>
