<?xml version="1.0" encoding="UTF-8" standalone="no"?>
<!-- Created with Inkscape (http://www.inkscape.org/) -->

<svg
   xmlns:dc="http://purl.org/dc/elements/1.1/"
   xmlns:cc="http://creativecommons.org/ns#"
   xmlns:rdf="http://www.w3.org/1999/02/22-rdf-syntax-ns#"
   xmlns:svg="http://www.w3.org/2000/svg"
   xmlns="http://www.w3.org/2000/svg"
   xmlns:xlink="http://www.w3.org/1999/xlink"
   xmlns:sodipodi="http://sodipodi.sourceforge.net/DTD/sodipodi-0.dtd"
   xmlns:inkscape="http://www.inkscape.org/namespaces/inkscape"
   id="svg2"
   version="1.1"
   inkscape:version="0.91 r13725"
   width="2481"
   height="663"
   sodipodi:docname="Pepper-and-Carrot_by-David-Revoy_E04P00.svg">
  <metadata
     id="metadata8">
    <rdf:RDF>
      <cc:Work
         rdf:about="">
        <dc:format>image/svg+xml</dc:format>
        <dc:type
           rdf:resource="http://purl.org/dc/dcmitype/StillImage" />
        <dc:title />
      </cc:Work>
    </rdf:RDF>
  </metadata>
  <defs
     id="defs6" />
  <sodipodi:namedview
     pagecolor="#ffffff"
     bordercolor="#666666"
     borderopacity="1"
     objecttolerance="10"
     gridtolerance="10"
     guidetolerance="10"
     inkscape:pageopacity="0"
     inkscape:pageshadow="2"
     inkscape:window-width="1366"
     inkscape:window-height="705"
     id="namedview4"
     showgrid="false"
     inkscape:zoom="0.32585332"
     inkscape:cx="1081.372"
     inkscape:cy="313.27957"
     inkscape:window-x="-8"
     inkscape:window-y="-8"
     inkscape:window-maximized="1"
     inkscape:current-layer="layer1" />
  <g
     inkscape:groupmode="layer"
     id="layer2"
     inkscape:label="artwork"
     sodipodi:insensitive="true"
     style="display:none">
    <image
       sodipodi:absref="G:\Pepper And Carrot\Translation\peppercarrot_ep04_translation-master\el\..\gfx_Pepper-and-Carrot_by-David-Revoy_E04P00.png"
       xlink:href="../gfx_Pepper-and-Carrot_by-David-Revoy_E04P00.png"
       width="2481"
       height="663"
       id="image10"
       x="0"
       y="0" />
  </g>
  <g
     inkscape:groupmode="layer"
     id="layer1"
     inkscape:label="txt"
     style="display:inline">
    <flowRoot
       xml:space="preserve"
       id="flowRoot2987"
       style="font-style:normal;font-variant:normal;font-weight:normal;font-stretch:expanded;font-size:12px;line-height:125%;font-family:Pecita;-inkscape-font-specification:'Pecita Expanded';letter-spacing:0px;word-spacing:0px;fill:#2e5188;fill-opacity:1;stroke:none"
       transform="translate(-727.11813,-120.8471)"><flowRegion
         id="flowRegion2989"><rect
           id="rect2991"
           width="2405.8"
           height="107.55731"
           x="739.22333"
           y="644.36664"
           style="font-style:normal;font-variant:normal;font-weight:normal;font-stretch:expanded;font-family:Pecita;-inkscape-font-specification:'Pecita Expanded';fill:#2e5188;fill-opacity:1" /></flowRegion><flowPara
         id="flowPara2993"
         style="font-style:normal;font-variant:normal;font-weight:normal;font-stretch:expanded;font-size:72px;font-family:Pecita;-inkscape-font-specification:'Pecita Expanded';text-align:center;text-anchor:middle;fill:#2e5188;fill-opacity:1">Επεισόδιο 4 : Μια Δόση Ιδιοφυΐας</flowPara></flowRoot>    <path
       style="display:inline;opacity:1;fill-opacity:1;fill:#2e5188"
       d="m 594.9554,525.30559 c -2.20814,-5.86537 -1.60209,-71.53113 0.97536,-105.6802 4.37817,-58.00723 12.4337,-95.17816 20.62663,-95.17816 4.82082,0 5.38418,-1.75145 2.209,-6.86766 -2.91062,-4.68992 3.61895,-15.52432 13.52899,-22.44841 5.51982,-3.85669 11.11537,-5.54781 18.35626,-5.54781 12.10889,0 15.8887,2.9429 15.8887,12.37074 0,5.97739 0.44011,6.42025 3.66722,3.69033 3.11776,-2.6374 4.14966,-2.42963 6.88744,1.38679 8.51599,11.87081 11.09563,49.19956 4.70277,68.0501 -4.4292,13.0603 -12.72791,25.20462 -19.31344,28.26306 -14.54324,6.7541 -33.25943,-0.13628 -42.16641,-15.52351 l -4.99914,-8.63636 -3.07195,16.21126 c -1.76245,9.30074 -2.90435,28.76564 -2.67877,45.66254 0.28714,21.50784 -0.62379,33.01705 -3.37739,42.67184 -2.9077,10.19504 -3.21759,14.83736 -1.35414,20.286 1.32906,3.88602 2.41646,9.83805 2.41646,13.22655 0,10.04712 -9.26393,16.12095 -12.29759,8.0629 z m 65.74761,-144.92224 c 5.15402,-5.80492 10.17034,-20.22131 10.29781,-29.59453 0.0547,-4.04801 1.38281,-7.80139 2.9505,-8.34083 3.62612,-1.24755 -1.82222,-13.63642 -10.75634,-24.45881 -4.76858,-5.77634 -7.98364,-7.4875 -14.0683,-7.4875 -10.04419,0 -17.28447,7.64736 -23.64456,24.97402 -4.03441,10.99093 -4.31904,14.01838 -1.99605,21.23245 3.36315,10.4441 12.18485,24.97337 16.14528,26.59118 6.88734,2.81352 17.25895,1.37826 21.07166,-2.91598 z m 708.08969,145.01994 c -2.272,-2.79023 -2.5706,-14.11072 -1.3554,-51.37856 3.4092,-104.55618 13.1951,-154.10197 34.6173,-175.26554 6.3038,-6.22774 9.954,-7.80841 19.9908,-8.65679 l 12.2788,-1.03789 1.4659,7.47091 c 0.8062,4.109 0.8968,8.4094 0.2013,9.55646 -0.6955,1.14705 0.2843,2.08554 2.1772,2.08554 1.8929,0 4.5181,-1.83035 5.8335,-4.06745 2.2449,-3.8172 2.6087,-3.78146 5.9145,0.58106 1.9373,2.55669 5.152,10.35927 7.1436,17.33907 6.6917,23.45253 -0.4277,67.49645 -10.9103,67.49645 -3.0639,0 -4.313,1.65911 -4.313,5.72879 0,6.9249 -5.8544,10.54099 -17.0655,10.54099 -10.72,0 -19.66,-4.86151 -28.0746,-15.26674 -3.732,-4.61508 -7.3593,-7.4449 -8.0604,-6.28868 -0.701,1.15633 -2.4846,18.22525 -3.9634,37.93111 -2.0407,27.1937 -3.5325,36.45789 -6.1902,38.43866 -3.1345,2.33624 -3.1048,3.18721 0.2826,8.11667 2.9031,4.22478 3.7841,10.83319 3.7841,28.38505 0,12.58302 -1.0623,24.90129 -2.3605,27.37391 -2.8431,5.41473 -7.4335,5.78417 -11.3963,0.91698 z m 65.2171,-144.50055 c 6.6066,-6.73406 10.3924,-19.16146 10.3924,-34.11465 0,-23.96688 -6.8994,-36.28641 -20.3217,-36.28641 -10.2635,0 -20.7664,10.96308 -25.7529,26.88149 -3.1721,10.12579 -3.2153,12.69601 -0.36,21.42714 4.5475,13.9053 16.2878,26.06764 25.1633,26.06764 3.8384,0 8.7338,-1.78881 10.8789,-3.97521 z m 622.9887,137.03905 c -6.9009,-15.80953 -7.5957,-39.72296 -2.6666,-91.77005 5.6155,-59.29366 5.7776,-96.76569 0.4338,-100.21877 -3.0684,-1.98267 -5.087,-1.36423 -9.5753,2.93355 -3.5659,3.41462 -7.1155,4.88714 -9.5169,3.94798 -3.2154,-1.25777 -3.6122,-0.3903 -2.4742,5.40936 0.918,4.67857 -0.3944,10.87936 -4.0672,19.21695 -2.9824,6.7702 -8.6867,20.41529 -12.6763,30.32249 -5.3562,13.30065 -8.356,18.01303 -11.467,18.01303 -4.7831,0 -5.5452,-0.98238 -7.6158,-9.81617 -1.1444,-4.88288 -0.748,-6.04215 1.7344,-5.0712 5.6899,2.22558 6.6426,-3.94747 1.6675,-10.80636 -2.8915,-3.98645 -4.845,-10.19251 -4.8687,-15.46772 -0.023,-4.84562 -1.561,-16.13118 -3.4203,-25.07908 -1.8595,-8.94789 -3.3809,-19.26761 -3.3809,-22.93262 0,-5.45442 -0.8041,-6.44934 -4.4311,-5.48258 -6.1397,1.63654 -12.0434,-5.6811 -11.1317,-13.79786 0.5233,-4.65979 2.1691,-6.80488 5.6037,-7.30421 10.3114,-1.49905 26.1494,26.82181 29.5312,52.80634 0.8459,6.49978 2.1753,11.78966 2.9544,11.75524 0.779,-0.0344 4.4031,-6.87641 8.0535,-15.20458 3.6504,-8.32817 10.664,-19.80514 15.5857,-25.50438 10.9798,-12.71425 21.2588,-14.19192 30.2134,-4.34336 11.3274,12.45818 11.9747,28.61821 4.3771,109.27664 -4.6904,49.79438 -4.6455,77.16202 0.1477,89.95502 3.0444,8.12538 3.3326,11.46608 1.3202,15.29894 -4.1435,7.8915 -9.1416,5.75117 -14.3307,-6.1366 z M 826.3629,410.22573 c -2.36,-3.95546 -5.5746,-12.0614 -7.1435,-18.01303 -1.569,-5.95163 -3.5568,-11.64083 -4.4175,-12.64266 -0.8607,-1.00182 -4.4042,2.75713 -7.8745,8.35318 -15.9972,25.7964 -43.01555,23.39668 -52.39242,-4.65335 -4.76028,-14.24001 -4.88542,-43.24095 -0.20361,-47.20138 1.88125,-1.59138 3.42038,-6.46772 3.42038,-10.83632 0,-9.0505 7.67139,-25.93061 12.67365,-27.88718 1.8405,-0.71991 4.847,-0.0396 6.681,1.51188 2.7349,2.31358 3.8206,1.73345 6.0377,-3.22636 5.2981,-11.85252 18.9747,-5.95656 27.9531,12.05055 l 5.3911,10.81255 2.9307,-13.87407 c 2.8141,-13.32176 13.0682,-28.73088 16.6735,-25.05593 4.5437,4.63137 -1.4279,37.29706 -7.6472,41.83086 -7.3829,5.3821 -2.7098,44.40332 8.9511,74.74383 7.0168,18.25684 -1.8168,29.53541 -11.0335,14.08743 z m -34.9361,-30.58421 c 2.6544,-2.88003 7.537,-11.27169 10.8502,-18.64805 l 6.0239,-13.41172 -4.7239,-14.25783 c -7.9452,-23.98072 -16.1409,-28.7854 -26.0446,-15.2684 -7.7069,10.51884 -11.45015,23.69205 -11.48497,40.41744 -0.0364,17.55136 4.71217,26.40499 14.16217,26.40499 3.6816,0 8.4368,-2.21981 11.2172,-5.23643 z m 550.3074,28.93826 c -2.5137,-5.02229 -5.7678,-13.97869 -7.2314,-19.90309 -1.4635,-5.92429 -3.332,-10.77153 -4.1519,-10.77153 -0.8201,0 -3.4902,3.78365 -5.9334,8.40795 -10.1096,19.13453 -31.5863,25.86485 -43.567,13.65309 -3.1459,-3.20655 -5.0424,-6.94738 -4.2145,-8.31298 0.828,-1.36551 -0.57,-4.4536 -3.1066,-6.86234 -3.248,-3.08445 -5.0738,-8.77487 -6.1734,-19.24145 -2.7763,-26.42382 6.7403,-56.96666 21.7647,-69.85267 8.6862,-7.44992 9.961,-7.53563 13.1446,-0.88383 l 2.5029,5.22959 1.5319,-5.22959 c 0.8426,-2.87627 2.8451,-5.22958 4.4502,-5.22958 3.6398,0 16.1532,14.30504 18.165,20.76561 2.5875,8.30987 5.0612,5.28678 7.9578,-9.72538 3.2872,-17.03595 5.852,-22.66152 10.332,-22.66152 8.9899,0 9.5665,21.93473 0.6649,25.29118 -4.1408,1.56133 -4.2527,2.0973 -1.1067,5.30398 3.146,3.20668 3.0116,5.44246 -1.3308,22.12541 l -4.8304,18.55824 5.8622,21.88599 c 3.2242,12.03731 7.2535,25.31184 8.954,29.49896 2.2798,5.61397 2.4414,8.66552 0.6153,11.62129 -4.4798,7.25091 -9.476,5.96955 -14.2994,-3.66733 z m -32.4597,-31.83672 c 3.8541,-4.47415 7.9963,-8.13489 9.2049,-8.13489 2.1549,0 2.8517,-5.65043 3.03,-24.57417 0.1299,-13.79614 -9.3503,-32.16097 -17.0833,-33.09338 -4.8165,-0.58074 -7.0984,1.02158 -11.5848,8.13491 -8.3152,13.18369 -11.2332,25.04828 -10.2056,41.49605 1.5325,24.53326 13.2886,31.66987 26.6388,16.17148 z m 778.4527,38.11619 c -1.5677,-1.66094 -2.8504,-5.53885 -2.8504,-8.61764 0,-4.72463 0.841,-5.38263 5.3914,-4.2185 3.5981,0.92042 7.1271,-0.15531 10.6101,-3.2345 2.8704,-2.53742 7.6602,-4.61357 10.644,-4.61357 7.8954,0 21.2405,-6.21831 21.2405,-9.89727 0,-1.739 -5.6603,-8.14279 -12.5785,-14.2307 -6.9181,-6.08791 -14.6141,-15.13603 -17.1022,-20.1069 -8.9389,-17.85975 -3.998,-46.98369 9.6203,-56.70632 4.7873,-3.41784 5.3772,-3.2574 10.1162,2.75173 4.3571,5.5249 5.2361,5.85031 6.5503,2.42504 0.8348,-2.17589 0.8533,-5.05216 0.041,-6.39171 -3.6827,-6.07363 9.1606,-1.62929 16.2892,5.63678 8.5148,8.67898 9.4533,16.2608 2.5582,20.66574 -3.0398,1.94195 -5.0619,1.35987 -9.2681,-2.66794 -13.9859,-13.39247 -31.4106,2.21921 -23.6387,21.179 1.8213,4.44287 6.4841,10.46892 10.3619,13.39117 4.973,3.74761 7.0504,7.23887 7.0504,11.84879 0,3.59463 1.0262,6.53572 2.2803,6.53572 1.2542,0 2.2804,-1.69698 2.2804,-3.771 0,-7.08103 6.195,1.0243 8.7797,11.48704 4.2128,17.05342 -1.3813,29.20423 -16.2341,35.26176 -12.9145,5.26701 -38.3921,7.24596 -42.1419,3.27328 z m -1064.6296,-13.32668 -3.9154,-11.23645 -6.6759,7.75006 c -17.24255,20.01689 -36.10739,-1.49004 -29.14059,-33.22157 5.3841,-24.52222 22.51839,-34.88988 31.84009,-19.26595 4.6373,7.77254 5.6966,7.21933 8.1064,-4.23389 1.7642,-8.38497 5.0557,-11.58638 8.4038,-8.17367 1.4305,1.45804 0.5679,8.82316 -2.4395,20.82918 -4.372,17.45355 -4.4379,19.33065 -1.0933,31.1274 5.9147,20.86138 6.5061,27.66145 2.4058,27.66145 -2.2149,0 -5.0665,-4.27713 -7.4914,-11.23656 z m -12.7191,-18.3028 c 4.7709,-8.83257 5.0153,-10.69833 2.5155,-19.20277 -3.1417,-10.68841 -6.7769,-14.6863 -11.6283,-12.78865 -4.84475,1.89481 -10.92499,16.21855 -10.92499,25.73636 0,19.42308 11.06009,22.87566 20.03779,6.25506 z m -799.78055,18.13575 c -3.71741,-7.07991 -3.05216,-27.99759 0.94008,-29.559 2.88691,-1.12919 2.84805,-2.06136 -0.28933,-6.94202 -3.13665,-4.87943 -3.41992,-11.64903 -2.10628,-50.33748 3.31718,-97.69487 6.05963,-139.84406 9.44314,-145.13281 4.88811,-7.64058 38.81398,-15.47121 79.7313,-18.40326 18.00045,-1.28987 20.98339,-0.95962 23.92109,2.64835 3.7594,4.61715 5.25968,53.09102 5.53048,178.68837 0.13741,63.73601 -0.17975,69.68531 -3.8407,72.04019 -6.55993,4.21952 -11.86121,-0.99849 -12.68781,-12.48856 -0.39397,-5.47638 0.3276,-11.02121 1.60348,-12.32171 1.57289,-1.60323 1.55699,-3.81737 -0.0494,-6.87671 -2.81419,-5.35975 -5.69262,-50.17283 -3.06177,-47.66737 0.9982,0.95063 3.20857,-0.2997 4.91194,-2.77849 2.67826,-3.89749 2.47581,-5.54549 -1.49715,-12.18758 -4.14485,-6.92943 -4.59503,-11.6809 -4.60272,-48.57921 -0.005,-22.49418 -0.68311,-50.58535 -1.50759,-62.42481 l -1.49908,-21.5263 -10.78167,1.45783 c -8.46919,1.14514 -11.06678,0.70043 -12.11105,-2.07336 -1.81819,-4.82951 -7.67253,-4.44614 -10.36333,0.67864 -1.4702,2.80008 -6.94167,5.10666 -16.33909,6.888 -7.77077,1.47299 -14.65662,3.21628 -15.30187,3.87398 -0.64525,0.65769 -1.66834,6.44839 -2.27353,12.8682 -0.60519,6.41982 -1.92678,11.67239 -2.93686,11.67239 -3.85895,0 -4.50827,9.36199 -1.11342,16.05351 2.99893,5.91113 3.36516,14.62018 2.37502,56.47944 -2.0382,86.16783 -3.37202,114.05262 -5.58554,116.77117 -1.1839,1.45399 -5.74381,2.89017 -10.13315,3.19147 -5.94738,0.40833 -8.59069,-0.61405 -10.37523,-4.01287 z m 143.41339,-0.79883 c -7.2968,-7.83814 -8.86563,-13.78279 -10.30433,-39.04522 -1.19764,-21.02995 1.636,-59.38527 5.05904,-68.47761 0.81137,-2.15519 3.42106,-3.41168 6.23574,-3.00234 4.19534,0.61014 4.78024,2.09783 4.38896,11.16312 -2.81766,65.27888 -2.79992,67.96524 0.50175,76.01964 3.30361,8.05916 3.51156,8.1599 13.64435,6.61104 9.34327,-1.42807 10.4775,-1.07836 12.33234,3.80239 2.66521,7.01319 -2.12197,14.92787 -8.45571,13.97991 -2.54413,-0.38079 -5.29023,0.40367 -6.10243,1.74325 -2.55502,4.21385 -12.23059,2.65112 -17.29971,-2.79418 z m 53.45313,-0.82445 c -0.81988,-3.32966 -0.32637,-21.00383 1.0967,-39.27585 3.47347,-44.59878 3.43437,-46.1448 -1.12204,-44.36263 -5.3602,2.09657 -9.97225,-2.79887 -9.97225,-10.58502 0,-5.00713 1.52858,-7.44791 5.95051,-9.50153 5.13229,-2.38353 6.40459,-2.13698 9.25283,1.79302 3.00632,4.14811 3.49444,4.21133 5.44554,0.70526 1.37658,-2.47368 3.85994,-3.3937 6.94256,-2.57204 2.82178,0.75215 5.60847,-0.0552 6.763,-1.95928 2.58393,-4.2615 56.85691,-6.38011 56.85691,-2.21949 0,1.46903 1.79572,2.36364 3.9905,1.98801 5.36778,-0.91867 6.51874,8.0293 1.66869,12.9729 -2.03757,2.07685 -6.10457,3.77609 -9.03779,3.77609 -5.05379,0 -5.41937,1.05511 -6.97939,20.14419 -1.07123,13.10809 -0.62942,26.7062 1.26491,38.93132 4.47836,28.9012 4.26419,34.92978 -1.2696,35.73711 -3.4293,0.50026 -5.81262,-1.65071 -9.01382,-8.13489 -4.34397,-8.79906 -5.28069,-20.33753 -5.5904,-68.86303 l -0.11622,-18.21131 -17.6722,1.64308 c -9.71971,0.9037 -17.84306,1.77738 -18.05189,1.9415 -0.93115,0.73183 -5.5732,61.87339 -5.46175,71.93803 0.0682,6.16485 -0.93438,13.22482 -2.22809,15.68873 -3.47764,6.6234 -10.9252,5.70145 -12.71671,-1.57417 z m 114.79835,1.40762 c -3.4783,-2.78881 -5.39679,-6.27349 -4.7986,-8.71604 0.54817,-2.23814 -1.59992,-7.10836 -4.77353,-10.82266 -3.59127,-4.20312 -5.7324,-9.46921 -5.6701,-13.94559 0.1286,-9.2327 5.18107,-23.66366 10.30616,-29.43609 3.31381,-3.73232 3.54633,-5.51688 1.35696,-10.41466 -3.83257,-8.57381 -3.24038,-30.43313 1.0756,-39.70384 4.54749,-9.76789 12.35426,-16.05258 14.8426,-11.94873 1.24285,2.04976 2.81246,1.73601 5.99311,-1.19794 10.56285,-9.74359 29.71345,2.46633 23.2314,14.81172 -2.22957,4.24633 -3.88351,4.65311 -13.4607,3.31051 -10.01749,-1.40433 -11.3201,-1.01066 -15.78059,4.76928 -2.67398,3.46499 -4.84608,9.55816 -4.82688,13.54037 0.0349,7.24296 2.61152,13.62321 5.35066,13.24956 5.67613,-0.77429 8.45715,0.41373 10.62252,4.5378 3.67632,7.00178 0.50889,13.85865 -8.09434,17.52253 -9.4557,4.02705 -14.75461,11.4755 -14.75461,20.73999 0,18.69209 16.51586,22.99979 39.96916,10.42477 14.60235,-7.82944 19.31822,-6.68212 19.31822,4.70013 0,6.69882 -7.76081,13.92827 -14.95202,13.92827 -2.04108,0 -6.32008,2.09184 -9.50888,4.6486 -8.01635,6.42718 -27.43094,6.42839 -35.44614,0 z m 192.67673,-0.0111 c -4.10724,-2.55251 -8.53978,-7.51477 -9.8499,-11.02728 -1.31022,-3.51252 -4.0069,-8.2163 -5.99263,-10.45282 -3.08202,-3.47131 -3.41117,-8.91438 -2.24917,-37.19242 1.49833,-36.46272 5.06998,-51.72025 12.10726,-51.72025 3.54199,0 4.45684,1.98926 5.02119,10.91897 0.42918,6.78966 -0.71115,13.6811 -3.0153,18.22278 -2.14814,4.23422 -2.99425,8.92511 -2.01328,11.16153 0.93076,2.1217 1.77656,12.74795 1.87953,23.61384 0.11269,11.87583 1.40337,21.9351 3.23591,25.2188 2.72281,4.87873 4.12557,5.29789 13.12793,3.92185 9.12461,-1.39476 10.26504,-1.03149 12.03938,3.83448 2.26517,6.21204 0.91556,11.16022 -4.14025,15.17937 -5.1907,4.12627 -11.67914,3.58562 -20.15067,-1.67906 z M 907.0493,373.83825 c 0.896,-17.57717 2.6017,-32.99569 3.7904,-34.26338 4.2311,-4.51222 6.7748,4.44296 5.4413,19.15569 -0.7242,7.98971 -0.8638,14.52664 -0.3103,14.52664 0.5535,0 4.2115,-4.4452 8.1289,-9.87814 9.27395,-12.86196 24.42171,-24.98573 31.21761,-24.98573 7.3158,0 7.0535,6.89301 -0.5375,14.12145 -8.084,7.69782 -12.325,16.67092 -12.325,26.07746 0,14.36768 13.4327,20.22353 25.0832,10.93474 6.9276,-5.52336 10.4721,-5.82092 12.2756,-1.03037 1.592,4.22873 -8.2506,14.44108 -15.7729,16.36546 -17.3119,4.42879 -28.2927,-4.48691 -30.17966,-24.5038 l -1.1161,-11.83937 -4.90705,6.77951 c -2.699,3.72878 -7.3595,12.11628 -10.3567,18.63894 -2.9973,6.52276 -6.9372,11.85952 -8.7553,11.85952 -2.8061,0 -3.0594,-4.82993 -1.6765,-31.95862 z m 134.5465,27.25211 c -7.9088,-8.9076 -6.8629,-61.53493 1.2229,-61.53493 2.802,0 3.389,4.62946 3.389,26.72897 l 0,26.72898 6.8409,0.084 c 5.7277,0.0709 6.8409,1.016 6.8409,5.81069 0,4.68312 -1.2678,5.85302 -6.9574,6.4204 -4.8046,0.47919 -8.3124,-0.83224 -11.3363,-4.23815 z m 97.362,1.70964 c -5.0689,-6.2255 -7.4236,-25.18923 -8.7907,-70.79842 l -1.4108,-47.06623 6.3526,0 6.3525,0 -6.1071,-6.22495 -6.1072,-6.22495 1.5391,-35.03064 c 0.8465,-19.26686 2.4522,-36.83691 3.5681,-39.04456 1.2936,-2.55937 1.0231,-5.65562 -0.7468,-8.54428 -3.5874,-5.85506 -0.1094,-20.8373 5.6647,-24.40226 3.3721,-2.08198 4.9948,-1.48183 8.8106,3.2587 4.3902,5.45401 4.5777,7.66515 3.0559,36.02602 -0.8919,16.61844 -2.6727,31.5218 -3.9575,33.11858 -1.5997,1.98794 -1.5555,4.91896 0.1397,9.29703 1.3618,3.51659 2.7693,9.7828 3.1279,13.92491 0.6417,7.41255 1.1256,7.00848 30.7405,-25.6704 16.5486,-18.26083 36.2498,-41.16647 43.7804,-50.90142 16.0368,-20.73076 16.9436,-21.44627 22.9959,-18.14469 3.3635,1.83478 4.6005,4.84507 4.5809,11.14772 -0.023,7.03829 -2.5829,11.92095 -13.8567,26.41619 -12.0052,15.43578 -15.1955,18.13249 -24.1798,20.43839 -10.1378,2.60198 -10.2659,2.75087 -6.2542,7.26935 3.9814,4.48423 3.8413,4.88681 -5.0177,14.4255 -45.1036,48.56372 -55.8667,62.90099 -53.8838,71.77769 0.5192,2.32476 8.2551,6.89639 19.4601,11.50022 36.6191,15.04585 74.6377,47.47537 74.6377,63.66497 0,7.90345 -3.4751,12.7844 -9.1024,12.7844 -1.9963,0 -8.2044,-4.80057 -13.7957,-10.66796 -5.5913,-5.86739 -14.5268,-13.76203 -19.857,-17.54366 -5.3302,-3.78153 -9.6913,-8.71736 -9.6913,-10.96825 0,-2.2509 -1.4091,-6.05693 -3.1314,-8.45777 -3.0156,-4.20362 -3.192,-4.17082 -4.7665,0.886 -0.8994,2.88814 -2.8251,4.74488 -4.2795,4.12617 -1.4544,-0.61871 -8.0557,-3.45876 -14.6696,-6.31135 -6.6139,-2.8525 -12.5974,-4.60314 -13.2968,-3.89027 -0.6994,0.71287 0.01,11.26683 1.5723,23.45327 2.3083,17.98378 2.2906,22.83679 -0.094,25.76542 -3.5714,4.38617 -10.0673,4.68302 -13.3824,0.61153 z m 350.6998,-2.23278 c -8.9836,-6.19745 -17.342,-22.04069 -19.3127,-36.60701 -2.7498,-20.32468 5.7415,-54.63555 14.2354,-57.52145 1.5382,-0.52262 3.9548,1.64032 5.3701,4.80653 2.0234,4.52638 1.7619,8.24695 -1.2235,17.40818 -4.4755,13.73451 -4.3307,50.04923 0.1925,48.28006 1.4604,-0.57123 4.4499,0.98269 6.6433,3.45319 7.7555,8.73488 31.0832,2.73991 37.5946,-9.66147 1.2824,-2.44246 4.4576,-4.44085 7.0559,-4.44085 3.6265,0 4.3295,-0.94523 3.0254,-4.06744 -0.9345,-2.23713 -1.4936,-11.49291 -1.2425,-20.56848 0.4099,-14.81846 -0.1599,-17.24769 -5.5886,-23.82365 -6.8246,-8.26701 -17.0967,-9.81439 -25.4695,-3.83673 -5.9524,4.24962 -11.2052,2.55345 -12.9317,-4.17564 -1.6031,-6.24856 3.7774,-14.92701 11.4693,-18.49927 4.9077,-2.27919 6.2995,-2.05295 8.7982,1.43015 2.786,3.88344 3.1025,3.8933 5.1519,0.1606 1.6374,-2.9824 3.7709,-3.57096 8.5305,-2.3533 14.065,3.59815 26.1751,26.35257 26.1751,49.18187 0,24.71145 -15.3255,53.84228 -32.7633,62.27666 -11.358,5.49369 -26.5458,4.88045 -35.7104,-1.44195 z m 141.4428,0.58895 c -4.3895,-2.43921 -9.723,-4.95395 -11.8522,-5.58826 -7.9684,-2.3737 -12.0945,-15.20853 -12.0294,-37.4184 0.053,-18.11367 0.8939,-22.57992 6.2708,-33.31166 3.4152,-6.81633 6.2094,-12.83035 6.2094,-13.36449 0,-0.53414 -5.6437,-0.97117 -12.5416,-0.97117 -9.6278,0 -12.5415,-0.80996 -12.5415,-3.48638 0,-4.2027 -2.6606,-4.49327 -6.3848,-0.69728 -4.0223,4.09991 -7.8145,-0.7865 -6.9051,-8.89768 l 0.7483,-6.67486 25.0831,-0.65159 c 23.9917,-0.62324 25.1824,-0.4275 27.3634,4.49816 3.2629,7.36864 6.6839,7.61519 10.293,0.74178 2.4879,-4.73848 4.5822,-5.83341 10.1044,-5.28286 5.7397,0.57226 7.0954,1.84446 7.7009,7.22677 0.9025,8.02348 -2.303,12.26529 -10.5377,13.94399 -24.2209,4.9376 -40.715,51.42876 -24.2132,68.24871 5.3287,5.43153 7.0411,5.86446 18.0015,4.5514 9.8167,-1.17596 12.3744,-0.75579 13.4935,2.21688 3.8786,10.30236 -2.2209,20.54256 -8.8804,14.90904 -2.8014,-2.36975 -3.4204,-2.2109 -3.4204,0.8776 0,4.95527 -6.075,4.6243 -15.962,-0.8697 z m 63.848,0.83963 c -7.903,-5.71238 -10.9377,-9.71189 -16.3732,-21.57921 -11.154,-24.35203 -0.5236,-83.63868 12.9527,-72.23866 5.4154,4.58103 3.5446,23.2426 -2.3299,23.2426 -2.2039,0 -2.6577,3.63128 -1.8161,14.52664 1.5229,19.71133 4.5265,28.68778 11.4595,34.24648 7.6001,6.09347 16.6106,5.92905 28.8032,-0.52567 8.6096,-4.55798 10.3596,-6.86072 13.9731,-18.38825 4.0905,-13.04835 4.3437,-15.74524 3.5336,-37.63347 -0.3647,-9.85421 -0.9623,-11.11523 -4.7851,-10.09631 -2.4024,0.6404 -4.9428,0.21665 -5.6452,-0.94169 -2.0673,-3.40948 -14.3894,-2.41365 -20.4818,1.65526 -7.0554,4.71202 -12.45,1.10082 -12.45,-8.3342 0,-9.28115 7.2353,-14.65955 21.1279,-15.70555 14.9821,-1.12801 24.4196,4.34913 31.7804,18.44405 7.4049,14.17936 7.4938,46.76486 0.1717,62.96884 -4.3922,9.72 -5.6046,10.85719 -9.3798,8.79775 -5.6798,-3.09832 -7.4134,-1.03716 -4.8678,5.78751 5.0166,13.44928 -31.4605,26.04708 -45.6733,15.77388 z m 126.0267,-0.84753 c -4.3598,-5.18995 -8.8945,-6.04832 -10.2386,-1.93784 -1.7179,5.25263 -13.1881,-10.86306 -17.6234,-24.76056 -7.3106,-22.90776 -11.9042,-70.41949 -7.8495,-81.18952 2.0864,-5.54209 9.8409,-4.45175 12.1381,1.70672 2.6631,7.13954 3.8724,54.74361 1.5649,61.6024 -1.4684,4.3643 -0.901,5.63605 2.9756,6.66936 2.6345,0.70224 5.4071,3.78315 6.1614,6.84644 0.7543,3.06339 3.9598,7.64497 7.1234,10.18148 14.0558,11.26946 27.7742,1.51615 33.9922,-24.16736 3.3738,-13.93506 3.4787,-18.36507 0.8899,-37.58374 -3.1974,-23.73814 -2.4755,-28.93179 4.0215,-28.93179 7.1979,0 10.3323,11.02602 11.3522,39.93306 1.0203,28.91881 -1.717,43.08917 -11.5264,59.66846 -8.8067,14.88454 -25.4546,20.92304 -32.9813,11.96289 z m 57.9162,3.09903 c -3.3848,-3.44994 -1.0499,-13.24385 7.91,-33.18025 8.6288,-19.19923 9.8887,-20.86563 14.8219,-19.6035 5.0276,1.28612 5.3916,0.72026 5.3916,-8.38416 0,-6.19007 1.6418,-11.89111 4.486,-15.57654 l 4.486,-5.81302 -6.8578,-14.30979 c -11.3116,-23.60354 -13.8504,-27.92891 -20.8526,-35.52622 -12.4891,-13.55068 -4.1775,-29.21074 8.8972,-16.76314 7.7594,7.38735 11.3748,15.04773 13.31,28.20165 1.373,9.33199 2.288,10.86628 5.8029,9.72921 5.3466,-1.72966 6.6418,0.86716 28.3604,56.86045 9.5449,24.60777 17.0394,46.99392 16.6545,49.74709 -0.4338,3.10156 -2.6113,5.2828 -5.7248,5.73416 -4.1084,0.59573 -6.2353,-1.73526 -11.6638,-12.78339 -3.6515,-7.43164 -9.575,-21.61789 -13.1633,-31.52499 -3.5882,-9.9072 -7.2439,-18.01304 -8.1235,-18.01304 -2.4236,0 -17.0813,25.44893 -26.0368,45.20582 -5.6039,12.36272 -9.1699,17.54923 -12.0662,17.54923 -2.2614,0 -4.7956,-0.69728 -5.6317,-1.54957 z M 787.335,261.57709 c -2.2477,-4.28096 -1.2136,-8.19195 6.8353,-25.84981 5.2162,-11.44312 10.8511,-27.46629 12.5222,-35.60701 3.48,-16.95364 4.8022,-19.77708 9.2608,-19.77708 12.8591,0 6.4737,38.75945 -12.0568,73.18512 -6.9521,12.91558 -12.5721,15.64686 -16.5615,8.04878 z m 1028.4952,0.16614 c -3.8513,-7.33492 6.7649,-30.45207 13.1972,-28.73753 4.0689,1.08455 4.4121,0.22879 3.5621,-8.88028 -1.3077,-14.01064 5.9618,-42.33874 11.1223,-43.34217 2.4887,-0.48394 4.964,1.46289 6.6471,5.22807 2.3324,5.21801 1.9871,6.75275 -2.6527,11.7868 -4.4212,4.79694 -4.6808,5.78766 -1.5164,5.78766 4.9399,0 4.8117,3.10947 -0.8197,19.88595 -6.5163,19.41238 -18.5909,41.5428 -23.142,42.41456 -2.1102,0.40421 -4.9892,-1.46017 -6.3979,-4.14306 z"
       id="path3110"
       inkscape:connector-curvature="0" />
    <path
       style="fill:none"
       d="m 828.27222,410.95977 c -1.84092,-2.62828 -5.39368,-10.92859 -7.89502,-18.44513 -2.50135,-7.51654 -5.43094,-13.66644 -6.5102,-13.66644 -1.07927,0 -4.54782,3.90696 -7.70788,8.68215 -15.91271,24.04572 -39.99557,22.32832 -49.88133,-3.55716 -4.38688,-11.48689 -5.4477,-41.86556 -1.6267,-46.58383 1.34801,-1.66457 3.16661,-7.42076 4.04134,-12.79155 0.87472,-5.37079 3.50091,-13.53413 5.83598,-18.14076 3.76287,-7.42342 4.94539,-8.23573 10.4008,-7.14465 4.90881,0.98176 6.86281,0.15114 9.6495,-4.1019 1.92186,-2.93312 4.86161,-5.33294 6.53279,-5.33294 5.16977,0 15.41428,10.14452 19.58527,19.39411 3.90789,8.66618 7.65639,11.58165 7.65639,5.95493 0,-7.10783 7.14888,-25.83679 11.94002,-31.28104 l 5.28296,-6.00309 0.0686,10.43166 c 0.0848,12.90695 -3.75084,28.75014 -7.76757,32.08373 -5.09526,4.22869 -3.78113,31.09067 2.71023,55.39957 7.5707,28.3508 8.83774,39.88103 4.38246,39.88103 -1.84276,0 -4.85669,-2.15041 -6.69761,-4.77869 z m -36.78253,-31.09101 c 3.01921,-3.01922 8.2253,-11.51637 11.56907,-18.88256 l 6.07958,-13.39308 -3.8342,-11.14431 c -5.75294,-16.7212 -10.27253,-24.4045 -15.29289,-25.99791 -13.79036,-4.37688 -28.42434,32.24091 -23.5082,58.82326 3.06111,16.5519 14.27467,21.30657 24.98664,10.5946 z"
       id="path4147"
       inkscape:connector-curvature="0" />
  </g>
</svg>
