<?xml version="1.0" encoding="UTF-8" standalone="no"?>
<!-- Created with Inkscape (http://www.inkscape.org/) -->

<svg
   xmlns:dc="http://purl.org/dc/elements/1.1/"
   xmlns:cc="http://creativecommons.org/ns#"
   xmlns:rdf="http://www.w3.org/1999/02/22-rdf-syntax-ns#"
   xmlns:svg="http://www.w3.org/2000/svg"
   xmlns="http://www.w3.org/2000/svg"
   xmlns:xlink="http://www.w3.org/1999/xlink"
   xmlns:sodipodi="http://sodipodi.sourceforge.net/DTD/sodipodi-0.dtd"
   xmlns:inkscape="http://www.inkscape.org/namespaces/inkscape"
   id="svg2"
   version="1.1"
   inkscape:version="0.91 r13725"
   width="2481"
   height="3503"
   sodipodi:docname="Pepper-and-Carrot_by-David-Revoy_E04P01.svg">
  <metadata
     id="metadata8">
    <rdf:RDF>
      <cc:Work
         rdf:about="">
        <dc:format>image/svg+xml</dc:format>
        <dc:type
           rdf:resource="http://purl.org/dc/dcmitype/StillImage" />
        <dc:title />
      </cc:Work>
    </rdf:RDF>
  </metadata>
  <defs
     id="defs6" />
  <sodipodi:namedview
     pagecolor="#ffffff"
     bordercolor="#666666"
     borderopacity="1"
     objecttolerance="10"
     gridtolerance="10"
     guidetolerance="10"
     inkscape:pageopacity="0"
     inkscape:pageshadow="2"
     inkscape:window-width="1366"
     inkscape:window-height="705"
     id="namedview4"
     showgrid="false"
     inkscape:zoom="0.33707507"
     inkscape:cx="1130.0563"
     inkscape:cy="366.40133"
     inkscape:window-x="-8"
     inkscape:window-y="-8"
     inkscape:window-maximized="1"
     inkscape:current-layer="layer1" />
  <g
     inkscape:groupmode="layer"
     id="layer2"
     inkscape:label="artwork"
     sodipodi:insensitive="true">
    <image
       sodipodi:absref="G:\Pepper And Carrot\Translation\peppercarrot_ep04_translation-master\el\..\gfx_Pepper-and-Carrot_by-David-Revoy_E04P01.png"
       xlink:href="../gfx_Pepper-and-Carrot_by-David-Revoy_E04P01.png"
       y="0"
       x="0"
       id="image10"
       height="3503"
       width="2481" />
  </g>
  <g
     inkscape:groupmode="layer"
     id="layer3"
     inkscape:label="speechbubbles">
    <path
       style="fill:#ffffff;stroke:none;stroke-width:1px;stroke-linecap:butt;stroke-linejoin:miter;stroke-opacity:1"
       d="m 462.70226,2390.7428 c -5.31516,-44.6393 -10.63032,-135.7215 0,-155.5612 6.76476,0 17.87828,-0.4509 17.87828,-0.4509 l -10.63033,-24.3487 19.32786,5.8618 9.66393,-8.1163 -6.28156,-13.527 17.39507,6.3126 8.69754,-13.0762 14.4959,9.469 7.24795,-13.5271 15.94547,10.8217 29.47499,-5.8618 c 72.32843,-2.3892 143.84809,-6.0363 219.85438,-2.7054 l 23.19344,-8.5671 6.76474,12.6252 12.07991,0.4509 11.59672,-5.4108 11.59672,5.8617 38.6557,-4.0581 12.56311,11.7235 14.9791,-9.9199 4.83195,13.0762 14.9791,-8.1162 2.41599,8.5671 35.75649,-9.9199 -5.3151,20.2906 c 0,0 26.57579,9.0181 45.42039,2.2545 1.9328,4.5091 -0.9663,12.6253 -0.9663,12.6253 l 9.6638,4.509 0,11.7235 c 0,0 19.3279,15.3306 21.2607,19.3888 1.9328,4.0581 6.2815,114.98 -0.4832,132.5651 5.3151,0 8.6976,2.7054 8.2144,5.4109 -0.4832,2.7054 -4.3488,10.3707 -4.3488,10.3707 0,0 5.3152,7.2144 3.8656,9.4689 -1.4497,2.2546 -4.3488,5.4109 -4.3488,5.4109 0,0 4.832,5.8617 3.3823,7.6653 -1.4496,1.8036 -9.6639,4.9599 -13.0462,6.7635 3.8655,3.6072 7.2479,11.2726 4.3487,13.0762 -2.8991,1.8036 -9.6639,3.1563 -9.6639,3.1563 l -2.4159,4.509 c 0,0 -0.9664,9.0181 -3.3824,9.469 -2.4161,0.4509 -12.5632,-4.5091 -14.0127,-3.6073 -1.4496,0.9018 -5.3152,8.1163 -7.7311,8.1163 -2.416,0 -10.1472,-8.5672 -10.1472,-8.5672 -1.0326,1.9272 -128.63824,5.1615 -139.16058,3.1564 -10.58614,-2.0173 -52.18521,2.7054 -57.98357,2.7054 -5.79836,0 -29.95818,-1.3527 -33.34055,-2.2545 -3.38239,-0.9018 -16.91188,-4.0582 -21.74385,-3.6073 -4.83196,0.4509 -14.0127,4.96 -19.32786,4.96 -5.31515,0 -35.75653,-2.7054 -41.55489,-2.2545 -5.79835,0.4509 -32.37416,2.2545 -36.72292,2.2545 -4.34877,0 -53.15162,-4.96 -58.46677,-5.4109 -5.31516,-0.4509 -28.5086,4.5091 -32.85736,4.0582 -4.34877,-0.4509 -28.99179,-4.5091 -36.72293,-4.0582 -7.73114,0.4509 -36.72293,-5.8617 -38.65572,-5.4108 -1.93279,0.4509 -4.85151,0.9008 -22.71023,0 9.18073,-6.7635 6.28155,-12.6252 6.28155,-12.6252 l -6.76475,-3.6073 0.96639,-4.0581 -14.0127,-6.7635 1.93279,-4.9599 0.96639,-8.1163 -14.01269,-6.3126 22.22704,-18.0361 z"
       id="path3894"
       inkscape:connector-curvature="0"
       sodipodi:nodetypes="cccccccccccccccccccccccccccccccscscccccsccssscssssssssssscccccccccc" />
    <path
       style="fill:#ffffff;stroke:none;stroke-width:1px;stroke-linecap:butt;stroke-linejoin:miter;stroke-opacity:1;color:#000000;fill-opacity:1;fill-rule:nonzero;marker:none;visibility:visible;display:inline;overflow:visible;enable-background:accumulate"
       d="m 818.04625,2447.3394 c 1.81385,78.9025 3.6277,268.4498 28.11468,311.9822 24.48697,43.5324 33.55622,70.7401 98.85481,79.8094 -68.92629,-32.6493 -89.78557,-105.2033 -96.13404,-230.3589 -6.34847,-125.1557 43.5324,-212.2205 43.5324,-212.2205 l -68.01937,-3.6277 z"
       id="path3896"
       inkscape:connector-curvature="0" />
    <path
       style="color:#000000;display:inline;overflow:visible;visibility:visible;fill:#ffffff;fill-opacity:1;fill-rule:nonzero;stroke:none;stroke-width:1px;marker:none;enable-background:accumulate"
       d="m 639.14294,2522.4278 c 14.24074,-3.4818 14.24074,-10.4457 8.30709,-19.3438 4.15356,-0.3868 18.39428,1.9344 16.02082,-4.2556 3.5602,-0.7737 8.30711,-0.7737 5.34028,-5.8031 4.15355,-0.3869 16.02083,1.5475 13.05402,-3.4819 7.71373,-1.1606 80.10412,-2.7081 106.21215,-0.7737 26.108,1.9343 96.12495,0.3868 103.24532,0 7.12037,-0.3869 61.70985,0 66.45676,0 4.74691,0 23.73455,4.2556 29.6682,6.5768 8.90046,-3.095 20.17442,-1.9344 20.17442,-1.9344 0,0 0,13.1538 1.7801,14.3144 1.78,1.1606 10.6805,-1.9344 12.4606,0 1.7801,1.9344 -12.4606,13.5407 -10.6806,13.9276 1.7801,0.3869 16.0209,4.6425 16.0209,6.1899 0,1.5475 -11.2739,8.8981 -10.6806,9.285 0.5934,0.3869 9.4938,5.4163 8.3071,9.6719 10.6807,1.5475 16.0209,5.4162 18.9877,8.1243 -4.7469,5.0295 -16.0208,9.672 -18.3944,12.3801 2.9669,4.6425 10.6807,10.8325 8.9004,12.7669 -1.78,1.9343 -10.0871,1.5475 -16.0207,-0.7738 2.3734,5.8031 1.7801,52.2282 -8.9004,69.2506 2.9668,3.8688 8.3071,6.5769 9.4938,10.4458 1.1867,3.8687 -2.3735,10.0587 -1.7801,11.993 0.5934,1.9344 5.3403,8.5113 4.7469,11.6063 -0.5934,3.095 -2.9668,6.1899 -6.527,8.1243 -0.5934,3.095 2.3735,5.4164 -0.5934,6.1901 -2.9668,0.7738 -14.83408,-3.482 -17.8009,-2.7081 -2.96683,0.7736 -0.59336,11.2193 -3.56019,13.1537 -2.96682,1.9344 -67.05012,6.9637 -81.29086,2.7081 -14.83409,-0.7737 -124.60643,15.8619 -170.29546,9.285 -5.34026,-0.7737 -4.15354,-3.4818 -8.30708,-4.2557 -4.15356,-0.7737 -6.52701,1.9345 -15.42747,1.1607 -7.71373,-3.8688 -17.80091,-4.2556 -33.82174,-22.8257 -5.34027,0 -14.24073,1.9345 -15.42747,-1.1606 -1.18672,-3.095 0.59336,-5.4162 0.59336,-5.4162 0,0 -5.93364,1.1606 -6.527,-1.1606 -0.59336,-2.3213 7.71374,-8.5112 7.12038,-9.6719 -0.59338,-1.1606 -17.20756,2.3213 -17.80092,-0.3869 -0.59336,-2.7081 6.52699,-9.2849 5.93364,-11.2193 -0.59337,-1.9344 -29.6682,-31.7238 -20.17438,-122.2526 4.74692,-1.1606 9.49382,-2.3212 8.90046,-3.8687 -0.59336,-1.5476 -7.71373,-4.6426 -7.71373,-4.6426 z"
       id="path3915"
       inkscape:connector-curvature="0" />
    <path
       style="color:#000000;fill:#ffffff;fill-opacity:1;fill-rule:nonzero;stroke:none;stroke-width:1px;marker:none;visibility:visible;display:inline;overflow:visible;enable-background:accumulate"
       d="m 2161.9635,2759.6873 c 75.5442,-65.8317 129.3057,-115.4309 140.8923,-189.8298 11.5865,-74.3988 -1.8538,-91.5331 -5.5615,-100.5511 -12.977,1.8036 -33.8327,13.978 -38.0039,19.3888 1.8539,-19.8397 -11.5865,-82.5151 -31.9788,-107.3147 -20.3923,-24.7996 -39.3943,-7.6653 -39.3943,-7.6653 0,0 61.177,94.6894 55.1519,157.8157 12.0501,-12.6253 34.7597,-36.974 40.3212,-32.465 5.5615,4.5091 8.3423,64.9299 -3.7077,92.4349 -12.05,27.5051 -38.9308,101.9039 -117.7192,168.1865 z"
       id="path3923"
       inkscape:connector-curvature="0" />
    <path
       style="fill:#ffffff;stroke:none;stroke-width:1px;stroke-linecap:butt;stroke-linejoin:miter;stroke-opacity:1;color:#000000;fill-opacity:1;fill-rule:nonzero;marker:none;visibility:visible;display:inline;overflow:visible;enable-background:accumulate"
       d="m 1846.2,2353.2992 c 0,0 37.5681,7.7521 43.5312,11.9264 5.9632,4.1742 29.8159,-2.9816 -3.5779,44.7238 33.9901,-15.5043 60.8244,-32.2012 73.3471,-30.4122 -5.3668,11.9263 -11.33,27.4306 -11.33,27.4306 0,0 31.0085,-12.5227 36.9717,-11.9263 -1.789,5.3668 2.3853,16.1005 2.3853,16.1005 l 16.1005,-2.3852 4.7706,14.3116 c 0,0 64.4023,-25.0454 72.1544,-22.0638 7.7522,2.9816 -3.5779,34.5865 -3.5779,34.5865 l 17.2933,-12.5227 8.3484,0.5963 20.2748,-20.2748 6.5595,11.33 4.7705,-4.1742 9.5411,4.7706 22.6601,-17.2933 7.7521,1.789 19.6785,27.4306 10.7338,-12.5227 5.3668,-0.5963 35.1828,1.1927 2.3852,-2.9816 5.9632,-1.1927 8.3485,-5.9631 4.7705,-13.7154 10.1374,0 20.2748,12.5227 9.5411,8.3485 7.1558,-20.2748 4.1742,-2.3853 1.1927,-12.5227 23.2564,9.5411 7.1558,5.9632 1.7889,-10.7337 7.7522,-0.5964 14.3116,4.1743 15.5043,11.33 23.2564,12.5227 -35.1828,-45.9165 -8.3484,-8.3484 30.4122,-8.3485 0,-95.4108 -11.9264,-131.19 -519.3928,6.5595 -13.119,86.4661 0.5963,76.925 -2.9816,25.6417 26.238,8.9448 -25.6417,13.7153 16.1006,9.541 z"
       id="path3931"
       inkscape:connector-curvature="0" />
  </g>
  <g
     inkscape:groupmode="layer"
     id="layer1"
     inkscape:label="txt">
    <flowRoot
       xml:space="preserve"
       id="flowRoot2987"
       style="font-style:normal;font-variant:normal;font-weight:normal;font-stretch:expanded;font-size:12px;line-height:125%;font-family:pecita;-inkscape-font-specification:'pecita Expanded';letter-spacing:0px;word-spacing:0px;fill:#000000;fill-opacity:1;stroke:none;"
       transform="translate(52.552065,-126.62151)"><flowRegion
         id="flowRegion2989"><rect
           id="rect2991"
           width="1061.6301"
           height="196.25371"
           x="120.55251"
           y="265.53046"
           style="font-style:normal;font-variant:normal;font-weight:normal;font-stretch:expanded;font-family:pecita;-inkscape-font-specification:'pecita Expanded';" /></flowRegion><flowPara
         id="flowPara2993"
         style="font-size:48px;-inkscape-font-specification:'pecita Expanded';font-family:pecita;font-weight:normal;font-style:normal;font-stretch:expanded;font-variant:normal;">Τη νύχτα πριν από τον Διαγωνισμό φίλτρου</flowPara><flowPara
         id="flowPara2995"
         style="font-size:48px;-inkscape-font-specification:'pecita Expanded';font-family:pecita;font-weight:normal;font-style:normal;font-stretch:expanded;font-variant:normal;">        2:00 π.μ.</flowPara></flowRoot>    <flowRoot
       xml:space="preserve"
       id="flowRoot2987-4"
       style="font-style:normal;font-variant:normal;font-weight:normal;font-stretch:expanded;font-size:12px;line-height:125%;font-family:pecita;-inkscape-font-specification:'pecita Expanded';text-align:center;letter-spacing:0px;word-spacing:0px;text-anchor:middle;fill:#000000;fill-opacity:1;stroke:none;"
       transform="translate(341.31241,1949.0059)"><flowRegion
         id="flowRegion2989-5"><rect
           id="rect2991-7"
           width="602.40173"
           height="310.73996"
           x="120.55251"
           y="265.53046"
           style="font-style:normal;font-variant:normal;font-weight:normal;font-stretch:expanded;font-family:pecita;-inkscape-font-specification:'pecita Expanded';text-align:center;text-anchor:middle;" /></flowRegion><flowPara
         style="font-size:48px;text-align:center;text-anchor:middle;-inkscape-font-specification:'pecita Expanded';font-family:pecita;font-weight:normal;font-style:normal;font-stretch:expanded;font-variant:normal;"
         id="flowPara3033">Επιτέλους ...</flowPara><flowPara
         style="font-size:48px;text-align:center;text-anchor:middle;-inkscape-font-specification:'pecita Expanded';font-family:pecita;font-weight:normal;font-style:normal;font-stretch:expanded;font-variant:normal;"
         id="flowPara3798">Με αυτό το φίλτρο, Κανένας, ούτε η Σάφρον δεν μπορεί να με ξεπεράσει!</flowPara></flowRoot>    <flowRoot
       xml:space="preserve"
       id="flowRoot2987-4-8"
       style="font-style:normal;font-variant:normal;font-weight:normal;font-stretch:expanded;font-size:12px;line-height:125%;font-family:pecita;-inkscape-font-specification:'pecita Expanded';text-align:center;letter-spacing:0px;word-spacing:0px;text-anchor:middle;fill:#000000;fill-opacity:1;stroke:none;"
       transform="matrix(0.96141471,0,0,0.91963896,436.42648,2273.6914)"><flowRegion
         id="flowRegion2989-5-9"><rect
           id="rect2991-7-4"
           width="602.40173"
           height="310.73996"
           x="120.55251"
           y="265.53046"
           style="font-style:normal;font-variant:normal;font-weight:normal;font-stretch:expanded;font-family:pecita;-inkscape-font-specification:'pecita Expanded';text-align:center;text-anchor:middle;" /></flowRegion><flowPara
         style="font-size:48px;text-align:center;text-anchor:middle;-inkscape-font-specification:'pecita Expanded';font-family:pecita;font-weight:normal;font-style:normal;font-stretch:expanded;font-variant:normal;"
         id="flowPara3845">Ωστόσο, πρέπει</flowPara><flowPara
         style="font-size:48px;text-align:center;text-anchor:middle;-inkscape-font-specification:'pecita Expanded';font-family:pecita;font-weight:normal;font-style:normal;font-stretch:expanded;font-variant:normal;"
         id="flowPara3849">να το δοκιμάσω</flowPara><flowPara
         style="font-size:48px;text-align:center;text-anchor:middle;-inkscape-font-specification:'pecita Expanded';font-family:pecita;font-weight:normal;font-style:normal;font-stretch:expanded;font-variant:normal;"
         id="flowPara3379">σε πειραματόζωο...</flowPara></flowRoot>    <flowRoot
       xml:space="preserve"
       id="flowRoot2987-4-8-2"
       style="font-style:normal;font-variant:normal;font-weight:normal;font-stretch:expanded;font-size:12px;line-height:125%;font-family:pecita;-inkscape-font-specification:'pecita Expanded';text-align:center;letter-spacing:0px;word-spacing:0px;text-anchor:middle;fill:#000000;fill-opacity:1;stroke:none"
       transform="matrix(1.4179226,0,0,1.4152108,1524.4666,1781.4171)"><flowRegion
         id="flowRegion2989-5-9-2"><rect
           id="rect2991-7-4-2"
           width="602.40173"
           height="310.73996"
           x="120.55251"
           y="265.53046"
           style="font-style:normal;font-variant:normal;font-weight:normal;font-stretch:expanded;font-family:pecita;-inkscape-font-specification:'pecita Expanded';text-align:center;text-anchor:middle" /></flowRegion><flowPara
         style="font-style:normal;font-variant:normal;font-weight:normal;font-stretch:expanded;font-size:48px;font-family:pecita;-inkscape-font-specification:'pecita Expanded';text-align:center;text-anchor:middle"
         id="flowPara3798-1-6" /><flowPara
         style="font-style:normal;font-variant:normal;font-weight:normal;font-stretch:expanded;font-size:48px;font-family:pecita;-inkscape-font-specification:'pecita Expanded';text-align:center;text-anchor:middle"
         id="flowPara3892">ΚΑΡΟΤΟΥΛΗΗΗΗΗ!!!</flowPara></flowRoot>  </g>
</svg>
