<?xml version="1.0" encoding="UTF-8" standalone="no"?>
<!-- Created with Inkscape (http://www.inkscape.org/) -->

<svg
   xmlns:dc="http://purl.org/dc/elements/1.1/"
   xmlns:cc="http://creativecommons.org/ns#"
   xmlns:rdf="http://www.w3.org/1999/02/22-rdf-syntax-ns#"
   xmlns:svg="http://www.w3.org/2000/svg"
   xmlns="http://www.w3.org/2000/svg"
   xmlns:xlink="http://www.w3.org/1999/xlink"
   xmlns:sodipodi="http://sodipodi.sourceforge.net/DTD/sodipodi-0.dtd"
   xmlns:inkscape="http://www.inkscape.org/namespaces/inkscape"
   id="svg2"
   version="1.1"
   inkscape:version="0.48.4 r9939"
   width="2481"
   height="3503"
   sodipodi:docname="Pepper-and-Carrot_by-David-Revoy_E04P01.svg">
  <metadata
     id="metadata8">
    <rdf:RDF>
      <cc:Work
         rdf:about="">
        <dc:format>image/svg+xml</dc:format>
        <dc:type
           rdf:resource="http://purl.org/dc/dcmitype/StillImage" />
        <dc:title />
      </cc:Work>
    </rdf:RDF>
  </metadata>
  <defs
     id="defs6" />
  <sodipodi:namedview
     pagecolor="#ffffff"
     bordercolor="#666666"
     borderopacity="1"
     objecttolerance="10"
     gridtolerance="10"
     guidetolerance="10"
     inkscape:pageopacity="0"
     inkscape:pageshadow="2"
     inkscape:window-width="1381"
     inkscape:window-height="876"
     id="namedview4"
     showgrid="false"
     inkscape:zoom="0.36045077"
     inkscape:cx="1385.0943"
     inkscape:cy="751.45784"
     inkscape:window-x="59"
     inkscape:window-y="24"
     inkscape:window-maximized="1"
     inkscape:current-layer="layer1" />
  <g
     inkscape:groupmode="layer"
     id="layer2"
     inkscape:label="artwork"
     sodipodi:insensitive="true">
    <image
       sodipodi:absref="/home/stefan/Dropbox/Pepper&amp;Carrot/peppercarrot_ep04_translation-master/br/../gfx_Pepper-and-Carrot_by-David-Revoy_E04P01.png"
       xlink:href="../gfx_Pepper-and-Carrot_by-David-Revoy_E04P01.png"
       y="0"
       x="0"
       id="image10"
       height="3503"
       width="2481" />
  </g>
  <g
     inkscape:groupmode="layer"
     id="layer3"
     inkscape:label="speechbubbles">
    <path
       style="fill:#ffffff;stroke:none"
       d="m 474.00087,2445.9546 c -5.16047,-52.2874 -10.32095,-158.975 0,-182.214 6.56788,0 17.35798,-0.528 17.35798,-0.528 l -10.32096,-28.5204 18.76537,6.866 9.38268,-9.5069 -6.09875,-15.8445 16.88883,7.3941 8.44443,-15.3166 14.07402,11.0914 7.03702,-15.8448 15.48142,12.6759 28.61719,-6.8661 c 70.22349,-2.7987 139.66176,-7.0706 213.45607,-3.1689 l 22.51845,-10.035 6.56787,14.7884 11.72836,0.528 11.25923,-6.3378 11.25922,6.866 37.53073,-4.7534 12.19749,13.7321 14.54317,-11.6194 4.69133,15.3165 14.54317,-9.5067 2.34568,10.0347 34.71592,-11.6194 -5.16047,23.767 c 0,0 25.80238,10.5632 44.09868,2.6408 1.8765,5.2816 -0.9383,14.7885 -0.9383,14.7885 l 9.3827,5.2815 0,13.7321 c 0,0 18.7654,17.9572 20.6419,22.7107 1.8765,4.7534 6.0987,134.6798 -0.4691,155.2778 5.1604,0 8.4444,3.169 7.9753,6.338 -0.4691,3.169 -4.2223,12.1475 -4.2223,12.1475 0,0 5.1606,8.4505 3.7532,11.0914 -1.4075,2.6408 -4.2223,6.3378 -4.2223,6.3378 0,0 4.6914,6.866 3.2839,8.9788 -1.4074,2.1124 -9.3826,5.8096 -12.6666,7.9222 3.7531,4.2252 7.037,13.2039 4.2222,15.3165 -2.8148,2.1127 -9.3826,3.6971 -9.3826,3.6971 l -2.3457,5.2816 c 0,0 -0.9382,10.5631 -3.2839,11.0913 -2.3458,0.5282 -12.1975,-5.2816 -13.6049,-4.2254 -1.4074,1.0564 -5.1605,9.507 -7.5062,9.507 -2.3456,0 -9.8519,-10.0351 -9.8519,-10.0351 -1.0025,2.2574 -124.89452,6.0458 -135.11062,3.6972 -10.27807,-2.3629 -50.6665,3.1689 -56.29612,3.1689 -5.6296,0 -29.08632,-1.5844 -32.37025,-2.6408 -3.28395,-1.0563 -16.4197,-4.7534 -21.11105,-4.2253 -4.69134,0.5281 -13.60489,5.8099 -18.76537,5.8099 -5.16047,0 -34.71592,-3.1689 -40.34554,-2.6409 -5.62961,0.5282 -31.43199,2.6409 -35.65419,2.6409 -4.22221,0 -51.60477,-5.8099 -56.76525,-6.338 -5.16047,-0.5283 -27.67892,5.2816 -31.90112,4.7534 -4.22221,-0.5281 -28.14806,-5.2817 -35.65421,-4.7534 -7.50614,0.5281 -35.6542,-6.866 -37.53074,-6.3379 -1.87654,0.5282 -4.71032,1.0552 -22.0493,0 8.91355,-7.9223 6.09874,-14.7883 6.09874,-14.7883 l -6.56788,-4.2253 0.93827,-4.7534 -13.6049,-7.9222 1.87654,-5.8099 0.93827,-9.5067 -13.60489,-7.3942 21.58017,-21.1263 z"
       id="path3894"
       inkscape:connector-curvature="0"
       sodipodi:nodetypes="cccccccccccccccccccccccccccccccscscccccsccssscssssssssssscccccccccc" />
    <path
       style="color:#000000;fill:#ffffff;fill-opacity:1;fill-rule:nonzero;stroke:none;stroke-width:1px;marker:none;visibility:visible;display:inline;overflow:visible;enable-background:accumulate"
       d="m 780.27518,2515.2788 c 17.06554,77.0562 55.5667,262.6609 88.02344,300.6246 32.45673,37.9637 46.6252,62.8989 112.44368,59.1459 -73.94569,-18.6774 -108.46592,-85.8157 -138.94095,-207.3702 -30.47505,-121.5546 1.59342,-216.6335 1.59342,-216.6335 l -67.4335,9.6187 z"
       id="path3896"
       inkscape:connector-curvature="0" />
    <path
       style="color:#000000;fill:#ffffff;fill-opacity:1;fill-rule:nonzero;stroke:none;stroke-width:1px;marker:none;visibility:visible;display:inline;overflow:visible;enable-background:accumulate"
       d="m 647.37475,2603.3749 c 14.82726,-4.3727 14.82726,-13.1185 8.64924,-24.2931 4.32462,-0.4858 19.15187,2.4291 16.68068,-5.3447 3.70682,-0.9717 8.64922,-0.9717 5.56023,-7.288 4.32462,-0.4858 16.68066,1.9435 13.59166,-4.3727 8.03142,-1.4576 83.40339,-3.4011 110.58672,-0.9718 27.18333,2.4293 100.08407,0.4859 107.49771,0 7.41365,-0.4858 64.2515,0 69.19394,0 4.94241,0 24.71207,5.3445 30.89017,8.2597 9.267,-3.8869 21.0052,-2.4291 21.0052,-2.4291 0,0 0,16.5193 1.8535,17.9768 1.8535,1.4577 11.1205,-2.4292 12.9739,0 1.8533,2.4295 -12.9739,17.0055 -11.1204,17.4912 1.8533,0.4859 16.6807,5.8306 16.6807,7.7739 0,1.9436 -11.7385,11.175 -11.1207,11.6608 0.618,0.4859 9.885,6.8022 8.6496,12.1468 11.1203,1.9433 16.6806,6.8019 19.7694,10.203 -4.9424,6.3165 -16.6807,12.1468 -19.1517,15.5478 3.089,5.8304 11.1204,13.6043 9.2669,16.0337 -1.8534,2.4293 -10.5028,1.9434 -16.6807,-0.9719 2.4713,7.288 1.8535,65.592 -9.267,86.9702 3.089,4.8585 8.6492,8.2596 9.8849,13.1184 1.2356,4.8587 -2.4714,12.6326 -1.8534,15.0618 0.6177,2.4292 5.5601,10.689 4.9424,14.576 -0.618,3.887 -3.089,7.7738 -6.7958,10.2032 -0.6181,3.8868 2.4711,6.8022 -0.6181,7.7739 -3.0889,0.9717 -15.445,-4.3729 -18.5338,-3.4011 -3.089,0.9718 -0.6179,14.0903 -3.707,16.5193 -3.0889,2.4295 -69.81164,8.7457 -84.63889,3.4011 -15.44508,-0.9716 -129.73864,19.9207 -177.30945,11.661 -5.56022,-0.9717 -4.32463,-4.3729 -8.64925,-5.3447 -4.32463,-0.9717 -6.79583,2.4295 -16.06289,1.4577 -8.03143,-4.8587 -18.53407,-5.3445 -35.21476,-28.6662 -5.56021,0 -14.82726,2.4293 -16.06286,-1.4576 -1.23562,-3.8869 0.6178,-6.802 0.6178,-6.802 0,0 -6.17803,1.4575 -6.79584,-1.4576 -0.61779,-2.9153 8.03144,-10.689 7.41364,-12.1467 -0.6178,-1.4575 -17.91629,2.9153 -18.53408,-0.4858 -0.61781,-3.4013 6.79583,-11.6609 6.17801,-14.0902 -0.6178,-2.4294 -30.89014,-39.8411 -21.00529,-153.5338 4.94243,-1.4576 9.88485,-2.9151 9.26704,-4.8586 -0.6178,-1.9435 -8.03143,-5.8305 -8.03143,-5.8305 z"
       id="path3915"
       inkscape:connector-curvature="0" />
    <path
       style="color:#000000;fill:#ffffff;fill-opacity:1;fill-rule:nonzero;stroke:none;stroke-width:1px;marker:none;visibility:visible;display:inline;overflow:visible;enable-background:accumulate"
       d="m 2161.9635,2759.6873 c 75.5442,-65.8317 129.3057,-115.4309 140.8923,-189.8298 11.5865,-74.3988 -1.8538,-91.5331 -5.5615,-100.5511 -12.977,1.8036 -33.8327,13.978 -38.0039,19.3888 1.8539,-19.8397 -11.5865,-82.5151 -31.9788,-107.3147 -20.3923,-24.7996 -39.3943,-7.6653 -39.3943,-7.6653 0,0 61.177,94.6894 55.1519,157.8157 12.0501,-12.6253 34.7597,-36.974 40.3212,-32.465 5.5615,4.5091 8.3423,64.9299 -3.7077,92.4349 -12.05,27.5051 -38.9308,101.9039 -117.7192,168.1865 z"
       id="path3923"
       inkscape:connector-curvature="0" />
    <path
       style="color:#000000;fill:#ffffff;fill-opacity:1;fill-rule:nonzero;stroke:none;stroke-width:1px;marker:none;visibility:visible;display:inline;overflow:visible;enable-background:accumulate"
       d="m 1837.8041,2353.2992 c 0,0 38.1255,7.7521 44.1771,11.9264 6.0516,4.1742 30.2582,-2.9816 -3.631,44.7238 34.4944,-15.5043 61.7268,-32.2012 74.4353,-30.4122 -5.4464,11.9263 -11.4981,27.4306 -11.4981,27.4306 0,0 31.4685,-12.5227 37.5202,-11.9263 -1.8155,5.3668 2.4207,16.1005 2.4207,16.1005 l 16.3394,-2.3852 4.8413,14.3116 c 0,0 65.3578,-25.0454 73.2249,-22.0638 7.8672,2.9816 -3.6309,34.5865 -3.6309,34.5865 l 17.5498,-12.5227 8.4723,0.5963 20.5756,-20.2748 6.6568,11.33 4.8413,-4.1742 9.6826,4.7706 22.9963,-17.2933 7.8671,1.789 19.9705,27.4306 10.893,-12.5227 5.4464,-0.5963 35.7048,1.1927 2.4206,-2.9816 6.0517,-1.1927 8.4723,-5.9631 4.8413,-13.7154 10.2878,0 20.5756,12.5227 9.6827,8.3485 7.2619,-20.2748 4.2362,-2.3853 1.2104,-12.5227 23.6014,9.5411 7.262,5.9632 1.8154,-10.7337 7.8672,-0.5964 14.5239,4.1743 15.7344,11.33 23.6014,12.5227 -35.7048,-45.9165 -8.4722,-8.3484 30.8634,-8.3485 0,-95.4108 -12.1034,-131.19 -527.0986,6.5595 -13.3136,86.4661 0.6051,76.925 -3.0258,25.6417 26.6273,8.9448 -26.0221,13.7153 16.3394,9.541 z"
       id="path3931"
       inkscape:connector-curvature="0" />
  </g>
  <g
     inkscape:groupmode="layer"
     id="layer1"
     inkscape:label="txt">
    <flowRoot
       xml:space="preserve"
       id="flowRoot2987"
       style="font-size:12px;font-style:normal;font-variant:normal;font-weight:normal;font-stretch:normal;line-height:125%;letter-spacing:0px;word-spacing:0px;fill:#000000;fill-opacity:1;stroke:none;font-family:Lavi;-inkscape-font-specification:Lavi"
       transform="translate(52.552065,-126.62151)"><flowRegion
         id="flowRegion2989"><rect
           id="rect2991"
           width="973.52362"
           height="213.03587"
           x="120.55251"
           y="265.53046"
           style="font-style:normal;font-variant:normal;font-weight:normal;font-stretch:normal;font-family:Lavi;-inkscape-font-specification:Lavi" /></flowRegion><flowPara
         id="flowPara2993"
         style="font-size:48px">Neizheur ar genstrivadeg drammoù,</flowPara><flowPara
         id="flowPara2995"
         style="font-size:48px">        2e00 noz...</flowPara></flowRoot>    <flowRoot
       xml:space="preserve"
       id="flowRoot2987-4"
       style="font-size:12px;font-style:normal;font-variant:normal;font-weight:normal;font-stretch:normal;text-align:center;line-height:125%;letter-spacing:0px;word-spacing:0px;text-anchor:middle;fill:#000000;fill-opacity:1;stroke:none;font-family:Lavi;-inkscape-font-specification:Lavi"
       transform="translate(295.10383,1984.6786)"><flowRegion
         id="flowRegion2989-5"><rect
           id="rect2991-7"
           width="707.29022"
           height="356.89087"
           x="120.55251"
           y="265.53046"
           style="font-style:normal;font-variant:normal;font-weight:normal;font-stretch:normal;text-align:center;text-anchor:middle;font-family:Lavi;-inkscape-font-specification:Lavi" /></flowRegion><flowPara
         style="font-size:48px;text-align:center;text-anchor:middle"
         id="flowPara3033">A-benn ar fin ...</flowPara><flowPara
         style="font-size:48px;text-align:center;text-anchor:middle"
         id="flowPara3029">Gant ar dramm-mañ </flowPara><flowPara
         style="font-size:48px;text-align:center;text-anchor:middle"
         id="flowPara3075">ne vo den netra din-me,</flowPara><flowPara
         style="font-size:48px;text-align:center;text-anchor:middle"
         id="flowPara3798">ha pa ve Safron zoken !</flowPara></flowRoot>    <flowRoot
       xml:space="preserve"
       id="flowRoot2987-4-8"
       style="font-size:12px;font-style:normal;font-variant:normal;font-weight:normal;font-stretch:normal;text-align:center;line-height:125%;letter-spacing:0px;word-spacing:0px;text-anchor:middle;fill:#000000;fill-opacity:1;stroke:none;font-family:Lavi;-inkscape-font-specification:Lavi"
       transform="matrix(0.96141471,0,0,0.91963896,443.33509,2357.2567)"><flowRegion
         id="flowRegion2989-5-9"><rect
           id="rect2991-7-4"
           width="602.40173"
           height="310.73996"
           x="120.55251"
           y="265.53046"
           style="font-style:normal;font-variant:normal;font-weight:normal;font-stretch:normal;text-align:center;text-anchor:middle;font-family:Lavi;-inkscape-font-specification:Lavi" /></flowRegion><flowPara
         style="font-size:48px;text-align:center;text-anchor:middle"
         id="flowPara3056">N'eus ken</flowPara><flowPara
         style="font-size:48px;text-align:center;text-anchor:middle"
         id="flowPara3027">nemet</flowPara><flowPara
         style="font-size:48px;text-align:center;text-anchor:middle"
         id="flowPara3030">e arnodiñ d'ober</flowPara><flowPara
         style="font-size:48px;text-align:center;text-anchor:middle"
         id="flowPara3849">...</flowPara></flowRoot>    <flowRoot
       xml:space="preserve"
       id="flowRoot2987-4-8-2"
       style="font-size:12px;font-style:normal;font-variant:normal;font-weight:normal;font-stretch:normal;text-align:center;line-height:125%;letter-spacing:0px;word-spacing:0px;text-anchor:middle;fill:#000000;fill-opacity:1;stroke:none;font-family:Lavi;-inkscape-font-specification:Lavi"
       transform="matrix(1.4179226,0,0,1.4152108,1527.4333,1745.8167)"><flowRegion
         id="flowRegion2989-5-9-2"><rect
           id="rect2991-7-4-2"
           width="602.40173"
           height="310.73996"
           x="120.55251"
           y="265.53046"
           style="font-style:normal;font-variant:normal;font-weight:normal;font-stretch:normal;text-align:center;text-anchor:middle;font-family:Lavi;-inkscape-font-specification:Lavi" /></flowRegion><flowPara
         style="font-size:48px;text-align:center;text-anchor:middle"
         id="flowPara3798-1-6" /><flowPara
         style="font-size:48px;text-align:center;text-anchor:middle"
         id="flowPara3849-2">CAAAAAAAA~</flowPara><flowPara
         style="font-size:48px;text-align:center;text-anchor:middle"
         id="flowPara3892">~AAAROT !!!</flowPara></flowRoot>  </g>
</svg>
