<?xml version="1.0" encoding="UTF-8" standalone="no"?>
<!-- Created with Inkscape (http://www.inkscape.org/) -->

<svg
   xmlns:dc="http://purl.org/dc/elements/1.1/"
   xmlns:cc="http://creativecommons.org/ns#"
   xmlns:rdf="http://www.w3.org/1999/02/22-rdf-syntax-ns#"
   xmlns:svg="http://www.w3.org/2000/svg"
   xmlns="http://www.w3.org/2000/svg"
   xmlns:xlink="http://www.w3.org/1999/xlink"
   xmlns:sodipodi="http://sodipodi.sourceforge.net/DTD/sodipodi-0.dtd"
   xmlns:inkscape="http://www.inkscape.org/namespaces/inkscape"
   id="svg2"
   version="1.1"
   inkscape:version="0.48.4 r9939"
   width="2481"
   height="3503"
   sodipodi:docname="Pepper-and-Carrot_by-David-Revoy_E04P03.svg">
  <metadata
     id="metadata8">
    <rdf:RDF>
      <cc:Work
         rdf:about="">
        <dc:format>image/svg+xml</dc:format>
        <dc:type
           rdf:resource="http://purl.org/dc/dcmitype/StillImage" />
        <dc:title />
      </cc:Work>
    </rdf:RDF>
  </metadata>
  <defs
     id="defs6" />
  <sodipodi:namedview
     pagecolor="#ffffff"
     bordercolor="#666666"
     borderopacity="1"
     objecttolerance="10"
     gridtolerance="10"
     guidetolerance="10"
     inkscape:pageopacity="0"
     inkscape:pageshadow="2"
     inkscape:window-width="1381"
     inkscape:window-height="876"
     id="namedview4"
     showgrid="false"
     inkscape:zoom="0.36045078"
     inkscape:cx="1396.9877"
     inkscape:cy="863.08144"
     inkscape:window-x="59"
     inkscape:window-y="24"
     inkscape:window-maximized="1"
     inkscape:current-layer="layer1" />
  <g
     inkscape:groupmode="layer"
     id="layer2"
     inkscape:label="artwork"
     sodipodi:insensitive="true">
    <image
       sodipodi:absref="/home/stefan/Dropbox/Pepper&amp;Carrot/peppercarrot_ep04_translation-master/br/../gfx_Pepper-and-Carrot_by-David-Revoy_E04P03.png"
       xlink:href="../gfx_Pepper-and-Carrot_by-David-Revoy_E04P03.png"
       y="0"
       x="0"
       id="image10"
       height="3503"
       width="2481" />
  </g>
  <g
     inkscape:groupmode="layer"
     id="layer3"
     inkscape:label="speechbubbles">
    <path
       style="fill:#ffffff;stroke:none"
       d="M 85.0306,227.83535 C 83.909177,171.75551 108.58036,105.09456 148.95138,94.513463 189.3224,83.932359 439.39844,73.351257 460.70534,80.758029 c 21.30693,7.406772 47.09953,21.162211 68.40645,41.266301 21.30693,20.10409 38.12819,53.96361 34.76394,81.47449 -3.36426,27.51086 -19.0641,83.5907 -33.64252,98.40424 -14.57842,14.81356 -53.82802,49.73119 -93.07763,56.07985 -39.2496,6.34866 -85.22769,11.63921 -103.17036,10.58111 -17.94268,-1.05811 -109.89889,-7.40678 -109.89889,-7.40678 0,0 -49.34235,4.23244 -65.0422,-6.34866 C 143.3443,344.22748 102.97328,326.2396 90.637686,281.79897 78.3021,237.35835 85.0306,265.92733 85.0306,227.83535 z"
       id="path3971"
       inkscape:connector-curvature="0" />
    <path
       style="fill:#ffffff;stroke:none;stroke-width:1px;stroke-linecap:butt;stroke-linejoin:miter;stroke-opacity:1;color:#000000;fill-opacity:1;fill-rule:nonzero;marker:none;visibility:visible;display:inline;overflow:visible;enable-background:accumulate"
       d="m 570.91828,456.50332 c -88.75621,-26.38698 -125.93786,-37.18166 -148.72661,-95.95266 -22.78876,-58.77099 -39.58047,-5.99704 -39.58047,-5.99704 0,0 8.39585,103.1491 188.30708,101.9497 z"
       id="path3984"
       inkscape:connector-curvature="0" />
    <path
       style="color:#000000;fill:#ffffff;fill-opacity:1;fill-rule:nonzero;stroke:none;stroke-width:1px;marker:none;visibility:visible;display:inline;overflow:visible;enable-background:accumulate"
       d="M 1031.9924,294.61712 C 994.83015,247.41027 998.81167,155.3569 1009.4296,134.1138 c 10.6177,-21.24307 25.2171,-53.107699 75.6518,-53.107699 50.4343,0 400.821,-22.423256 452.5826,27.143949 51.7616,49.56719 50.4345,135.7197 5.309,193.5481 -45.1256,57.8284 -286.6801,46.02669 -286.6801,46.02669 0,0 -167.2299,7.08103 -224.3005,-53.10772 z"
       id="path3992"
       inkscape:connector-curvature="0" />
    <path
       style="color:#000000;fill:#ffffff;fill-opacity:1;fill-rule:nonzero;stroke:none;stroke-width:1px;marker:none;visibility:visible;display:inline;overflow:visible;enable-background:accumulate"
       d="m 1146.6342,456.50332 c 86.3574,-52.77396 115.6987,-98.14741 141.122,-142.99485 11.9623,-21.10173 -40.3717,-44.11282 -40.3717,-44.11282 l -16.7917,47.97632 c 0,0 -16.7645,81.67766 -83.9586,139.13135 z"
       id="path4000"
       inkscape:connector-curvature="0"
       sodipodi:nodetypes="csccc" />
    <path
       style="color:#000000;fill:#ffffff;fill-opacity:1;fill-rule:nonzero;stroke:none;stroke-width:1px;marker:none;visibility:visible;display:inline;overflow:visible;enable-background:accumulate"
       d="m 387.54447,849.03818 c 61.39324,-62.46734 380.86944,-68.09366 421.61362,-21.18469 40.74417,46.90896 74.4024,161.91157 17.71487,199.74141 -56.68756,37.8297 -405.67027,52.9617 -442.87145,-3.0264 -37.2012,-55.98819 -57.85027,-113.06298 3.54296,-175.53032 z"
       id="path4008"
       inkscape:connector-curvature="0"
       sodipodi:nodetypes="zsssz" />
    <path
       style="color:#000000;fill:#ffffff;fill-opacity:1;fill-rule:nonzero;stroke:none;stroke-width:1px;marker:none;visibility:visible;display:inline;overflow:visible;enable-background:accumulate"
       d="m 1160.1232,935.7964 c -49.0008,-20.0037 -97.9419,-41.56623 -150.0414,-52.21341 -37.19822,-7.6505 -76.8151,-7.22074 -112.57578,6.5553 -35.00721,13.11851 -65.15164,36.51979 -91.29538,62.81897 -9.06208,-6.0945 -11.5338,-17.77222 -13.95556,-27.72319 -2.27162,-11.1248 -3.35111,-22.47353 -3.64675,-33.8162 27.51904,-19.03397 59.72066,-30.57617 92.42783,-36.8561 63.06125,-11.94227 128.93434,-0.29129 186.93494,26.05934 32.7474,14.69243 63.4668,33.66121 92.1521,55.17529 z"
       id="path4010"
       inkscape:connector-curvature="0" />
    <path
       style="color:#000000;fill:#ffffff;fill-opacity:1;fill-rule:nonzero;stroke:none;stroke-width:1px;marker:none;visibility:visible;display:inline;overflow:visible;enable-background:accumulate"
       d="m 1922.1248,1788.9274 -13.0318,-2.1443 3.0663,20.0135 c -20.62,1.0859 -31.3636,-5.1954 -45.9941,-8.5772 l 22.997,25.7314 -3.8329,7.1477 c 3.7337,4.1793 9.3675,7.0298 10.7321,12.8658 -10.4166,3.6369 -17.9058,3.6345 -26.5203,5.031 8.1057,4.8333 14.8539,10.4258 19.6211,17.1267 l -27.5965,11.4362 25.2951,10.0052 c -19.0262,16.4523 -42.9396,26.8284 -65.1567,39.3137 l 78.9567,-5.7182 -12.2651,12.8658 c 7.8917,6.6963 7.1943,3.3817 10.732,5.0034 1.7227,4.819 -27.1431,24.8559 -24.5303,22.8725 3.0663,-0.7148 29.1297,-3.5739 29.1297,-3.5739 0,0 -22.9971,20.0135 -19.9308,20.0135 3.0662,0 28.363,-5.0034 28.363,-5.0034 l -8.4322,19.2987 32.9625,-10.7215 -13.7982,23.9959 c 8.5759,-1.4116 14.1092,-1.9044 11.0602,6.4394 -20.6342,29.7101 -52.2587,74.9374 -47.1975,85.0522 17.4861,-11.4117 44.0986,-45.2532 69.0997,-57.5915 16.988,2.0609 18.0103,10.5018 25.2969,16.4395 l 30.6628,-25.0167 5.366,17.1543 22.997,-21.4429 0,22.1577 c 14.2718,-1.5506 21.5328,-14.5404 29.8963,-25.7315 l 2.2997,82.9127 49.8271,-70.0469 9.9654,29.3053 7.6658,-27.161 2.2997,22.8724 21.464,-30.7348 16.0979,27.8757 15.3315,-25.7314 c 14.0272,28.1388 34.2153,50.5332 57.4928,70.0469 -3.2357,-28.8537 -5.9358,-56.8754 -4.5995,-78.6241 8.6879,-2.2664 17.3756,2.2666 26.0634,8.5772 l -4.5995,-19.2987 32.196,12.8658 -14.5649,-30.0202 c 49.1461,-0.9619 39.2801,4.1901 50.5938,7.1477 l -9.1989,-19.2987 33.7291,15.0101 c -9.2141,-15.9703 -21.3168,-33.2872 -27.5966,-47.8893 l 35.2624,3.5738 c -13.8182,-12.8479 -31.1791,-22.3923 -40.8465,-39.1102 l 30.8811,-1.6314 -29.1297,-21.443 22.997,-12.151 -18.3976,-2.8591 30.6628,-25.7315 -40.6283,-2.1443 49.0605,-46.4597 -56.7261,10.0068 4.5992,-33.594 -31.4292,24.302 31.4292,-84.3423 c -25.3931,30.1685 -44.959,54.3278 -79.3914,76.0679 l -11.069,-8.4697 -12.2599,4.3863 3.0663,-24.0952 -45.2277,29.3053 4.5995,-13.5805 -13.7983,12.8658 3.0662,-17.8692 -23.7637,21.443 2.188,-18.6833 -11.3868,12.2504 -3.5063,-11.7391 -13.3582,7.4505 c -4.0194,-30.9732 2.887,-61.9463 7.6656,-92.9195 -15.6834,35.457 -35.6007,67.5302 -62.0922,94.3491 l -8.4322,-13.5757 -10.5138,12.5532 -10.6202,-16.2265 -15.9896,19.39 c -12.6447,-14.7718 -20.009,-23.8223 -24.9686,-38.5941 2.4459,13.8443 4.2242,23.1444 0.6565,38.3905 -46.6777,-23.3422 -45.2802,-25.4237 -62.7487,-38.3905 -4.7867,16.6666 -9.5567,22.2158 -12.2651,35.0235 z"
       id="path4024"
       inkscape:connector-curvature="0"
       sodipodi:nodetypes="cccccccccccccccccsccccccccccccccccccccccccccccccccccccccccccccccccccccccccccccccccccc" />
    <path
       style="color:#000000;fill:#ffffff;fill-opacity:1;fill-rule:nonzero;stroke:none;stroke-width:1px;marker:none;visibility:visible;display:inline;overflow:visible;enable-background:accumulate"
       d="m 1848.5853,1575.0785 c 10.0461,44.0989 27.0514,87.1709 29.0118,132.4629 l 18.7724,-35.7599 c 9.4018,15.7423 8.3262,35.1951 10.8083,53.3881 l 15.3592,-20.1465 c 21.7256,37.425 24.8572,77.202 36.9759,115.8421 l 23.8921,-37.271 c -16.9368,-37.6417 -39.8877,-72.0885 -50.0597,-113.3238 l -17.0658,18.1319 c -5.5461,-13.7459 -10.5425,-27.7351 -13.0837,-42.8112 l -19.3412,24.6794 z"
       id="path4032"
       inkscape:connector-curvature="0"
       sodipodi:nodetypes="cccccccccccc" />
    <path
       style="color:#000000;fill:#ffffff;fill-opacity:1;fill-rule:nonzero;stroke:none;stroke-width:1px;marker:none;visibility:visible;display:inline;overflow:visible;enable-background:accumulate"
       d="m 505.06344,2347.478 c 24.18607,-30.8288 228.34353,-64.2916 300.09753,-0.7599 71.75397,63.5317 28.23107,139.7698 -12.93925,164.0273 -41.17033,24.2576 -162.32871,50.8254 -217.61458,30.0332 -55.28586,-20.7922 -98.35009,-51.8725 -101.16136,-115.5122 -1.1474,-25.9739 7.43157,-46.9595 31.61766,-77.7884 z"
       id="path4040"
       inkscape:connector-curvature="0"
       sodipodi:nodetypes="zssssz" />
    <path
       style="color:#000000;fill:#ffffff;fill-opacity:1;fill-rule:nonzero;stroke:none;stroke-width:1px;marker:none;visibility:visible;display:inline;overflow:visible;enable-background:accumulate"
       d="m 852.77712,2508.4484 c -46.71679,38.0588 -143.61096,79.6886 -134.17151,-10.1374 8.50339,-80.9185 -28.62326,-41.7422 -28.62326,-41.7422 l -16.6969,47.7054 c 0,0 42.33857,151.4647 179.49167,4.1742 z"
       id="path4048"
       inkscape:connector-curvature="0"
       sodipodi:nodetypes="csccc" />
    <path
       style="color:#000000;fill:#ffffff;fill-opacity:1;fill-rule:nonzero;stroke:none;stroke-width:1px;marker:none;visibility:visible;display:inline;overflow:visible;enable-background:accumulate"
       d="m 1747.2347,2675.0108 c -31.5132,-41.0032 -49.1914,-91.3254 -39.1995,-129.5331 9.9922,-38.2077 29.9762,-124.8737 83.7793,-128.6013 53.8031,-3.7275 326.6619,-41.9352 358.1753,27.025 31.5133,68.9601 53.8031,176.1278 29.2074,202.2209 -24.5958,26.0928 -69.944,59.641 -106.069,59.641 -36.1252,0 -83.0106,13.0465 -100.6888,9.319 -17.6783,-3.7276 -60.7208,-12.1145 -66.1011,-12.1145 -5.3803,0 -87.6222,0 -96.0772,-2.7958 -8.4545,-2.7957 -46.8855,8.387 -63.0264,-25.1612 z"
       id="path4056"
       inkscape:connector-curvature="0" />
    <path
       style="color:#000000;fill:#ffffff;fill-opacity:1;fill-rule:nonzero;stroke:none;stroke-width:1px;marker:none;visibility:visible;display:inline;overflow:visible;enable-background:accumulate"
       d="m 1712.2199,2596.6918 c -30.8355,22.6731 -69.8333,55.3224 -105.2033,-7.2554 2.7207,2.7208 22.6731,97.9479 121.5279,44.4393 98.8548,-53.5086 105.2033,-71.6471 105.2033,-71.6471 z"
       id="path4064"
       inkscape:connector-curvature="0"
       sodipodi:nodetypes="ccscc" />
  </g>
  <g
     inkscape:groupmode="layer"
     id="layer1"
     inkscape:label="txt">
    <flowRoot
       xml:space="preserve"
       id="flowRoot2987"
       style="font-size:12px;font-style:normal;font-variant:normal;font-weight:normal;font-stretch:normal;line-height:125%;letter-spacing:0px;word-spacing:0px;fill:#000000;fill-opacity:1;stroke:none;font-family:Lavi;-inkscape-font-specification:Lavi"
       transform="matrix(0.97226124,0,0,0.98626652,-401.44212,-147.04846)"><flowRegion
         id="flowRegion2989"><rect
           id="rect2991"
           width="1228.9047"
           height="338.34705"
           x="120.55251"
           y="265.53046"
           style="font-style:normal;font-variant:normal;font-weight:normal;font-stretch:normal;font-family:Lavi;-inkscape-font-specification:Lavi" /></flowRegion><flowPara
         id="flowPara2995"
         style="font-size:48px;text-align:center;text-anchor:middle">ooooh, Carrot !</flowPara><flowPara
         style="font-size:48px;text-align:center;text-anchor:middle"
         id="flowPara3757">Pegen bisig out bet</flowPara><flowPara
         style="font-size:48px;text-align:center;text-anchor:middle"
         id="flowPara3036">o tont diouzhit</flowPara><flowPara
         style="font-size:48px;text-align:center;text-anchor:middle"
         id="flowPara3039">da-unan.</flowPara><flowPara
         style="font-size:48px;text-align:center;text-anchor:middle"
         id="flowPara3038" /></flowRoot>    <flowRoot
       xml:space="preserve"
       id="flowRoot2987-4"
       style="font-size:12px;font-style:normal;font-variant:normal;font-weight:normal;font-stretch:normal;line-height:125%;letter-spacing:0px;word-spacing:0px;fill:#000000;fill-opacity:1;stroke:none;font-family:Lavi;-inkscape-font-specification:Lavi"
       transform="matrix(0.89307054,0,0,0.90119546,629.78276,-124.854)"><flowRegion
         id="flowRegion2989-4"><rect
           id="rect2991-6"
           width="1228.9047"
           height="338.34705"
           x="120.55251"
           y="265.53046"
           style="font-style:normal;font-variant:normal;font-weight:normal;font-stretch:normal;font-family:Lavi;-inkscape-font-specification:Lavi" /></flowRegion><flowPara
         style="font-size:48px;text-align:center;text-anchor:middle"
         id="flowPara3810">Rik hag a-blom d'ar poent</flowPara><flowPara
         style="font-size:48px;text-align:center;text-anchor:middle"
         id="flowPara3051">ma'm eus ezhomm</flowPara><flowPara
         style="font-size:48px;text-align:center;text-anchor:middle"
         id="flowPara3043">eus ma skoazeller</flowPara><flowPara
         style="font-size:48px;text-align:center;text-anchor:middle"
         id="flowPara3045">gwellañ karet.</flowPara></flowRoot>    <flowRoot
       xml:space="preserve"
       id="flowRoot2987-0"
       style="font-size:12px;font-style:normal;font-variant:normal;font-weight:normal;font-stretch:normal;line-height:125%;letter-spacing:0px;word-spacing:0px;fill:#000000;fill-opacity:1;stroke:none;font-family:Lavi;-inkscape-font-specification:Lavi"
       transform="matrix(0.97226124,0,0,0.98626652,-107.05583,583.66739)"><flowRegion
         id="flowRegion2989-5"><rect
           id="rect2991-3"
           width="1228.9047"
           height="338.34705"
           x="120.55251"
           y="265.53046"
           style="font-style:normal;font-variant:normal;font-weight:normal;font-stretch:normal;font-family:Lavi;-inkscape-font-specification:Lavi" /></flowRegion><flowPara
         style="font-size:48px;text-align:center;text-anchor:middle"
         id="flowPara3859">Taaadaaaa !</flowPara><flowPara
         style="font-size:48px;text-align:center;text-anchor:middle"
         id="flowPara3062">Sede amañ</flowPara><flowPara
         style="font-size:48px;text-align:center;text-anchor:middle"
         id="flowPara3049">ma fennoberenn:</flowPara></flowRoot>    <flowRoot
       xml:space="preserve"
       id="flowRoot2987-0-8"
       style="font-size:12px;font-style:normal;font-variant:normal;font-weight:normal;font-stretch:normal;line-height:125%;letter-spacing:0px;word-spacing:0px;fill:#000000;fill-opacity:1;stroke:none;font-family:Lavi;-inkscape-font-specification:Lavi"
       transform="matrix(1.4223517,0,0,1.37337,1076.39,1451.7713)"><flowRegion
         id="flowRegion2989-5-3"><rect
           id="rect2991-3-9"
           width="1228.9047"
           height="338.34705"
           x="120.55251"
           y="265.53046"
           style="font-style:normal;font-variant:normal;font-weight:normal;font-stretch:normal;font-family:Lavi;-inkscape-font-specification:Lavi" /></flowRegion><flowPara
         style="font-size:48px;text-align:center;text-anchor:middle"
         id="flowPara3899">dramm </flowPara><flowPara
         style="font-size:48px;text-align:center;text-anchor:middle"
         id="flowPara3068">an Dud a Ijin</flowPara></flowRoot>    <flowRoot
       xml:space="preserve"
       id="flowRoot2987-0-8-0"
       style="font-size:12px;font-style:normal;font-variant:normal;font-weight:normal;font-stretch:normal;line-height:125%;letter-spacing:0px;word-spacing:0px;fill:#000000;fill-opacity:1;stroke:none;font-family:Lavi;-inkscape-font-specification:Lavi"
       transform="matrix(0.99729969,0,0,0.93985282,-78.83126,2122.9828)"><flowRegion
         id="flowRegion2989-5-3-2"><rect
           id="rect2991-3-9-7"
           width="1228.9047"
           height="338.34705"
           x="120.55251"
           y="265.53046"
           style="font-style:normal;font-variant:normal;font-weight:normal;font-stretch:normal;font-family:Lavi;-inkscape-font-specification:Lavi" /></flowRegion><flowPara
         style="font-size:48px;text-align:center;text-anchor:middle"
         id="flowPara3072">ul lonkadennig</flowPara><flowPara
         style="font-size:48px;text-align:center;text-anchor:middle"
         id="flowPara3074">hepken...</flowPara></flowRoot>    <flowRoot
       xml:space="preserve"
       id="flowRoot2987-0-8-0-9"
       style="font-size:12px;font-style:normal;font-variant:normal;font-weight:normal;font-stretch:normal;line-height:125%;letter-spacing:0px;word-spacing:0px;fill:#000000;fill-opacity:1;stroke:none;font-family:Lavi;-inkscape-font-specification:Lavi"
       transform="matrix(0.99729969,0,0,0.93985282,1216.185,2268.1044)"><flowRegion
         id="flowRegion2989-5-3-2-1"><rect
           id="rect2991-3-9-7-5"
           width="1228.9047"
           height="338.34705"
           x="120.55251"
           y="265.53046"
           style="font-style:normal;font-variant:normal;font-weight:normal;font-stretch:normal;font-family:Lavi;-inkscape-font-specification:Lavi" /></flowRegion><flowPara
         style="font-size:48px;text-align:center;text-anchor:middle"
         id="flowPara3091">... ha dleout a rafes</flowPara><flowPara
         style="font-size:48px;text-align:center;text-anchor:middle"
         id="flowPara3087">pakañ un taol</flowPara><flowPara
         style="font-size:48px;text-align:center;text-anchor:middle"
         id="flowPara3057">ijin.</flowPara><flowPara
         style="font-size:48px;text-align:center;text-anchor:middle"
         id="flowPara3083" /></flowRoot>  </g>
</svg>
