<?xml version="1.0" encoding="UTF-8" standalone="no"?>
<!-- Created with Inkscape (http://www.inkscape.org/) -->

<svg
   xmlns:dc="http://purl.org/dc/elements/1.1/"
   xmlns:cc="http://creativecommons.org/ns#"
   xmlns:rdf="http://www.w3.org/1999/02/22-rdf-syntax-ns#"
   xmlns:svg="http://www.w3.org/2000/svg"
   xmlns="http://www.w3.org/2000/svg"
   xmlns:xlink="http://www.w3.org/1999/xlink"
   xmlns:sodipodi="http://sodipodi.sourceforge.net/DTD/sodipodi-0.dtd"
   xmlns:inkscape="http://www.inkscape.org/namespaces/inkscape"
   id="svg2"
   version="1.1"
   inkscape:version="0.91 r13725"
   width="2481"
   height="3503"
   sodipodi:docname="Pepper-and-Carrot_by-David-Revoy_E04P01.svg">
  <metadata
     id="metadata8">
    <rdf:RDF>
      <cc:Work
         rdf:about="">
        <dc:format>image/svg+xml</dc:format>
        <dc:type
           rdf:resource="http://purl.org/dc/dcmitype/StillImage" />
        <dc:title />
      </cc:Work>
    </rdf:RDF>
  </metadata>
  <defs
     id="defs6" />
  <sodipodi:namedview
     pagecolor="#ffffff"
     bordercolor="#666666"
     borderopacity="1"
     objecttolerance="10"
     gridtolerance="10"
     guidetolerance="10"
     inkscape:pageopacity="0"
     inkscape:pageshadow="2"
     inkscape:window-width="1600"
     inkscape:window-height="876"
     id="namedview4"
     showgrid="false"
     inkscape:zoom="0.16853754"
     inkscape:cx="1167.6792"
     inkscape:cy="1969.0884"
     inkscape:window-x="1276"
     inkscape:window-y="121"
     inkscape:window-maximized="1"
     inkscape:current-layer="layer3" />
  <g
     inkscape:groupmode="layer"
     id="layer2"
     inkscape:label="artwork"
     sodipodi:insensitive="true">
    <image
       sodipodi:absref="/home/willem/Git/peppercarrot_ep04_translation/nl/../gfx_Pepper-and-Carrot_by-David-Revoy_E04P01.png"
       xlink:href="../gfx_Pepper-and-Carrot_by-David-Revoy_E04P01.png"
       width="2481"
       height="3503"
       id="image10"
       x="0"
       y="0" />
  </g>
  <g
     inkscape:groupmode="layer"
     id="layer3"
     inkscape:label="speechbubbles">
    <path
       style="fill:#ffffff;stroke:none;stroke-width:1px;stroke-linecap:butt;stroke-linejoin:miter;stroke-opacity:1"
       d="m 502.08486,2399.6429 c -4.60107,-44.6393 -9.20215,-135.7215 0,-155.5612 5.85592,0 15.47636,-0.4509 15.47636,-0.4509 l -9.20216,-24.3487 16.73119,5.8618 8.36558,-8.1163 -5.43763,-13.527 15.05806,6.3126 7.52904,-13.0762 12.54839,9.469 6.27419,-13.5271 13.80323,10.8217 25.51505,-5.8618 c 62.61119,-2.3892 124.52228,-6.0363 190.31722,-2.7054 l 20.07742,-8.5671 5.85591,12.6252 10.45699,0.4509 10.03872,-5.4108 10.03871,5.8617 33.46236,-4.0581 10.87527,11.7235 12.96668,-9.9199 4.18278,13.0762 12.96668,-8.1162 2.0914,8.5671 30.95268,-9.9199 -4.60107,20.2906 c 0,0 23.00538,9.0181 39.31828,2.2545 1.67308,4.5091 -0.83654,12.6253 -0.83654,12.6253 l 8.36545,4.509 0,11.7235 c 0,0 16.7312,15.3306 18.4044,19.3888 1.6731,4.0581 5.4376,114.98 -0.4183,132.5651 4.6011,0 7.5292,2.7054 7.1108,5.4109 -0.4183,2.7054 -3.7645,10.3707 -3.7645,10.3707 0,0 4.6011,7.2144 3.3462,9.4689 -1.2548,2.2546 -3.7646,5.4109 -3.7646,5.4109 0,0 4.1829,5.8617 2.928,7.6653 -1.2548,1.8036 -8.3655,4.9599 -11.2935,6.7635 3.3462,3.6072 6.2741,11.2726 3.7645,13.0762 -2.5097,1.8036 -8.3656,3.1563 -8.3656,3.1563 l -2.0914,4.509 c 0,0 -0.8365,9.0181 -2.9279,9.469 -2.0914,0.4509 -10.87533,-4.5091 -12.1301,-3.6073 -1.25485,0.9018 -4.60111,8.1163 -6.69251,8.1163 -2.09131,0 -8.78386,-8.5672 -8.78386,-8.5672 -0.89391,1.9272 -111.35585,5.1615 -120.46452,3.1564 -9.16391,-2.0173 -45.17421,2.7054 -50.19357,2.7054 -5.01935,0 -25.93332,-1.3527 -28.86128,-2.2545 -2.92796,-0.9018 -14.63979,-4.0582 -18.82259,-3.6073 -4.18279,0.4509 -12.13011,4.96 -16.73118,4.96 -4.60108,0 -30.95268,-2.7054 -35.97205,-2.2545 -5.01935,0.4509 -28.02473,2.2545 -31.78924,2.2545 -3.76452,0 -46.01076,-4.96 -50.61183,-5.4109 -4.60108,-0.4509 -24.67851,4.5091 -28.44302,4.0582 -3.76451,-0.4509 -25.09677,-4.5091 -31.78924,-4.0582 -6.69248,0.4509 -31.78926,-5.8617 -33.46238,-5.4108 -1.67312,0.4509 -4.19971,0.9008 -19.65913,0 7.94732,-6.7635 5.43763,-12.6252 5.43763,-12.6252 l -5.85591,-3.6073 0.83656,-4.0581 -12.13012,-6.7635 1.67312,-4.9599 0.83656,-8.1163 -12.1301,-6.3126 19.24086,-18.0361 z"
       id="path3894"
       inkscape:connector-curvature="0"
       sodipodi:nodetypes="cccccccccccccccccccccccccccccccscscccccsccssscssssssssssscccccccccc" />
    <path
       style="fill:#ffffff;stroke:none;stroke-width:1px;stroke-linecap:butt;stroke-linejoin:miter;stroke-opacity:1;color:#000000;fill-opacity:1;fill-rule:nonzero;marker:none;visibility:visible;display:inline;overflow:visible;enable-background:accumulate"
       d="m 818.04625,2447.3394 c 1.81385,78.9025 3.6277,268.4498 28.11468,311.9822 24.48697,43.5324 33.55622,70.7401 98.85481,79.8094 -68.92629,-32.6493 -89.78557,-105.2033 -96.13404,-230.3589 -6.34847,-125.1557 43.5324,-212.2205 43.5324,-212.2205 l -68.01937,-3.6277 z"
       id="path3896"
       inkscape:connector-curvature="0" />
    <path
       style="color:#000000;display:inline;overflow:visible;visibility:visible;fill:#ffffff;fill-opacity:1;fill-rule:nonzero;stroke:none;stroke-width:1px;marker:none;enable-background:accumulate"
       d="m 688.35347,2528.15 c 11.9206,-4.0581 11.9206,-12.1744 6.95368,-22.5451 3.47685,-0.4509 15.39743,2.2545 13.41065,-4.9599 2.98016,-0.9018 6.95368,-0.9018 4.47023,-6.7636 3.47684,-0.4509 13.41066,1.8036 10.92721,-4.0581 6.45697,-1.3527 67.05328,-3.1563 88.90768,-0.9018 21.8544,2.2545 80.46393,0.4509 86.42423,0 5.96029,-0.4509 51.65586,0 55.6294,0 3.97351,0 19.86762,4.9599 24.83454,7.6653 7.45036,-3.6072 16.88749,-2.2545 16.88749,-2.2545 0,0 0,15.3307 1.49007,16.6834 1.49007,1.3527 8.94045,-2.2545 10.43055,0 1.49,2.2545 -10.43055,15.7816 -8.94048,16.2325 1.49008,0.4509 13.41068,5.4108 13.41068,7.2144 0,1.8036 -9.4371,10.3707 -8.9405,10.8216 0.4967,0.4509 7.9471,6.3127 6.9537,11.2726 8.9405,1.8036 13.4107,6.3126 15.8942,9.4689 -3.9735,5.8618 -13.4107,11.2726 -15.3975,14.4289 2.4835,5.4108 8.9405,12.6253 7.4503,14.8798 -1.49,2.2545 -8.4437,1.8036 -13.4106,-0.9018 1.9868,6.7635 1.4901,60.8717 -7.45035,80.7114 2.48345,4.509 6.95365,7.6653 7.94705,12.1744 0.9934,4.509 -1.9868,11.7234 -1.4901,13.9779 0.4967,2.2545 4.4703,9.9199 3.9736,13.5271 -0.4967,3.6072 -2.4835,7.2144 -5.4636,9.4689 -0.4967,3.6072 1.9867,6.3127 -0.4967,7.2145 -2.4835,0.9018 -12.41731,-4.0582 -14.90076,-3.1564 -2.48346,0.9018 -0.49669,13.0762 -2.98015,15.3307 -2.48346,2.2545 -56.12608,8.1162 -68.04667,3.1563 -12.41726,-0.9018 -104.30509,18.487 -142.55031,10.8217 -4.47021,-0.9018 -3.47682,-4.0581 -6.95365,-4.96 -3.47685,-0.9018 -5.46362,2.2546 -12.91398,1.3528 -6.45698,-4.5091 -14.90072,-4.96 -28.31139,-26.6033 -4.47021,0 -11.92057,2.2545 -12.91396,-1.3527 -0.99338,-3.6072 0.49669,-6.3126 0.49669,-6.3126 0,0 -4.96692,1.3527 -5.4636,-1.3527 -0.49669,-2.7054 6.45698,-9.9198 5.9603,-11.2725 -0.4967,-1.3528 -14.40405,2.7054 -14.90073,-0.451 -0.49669,-3.1563 5.4636,-10.8216 4.9669,-13.0761 -0.49669,-2.2545 -24.83455,-36.974 -16.88749,-142.485 3.97353,-1.3527 7.94705,-2.7054 7.45037,-4.509 -0.4967,-1.8037 -6.457,-5.4109 -6.457,-5.4109 z"
       id="path3915"
       inkscape:connector-curvature="0" />
    <path
       style="color:#000000;fill:#ffffff;fill-opacity:1;fill-rule:nonzero;stroke:none;stroke-width:1px;marker:none;visibility:visible;display:inline;overflow:visible;enable-background:accumulate"
       d="m 2161.9635,2759.6873 c 75.5442,-65.8317 129.3057,-115.4309 140.8923,-189.8298 11.5865,-74.3988 -1.8538,-91.5331 -5.5615,-100.5511 -12.977,1.8036 -33.8327,13.978 -38.0039,19.3888 1.8539,-19.8397 -11.5865,-82.5151 -31.9788,-107.3147 -20.3923,-24.7996 -39.3943,-7.6653 -39.3943,-7.6653 0,0 61.177,94.6894 55.1519,157.8157 12.0501,-12.6253 34.7597,-36.974 40.3212,-32.465 5.5615,4.5091 8.3423,64.9299 -3.7077,92.4349 -12.05,27.5051 -38.9308,101.9039 -117.7192,168.1865 z"
       id="path3923"
       inkscape:connector-curvature="0" />
    <path
       style="color:#000000;display:inline;overflow:visible;visibility:visible;fill:#ffffff;fill-opacity:1;fill-rule:nonzero;stroke:none;stroke-width:1px;stroke-linecap:butt;stroke-linejoin:miter;stroke-opacity:1;marker:none;enable-background:accumulate"
       d="m 1837.8089,2353.2992 c 0,0 39.3786,7.7521 45.629,11.9264 6.2506,4.1742 31.2527,-2.9816 -3.7504,44.7238 35.6281,-15.5043 63.7556,-32.2012 76.8818,-30.4122 -5.6255,11.9263 -11.876,27.4306 -11.876,27.4306 0,0 32.5028,-12.5227 38.7533,-11.9263 -1.8751,5.3668 2.5003,16.1005 2.5003,16.1005 l 16.8764,-2.3852 5.0004,14.3116 c 0,0 67.5059,-25.0454 75.6316,-22.0638 8.1258,2.9816 -3.7503,34.5865 -3.7503,34.5865 l 18.1266,-12.5227 8.7508,0.5963 21.2518,-20.2748 6.8756,11.33 5.0004,-4.1742 10.0009,4.7706 23.7521,-17.2933 8.1256,1.789 20.6268,27.4306 11.2511,-12.5227 5.6255,-0.5963 36.8782,1.1927 2.5001,-2.9816 6.2506,-1.1927 8.7508,-5.9631 5.0004,-13.7154 10.626,0 21.2518,12.5227 10.0009,8.3485 7.5006,-20.2748 4.3754,-2.3853 1.2501,-12.5227 24.3772,9.5411 7.5006,5.9632 1.8751,-10.7337 8.1258,-0.5964 15.0013,4.1743 16.2515,11.33 24.3771,12.5227 -36.8783,-45.9165 -8.7508,-8.3484 31.8779,-8.3485 0,-95.4108 -12.5012,-131.19 -544.4224,6.5595 -13.7512,86.4661 0.625,76.925 -3.1253,25.6417 27.5025,8.9448 -26.8774,13.7153 16.8765,9.541 z"
       id="path3931"
       inkscape:connector-curvature="0" />
  </g>
  <g
     inkscape:groupmode="layer"
     id="layer1"
     inkscape:label="txt">
    <flowRoot
       xml:space="preserve"
       id="flowRoot2987"
       style="font-style:normal;font-variant:normal;font-weight:normal;font-stretch:normal;font-size:12px;line-height:125%;font-family:Lavi;-inkscape-font-specification:Lavi;letter-spacing:0px;word-spacing:0px;fill:#000000;fill-opacity:1;stroke:none"
       transform="translate(52.552065,-126.62151)"><flowRegion
         id="flowRegion2989"><rect
           id="rect2991"
           width="973.52362"
           height="213.03587"
           x="120.55251"
           y="265.53046"
           style="font-style:normal;font-variant:normal;font-weight:normal;font-stretch:normal;font-family:Lavi;-inkscape-font-specification:Lavi" /></flowRegion><flowPara
         id="flowPara2993"
         style="font-size:48px">De nacht voor de toverdrankwedstrijd,</flowPara><flowPara
         id="flowPara2995"
         style="font-size:48px">        rond een uur of 2...</flowPara></flowRoot>    <flowRoot
       xml:space="preserve"
       id="flowRoot2987-4"
       style="font-style:normal;font-variant:normal;font-weight:normal;font-stretch:normal;font-size:12px;line-height:125%;font-family:Lavi;-inkscape-font-specification:Lavi;text-align:center;letter-spacing:0px;word-spacing:0px;text-anchor:middle;fill:#000000;fill-opacity:1;stroke:none"
       transform="translate(341.31241,1949.0059)"><flowRegion
         id="flowRegion2989-5"><rect
           id="rect2991-7"
           width="602.40173"
           height="310.73996"
           x="120.55251"
           y="265.53046"
           style="font-style:normal;font-variant:normal;font-weight:normal;font-stretch:normal;font-family:Lavi;-inkscape-font-specification:Lavi;text-align:center;text-anchor:middle" /></flowRegion><flowPara
         style="font-size:48px;text-align:center;text-anchor:middle"
         id="flowPara3033">Eindelijk...</flowPara><flowPara
         style="font-size:48px;text-align:center;text-anchor:middle"
         id="flowPara3798">Met deze drank kan niemand me verslaan,</flowPara><flowPara
         style="font-size:48px;text-align:center;text-anchor:middle"
         id="flowPara4170">zelfs Saffraan niet!</flowPara></flowRoot>    <flowRoot
       xml:space="preserve"
       id="flowRoot2987-4-8"
       style="font-style:normal;font-variant:normal;font-weight:normal;font-stretch:normal;font-size:12px;line-height:125%;font-family:Lavi;-inkscape-font-specification:Lavi;text-align:center;letter-spacing:0px;word-spacing:0px;text-anchor:middle;fill:#000000;fill-opacity:1;stroke:none"
       transform="matrix(0.96141471,0,0,0.91963896,443.10155,2264.7914)"><flowRegion
         id="flowRegion2989-5-9"><rect
           id="rect2991-7-4"
           width="602.40173"
           height="310.73996"
           x="120.55251"
           y="265.53046"
           style="font-style:normal;font-variant:normal;font-weight:normal;font-stretch:normal;font-family:Lavi;-inkscape-font-specification:Lavi;text-align:center;text-anchor:middle" /></flowRegion><flowPara
         style="font-size:48px;text-align:center;text-anchor:middle"
         id="flowPara4178">Ik moet</flowPara><flowPara
         style="font-size:48px;text-align:center;text-anchor:middle"
         id="flowPara4182">hem wel nog</flowPara><flowPara
         style="font-size:48px;text-align:center;text-anchor:middle"
         id="flowPara4184">op iemand</flowPara><flowPara
         style="font-size:48px;text-align:center;text-anchor:middle"
         id="flowPara4186">uittesten...</flowPara></flowRoot>    <flowRoot
       xml:space="preserve"
       id="flowRoot2987-4-8-2"
       style="font-style:normal;font-variant:normal;font-weight:normal;font-stretch:normal;font-size:12px;line-height:125%;font-family:Lavi;-inkscape-font-specification:Lavi;text-align:center;letter-spacing:0px;word-spacing:0px;text-anchor:middle;fill:#000000;fill-opacity:1;stroke:none"
       transform="matrix(1.4179226,0,0,1.4152108,1527.4333,1745.8167)"><flowRegion
         id="flowRegion2989-5-9-2"><rect
           id="rect2991-7-4-2"
           width="602.40173"
           height="310.73996"
           x="120.55251"
           y="265.53046"
           style="font-style:normal;font-variant:normal;font-weight:normal;font-stretch:normal;font-family:Lavi;-inkscape-font-specification:Lavi;text-align:center;text-anchor:middle" /></flowRegion><flowPara
         style="font-size:48px;text-align:center;text-anchor:middle"
         id="flowPara3798-1-6" /><flowPara
         style="font-size:48px;text-align:center;text-anchor:middle"
         id="flowPara3849-2">CAAAAAAAA-</flowPara><flowPara
         style="font-size:48px;text-align:center;text-anchor:middle"
         id="flowPara3892">AAAARROT!!!</flowPara></flowRoot>  </g>
</svg>
