<?xml version="1.0" encoding="UTF-8" standalone="no"?>
<!-- Created with Inkscape (http://www.inkscape.org/) -->

<svg
   xmlns:dc="http://purl.org/dc/elements/1.1/"
   xmlns:cc="http://creativecommons.org/ns#"
   xmlns:rdf="http://www.w3.org/1999/02/22-rdf-syntax-ns#"
   xmlns:svg="http://www.w3.org/2000/svg"
   xmlns="http://www.w3.org/2000/svg"
   xmlns:xlink="http://www.w3.org/1999/xlink"
   xmlns:sodipodi="http://sodipodi.sourceforge.net/DTD/sodipodi-0.dtd"
   xmlns:inkscape="http://www.inkscape.org/namespaces/inkscape"
   id="svg2"
   version="1.1"
   inkscape:version="0.92.2 (5c3e80d, 2017-08-06)"
   width="2481"
   height="3503"
   sodipodi:docname="Pepper-and-Carrot_by-David-Revoy_E04P07.svg">
  <metadata
     id="metadata8">
    <rdf:RDF>
      <cc:Work
         rdf:about="">
        <dc:format>image/svg+xml</dc:format>
        <dc:type
           rdf:resource="http://purl.org/dc/dcmitype/StillImage" />
        <dc:title></dc:title>
      </cc:Work>
    </rdf:RDF>
  </metadata>
  <defs
     id="defs6" />
  <sodipodi:namedview
     pagecolor="#ffffff"
     bordercolor="#666666"
     borderopacity="1"
     objecttolerance="10"
     gridtolerance="10"
     guidetolerance="10"
     inkscape:pageopacity="0"
     inkscape:pageshadow="2"
     inkscape:window-width="1366"
     inkscape:window-height="705"
     id="namedview4"
     showgrid="false"
     inkscape:zoom="0.38544754"
     inkscape:cx="1214.7132"
     inkscape:cy="816.42024"
     inkscape:window-x="-8"
     inkscape:window-y="-8"
     inkscape:window-maximized="1"
     inkscape:current-layer="layer1" />
  <g
     inkscape:groupmode="layer"
     id="layer2"
     inkscape:label="artwork"
     sodipodi:insensitive="true">
    <image
       sodipodi:absref="C:\Users\jamesmichael\Downloads\Compressed\peppercarrot_ep04_translation-master\peppercarrot_ep04_translation-master\en\..\gfx_Pepper-and-Carrot_by-David-Revoy_E04P07.png"
       xlink:href="../gfx_Pepper-and-Carrot_by-David-Revoy_E04P07.png"
       y="0"
       x="0"
       id="image10"
       height="3503"
       width="2481" />
  </g>
  <g
     inkscape:groupmode="layer"
     id="layer3"
     inkscape:label="speechbubbles">
    <path
       style="display:inline;fill:#ffffff;stroke:none"
       d="m 146.74525,85.364543 28.11467,35.370067 -16.32465,17.23158 8.16233,9.97617 -12.69695,9.97617 25.39389,7.2554 c -16.38445,22.15355 -38.44418,40.90193 -61.67089,58.95012 l 34.46315,-5.44155 c -1.68965,12.728 -9.29952,23.97594 -16.32465,35.37007 l 36.277,-15.41772 c 0.94796,8.60197 -6.16576,13.97926 -11.79003,19.95234 l 26.30082,-5.44155 -3.6277,7.2554 c 10.63196,-2.46964 20.73686,-4.41221 32.6493,-8.16232 l -15.41772,24.48697 31.74237,-15.41772 8.16232,9.97617 8.16233,-10.8831 9.06924,37.18392 17.23158,-38.99777 11.39957,22.93343 9.4597,-21.11958 c 11.68463,10.44356 17.56538,22.25534 21.7662,34.46315 9.24593,-14.5108 18.45147,-29.0216 31.74237,-43.5324 5.69469,4.31914 13.73874,14.12012 23.58004,28.11468 l 6.34848,-19.04543 c 17.14027,12.72738 31.93159,26.23775 40.81162,41.71855 v -38.99777 l 22.67312,19.95234 7.2554,-30.83544 19.95234,21.7662 1.81385,-25.3939 26.30083,18.1385 -0.90693,-15.41773 26.30082,11.79003 c 0,0 -6.55681,-24.91228 -2.20017,-29.79838 4.35664,-4.88609 35.75639,7.12526 35.75639,7.12526 0,0 -10.3599,-18.22537 -7.2554,-21.7662 3.1045,-3.54083 34.46315,0.90692 34.46315,0.90692 L 557.58222,189.6609 c 19.49915,-9.82475 39.02694,-19.62086 62.57781,-25.39389 0,0 -29.37154,-19.1463 -30.18676,-23.70813 -0.81521,-4.56184 13.86212,-9.84809 13.86212,-9.84809 l -28.11262,-13.34358 31.74031,-16.58494 -54.41549,1.81385 24.48697,-31.742375 -40.81162,27.207745 17.23158,-58.950116 C 534.15959,64.360378 507.59507,82.839793 479.58668,99.87534 l 9.97617,-20.859271 -36.27699,24.486971 -3.6277,-48.067018 -14.5108,37.18392 C 422.45207,72.623934 415.49801,50.987575 412.47424,28.228276 409.9402,48.78524 400.66406,69.342203 387.08034,89.899167 l -9.97617,-45.346243 -21.7662,35.37007 -11.79002,-27.207747 -19.95235,33.556221 -21.7662,-51.694718 -4.53462,48.973943 -12.69695,-19.952347 -7.2554,23.580047 -19.95235,-33.556221 4.53463,37.18392 C 241.56563,73.167785 227.81903,62.141959 211.13692,48.180623 l 18.13849,48.067017 -28.11467,-22.67312 10.8831,33.55622 -23.58005,-12.69695 3.6277,20.85927 z"
       id="path3497"
       inkscape:connector-curvature="0"
       sodipodi:nodetypes="ccccccccccccccccccccccccccccccccccczczccczccccccccccccccccccccccccccccccc" />
    <path
       style="fill:#ffffff;stroke:none;stroke-width:1px;stroke-linecap:butt;stroke-linejoin:miter;stroke-opacity:1;color:#000000;fill-opacity:1;fill-rule:nonzero;marker:none;visibility:visible;display:inline;overflow:visible;enable-background:accumulate"
       d="m 208.59272,300.64828 c -0.90692,-40.81162 28.11467,-66.20552 34.46315,-68.92629 6.34847,-2.72078 215.84812,-15.41773 239.42816,1.81385 23.58005,17.23157 29.0216,29.02159 26.30082,44.43931 -2.72077,15.41773 -17.23157,56.22935 -50.78779,68.01937 -33.55622,11.79002 -111.55176,17.23157 -152.36338,8.16232 -40.81162,-9.06924 -100.66866,-18.13849 -97.04096,-53.50856 z"
       id="path3517"
       inkscape:connector-curvature="0" />
    <path
       style="color:#000000;display:inline;overflow:visible;visibility:visible;fill:#ffffff;fill-opacity:1;fill-rule:nonzero;stroke:none;stroke-width:1.16979527px;stroke-linecap:butt;stroke-linejoin:miter;stroke-opacity:1;marker:none;enable-background:accumulate"
       d="m 364.4244,377.69558 c -7.44633,-29.0216 12.41055,-106.11021 165.06033,-99.76174 152.64978,6.34848 177.47089,42.62547 181.19404,53.50857 3.72317,10.8831 35.99059,72.55399 -83.15068,88.87864 C 508.3868,436.6457 401.65606,419.41412 364.4244,377.69558 Z"
       id="path3525"
       inkscape:connector-curvature="0" />
    <path
       style="fill:#ffffff;stroke:none;stroke-width:1px;stroke-linecap:butt;stroke-linejoin:miter;stroke-opacity:1;color:#000000;fill-opacity:1;fill-rule:nonzero;marker:none;visibility:visible;display:inline;overflow:visible;enable-background:accumulate"
       d="m 746.39917,361.41224 c 26.30082,-39.90469 81.62324,-73.46091 154.17723,-87.06478 72.55399,-13.60388 206.7789,-9.97618 230.3589,-5.44155 23.5801,4.53462 153.2703,20.85927 181.385,43.53239 28.1147,22.67312 66.2055,50.78779 74.3678,79.80939 8.1624,29.02159 0.907,98.85481 -25.3939,114.27253 -26.3008,15.41773 -146.0149,48.97395 -215.8481,50.7878 -69.8332,1.81385 -232.17275,-12.69695 -278.42592,-22.67313 -46.25317,-9.97617 -95.22711,-22.67312 -109.73791,-54.41549 -14.5108,-31.74237 -41.71855,-73.46091 -10.8831,-118.80716 z"
       id="path3533"
       inkscape:connector-curvature="0" />
    <path
       style="fill:#ffffff;stroke:none;stroke-width:1px;stroke-linecap:butt;stroke-linejoin:miter;stroke-opacity:1;color:#000000;fill-opacity:1;fill-rule:nonzero;marker:none;visibility:visible;display:inline;overflow:visible;enable-background:accumulate"
       d="M 950.45727,823.94393 C 1121.8661,759.55226 1165.3985,589.05039 1147.26,494.7302 c -18.1385,-94.32019 -40.8117,-38.99777 -40.8117,-38.99777 l -4.5346,33.55622 c 0,0 70.7402,243.05587 -151.45643,334.65528 z"
       id="path3541"
       inkscape:connector-curvature="0" />
    <path
       style="fill:#ffffff;stroke:none;stroke-width:1px;stroke-linecap:butt;stroke-linejoin:miter;stroke-opacity:1;color:#000000;fill-opacity:1;fill-rule:nonzero;marker:none;visibility:visible;display:inline;overflow:visible;enable-background:accumulate"
       d="m 1772.1312,1416.1659 c 41.3111,14.9733 83.4399,29.7809 9.9762,68.0193 69.7589,-9.8619 27.08,11.2936 9.9761,25.3939 124.591,-27.8993 44.1779,17.1356 13.6039,44.4393 27.7606,-10.8815 72.0018,-41.5396 55.3224,0.907 8.8262,-1.952 19.2115,-7.5421 23.5801,0.9069 11.2458,-5.8344 19.6007,-7.3326 24.487,-3.6277 11.0527,-10.6176 18.1944,-13.4132 18.1385,-1.8138 10.4494,-8.747 13.6675,-5.7365 16.3246,-1.8139 17.9337,-18.7794 24.6315,-13.4817 31.7424,-9.0692 10.1538,-11.2754 22.0363,-8.7216 35.37,5.4415 13.6427,-19.1765 28.3025,-18.0098 43.5324,-5.4415 4.4732,-4.7241 8.5356,-12.7337 14.5108,-5.4416 6.0462,-2.5224 12.0923,-8.9861 18.1385,-2.7208 63.8142,-24.8239 91.6486,-3.8551 121.528,14.5108 16.6601,-8.1084 28.6656,-23.7806 57.1362,-12.6969 2.6614,-11.3179 17.927,-15.9134 44.4393,-14.5108 -27.1931,-13.6589 -28.5921,-21.4349 34.4632,-14.5108 -43.9498,-11.1854 -84.4517,-22.3708 -16.3247,-33.5562 -15.9561,-4.4407 -68.1098,6.0056 -10.8831,-47.1601 -40.6366,11.7341 -77.5269,14.7828 -88.8786,-32.6493 -21.9228,12.4739 -46.196,18.6532 -65.2986,-9.9762 -17.399,13.4143 -41.7433,10.1938 -54.4155,3.6277 -3.4286,14.6914 -29.3201,37.2228 -64.3916,-3.6277 7.6949,23.2186 1.8706,60.2009 -38.9978,-0.9069 -0.8105,10.63 16.0189,68.4385 -97.9479,-0.907 14.2165,46.5252 -23.6232,19.4535 -53.5086,3.6277 14.8199,29.1701 -7.4834,31.4259 -56.2293,14.5108 37.6041,27.6974 -1.0616,20.0503 -25.3939,19.0455 z"
       id="path3549"
       inkscape:connector-curvature="0"
       sodipodi:nodetypes="ccccccccccccccccccccccccccccc" />
    <path
       style="color:#000000;display:inline;overflow:visible;visibility:visible;fill:#ffffff;fill-opacity:1;fill-rule:nonzero;stroke:none;stroke-width:1.19376099px;marker:none;enable-background:accumulate"
       d="m 1618.4561,2045.0916 c 25.2256,3.1832 16.0969,-20.5641 1.1211,-48.8947 5.8544,1.2243 18.7499,32.5544 12.3321,-18.695 13.5009,5.2982 24.5369,3.0878 20.1798,-46.0185 11.0134,-1.5151 39.799,25.4663 17.9376,-28.7616 23.6744,18.3276 39.1423,17.7065 51.5705,10.0667 42.2337,38.357 43.1346,16.1206 56.0548,11.5047 14.0086,10.8186 29.6847,10.9421 48.2072,-7.1904 4.249,14.4518 20.3846,11.478 40.3595,2.8761 14.6949,34.042 56.6062,15.7167 87.4457,18.6949 38.8867,33.4942 99.3167,7.1133 150.227,7.1904 41.6878,-5.4867 94.3735,3.1344 117.7154,-25.8853 -5.2845,25.7881 11.2181,12.4503 28.0275,-1.4382 3.298,5.0356 -18.1366,29.1064 36.9961,-5.7522 -1.4885,11.9189 -7.5289,27.4874 25.7852,11.5047 3.7843,7.3734 -23.1996,36.3906 44.844,-1.4382 0.3631,10.4232 -12.5257,30.8911 34.754,5.7523 -38.3543,61.9281 -17.0969,55.3 8.9687,43.1423 -14.178,28.6164 -49.3961,64.9439 -4.4844,71.9039 -40.3857,8.4396 -30.0888,29.2623 -24.664,48.8947 -50.6166,-39.5335 -56.5639,-9.4895 -78.4769,-4.3143 -23.1336,-6.5767 -44.4455,-30.6775 -71.7502,2.8762 -41.8295,-13.8079 -50.1227,-1.1431 -63.9026,7.1905 -73.0793,-26.498 -71.3531,-5.0183 -104.2622,-5.7524 -19.4571,-32.7779 -63.3649,-8.0551 -95.2933,-11.5046 -40.3595,-26.8781 -90.0439,-10.1369 -121.0785,2.8761 -12.6876,-11.1073 -21.6912,-27.9898 -53.8127,-8.6283 -20.9415,-21.2952 -42.943,-22.1967 -66.1448,0 -6.0747,-13.3826 -22.9175,-15.542 -65.0236,8.6283 18.9874,-22.1657 -6.0513,-30.8853 -33.633,-38.8281 z"
       id="path3557"
       inkscape:connector-curvature="0"
       sodipodi:nodetypes="cccccccccccccccccccccccccccccc" />
    <path
       style="fill:#ffffff;stroke:none;stroke-width:1px;stroke-linecap:butt;stroke-linejoin:miter;stroke-opacity:1;color:#000000;fill-opacity:1;fill-rule:nonzero;marker:none;visibility:visible;display:inline;overflow:visible;enable-background:accumulate"
       d="m 40.779877,2160.8623 c -1.199408,-34.7828 47.976326,-69.5657 129.536083,-71.9645 81.55975,-2.3988 151.12542,25.1876 158.32187,61.1698 7.19645,35.9823 -71.96449,70.7651 -142.72957,71.9645 -70.76508,1.1994 -137.931934,-8.3959 -145.128383,-61.1698 z"
       id="path3565"
       inkscape:connector-curvature="0" />
    <path
       style="fill:#ffffff;stroke:none;stroke-width:1px;stroke-linecap:butt;stroke-linejoin:miter;stroke-opacity:1;color:#000000;fill-opacity:1;fill-rule:nonzero;marker:none;visibility:visible;display:inline;overflow:visible;enable-background:accumulate"
       d="m 247.07808,2310.7883 c 13.19349,-74.3633 59.9704,-118.7414 287.85795,-135.5331 227.88755,-16.7917 257.87275,69.5657 265.0692,112.7444 7.19645,43.1786 1.19941,106.7473 -62.36922,139.1313 -63.56863,32.384 -202.69998,39.5805 -253.07512,31.1846 -50.37514,-8.3958 -139.13134,-17.9911 -167.91714,-45.5775 -28.7858,-27.5864 -65.96745,-37.1817 -69.56567,-101.9497 z"
       id="path3573"
       inkscape:connector-curvature="0" />
    <path
       style="fill:#ffffff;stroke:none;stroke-width:1px;stroke-linecap:butt;stroke-linejoin:miter;stroke-opacity:1;color:#000000;fill-opacity:1;fill-rule:nonzero;marker:none;visibility:visible;display:inline;overflow:visible;enable-background:accumulate"
       d="m 892.35966,2295.196 c -49.17574,-37.1817 -124.73845,26.387 -124.73845,26.387 l 21.58935,11.9941 c 0,0 59.97041,-49.1758 103.1491,-38.3811 z"
       id="path3581"
       inkscape:connector-curvature="0" />
    <path
       style="fill:#ffffff;stroke:none;stroke-width:1px;stroke-linecap:butt;stroke-linejoin:miter;stroke-opacity:1;color:#000000;fill-opacity:1;fill-rule:nonzero;marker:none;visibility:visible;display:inline;overflow:visible;enable-background:accumulate"
       d="m 257.09349,2188.3533 49.68371,70.188 18.13849,-21.293 -52.0496,-57.57 -11.82945,7.0977 z"
       id="path3589"
       inkscape:connector-curvature="0" />
    <path
       style="fill:#ffffff;stroke:none;stroke-width:1px;stroke-linecap:butt;stroke-linejoin:miter;stroke-opacity:1;color:#000000;fill-opacity:1;fill-rule:nonzero;marker:none;visibility:visible;display:inline;overflow:visible;enable-background:accumulate"
       d="m 1568.9122,3046.2205 c -8.3485,-36.3753 16.6969,-85.2734 39.357,-92.4292 22.6601,-7.1558 101.374,-21.4675 153.2537,-17.8896 51.8796,3.578 97.7961,1.789 106.1445,46.5128 8.3485,44.7239 -24.449,89.4477 -57.8428,108.5299 -33.3938,19.0822 -103.163,30.4122 -150.2721,21.4674 -47.1091,-8.9447 -85.2734,-36.3754 -90.6403,-66.1913 z"
       id="path3064"
       inkscape:connector-curvature="0" />
    <path
       style="fill:#ffffff;stroke:none;stroke-width:1px;stroke-linecap:butt;stroke-linejoin:miter;stroke-opacity:1;color:#000000;fill-opacity:1;fill-rule:nonzero;marker:none;visibility:visible;display:inline;overflow:visible;enable-background:accumulate"
       d="m 1503.9136,2986.5888 c 25.0453,32.7974 35.779,42.9348 82.2918,29.8159 46.5128,-13.119 50.0907,4.7705 50.0907,4.7705 l -22.6601,25.0453 c 0,0 -100.7777,20.8712 -109.7224,-59.6317 z"
       id="path3072"
       inkscape:connector-curvature="0" />
  </g>
  <g
     inkscape:groupmode="layer"
     id="layer1"
     inkscape:label="txt"
     style="display:inline">
    <flowRoot
       xml:space="preserve"
       id="flowRoot2987"
       style="font-style:normal;font-variant:normal;font-weight:normal;font-stretch:normal;line-height:0.01%;font-family:Lavi;-inkscape-font-specification:Lavi;letter-spacing:0px;word-spacing:0px;fill:#000000;fill-opacity:1;stroke:none"
       transform="translate(-159.63305,-160.61742)"><flowRegion
         id="flowRegion2989"><rect
           id="rect2991"
           width="816.64679"
           height="333.42978"
           x="120.55251"
           y="265.53046"
           style="font-style:normal;font-variant:normal;font-weight:normal;font-stretch:normal;font-family:Lavi;-inkscape-font-specification:Lavi" /></flowRegion><flowPara
         id="flowPara2995"
         style="font-size:48px;line-height:1.25;text-align:center;text-anchor:middle">Anu naman </flowPara><flowPara
         style="font-size:48px;line-height:1.25;text-align:center;text-anchor:middle"
         id="flowPara2993">ibig sabihin nito?</flowPara></flowRoot>    <flowRoot
       xml:space="preserve"
       id="flowRoot2987-9"
       style="font-style:normal;font-variant:normal;font-weight:normal;font-stretch:normal;line-height:0.01%;font-family:Lavi;-inkscape-font-specification:Lavi;letter-spacing:0px;word-spacing:0px;fill:#000000;fill-opacity:1;stroke:none"
       transform="translate(-169.72842,-9.076719)"><flowRegion
         id="flowRegion2989-8"><rect
           id="rect2991-8"
           width="816.64679"
           height="333.42978"
           x="120.55251"
           y="265.53046"
           style="font-style:normal;font-variant:normal;font-weight:normal;font-stretch:normal;font-family:Lavi;-inkscape-font-specification:Lavi" /></flowRegion><flowPara
         style="font-size:48px;line-height:1.25;text-align:center;text-anchor:middle"
         id="flowPara2993-6">Embed ?</flowPara></flowRoot>    <flowRoot
       xml:space="preserve"
       id="flowRoot2987-9-2"
       style="font-style:normal;font-variant:normal;font-weight:normal;font-stretch:normal;line-height:0.01%;font-family:Lavi;-inkscape-font-specification:Lavi;letter-spacing:0px;word-spacing:0px;fill:#000000;fill-opacity:1;stroke:none"
       transform="translate(14.186673,57.945341)"><flowRegion
         id="flowRegion2989-8-1"><rect
           id="rect2991-8-9"
           width="816.64679"
           height="333.42978"
           x="120.55251"
           y="265.53046"
           style="font-style:normal;font-variant:normal;font-weight:normal;font-stretch:normal;font-family:Lavi;-inkscape-font-specification:Lavi" /></flowRegion><flowPara
         style="font-size:48px;line-height:1.25;text-align:center;text-anchor:middle"
         id="flowPara2993-6-2">Emcee lights ?</flowPara></flowRoot>    <flowRoot
       xml:space="preserve"
       id="flowRoot2987-9-2-0"
       style="font-style:normal;font-variant:normal;font-weight:normal;font-stretch:normal;line-height:0.01%;font-family:Lavi;-inkscape-font-specification:Lavi;letter-spacing:0px;word-spacing:0px;fill:#000000;fill-opacity:1;stroke:none"
       transform="translate(538.23532,47.790397)"><flowRegion
         id="flowRegion2989-8-1-0"><rect
           id="rect2991-8-9-5"
           width="816.64679"
           height="333.42978"
           x="120.55251"
           y="265.53046"
           style="font-style:normal;font-variant:normal;font-weight:normal;font-stretch:normal;font-family:Lavi;-inkscape-font-specification:Lavi" /></flowRegion><flowPara
         style="font-size:48px;line-height:1.25;text-align:center;text-anchor:middle"
         id="flowPara2993-6-2-3">Anu ba Carrot?</flowPara><flowPara
         style="font-size:48px;line-height:1.25;text-align:center;text-anchor:middle"
         id="flowPara3089">ano ang kahulugan nito?   </flowPara><flowPara
         style="font-size:48px;line-height:1.25;text-align:center;text-anchor:middle"
         id="flowPara86">  Hindi ko to maintindihan !</flowPara></flowRoot>    <flowRoot
       xml:space="preserve"
       id="flowRoot2987-9-2-0-6"
       style="font-style:normal;font-variant:normal;font-weight:normal;font-stretch:normal;line-height:0.01%;font-family:Lavi;-inkscape-font-specification:Lavi;letter-spacing:0px;word-spacing:0px;display:inline;fill:#ffffff;fill-opacity:1;stroke:none"
       transform="translate(-51.196254,1197.8053)"><flowRegion
         id="flowRegion2989-8-1-0-6"><rect
           id="rect2991-8-9-5-7"
           width="816.64679"
           height="333.42978"
           x="120.55251"
           y="265.53046"
           style="font-style:normal;font-variant:normal;font-weight:normal;font-stretch:normal;font-family:Lavi;-inkscape-font-specification:Lavi;fill:#ffffff" /></flowRegion><flowPara
         style="font-size:48px;line-height:1.25;text-align:center;text-anchor:middle;fill:#ffffff"
         id="flowPara3211">... walang, hindi, anong ...</flowPara></flowRoot>    <flowRoot
       xml:space="preserve"
       id="flowRoot2987-9-2-0-6-6"
       style="font-style:normal;font-variant:normal;font-weight:normal;font-stretch:normal;line-height:0.01%;font-family:Lavi;-inkscape-font-specification:Lavi;letter-spacing:0px;word-spacing:0px;display:inline;fill:#000000;fill-opacity:1;stroke:none"
       transform="matrix(1.5197253,0,0,1.5330849,1257.5688,1015.7836)"><flowRegion
         id="flowRegion2989-8-1-0-6-9"><rect
           id="rect2991-8-9-5-7-5"
           width="816.64679"
           height="333.42978"
           x="120.55251"
           y="265.53046"
           style="font-style:normal;font-variant:normal;font-weight:normal;font-stretch:normal;font-family:Lavi;-inkscape-font-specification:Lavi" /></flowRegion><flowPara
         style="font-size:48px;line-height:1.25;text-align:center;text-anchor:middle"
         id="flowPara3211-4">Grrrrrrr !!!</flowPara></flowRoot>    <flowRoot
       xml:space="preserve"
       id="flowRoot2987-9-2-0-6-0"
       style="font-style:normal;font-variant:normal;font-weight:normal;font-stretch:normal;line-height:0.01%;font-family:Lavi;-inkscape-font-specification:Lavi;letter-spacing:0px;word-spacing:0px;display:inline;fill:#000000;fill-opacity:1;stroke:none"
       transform="translate(1571.0078,1687.9168)"><flowRegion
         id="flowRegion2989-8-1-0-6-3"><rect
           id="rect2991-8-9-5-7-9"
           width="640.22845"
           height="343.80728"
           x="120.55251"
           y="265.53046"
           style="font-style:normal;font-variant:normal;font-weight:normal;font-stretch:normal;font-family:Lavi;-inkscape-font-specification:Lavi" /></flowRegion><flowPara
         style="font-size:48px;line-height:1.25;text-align:center;text-anchor:middle"
         id="flowPara3211-0">wala na talaga kong         magawang matino !</flowPara></flowRoot>    <flowRoot
       xml:space="preserve"
       id="flowRoot2987-9-2-0-6-0-6"
       style="font-style:normal;font-variant:normal;font-weight:normal;font-stretch:normal;line-height:0.01%;font-family:Lavi;-inkscape-font-specification:Lavi;letter-spacing:0px;word-spacing:0px;display:inline;fill:#000000;fill-opacity:1;stroke:none"
       transform="translate(-335.4565,1855.8694)"><flowRegion
         id="flowRegion2989-8-1-0-6-3-4"><rect
           id="rect2991-8-9-5-7-9-1"
           width="816.64679"
           height="333.42978"
           x="120.55251"
           y="265.53046"
           style="font-style:normal;font-variant:normal;font-weight:normal;font-stretch:normal;font-family:Lavi;-inkscape-font-specification:Lavi" /></flowRegion><flowPara
         style="font-size:48px;line-height:1.25;text-align:center;text-anchor:middle"
         id="flowPara3211-0-7">Meh ...</flowPara></flowRoot>    <flowRoot
       xml:space="preserve"
       id="flowRoot2987-9-2-0-6-0-6-3"
       style="font-style:normal;font-variant:normal;font-weight:normal;font-stretch:normal;line-height:0.01%;font-family:Lavi;-inkscape-font-specification:Lavi;letter-spacing:0px;word-spacing:0px;display:inline;fill:#000000;fill-opacity:1;stroke:none"
       transform="translate(13.792189,1981.5837)"><flowRegion
         id="flowRegion2989-8-1-0-6-3-4-7"><rect
           id="rect2991-8-9-5-7-9-1-9"
           width="816.64679"
           height="333.42978"
           x="120.55251"
           y="265.53046"
           style="font-style:normal;font-variant:normal;font-weight:normal;font-stretch:normal;font-family:Lavi;-inkscape-font-specification:Lavi" /></flowRegion><flowPara
         style="font-size:48px;line-height:1.25;text-align:center;text-anchor:middle"
         id="flowPara3333">gagawa na </flowPara><flowPara
         style="font-size:48px;line-height:1.25;text-align:center;text-anchor:middle"
         id="flowPara93">lang ako ulet...</flowPara></flowRoot>    <flowRoot
       xml:space="preserve"
       id="flowRoot2987-9-2-0-6-0-6-8"
       style="font-style:normal;font-variant:normal;font-weight:normal;font-stretch:normal;line-height:0.01%;font-family:Lavi;-inkscape-font-specification:Lavi;letter-spacing:0px;word-spacing:0px;display:inline;fill:#ffffff;fill-opacity:1;stroke:none"
       transform="matrix(1.4153204,-0.2891204,-0.04384836,1.6651425,1316.8803,2127.5164)"><flowRegion
         id="flowRegion2989-8-1-0-6-3-4-1"><rect
           id="rect2991-8-9-5-7-9-1-8"
           width="816.64679"
           height="333.42978"
           x="120.55251"
           y="265.53046"
           style="font-style:normal;font-variant:normal;font-weight:normal;font-stretch:normal;font-family:Lavi;-inkscape-font-specification:Lavi;fill:#ffffff" /></flowRegion><flowPara
         style="font-size:48px;line-height:1.25;text-align:center;text-anchor:middle;fill:#ffffff"
         id="flowPara3211-0-7-0">CR...A...CKKKK !</flowPara></flowRoot>    <flowRoot
       xml:space="preserve"
       id="flowRoot2987-9-2-0-6-0-6-3-9"
       style="font-style:normal;font-variant:normal;font-weight:normal;font-stretch:normal;line-height:0.01%;font-family:Lavi;-inkscape-font-specification:Lavi;letter-spacing:0px;word-spacing:0px;display:inline;fill:#000000;fill-opacity:1;stroke:none"
       transform="matrix(0.8245878,0,0,0.85157493,1279.9405,2747.5837)"><flowRegion
         id="flowRegion2989-8-1-0-6-3-4-7-5"><rect
           id="rect2991-8-9-5-7-9-1-9-4"
           width="816.64679"
           height="333.42978"
           x="120.55251"
           y="265.53046"
           style="font-style:normal;font-variant:normal;font-weight:normal;font-stretch:normal;font-family:Lavi;-inkscape-font-specification:Lavi" /></flowRegion><flowPara
         style="font-size:48px;line-height:1.25;text-align:center;text-anchor:middle"
         id="flowPara3333-2">Good night</flowPara><flowPara
         style="font-size:48px;line-height:1.25;text-align:center;text-anchor:middle"
         id="flowPara3427">Carrot</flowPara></flowRoot>    <flowRoot
       xml:space="preserve"
       id="flowRoot2987-9-2-0-6-0-6-3-3"
       style="font-style:normal;font-variant:normal;font-weight:normal;font-stretch:normal;line-height:0.01%;font-family:Lavi;-inkscape-font-specification:Lavi;letter-spacing:0px;word-spacing:0px;display:inline;fill:#000000;fill-opacity:1;stroke:none"
       transform="translate(1700.9742,3155.593)"><flowRegion
         id="flowRegion2989-8-1-0-6-3-4-7-7"><rect
           id="rect2991-8-9-5-7-9-1-9-3"
           width="816.64679"
           height="333.42978"
           x="120.55251"
           y="265.53046"
           style="font-style:normal;font-variant:normal;font-weight:normal;font-stretch:normal;font-family:Lavi;-inkscape-font-specification:Lavi" /></flowRegion><flowPara
         style="font-size:48px;line-height:1.25;text-align:center;text-anchor:middle"
         id="flowPara3333-0">Abangers...</flowPara></flowRoot>    <flowRoot
       xml:space="preserve"
       id="flowRoot2987-9-2-0-6-0-6-3-3-1"
       style="font-style:normal;font-variant:normal;font-weight:normal;font-stretch:normal;font-size:32px;line-height:0.01%;font-family:Lavi;-inkscape-font-specification:Lavi;letter-spacing:0px;word-spacing:0px;display:inline;fill:#4d4d4d;fill-opacity:1;stroke:none"
       transform="translate(-260.13014,3173.8983)"><flowRegion
         id="flowRegion2989-8-1-0-6-3-4-7-7-6"
         style="font-size:32px;fill:#4d4d4d"><rect
           id="rect2991-8-9-5-7-9-1-9-3-7"
           width="1488.0769"
           height="289.40155"
           x="120.55251"
           y="265.53046"
           style="font-style:normal;font-variant:normal;font-weight:normal;font-stretch:normal;font-size:32px;font-family:Lavi;-inkscape-font-specification:Lavi;fill:#4d4d4d" /></flowRegion><flowPara
         style="font-size:32px;line-height:1.25;text-align:center;text-anchor:middle;fill:#4d4d4d"
         id="flowPara3333-0-1">Artwork and story by David Revoy - Translation by Paolo Abes</flowPara></flowRoot>  </g>
</svg>
