<?xml version="1.0" encoding="UTF-8" standalone="no"?>
<!-- Created with Inkscape (http://www.inkscape.org/) -->

<svg
   xmlns:dc="http://purl.org/dc/elements/1.1/"
   xmlns:cc="http://creativecommons.org/ns#"
   xmlns:rdf="http://www.w3.org/1999/02/22-rdf-syntax-ns#"
   xmlns:svg="http://www.w3.org/2000/svg"
   xmlns="http://www.w3.org/2000/svg"
   xmlns:xlink="http://www.w3.org/1999/xlink"
   xmlns:sodipodi="http://sodipodi.sourceforge.net/DTD/sodipodi-0.dtd"
   xmlns:inkscape="http://www.inkscape.org/namespaces/inkscape"
   id="svg2"
   version="1.1"
   inkscape:version="0.92.2 (5c3e80d, 2017-08-06)"
   width="2481"
   height="3503"
   sodipodi:docname="Pepper-and-Carrot_by-David-Revoy_E04P01.svg">
  <metadata
     id="metadata8">
    <rdf:RDF>
      <cc:Work
         rdf:about="">
        <dc:format>image/svg+xml</dc:format>
        <dc:type
           rdf:resource="http://purl.org/dc/dcmitype/StillImage" />
        <dc:title></dc:title>
      </cc:Work>
    </rdf:RDF>
  </metadata>
  <defs
     id="defs6" />
  <sodipodi:namedview
     pagecolor="#ffffff"
     bordercolor="#666666"
     borderopacity="1"
     objecttolerance="10"
     gridtolerance="10"
     guidetolerance="10"
     inkscape:pageopacity="0"
     inkscape:pageshadow="2"
     inkscape:window-width="1366"
     inkscape:window-height="705"
     id="namedview4"
     showgrid="false"
     inkscape:zoom="0.33707507"
     inkscape:cx="1274.8507"
     inkscape:cy="794.05453"
     inkscape:window-x="-8"
     inkscape:window-y="-8"
     inkscape:window-maximized="1"
     inkscape:current-layer="layer1" />
  <g
     inkscape:groupmode="layer"
     id="layer2"
     inkscape:label="artwork"
     sodipodi:insensitive="true">
    <image
       sodipodi:absref="C:\Users\jamesmichael\Downloads\Compressed\peppercarrot_ep04_translation-master\peppercarrot_ep04_translation-master\en\..\gfx_Pepper-and-Carrot_by-David-Revoy_E04P01.png"
       xlink:href="../gfx_Pepper-and-Carrot_by-David-Revoy_E04P01.png"
       y="0"
       x="0"
       id="image10"
       height="3503"
       width="2481" />
  </g>
  <g
     inkscape:groupmode="layer"
     id="layer3"
     inkscape:label="speechbubbles">
    <path
       style="fill:#ffffff;stroke:none;stroke-width:1.09088826px;stroke-linecap:butt;stroke-linejoin:miter;stroke-opacity:1"
       d="m 479.75968,2440.1734 c -4.95992,-53.1224 -9.91984,-161.5136 0,-185.1236 6.31263,0 16.68338,-0.5366 16.68338,-0.5366 l -9.91985,-28.9759 18.03608,6.9758 9.01804,-9.6587 -5.86173,-16.0976 16.23247,7.5122 8.11624,-15.5612 13.52706,11.2685 6.76353,-16.0978 14.87976,12.8783 27.50502,-6.9758 c 67.49435,-2.8432 134.23399,-7.1834 205.16039,-3.2195 l 21.6433,-10.1952 6.31262,15.0245 11.27255,0.5365 10.82165,-6.439 10.82165,6.9756 36.07215,-4.8293 11.72345,13.9514 13.97797,-11.805 4.50901,15.5612 13.97797,-9.6586 2.25451,10.1951 33.36674,-11.805 -4.95992,24.1466 c 0,0 24.79961,10.7318 42.38478,2.6829 1.8036,5.366 -0.9018,15.0246 -0.9018,15.0246 l 9.018,5.3659 v 13.9514 c 0,0 18.0361,18.2439 19.8397,23.0733 1.8036,4.8293 5.8617,136.8305 -0.4509,157.7574 4.9599,0 8.1163,3.2196 7.6654,6.4392 -0.4509,3.2195 -4.0582,12.3415 -4.0582,12.3415 0,0 4.96,8.5854 3.6073,11.2684 -1.3528,2.683 -4.0582,6.4392 -4.0582,6.4392 0,0 4.5091,6.9756 3.1563,9.1219 -1.3527,2.1464 -9.018,5.9025 -12.1743,8.0489 3.6072,4.2927 6.7635,13.4148 4.0581,15.5611 -2.7054,2.1464 -9.018,3.7561 -9.018,3.7561 l -2.2545,5.3659 c 0,0 -0.9018,10.7319 -3.1563,11.2685 -2.2546,0.5366 -11.7235,-5.366 -13.0762,-4.2928 -1.3527,1.0731 -4.9599,9.6587 -7.2144,9.6587 -2.2545,0 -9.46898,-10.1953 -9.46898,-10.1953 -0.96362,2.2934 -120.04069,6.1423 -129.85976,3.7562 -9.87862,-2.4007 -48.69741,3.2195 -54.10824,3.2195 -5.41082,0 -27.95592,-1.6097 -31.11223,-2.6829 -3.15632,-1.0732 -15.78157,-4.8294 -20.29059,-4.2928 -4.50902,0.5366 -13.07616,5.9026 -18.03608,5.9026 -4.95992,0 -33.36674,-3.2196 -38.77757,-2.683 -5.41082,0.5366 -30.21043,2.683 -34.26854,2.683 -4.05812,0 -49.59922,-5.9026 -54.55914,-6.4392 -4.95992,-0.5366 -26.60322,5.366 -30.66133,4.8294 -4.05812,-0.5366 -27.05412,-5.366 -34.26855,-4.8294 -7.21443,0.5366 -34.26855,-6.9757 -36.07216,-6.4391 -1.80361,0.5366 -4.52726,1.072 -21.19239,0 8.56714,-8.0488 5.86172,-15.0244 5.86172,-15.0244 l -6.31262,-4.2929 0.9018,-4.8292 -13.07616,-8.0489 1.80361,-5.9024 0.9018,-9.6587 -13.07615,-7.5122 20.74149,-21.4637 z"
       id="path3894"
       inkscape:connector-curvature="0"
       sodipodi:nodetypes="cccccccccccccccccccccccccccccccscscccccsccssscssssssssssscccccccccc" />
    <path
       style="color:#000000;display:inline;overflow:visible;visibility:visible;fill:#ffffff;fill-opacity:1;fill-rule:nonzero;stroke:none;stroke-width:0.95383698px;stroke-linecap:butt;stroke-linejoin:miter;stroke-opacity:1;marker:none;enable-background:accumulate"
       d="m 1069.815,2350.0151 c 78.1779,7.8577 287.103,14.0504 326.9882,39.6253 39.8853,25.5748 31.5587,28.5036 13.0031,71.9536 8.2272,-64.1639 -60.2653,-55.3695 -183.7915,-70.9726 -123.5263,-15.6032 -216.965,22.6457 -216.965,22.6457 l 5.7988,-61.7986 z"
       id="path3896"
       inkscape:connector-curvature="0"
       sodipodi:nodetypes="cccsccc" />
    <path
       style="color:#000000;display:inline;overflow:visible;visibility:visible;fill:#ffffff;fill-opacity:1;fill-rule:nonzero;stroke:none;stroke-width:1px;marker:none;enable-background:accumulate"
       d="m 1069.9096,2293.1995 c 10.8217,-4.0581 10.8217,-12.1744 6.3126,-22.5451 3.1564,-0.4509 13.978,2.2545 12.1744,-4.9599 2.7054,-0.9018 6.3126,-0.9018 4.0581,-6.7636 3.1563,-0.4509 12.1744,1.8036 9.9199,-4.0581 5.8617,-1.3527 60.8717,-3.1563 80.7114,-0.9018 19.8397,2.2545 73.0461,0.4509 78.4569,0 5.4109,-0.4509 46.8938,0 50.5011,0 3.6072,0 18.036,4.9599 22.5451,7.6653 6.7635,-3.6072 15.3306,-2.2545 15.3306,-2.2545 0,0 0,15.3307 1.3527,16.6834 1.3527,1.3527 8.1163,-2.2545 9.469,0 1.3527,2.2545 -9.469,15.7816 -8.1163,16.2325 1.3527,0.4509 12.1744,5.4108 12.1744,7.2144 0,1.8036 -8.5671,10.3707 -8.1162,10.8216 0.4509,0.4509 7.2144,6.3127 6.3126,11.2726 8.1163,1.8036 12.1744,6.3126 14.4289,9.4689 -3.6072,5.8618 -12.1744,11.2726 -13.978,14.4289 2.2545,5.4108 8.1163,12.6253 6.7635,14.8798 -1.3527,2.2545 -7.6653,1.8036 -12.1743,-0.9018 1.8036,6.7635 1.3527,60.8717 -6.7636,80.7114 2.2545,4.509 6.3127,7.6653 7.2145,12.1744 0.9018,4.509 -1.8036,11.7234 -1.3527,13.9779 0.4509,2.2545 4.0581,9.9199 3.6072,13.5271 -0.4509,3.6072 -2.2545,7.2144 -4.9599,9.4689 -0.451,3.6072 1.8036,6.3127 -0.451,7.2145 -2.2545,0.9018 -11.2725,-4.0582 -13.527,-3.1564 -2.2545,0.9018 -0.4509,13.0762 -2.7054,15.3307 -2.2545,2.2545 -50.9519,8.1162 -61.7736,3.1563 -11.2725,-0.9018 -94.6894,18.487 -129.4089,10.8217 -4.0581,-0.9018 -3.1563,-4.0581 -6.3126,-4.96 -3.1563,-0.9018 -4.9599,2.2546 -11.7234,1.3528 -5.8618,-4.5091 -13.5271,-4.96 -25.7014,-26.6033 -4.0582,0 -10.8217,2.2545 -11.7235,-1.3527 -0.9018,-3.6072 0.4509,-6.3126 0.4509,-6.3126 0,0 -4.509,1.3527 -4.9599,-1.3527 -0.4509,-2.7054 5.8617,-9.9198 5.4108,-11.2725 -0.4509,-1.3528 -13.0761,2.7054 -13.527,-0.451 -0.4509,-3.1563 4.9599,-10.8216 4.509,-13.0761 -0.4509,-2.2545 -22.5451,-36.974 -15.3307,-142.485 3.6072,-1.3527 7.2144,-2.7054 6.7635,-4.509 -0.4509,-1.8037 -5.8617,-5.4109 -5.8617,-5.4109 z"
       id="path3915"
       inkscape:connector-curvature="0" />
    <path
       style="color:#000000;fill:#ffffff;fill-opacity:1;fill-rule:nonzero;stroke:none;stroke-width:1px;marker:none;visibility:visible;display:inline;overflow:visible;enable-background:accumulate"
       d="m 2161.9635,2759.6873 c 75.5442,-65.8317 129.3057,-115.4309 140.8923,-189.8298 11.5865,-74.3988 -1.8538,-91.5331 -5.5615,-100.5511 -12.977,1.8036 -33.8327,13.978 -38.0039,19.3888 1.8539,-19.8397 -11.5865,-82.5151 -31.9788,-107.3147 -20.3923,-24.7996 -39.3943,-7.6653 -39.3943,-7.6653 0,0 61.177,94.6894 55.1519,157.8157 12.0501,-12.6253 34.7597,-36.974 40.3212,-32.465 5.5615,4.5091 8.3423,64.9299 -3.7077,92.4349 -12.05,27.5051 -38.9308,101.9039 -117.7192,168.1865 z"
       id="path3923"
       inkscape:connector-curvature="0" />
    <path
       style="fill:#ffffff;stroke:none;stroke-width:1px;stroke-linecap:butt;stroke-linejoin:miter;stroke-opacity:1;color:#000000;fill-opacity:1;fill-rule:nonzero;marker:none;visibility:visible;display:inline;overflow:visible;enable-background:accumulate"
       d="m 1846.2,2353.2992 c 0,0 37.5681,7.7521 43.5312,11.9264 5.9632,4.1742 29.8159,-2.9816 -3.5779,44.7238 33.9901,-15.5043 60.8244,-32.2012 73.3471,-30.4122 -5.3668,11.9263 -11.33,27.4306 -11.33,27.4306 0,0 31.0085,-12.5227 36.9717,-11.9263 -1.789,5.3668 2.3853,16.1005 2.3853,16.1005 l 16.1005,-2.3852 4.7706,14.3116 c 0,0 64.4023,-25.0454 72.1544,-22.0638 7.7522,2.9816 -3.5779,34.5865 -3.5779,34.5865 l 17.2933,-12.5227 8.3484,0.5963 20.2748,-20.2748 6.5595,11.33 4.7705,-4.1742 9.5411,4.7706 22.6601,-17.2933 7.7521,1.789 19.6785,27.4306 10.7338,-12.5227 5.3668,-0.5963 35.1828,1.1927 2.3852,-2.9816 5.9632,-1.1927 8.3485,-5.9631 4.7705,-13.7154 10.1374,0 20.2748,12.5227 9.5411,8.3485 7.1558,-20.2748 4.1742,-2.3853 1.1927,-12.5227 23.2564,9.5411 7.1558,5.9632 1.7889,-10.7337 7.7522,-0.5964 14.3116,4.1743 15.5043,11.33 23.2564,12.5227 -35.1828,-45.9165 -8.3484,-8.3484 30.4122,-8.3485 0,-95.4108 -11.9264,-131.19 -519.3928,6.5595 -13.119,86.4661 0.5963,76.925 -2.9816,25.6417 26.238,8.9448 -25.6417,13.7153 16.1006,9.541 z"
       id="path3931"
       inkscape:connector-curvature="0" />
  </g>
  <g
     inkscape:groupmode="layer"
     id="layer1"
     inkscape:label="txt">
    <flowRoot
       xml:space="preserve"
       id="flowRoot2987"
       style="font-style:normal;font-variant:normal;font-weight:normal;font-stretch:normal;line-height:0.01%;font-family:Lavi;-inkscape-font-specification:Lavi;letter-spacing:0px;word-spacing:0px;fill:#000000;fill-opacity:1;stroke:none"
       transform="translate(52.552065,-126.62151)"><flowRegion
         id="flowRegion2989"><rect
           id="rect2991"
           width="973.52362"
           height="213.03587"
           x="120.55251"
           y="265.53046"
           style="font-style:normal;font-variant:normal;font-weight:normal;font-stretch:normal;font-family:Lavi;-inkscape-font-specification:Lavi" /></flowRegion><flowPara
         id="flowPara2993"
         style="font-size:48px;line-height:1.25">Sa gabi bago ang araw ng Potion challenge</flowPara><flowPara
         id="flowPara2995"
         style="font-size:48px;line-height:1.25">        2:00 AM</flowPara></flowRoot>    <flowRoot
       xml:space="preserve"
       id="flowRoot2987-4"
       style="font-style:normal;font-variant:normal;font-weight:normal;font-stretch:normal;line-height:0.01%;font-family:Lavi;-inkscape-font-specification:Lavi;text-align:center;letter-spacing:0px;word-spacing:0px;text-anchor:middle;fill:#000000;fill-opacity:1;stroke:none"
       transform="translate(341.31241,1949.0059)"><flowRegion
         id="flowRegion2989-5"><rect
           id="rect2991-7"
           width="589.81506"
           height="528.90826"
           x="120.55251"
           y="265.53046"
           style="font-style:normal;font-variant:normal;font-weight:normal;font-stretch:normal;font-family:Lavi;-inkscape-font-specification:Lavi;text-align:center;text-anchor:middle" /></flowRegion><flowPara
         style="font-size:48px;line-height:1.25;text-align:center;text-anchor:middle"
         id="flowPara3033">Sa wakas ...</flowPara><flowPara
         style="font-size:48px;line-height:1.25;text-align:center;text-anchor:middle"
         id="flowPara3794">Gamit ang potion na to, wala nang makakapalag </flowPara><flowPara
         style="font-size:48px;line-height:1.25;text-align:center;text-anchor:middle"
         id="flowPara3798">pa, kahit si Saffron, TUMBA!</flowPara></flowRoot>    <flowRoot
       xml:space="preserve"
       id="flowRoot2987-4-8"
       style="font-style:normal;font-variant:normal;font-weight:normal;font-stretch:normal;line-height:0.01%;font-family:Lavi;-inkscape-font-specification:Lavi;text-align:center;letter-spacing:0px;word-spacing:0px;text-anchor:middle;fill:#000000;fill-opacity:1;stroke:none"
       transform="matrix(0.96141471,0,0,0.91963896,809.82997,2034.5454)"><flowRegion
         id="flowRegion2989-5-9"><rect
           id="rect2991-7-4"
           width="602.40173"
           height="310.73996"
           x="120.55251"
           y="265.53046"
           style="font-style:normal;font-variant:normal;font-weight:normal;font-stretch:normal;font-family:Lavi;-inkscape-font-specification:Lavi;text-align:center;text-anchor:middle" /></flowRegion><flowPara
         style="font-size:48px;line-height:1.25;text-align:center;text-anchor:middle"
         id="flowPara3847">ngayon </flowPara><flowPara
         style="font-size:48px;line-height:1.25;text-align:center;text-anchor:middle"
         id="flowPara58">kailangan ko</flowPara><flowPara
         style="font-size:48px;line-height:1.25;text-align:center;text-anchor:middle"
         id="flowPara60"> ng &quot;lab-rat&quot;</flowPara><flowPara
         style="font-size:48px;line-height:1.25;text-align:center;text-anchor:middle"
         id="flowPara3849">...</flowPara></flowRoot>    <flowRoot
       xml:space="preserve"
       id="flowRoot2987-4-8-2"
       style="font-style:normal;font-variant:normal;font-weight:normal;font-stretch:normal;line-height:0.01%;font-family:Lavi;-inkscape-font-specification:Lavi;text-align:center;letter-spacing:0px;word-spacing:0px;text-anchor:middle;fill:#000000;fill-opacity:1;stroke:none"
       transform="matrix(1.4179226,0,0,1.4152108,1527.4333,1745.8167)"><flowRegion
         id="flowRegion2989-5-9-2"><rect
           id="rect2991-7-4-2"
           width="602.40173"
           height="310.73996"
           x="120.55251"
           y="265.53046"
           style="font-style:normal;font-variant:normal;font-weight:normal;font-stretch:normal;font-family:Lavi;-inkscape-font-specification:Lavi;text-align:center;text-anchor:middle" /></flowRegion><flowPara
         style="font-size:48px;line-height:1.25;text-align:center;text-anchor:middle"
         id="flowPara3798-1-6"> </flowPara><flowPara
         style="font-size:48px;line-height:1.25;text-align:center;text-anchor:middle"
         id="flowPara3849-2">CAAAAAAAA~</flowPara><flowPara
         style="font-size:48px;line-height:1.25;text-align:center;text-anchor:middle"
         id="flowPara3892">~AAARROT !!!</flowPara></flowRoot>  </g>
</svg>
