<?xml version="1.0" encoding="UTF-8" standalone="no"?>
<!-- Created with Inkscape (http://www.inkscape.org/) -->

<svg
   xmlns:dc="http://purl.org/dc/elements/1.1/"
   xmlns:cc="http://creativecommons.org/ns#"
   xmlns:rdf="http://www.w3.org/1999/02/22-rdf-syntax-ns#"
   xmlns:svg="http://www.w3.org/2000/svg"
   xmlns="http://www.w3.org/2000/svg"
   xmlns:xlink="http://www.w3.org/1999/xlink"
   xmlns:sodipodi="http://sodipodi.sourceforge.net/DTD/sodipodi-0.dtd"
   xmlns:inkscape="http://www.inkscape.org/namespaces/inkscape"
   id="svg2"
   version="1.1"
   inkscape:version="0.92.1 r15371"
   width="2646.3999"
   height="3736.5334"
   sodipodi:docname="Pepper-and-Carrot_by-David-Revoy_E04P03.svg">
  <metadata
     id="metadata8">
    <rdf:RDF>
      <cc:Work
         rdf:about="">
        <dc:format>image/svg+xml</dc:format>
        <dc:type
           rdf:resource="http://purl.org/dc/dcmitype/StillImage" />
        <dc:title />
      </cc:Work>
    </rdf:RDF>
  </metadata>
  <defs
     id="defs6" />
  <sodipodi:namedview
     pagecolor="#ffffff"
     bordercolor="#666666"
     borderopacity="1"
     objecttolerance="10"
     gridtolerance="10"
     guidetolerance="10"
     inkscape:pageopacity="0"
     inkscape:pageshadow="2"
     inkscape:window-width="1349"
     inkscape:window-height="1368"
     id="namedview4"
     showgrid="false"
     inkscape:zoom="0.36045078"
     inkscape:cx="1203.8666"
     inkscape:cy="796.70502"
     inkscape:window-x="1202"
     inkscape:window-y="0"
     inkscape:window-maximized="0"
     inkscape:current-layer="layer1" />
  <g
     inkscape:groupmode="layer"
     id="layer2"
     inkscape:label="artwork"
     sodipodi:insensitive="true">
    <image
       sodipodi:absref="D:\Mes Documents\GitHub\peppercarrot\peppercarrot_ep04_translation\da\../gfx_Pepper-and-Carrot_by-David-Revoy_E04P03.png"
       xlink:href="../gfx_Pepper-and-Carrot_by-David-Revoy_E04P03.png"
       y="0"
       x="0"
       id="image10"
       height="3736.5334"
       width="2646.3999" />
  </g>
  <g
     inkscape:groupmode="layer"
     id="layer3"
     inkscape:label="speechbubbles">
    <path
       style="fill:#ffffff;stroke:none;stroke-width:1.06666672"
       d="M 90.699307,243.02437 C 89.503122,183.20588 115.81905,112.10086 158.88147,100.81436 201.94389,89.52785 468.69167,78.241341 491.41903,86.141898 c 22.72739,7.900556 50.2395,22.573022 72.96688,44.017392 22.72739,21.44436 40.67007,57.56118 37.08154,86.90612 -3.58855,29.34492 -20.33504,89.16341 -35.88536,104.96452 -15.55031,15.80113 -57.41655,53.0466 -99.2828,59.81851 -41.86624,6.7719 -90.90954,12.41515 -110.04839,11.28651 -19.13886,-1.12865 -117.22548,-7.90056 -117.22548,-7.90056 0,0 -52.63184,4.5146 -69.37835,-6.7719 -16.74648,-11.28651 -59.8089,-30.47358 -72.966872,-77.87692 -13.157958,-47.40333 -5.980891,-16.92975 -5.980891,-57.5612 z"
       id="path3971"
       inkscape:connector-curvature="0" />
    <path
       style="color:#000000;display:inline;overflow:visible;visibility:visible;fill:#ffffff;fill-opacity:1;fill-rule:nonzero;stroke:none;stroke-width:1.06666672px;stroke-linecap:butt;stroke-linejoin:miter;stroke-opacity:1;marker:none;enable-background:accumulate"
       d="m 608.9795,486.93687 c -94.67329,-28.14611 -134.33372,-39.66043 -158.64172,-102.3495 -24.30801,-62.68906 -42.21917,-6.39684 -42.21917,-6.39684 0,0 8.95558,110.0257 200.86089,108.74634 z"
       id="path3984"
       inkscape:connector-curvature="0" />
    <path
       style="color:#000000;display:inline;overflow:visible;visibility:visible;fill:#ffffff;fill-opacity:1;fill-rule:nonzero;stroke:none;stroke-width:1.06666672px;marker:none;enable-background:accumulate"
       d="m 1122.0011,309.14125 c -36.5774,-48.81755 -32.6585,-144.01177 -22.2077,-165.97967 10.4507,-21.96788 24.8203,-54.919735 74.4611,-54.919735 49.6408,0 394.5133,-23.188335 445.4604,28.070095 50.947,51.25843 49.6407,140.35044 5.2254,200.15194 -44.4155,59.8015 -282.1686,47.59711 -282.1686,47.59711 0,0 -164.5982,7.32264 -220.7706,-54.91974 z"
       id="path3992"
       inkscape:connector-curvature="0" />
    <path
       style="color:#000000;display:inline;overflow:visible;visibility:visible;fill:#ffffff;fill-opacity:1;fill-rule:nonzero;stroke:none;stroke-width:1.06666672px;marker:none;enable-background:accumulate"
       d="m 1223.0765,486.93687 c 92.1145,-56.29222 123.4119,-104.69057 150.5301,-152.52784 12.7598,-22.50851 -43.0631,-47.05367 -43.0631,-47.05367 l -17.9112,51.17474 c 0,0 -17.8821,87.12284 -89.5558,148.40677 z"
       id="path4000"
       inkscape:connector-curvature="0"
       sodipodi:nodetypes="csccc" />
    <path
       style="color:#000000;display:inline;overflow:visible;visibility:visible;fill:#ffffff;fill-opacity:1;fill-rule:nonzero;stroke:none;stroke-width:1.06666672px;marker:none;enable-background:accumulate"
       d="m 413.38077,905.64073 c 65.48612,-66.63183 406.26073,-72.63324 449.72119,-22.59701 43.46045,50.03623 79.36256,172.70568 18.89586,213.05748 -60.46673,40.3517 -432.71495,56.4925 -472.39621,-3.2281 -39.68128,-59.7208 -61.70695,-120.60055 3.77916,-187.23237 z"
       id="path4008"
       inkscape:connector-curvature="0"
       sodipodi:nodetypes="zsssz" />
    <path
       style="color:#000000;display:inline;overflow:visible;visibility:visible;fill:#ffffff;fill-opacity:1;fill-rule:nonzero;stroke:none;stroke-width:1.06666672px;marker:none;enable-background:accumulate"
       d="m 1237.4647,998.18283 c -52.2675,-21.33728 -104.4713,-44.33732 -160.0441,-55.69431 -39.6781,-8.16053 -81.93612,-7.70212 -120.08085,6.99232 -37.34102,13.99308 -69.49508,38.95445 -97.38173,67.00686 -9.66622,-6.5008 -12.30272,-18.95699 -14.88593,-29.57136 -2.42307,-11.86645 -3.57452,-23.97176 -3.88987,-36.07061 29.35364,-20.3029 63.70204,-32.61458 98.58968,-39.31318 67.2653,-12.73842 137.53,-0.3107 199.3973,27.79663 34.9305,15.67193 67.6979,35.90529 98.2955,58.85365 z"
       id="path4010"
       inkscape:connector-curvature="0" />
    <path
       style="color:#000000;display:inline;overflow:visible;visibility:visible;fill:#ffffff;fill-opacity:1;fill-rule:nonzero;stroke:none;stroke-width:1.06666672px;stroke-linecap:butt;stroke-linejoin:miter;stroke-opacity:1;marker:none;enable-background:accumulate"
       d="m 2074.4864,1904.1679 -12.4353,-2.1945 2.926,20.4816 c -19.6763,1.1114 -29.928,-5.3169 -43.889,-8.7778 l 21.9444,26.3334 -3.6574,7.3148 c 3.5628,4.2771 8.9387,7.1942 10.2408,13.1668 -9.9397,3.7219 -17.0862,3.7194 -25.3064,5.1485 7.7347,4.9464 14.1741,10.6697 18.723,17.5274 l -26.3333,11.7037 24.1373,10.2391 c -18.1553,16.8372 -40.9742,27.456 -62.1744,40.2333 l 75.3427,-5.8519 -11.7037,13.1667 c 7.5305,6.8529 6.865,3.4608 10.2408,5.1204 1.6439,4.9317 -25.9007,25.4372 -23.4075,23.4075 2.926,-0.7315 27.7964,-3.6575 27.7964,-3.6575 0,0 -21.9446,20.4816 -19.0186,20.4816 2.9259,0 27.0649,-5.1204 27.0649,-5.1204 l -8.0463,19.75 31.4537,-10.9722 -13.1667,24.5572 c 8.1835,-1.4447 13.4635,-1.949 10.554,6.59 -19.6897,30.405 -49.8667,76.6901 -45.0371,87.0415 16.6857,-11.6786 42.0801,-46.3116 65.9369,-58.9386 16.2104,2.1091 17.1859,10.7475 24.139,16.8241 l 29.2593,-25.6019 5.1204,17.5556 21.9444,-21.9445 v 22.676 c 13.6185,-1.5868 20.5472,-14.8805 28.5279,-26.3334 l 2.1945,84.8521 47.5463,-71.6854 9.5093,29.9908 7.3149,-27.7963 2.1945,23.4074 20.4815,-31.4537 15.3611,28.5278 14.6297,-26.3334 c 13.3852,28.797 32.6492,51.7152 54.8612,71.6854 -3.0875,-29.5287 -5.6641,-58.2058 -4.3889,-80.4632 8.2902,-2.3193 16.5803,2.3197 24.8704,8.7778 l -4.3889,-19.75 30.7224,13.1667 -13.8983,-30.7224 c 46.8966,-0.9843 37.482,4.2881 48.278,7.3149 l -8.7778,-19.7501 32.1853,15.3612 c -8.7925,-16.3438 -20.3412,-34.0657 -26.3335,-49.0094 l 33.6482,3.6574 c -13.1856,-13.1484 -29.7519,-22.9161 -38.9768,-40.025 l 29.4676,-1.6695 -27.7964,-21.9445 21.9445,-12.4352 -17.5556,-2.926 29.2593,-26.3333 -38.7686,-2.1945 46.8149,-47.5465 -54.1297,10.2409 4.3888,-34.3797 -29.9907,24.8704 29.9907,-86.315 c -24.2309,30.8741 -42.9012,55.5985 -75.7575,77.8471 l -10.5625,-8.6678 -11.6986,4.4888 2.9258,-24.6587 -43.1574,29.9907 4.3889,-13.8981 -13.1667,13.1667 2.9258,-18.2872 -22.6759,21.9446 2.0878,-19.1203 -10.8656,12.5369 -3.3458,-12.0137 -12.7468,7.6248 c -3.8354,-31.6976 2.7549,-63.3952 7.3148,-95.0928 -14.9656,36.2863 -33.9712,69.1096 -59.2502,96.5558 l -8.0463,-13.8932 -10.0325,12.8468 -10.1341,-16.6059 -15.2578,19.8435 c -12.0658,-15.1174 -19.0931,-24.3795 -23.8257,-39.4969 2.334,14.1681 4.0309,23.6858 0.6265,39.2885 -44.5412,-23.8882 -43.2077,-26.0184 -59.8766,-39.2885 -4.5676,17.0565 -9.1193,22.7355 -11.7037,35.8427 z"
       id="path4024"
       inkscape:connector-curvature="0"
       sodipodi:nodetypes="cccccccccccccccccsccccccccccccccccccccccccccccccccccccccccccccccccccccccccccccccccccc" />
    <path
       style="color:#000000;display:inline;overflow:visible;visibility:visible;fill:#ffffff;fill-opacity:1;fill-rule:nonzero;stroke:none;stroke-width:1.06666672px;marker:none;enable-background:accumulate"
       d="m 1971.8243,1680.0837 c 10.7159,47.0389 28.8548,92.9823 30.9459,141.2938 l 20.0239,-38.1439 c 10.0286,16.7918 8.8813,37.5414 11.5289,56.9473 l 16.3831,-21.4896 c 23.174,39.92 26.5144,82.3488 39.441,123.5649 l 25.4849,-39.7557 c -18.0659,-40.1512 -42.5469,-76.8944 -53.397,-120.8787 l -18.2035,19.3407 c -5.9159,-14.6623 -11.2454,-29.5842 -13.956,-45.6653 l -20.6306,26.3247 z"
       id="path4032"
       inkscape:connector-curvature="0"
       sodipodi:nodetypes="cccccccccccc" />
    <path
       style="color:#000000;display:inline;overflow:visible;visibility:visible;fill:#ffffff;fill-opacity:1;fill-rule:nonzero;stroke:none;stroke-width:1.06666672px;marker:none;enable-background:accumulate"
       d="m 538.73434,2503.9765 c 25.79847,-32.884 243.56643,-68.5777 320.10403,-0.8105 76.53757,67.7671 30.11314,149.0878 -13.80187,174.9624 -43.91502,25.8748 -173.15062,54.2138 -232.12222,32.0354 -58.97158,-22.1783 -104.90676,-55.3306 -107.90545,-123.213 -1.22389,-27.7055 7.92701,-50.0901 33.72551,-82.9743 z"
       id="path4040"
       inkscape:connector-curvature="0"
       sodipodi:nodetypes="zssssz" />
    <path
       style="color:#000000;display:inline;overflow:visible;visibility:visible;fill:#ffffff;fill-opacity:1;fill-rule:nonzero;stroke:none;stroke-width:1.06666672px;marker:none;enable-background:accumulate"
       d="m 909.62893,2675.6783 c -49.83124,40.596 -153.18503,85.0012 -143.11628,-10.8132 9.07028,-86.3131 -30.53148,-44.525 -30.53148,-44.525 l -17.81002,50.8857 c 0,0 45.16114,161.5624 191.45778,4.4525 z"
       id="path4048"
       inkscape:connector-curvature="0"
       sodipodi:nodetypes="csccc" />
    <path
       style="color:#000000;display:inline;overflow:visible;visibility:visible;fill:#ffffff;fill-opacity:1;fill-rule:nonzero;stroke:none;stroke-width:1.06666672px;marker:none;enable-background:accumulate"
       d="m 1863.717,2853.3449 c -33.6141,-43.7368 -52.4708,-97.4138 -41.8128,-138.1687 10.6584,-40.7549 31.9746,-133.1986 89.3646,-137.1747 57.39,-3.976 348.4394,-44.7309 382.0537,28.8267 33.6141,73.5574 57.3899,187.8696 31.1545,215.7023 -26.2355,27.8323 -74.6069,63.617 -113.1403,63.617 -38.5335,0 -88.5446,13.9163 -107.4013,9.9403 -18.8569,-3.9761 -64.7689,-12.9221 -70.5079,-12.9221 -5.739,0 -93.4637,0 -102.4823,-2.9822 -9.0182,-2.9821 -50.0112,8.9461 -67.2282,-26.8386 z"
       id="path4056"
       inkscape:connector-curvature="0" />
    <path
       style="color:#000000;display:inline;overflow:visible;visibility:visible;fill:#ffffff;fill-opacity:1;fill-rule:nonzero;stroke:none;stroke-width:1.06666672px;marker:none;enable-background:accumulate"
       d="m 1826.3679,2769.8046 c -32.8912,24.1846 -74.4889,59.0105 -112.2169,-7.7391 2.9021,2.9022 24.1847,104.4778 129.6298,47.4019 105.4451,-57.0758 112.2169,-76.4236 112.2169,-76.4236 z"
       id="path4064"
       inkscape:connector-curvature="0"
       sodipodi:nodetypes="ccscc" />
  </g>
  <g
     inkscape:groupmode="layer"
     id="layer1"
     inkscape:label="txt">
    <flowRoot
       xml:space="preserve"
       id="flowRoot2987"
       style="font-style:normal;font-variant:normal;font-weight:normal;font-stretch:normal;line-height:0.01%;font-family:Lavi;-inkscape-font-specification:Lavi;letter-spacing:0px;word-spacing:0px;fill:#000000;fill-opacity:1;stroke:none"
       transform="matrix(1.0370787,0,0,1.0520176,-428.20493,-156.85169)"><flowRegion
         id="flowRegion2989"><rect
           id="rect2991"
           width="1228.9047"
           height="338.34705"
           x="120.55251"
           y="265.53046"
           style="font-style:normal;font-variant:normal;font-weight:normal;font-stretch:normal;font-family:Lavi;-inkscape-font-specification:Lavi" /></flowRegion><flowPara
         id="flowPara2995"
         style="font-size:48px;line-height:1.25;text-align:center;text-anchor:middle">Århh, Carrot!</flowPara><flowPara
         style="font-size:48px;line-height:1.25;text-align:center;text-anchor:middle"
         id="flowPara66">Din søde lille mis!</flowPara><flowPara
         style="font-size:48px;line-height:1.25;text-align:center;text-anchor:middle"
         id="flowPara85">Du kom helt</flowPara><flowPara
         style="font-size:48px;line-height:1.25;text-align:center;text-anchor:middle"
         id="flowPara87">af dig selv </flowPara></flowRoot>    <flowRoot
       xml:space="preserve"
       id="flowRoot2987-4"
       style="font-style:normal;font-variant:normal;font-weight:normal;font-stretch:normal;line-height:0.01%;font-family:Lavi;-inkscape-font-specification:Lavi;letter-spacing:0px;word-spacing:0px;fill:#000000;fill-opacity:1;stroke:none"
       transform="matrix(1.0370787,0,0,1.0520176,609.75668,-141.95853)"><flowRegion
         id="flowRegion2989-4"><rect
           id="rect2991-6"
           width="1228.9047"
           height="338.34705"
           x="120.55251"
           y="265.53046"
           style="font-style:normal;font-variant:normal;font-weight:normal;font-stretch:normal;font-family:Lavi;-inkscape-font-specification:Lavi" /></flowRegion><flowPara
         style="font-size:48px;line-height:1.25;text-align:center;text-anchor:middle"
         id="flowPara3051">Og lige når jeg</flowPara><flowPara
         style="font-size:48px;line-height:1.25;text-align:center;text-anchor:middle"
         id="flowPara75">har brug for min</flowPara><flowPara
         style="font-size:48px;line-height:1.25;text-align:center;text-anchor:middle"
         id="flowPara79">favoritmedhjælper</flowPara></flowRoot>    <flowRoot
       xml:space="preserve"
       id="flowRoot2987-0"
       style="font-style:normal;font-variant:normal;font-weight:normal;font-stretch:normal;line-height:0.01%;font-family:Lavi;-inkscape-font-specification:Lavi;letter-spacing:0px;word-spacing:0px;fill:#000000;fill-opacity:1;stroke:none"
       transform="matrix(1.2303714,0,0,1.1572045,-256.20734,585.61953)"><flowRegion
         id="flowRegion2989-5"><rect
           id="rect2991-3"
           width="1228.9047"
           height="338.34705"
           x="120.55251"
           y="265.53046"
           style="font-style:normal;font-variant:normal;font-weight:normal;font-stretch:normal;font-family:Lavi;-inkscape-font-specification:Lavi" /></flowRegion><flowPara
         style="font-size:48px;line-height:1.25;text-align:center;text-anchor:middle"
         id="flowPara3859">Daaadaaaa!</flowPara><flowPara
         style="font-size:48px;line-height:1.25;text-align:center;text-anchor:middle"
         id="flowPara3062">Her er mit</flowPara><flowPara
         style="font-size:48px;line-height:1.25;text-align:center;text-anchor:middle"
         id="flowPara83">mesterværk</flowPara></flowRoot>    <flowRoot
       xml:space="preserve"
       id="flowRoot2987-0-8"
       style="font-style:normal;font-variant:normal;font-weight:normal;font-stretch:normal;line-height:0.01%;font-family:Lavi;-inkscape-font-specification:Lavi;letter-spacing:0px;word-spacing:0px;fill:#000000;fill-opacity:1;stroke:none"
       transform="matrix(1.5171751,0,0,1.464928,1145.375,1548.5561)"><flowRegion
         id="flowRegion2989-5-3"><rect
           id="rect2991-3-9"
           width="1228.9047"
           height="338.34705"
           x="120.55251"
           y="265.53046"
           style="font-style:normal;font-variant:normal;font-weight:normal;font-stretch:normal;font-family:Lavi;-inkscape-font-specification:Lavi" /></flowRegion><flowPara
         style="font-size:48px;line-height:1.25;text-align:center;text-anchor:middle"
         id="flowPara3068">Geni-</flowPara><flowPara
         style="font-size:48px;line-height:1.25;text-align:center;text-anchor:middle"
         id="flowPara93">eliksiren!</flowPara></flowRoot>    <flowRoot
       xml:space="preserve"
       id="flowRoot2987-0-8-0"
       style="font-style:normal;font-variant:normal;font-weight:normal;font-stretch:normal;line-height:0.01%;font-family:Lavi;-inkscape-font-specification:Lavi;letter-spacing:0px;word-spacing:0px;fill:#000000;fill-opacity:1;stroke:none"
       transform="matrix(1.0637863,0,0,1.0025097,-84.086677,2251.715)"><flowRegion
         id="flowRegion2989-5-3-2"><rect
           id="rect2991-3-9-7"
           width="1228.9047"
           height="338.34705"
           x="120.55251"
           y="265.53046"
           style="font-style:normal;font-variant:normal;font-weight:normal;font-stretch:normal;font-family:Lavi;-inkscape-font-specification:Lavi" /></flowRegion><flowPara
         style="font-size:48px;line-height:1.25;text-align:center;text-anchor:middle"
         id="flowPara3072">Tag bare</flowPara><flowPara
         style="font-size:48px;line-height:1.25;text-align:center;text-anchor:middle"
         id="flowPara114">en tår</flowPara><flowPara
         style="font-size:48px;line-height:1.25;text-align:center;text-anchor:middle"
         id="flowPara3074">...</flowPara></flowRoot>    <flowRoot
       xml:space="preserve"
       id="flowRoot2987-0-8-0-9"
       style="font-style:normal;font-variant:normal;font-weight:normal;font-stretch:normal;line-height:0.01%;font-family:Lavi;-inkscape-font-specification:Lavi;letter-spacing:0px;word-spacing:0px;fill:#000000;fill-opacity:1;stroke:none"
       transform="matrix(1.0637863,0,0,1.0025097,1297.264,2410.778)"><flowRegion
         id="flowRegion2989-5-3-2-1"><rect
           id="rect2991-3-9-7-5"
           width="1228.9047"
           height="338.34705"
           x="120.55251"
           y="265.53046"
           style="font-style:normal;font-variant:normal;font-weight:normal;font-stretch:normal;font-family:Lavi;-inkscape-font-specification:Lavi" /></flowRegion><flowPara
         style="font-size:48px;line-height:1.25;text-align:center;text-anchor:middle"
         id="flowPara3087">... og hvis det virker,</flowPara><flowPara
         style="font-size:48px;line-height:1.25;text-align:center;text-anchor:middle"
         id="flowPara121">skulle du gerne</flowPara><flowPara
         style="font-size:48px;line-height:1.25;text-align:center;text-anchor:middle"
         id="flowPara123">få en genial idé</flowPara><flowPara
         style="font-size:48px;line-height:1.25;text-align:center;text-anchor:middle"
         id="flowPara3083"> </flowPara></flowRoot>  </g>
</svg>
