<?xml version="1.0" encoding="UTF-8" standalone="no"?>
<!-- Created with Inkscape (http://www.inkscape.org/) -->

<svg
   xmlns:dc="http://purl.org/dc/elements/1.1/"
   xmlns:cc="http://creativecommons.org/ns#"
   xmlns:rdf="http://www.w3.org/1999/02/22-rdf-syntax-ns#"
   xmlns:svg="http://www.w3.org/2000/svg"
   xmlns="http://www.w3.org/2000/svg"
   xmlns:xlink="http://www.w3.org/1999/xlink"
   xmlns:sodipodi="http://sodipodi.sourceforge.net/DTD/sodipodi-0.dtd"
   xmlns:inkscape="http://www.inkscape.org/namespaces/inkscape"
   id="svg2"
   version="1.1"
   inkscape:version="0.92.1 r"
   width="2646.3999"
   height="3736.5334"
   sodipodi:docname="Pepper-and-Carrot_by-David-Revoy_E04P07.svg">
  <metadata
     id="metadata8">
    <rdf:RDF>
      <cc:Work
         rdf:about="">
        <dc:format>image/svg+xml</dc:format>
        <dc:type
           rdf:resource="http://purl.org/dc/dcmitype/StillImage" />
        <dc:title />
      </cc:Work>
    </rdf:RDF>
  </metadata>
  <defs
     id="defs6" />
  <sodipodi:namedview
     pagecolor="#ffffff"
     bordercolor="#666666"
     borderopacity="1"
     objecttolerance="10"
     gridtolerance="10"
     guidetolerance="10"
     inkscape:pageopacity="0"
     inkscape:pageshadow="2"
     inkscape:window-width="1366"
     inkscape:window-height="716"
     id="namedview4"
     showgrid="false"
     inkscape:zoom="0.31"
     inkscape:cx="1016.462"
     inkscape:cy="680.33906"
     inkscape:window-x="0"
     inkscape:window-y="32"
     inkscape:window-maximized="1"
     inkscape:current-layer="layer1" />
  <g
     inkscape:groupmode="layer"
     id="layer2"
     inkscape:label="artwork"
     sodipodi:insensitive="true">
    <image
       sodipodi:absref="/home/erwhann/Bureau/erwhann/Documents/Traduction/Pepper et Carrot/peppercarrot_ep04_translation/kt/../gfx_Pepper-and-Carrot_by-David-Revoy_E04P07.png"
       xlink:href="../gfx_Pepper-and-Carrot_by-David-Revoy_E04P07.png"
       y="0"
       x="0"
       id="image10"
       height="3736.5334"
       width="2646.3999" />
  </g>
  <g
     inkscape:groupmode="layer"
     id="layer3"
     inkscape:label="speechbubbles">
    <path
       style="display:inline;fill:#ffffff;stroke:none;stroke-width:1.06666672"
       d="m 223.87122,69.195933 21.71424,32.715167 -12.60828,15.93817 6.30414,9.22735 -9.80642,9.22735 19.61285,6.7108 c -12.65445,20.49069 -29.69219,37.8318 -47.63123,54.52528 l 26.61746,-5.03311 c -1.305,11.77263 -7.18244,22.17629 -12.60827,32.71518 l 28.01838,-14.26046 c 0.73214,7.9563 -4.7621,12.92997 -9.10598,18.4547 l 20.31331,-5.03311 -2.80183,6.71081 c 8.21154,-2.28427 16.01601,-4.08101 25.21653,-7.54964 l -11.90781,22.64896 24.51608,-14.26046 6.30413,9.22735 6.30414,-10.06621 7.00458,34.39287 13.30873,-36.07057 8.8044,21.21203 7.30616,-19.53433 c 9.02457,9.65966 13.56654,20.58484 16.81103,31.87633 7.14104,-13.42161 14.25091,-26.84322 24.51606,-40.26483 4.39827,3.99494 10.61105,13.06025 18.21194,26.00437 l 4.90322,-17.61587 c 13.23821,11.77206 24.66222,24.26833 31.52066,38.58712 v -36.07057 l 17.51148,18.45471 5.60368,-28.5209 15.4101,20.1324 1.40091,-23.48781 20.31332,16.77702 -0.70046,-14.26047 20.31331,10.90505 c 0,0 -5.06412,-23.04233 -1.69928,-27.56168 3.36483,-4.51934 27.61627,6.59043 27.61627,6.59043 0,0 -8.00142,-16.85737 -5.60367,-20.13242 2.39774,-3.27504 26.61745,0.83885 26.61745,0.83885 l -20.31332,-27.68206 c 15.06009,-9.08729 30.14228,-18.1481 48.33168,-23.4878 0,0 -22.68497,-17.70917 -23.3146,-21.92858 -0.62962,-4.21942 10.70636,-9.10889 10.70636,-9.10889 l -21.71266,-12.341999 24.51448,-15.340067 -42.02755,1.6777 18.91239,-29.359768 -31.52066,25.165512 13.30873,-54.525277 C 523.08889,49.768356 502.57189,66.860692 480.93974,82.617539 L 488.6448,63.32398 460.62643,85.972941 457.8246,41.513869 446.61724,75.906736 C 436.8121,57.411644 431.44116,37.399326 429.10576,16.348357 427.14862,35.3623 419.98423,54.376241 409.49291,73.390185 l -7.70505,-41.942521 -16.81103,32.715167 -9.10596,-25.165514 -15.4101,31.037467 -16.81102,-47.814474 -3.5023,45.297921 -9.80643,-18.454708 -5.60368,21.810111 -15.4101,-31.037465 3.50231,34.392866 C 297.1053,57.914673 286.48818,47.716453 273.60383,34.803066 l 14.00917,44.459071 -21.71423,-20.971259 8.40552,31.037464 -18.21195,-11.743907 2.80184,19.293561 z"
       id="path3497"
       inkscape:connector-curvature="0"
       sodipodi:nodetypes="ccccccccccccccccccccccccccccccccccczczccczccccccccccccccccccccccccccccccc" />
    <path
       style="color:#000000;display:inline;overflow:visible;visibility:visible;fill:#ffffff;fill-opacity:1;fill-rule:nonzero;stroke:none;stroke-width:1.06666672px;marker:none;enable-background:accumulate"
       d="m 212.7701,297.34238 c -0.96738,-43.5324 29.98898,-70.61922 36.76069,-73.52138 6.77171,-2.90216 230.238,-16.44558 255.39004,1.93478 25.15206,18.38034 30.95638,30.95636 28.05421,47.40193 -2.90215,16.44558 -18.38034,59.97797 -54.17364,72.55399 -35.7933,12.57602 -118.98855,18.38034 -162.52094,8.70648 -43.5324,-9.67386 -107.37991,-19.34773 -103.51036,-57.0758 z"
       id="path3517"
       inkscape:connector-curvature="0" />
    <path
       style="color:#000000;display:inline;overflow:visible;visibility:visible;fill:#ffffff;fill-opacity:1;fill-rule:nonzero;stroke:none;stroke-width:1.06666672px;marker:none;enable-background:accumulate"
       d="m 437.3534,406.7889 c -6.33592,-30.95638 10.55984,-113.18423 140.44597,-106.41253 129.88613,6.77172 151.00584,45.46717 154.17378,57.07581 3.16796,11.60864 30.62356,77.39092 -70.75097,94.80388 C 559.84764,469.66902 469.03294,451.28867 437.3534,406.7889 Z"
       id="path3525"
       inkscape:connector-curvature="0" />
    <path
       style="color:#000000;display:inline;overflow:visible;visibility:visible;fill:#ffffff;fill-opacity:1;fill-rule:nonzero;stroke:none;stroke-width:1.06666672px;marker:none;enable-background:accumulate"
       d="m 822.27264,386.05886 c 25.95296,-39.57826 80.54366,-72.85999 152.13804,-86.35257 71.59432,-13.49259 204.04392,-9.89457 227.31222,-5.39703 23.268,4.49752 151.243,20.68863 178.9857,43.17627 27.7429,22.48765 65.3299,50.37233 73.3843,79.15653 8.0545,28.78418 0.8949,98.04613 -25.058,113.33774 -25.953,15.2916 -144.0836,48.57332 -212.9933,50.37233 -68.9097,1.79902 -229.10191,-12.59309 -274.74332,-22.48765 -45.64142,-9.89457 -93.9676,-22.48765 -108.28648,-53.97036 -14.31887,-31.4827 -41.16677,-72.85997 -10.73916,-117.83526 z"
       id="path3533"
       inkscape:connector-curvature="0" />
    <path
       style="color:#000000;display:inline;overflow:visible;visibility:visible;fill:#ffffff;fill-opacity:1;fill-rule:nonzero;stroke:none;stroke-width:1.06666672px;marker:none;enable-background:accumulate"
       d="M 990.47197,917.78873 C 1156.6831,849.10428 1198.8955,667.23562 1181.307,566.62741 c -17.5885,-100.6082 -39.5741,-41.59762 -39.5741,-41.59762 l -4.3971,35.7933 c 0,0 68.5951,259.2596 -146.86383,356.96564 z"
       id="path3541"
       inkscape:connector-curvature="0" />
    <path
       style="color:#000000;display:inline;overflow:visible;visibility:visible;fill:#ffffff;fill-opacity:1;fill-rule:nonzero;stroke:none;stroke-width:1.06666672px;stroke-linecap:butt;stroke-linejoin:miter;stroke-opacity:1;marker:none;enable-background:accumulate"
       d="m 1890.2733,1510.577 c 44.0652,15.9715 89.0025,31.7663 10.6413,72.5539 74.4095,-10.5194 28.8853,12.0465 10.6411,27.0868 132.8971,-29.7592 47.1231,18.278 14.5109,47.4019 29.6113,-11.6069 76.8019,-44.3089 59.0105,0.9675 9.4146,-2.0821 20.4923,-8.0449 25.1521,0.9674 11.9955,-6.2234 20.9074,-7.8215 26.1195,-3.8696 11.7895,-11.3254 19.4074,-14.3074 19.3477,-1.9347 11.1461,-9.3301 14.5787,-6.1189 17.4129,-1.9348 19.1293,-20.0314 26.2736,-14.3805 33.8586,-9.6739 10.8307,-12.027 23.5054,-9.303 37.728,5.8043 14.5522,-20.4549 30.1893,-19.2104 46.4346,-5.8043 4.7714,-5.039 9.1046,-13.5826 15.4781,-5.8043 6.4493,-2.6906 12.8985,-9.5852 19.3478,-2.9022 68.0685,-26.4788 97.7585,-4.1121 129.6298,15.4782 17.7708,-8.649 30.5767,-25.366 60.9453,-13.5434 2.8388,-12.0724 19.1222,-16.9743 47.4019,-15.4782 -29.0059,-14.5695 -30.4982,-22.8639 36.7608,-15.4782 -46.8798,-11.9311 -90.0818,-23.8621 -17.413,-35.7932 -17.0199,-4.7368 -72.6505,6.4059 -11.6087,-50.3041 -43.3457,12.5163 -82.6953,15.7683 -94.8038,-34.826 -23.3843,13.3055 -49.2757,19.8968 -69.6518,-10.6412 -18.559,14.3085 -44.5262,10.8733 -58.0432,3.8695 -3.6572,15.6708 -31.2748,39.7043 -68.6844,-3.8695 8.2079,24.7665 1.9953,64.2142 -41.5977,-0.9674 -0.8645,11.3387 17.0869,73.0011 -104.4777,-0.9675 15.1642,49.6269 -25.1981,20.7504 -57.0759,3.8696 15.8079,31.1147 -7.9823,33.5209 -59.9779,15.4782 40.111,29.5439 -1.1324,21.3869 -27.0868,20.3152 z"
       id="path3549"
       inkscape:connector-curvature="0"
       sodipodi:nodetypes="ccccccccccccccccccccccccccccc" />
    <path
       style="color:#000000;display:inline;overflow:visible;visibility:visible;fill:#ffffff;fill-opacity:1;fill-rule:nonzero;stroke:none;stroke-width:1.06666672px;marker:none;enable-background:accumulate"
       d="m 1730.5618,2173.6129 c 47.6339,-2.3215 64.6857,-20.7665 -3.8894,-31.5351 6.1969,1.0015 24.9225,18.1691 18.1293,-23.7521 14.2905,4.3338 25.972,2.5256 21.36,-37.6425 11.6574,-1.2394 42.1265,20.831 18.9866,-23.5267 25.0588,14.9918 41.4314,14.4837 54.5864,8.2344 44.7035,31.3756 45.6572,13.1865 59.333,9.4107 14.8278,8.8495 31.4206,8.9506 51.0264,-5.8817 4.4975,11.8215 21.5766,9.389 42.7197,2.3526 15.5543,27.846 59.9167,12.8561 92.5595,15.2923 41.161,27.3977 105.125,5.8186 159.0127,5.8817 44.1257,-4.4881 99.8925,2.5638 124.5995,-21.174 -5.5935,21.0943 11.874,10.1844 29.6664,-1.1763 3.491,4.1189 -19.1971,23.8087 39.1598,-4.7053 -1.5755,9.7496 -7.9691,22.4843 27.2932,9.4107 4.0056,6.0314 -24.5564,29.7669 47.4665,-1.1764 0.3842,8.5261 -13.2583,25.2686 36.7865,4.7054 -40.5974,50.6563 -18.0968,45.2346 9.4932,35.2898 -21.482,29.8825 -49.1888,66.9466 5.4052,65.5842 -42.7476,6.9033 -42.0003,17.1683 -36.2583,33.2272 -53.5767,-32.3377 -59.8717,-7.7621 -83.0664,-3.5291 -24.4864,-5.3796 -47.0446,-25.0937 -75.9461,2.3528 -44.2757,-11.2946 -53.0539,-0.935 -67.6398,5.8817 -77.3531,-21.6751 -75.5259,-4.1049 -110.3596,-4.7054 -20.595,-26.8119 -67.0705,-6.5889 -100.8662,-9.4106 -42.7197,-21.9859 -95.3096,-8.2917 -128.1593,2.3527 -13.4294,-9.0856 -22.9597,-22.8954 -56.9596,-7.058 -22.1662,-17.419 -45.4543,-18.1564 -70.0131,0 -6.4299,-10.9465 -24.2577,-12.713 -68.8262,7.058 20.0978,-18.1313 -6.4051,-25.2638 -35.5999,-31.761 z"
       id="path3557"
       inkscape:connector-curvature="0"
       sodipodi:nodetypes="cccccccccccccccccccccccccccccc" />
    <path
       style="color:#000000;display:inline;overflow:visible;visibility:visible;fill:#ffffff;fill-opacity:1;fill-rule:nonzero;stroke:none;stroke-width:1.06666672px;stroke-linecap:butt;stroke-linejoin:miter;stroke-opacity:1;marker:none;enable-background:accumulate"
       d="m 43.498535,2304.9198 c -1.279368,-37.1017 51.174748,-74.2034 138.171825,-76.7621 86.99706,-2.5588 161.20045,26.8667 168.87666,65.2477 7.67621,38.3812 -76.76212,75.4828 -152.24488,76.7622 -75.48275,1.2793 -147.127392,-8.9557 -154.803605,-65.2478 z"
       id="path3565"
       inkscape:connector-curvature="0" />
    <path
       style="color:#000000;display:inline;overflow:visible;visibility:visible;fill:#ffffff;fill-opacity:1;fill-rule:nonzero;stroke:none;stroke-width:1.06666672px;marker:none;enable-background:accumulate"
       d="m 224.95094,2474.1453 c 15.83078,-77.3969 71.95805,-123.5853 345.39867,-141.062 273.44063,-17.4767 309.41964,72.4035 318.0546,117.3436 8.63499,44.9399 1.43917,111.1018 -74.83637,144.8069 -76.27553,33.705 -243.21823,41.1951 -303.663,32.4567 -60.44477,-8.7383 -183.11621,-1.718 -217.65608,-30.4298 -34.53987,-28.7118 -62.98034,-55.7054 -67.29782,-123.1154 z"
       id="path3573"
       inkscape:connector-curvature="0"
       sodipodi:nodetypes="csssssc" />
    <path
       style="color:#000000;display:inline;overflow:visible;visibility:visible;fill:#ffffff;fill-opacity:1;fill-rule:nonzero;stroke:none;stroke-width:1.06666672px;marker:none;enable-background:accumulate"
       d="m 963.68734,2448.2091 c -52.45412,-39.6605 -133.05435,28.1461 -133.05435,28.1461 l 23.02864,12.7937 c 0,0 63.96844,-52.4542 110.02571,-40.9398 z"
       id="path3581"
       inkscape:connector-curvature="0" />
    <path
       style="color:#000000;display:inline;overflow:visible;visibility:visible;fill:#ffffff;fill-opacity:1;fill-rule:nonzero;stroke:none;stroke-width:1.06666672px;stroke-linecap:butt;stroke-linejoin:miter;stroke-opacity:1;marker:none;enable-background:accumulate"
       d="m 274.23306,2334.2435 52.99595,74.8672 19.34773,-22.7125 -55.51958,-61.408 -12.61808,7.5709 z"
       id="path3589"
       inkscape:connector-curvature="0" />
    <path
       style="color:#000000;display:inline;overflow:visible;visibility:visible;fill:#ffffff;fill-opacity:1;fill-rule:nonzero;stroke:none;stroke-width:1.06666672px;marker:none;enable-background:accumulate"
       d="m 1673.6746,3249.3019 c -9.7596,-38.8004 19.5188,-90.9583 46.0087,-98.5912 26.49,-7.6328 118.5075,-22.8986 179.1555,-19.0822 60.6479,3.8165 114.3248,1.9082 124.0843,49.6136 9.7595,47.7055 -28.5812,95.4109 -67.619,115.7653 -39.0378,20.3543 -120.5988,32.4396 -175.67,22.8985 -55.071,-9.541 -99.6856,-38.8004 -105.9595,-70.604 z"
       id="path3064"
       inkscape:connector-curvature="0" />
    <path
       style="color:#000000;display:inline;overflow:visible;visibility:visible;fill:#ffffff;fill-opacity:1;fill-rule:nonzero;stroke:none;stroke-width:1.06666672px;stroke-linecap:butt;stroke-linejoin:miter;stroke-opacity:1;marker:none;enable-background:accumulate"
       d="m 1604.1745,3185.6947 c 26.715,34.9839 38.1643,45.7971 87.7779,31.8036 49.6137,-13.9936 53.4301,5.0886 53.4301,5.0886 l -24.1708,26.715 c 0,0 -107.4962,22.2626 -117.0372,-63.6072 z"
       id="path3072"
       inkscape:connector-curvature="0" />
  </g>
  <g
     inkscape:groupmode="layer"
     id="layer1"
     inkscape:label="txt"
     style="display:inline">
    <flowRoot
       xml:space="preserve"
       id="flowRoot2987"
       style="font-style:normal;font-variant:normal;font-weight:normal;font-stretch:normal;font-size:12.80000019px;line-height:0.01%;font-family:Lavi;-inkscape-font-specification:Lavi;letter-spacing:0px;word-spacing:0px;fill:#000000;fill-opacity:1;stroke:none;stroke-width:1.06666672"><flowRegion
         id="flowRegion2989"
         style="stroke-width:1.06666672"><rect
           id="rect2991"
           width="871.0899"
           height="355.65842"
           x="-41.685905"
           y="123.64809"
           style="font-style:normal;font-variant:normal;font-weight:normal;font-stretch:normal;font-family:Lavi;-inkscape-font-specification:Lavi;stroke-width:1.13777781" /></flowRegion><flowPara
         style="font-size:48px;line-height:1.25;text-align:center;text-anchor:middle;stroke-width:1.06666672"
         id="flowPara76">Va tokcoba ?</flowPara></flowRoot>    <flowRoot
       xml:space="preserve"
       id="flowRoot2987-9"
       style="font-style:normal;font-variant:normal;font-weight:normal;font-stretch:normal;font-size:12.80000019px;line-height:0.01%;font-family:Lavi;-inkscape-font-specification:Lavi;letter-spacing:0px;word-spacing:0px;fill:#000000;fill-opacity:1;stroke:none;stroke-width:1.06666672"><flowRegion
         id="flowRegion2989-8"
         style="stroke-width:1.06666672"><rect
           id="rect2991-8"
           width="871.0899"
           height="355.65842"
           x="-60.237339"
           y="256.03882"
           style="font-style:normal;font-variant:normal;font-weight:normal;font-stretch:normal;font-family:Lavi;-inkscape-font-specification:Lavi;stroke-width:1.13777781" /></flowRegion><flowPara
         style="font-size:51.20000076px;line-height:1.25;text-align:center;text-anchor:middle;stroke-width:1.06666672"
         id="flowPara2993-6">Elada ?</flowPara></flowRoot>    <flowRoot
       xml:space="preserve"
       id="flowRoot2987-9-2"
       style="font-style:normal;font-variant:normal;font-weight:normal;font-stretch:normal;font-size:12.80000019px;line-height:0.01%;font-family:Lavi;-inkscape-font-specification:Lavi;letter-spacing:0px;word-spacing:0px;fill:#000000;fill-opacity:1;stroke:none;stroke-width:1.06666672"><flowRegion
         id="flowRegion2989-8-1"
         style="stroke-width:1.06666672"><rect
           id="rect2991-8-9"
           width="871.0899"
           height="355.65842"
           x="157.37526"
           y="348.93237"
           style="font-style:normal;font-variant:normal;font-weight:normal;font-stretch:normal;font-family:Lavi;-inkscape-font-specification:Lavi;stroke-width:1.13777781" /></flowRegion><flowPara
         style="font-size:51.20000076px;line-height:1.25;text-align:center;text-anchor:middle;stroke-width:1.06666672"
         id="flowPara2993-6-2">Edi ?</flowPara></flowRoot>    <flowRoot
       xml:space="preserve"
       id="flowRoot2987-9-2-0"
       style="font-style:normal;font-variant:normal;font-weight:normal;font-stretch:normal;font-size:12.80000019px;line-height:0.01%;font-family:Lavi;-inkscape-font-specification:Lavi;letter-spacing:0px;word-spacing:0px;fill:#000000;fill-opacity:1;stroke:none;stroke-width:1.06666672"><flowRegion
         id="flowRegion2989-8-1-0"
         style="stroke-width:1.06666672"><rect
           id="rect2991-8-9-5"
           width="871.0899"
           height="355.65842"
           x="694.40497"
           y="342.07812"
           style="font-style:normal;font-variant:normal;font-weight:normal;font-stretch:normal;font-family:Lavi;-inkscape-font-specification:Lavi;stroke-width:1.13777781" /></flowRegion><flowPara
         style="font-size:51.20000076px;line-height:1.25;text-align:center;text-anchor:middle;stroke-width:1.06666672"
         id="flowPara2993-6-2-3">Djay Carrot,</flowPara><flowPara
         style="font-size:51.20000076px;line-height:1.25;text-align:center;text-anchor:middle;stroke-width:1.06666672"
         id="flowPara3089">askifoal !! Batcoba</flowPara><flowPara
         style="font-size:51.20000076px;line-height:1.25;text-align:center;text-anchor:middle;stroke-width:1.06666672"
         id="flowPara3061">vol sugdalar</flowPara></flowRoot>    <flowRoot
       xml:space="preserve"
       id="flowRoot2987-9-2-0-6"
       style="font-style:normal;font-variant:normal;font-weight:normal;font-stretch:normal;font-size:12.80000019px;line-height:0.01%;font-family:Lavi;-inkscape-font-specification:Lavi;letter-spacing:0px;word-spacing:0px;display:inline;fill:#ffffff;fill-opacity:1;stroke:none;stroke-width:1.06666672"><flowRegion
         id="flowRegion2989-8-1-0-6"
         style="stroke-width:1.06666672"><rect
           id="rect2991-8-9-5-7"
           width="871.0899"
           height="355.65842"
           x="72.920563"
           y="1573.3766"
           style="font-style:normal;font-variant:normal;font-weight:normal;font-stretch:normal;font-family:Lavi;-inkscape-font-specification:Lavi;fill:#ffffff;stroke-width:1.13777781" /></flowRegion><flowPara
         style="font-size:51.20000076px;line-height:1.25;text-align:center;text-anchor:middle;fill:#ffffff;stroke-width:1.06666672"
         id="flowPara3065">… batcoba vol sugdalar…</flowPara></flowRoot>    <flowRoot
       xml:space="preserve"
       id="flowRoot2987-9-2-0-6-6"
       style="font-style:normal;font-variant:normal;font-weight:normal;font-stretch:normal;line-height:0.01%;font-family:Lavi;-inkscape-font-specification:Lavi;letter-spacing:0px;word-spacing:0px;display:inline;fill:#000000;fill-opacity:1;stroke:none"
       transform="matrix(1.6210403,0,0,1.6352906,1341.4067,1083.5025)"><flowRegion
         id="flowRegion2989-8-1-0-6-9"><rect
           id="rect2991-8-9-5-7-5"
           width="816.64679"
           height="333.42978"
           x="120.55251"
           y="265.53046"
           style="font-style:normal;font-variant:normal;font-weight:normal;font-stretch:normal;font-family:Lavi;-inkscape-font-specification:Lavi" /></flowRegion><flowPara
         style="font-size:48px;line-height:1.25;text-align:center;text-anchor:middle"
         id="flowPara3211-4">Gxxxxxx !!!</flowPara></flowRoot>    <flowRoot
       xml:space="preserve"
       id="flowRoot2987-9-2-0-6-0"
       style="font-style:normal;font-variant:normal;font-weight:normal;font-stretch:normal;line-height:0.01%;font-family:MalOtf;-inkscape-font-specification:MalOtf;letter-spacing:0px;word-spacing:0px;display:inline;fill:#000000;fill-opacity:1;stroke:none;"
       transform="matrix(1.0160386,0,0,1.0191682,1616.2348,1829.3749)"><flowRegion
         id="flowRegion2989-8-1-0-6-3"
         style="-inkscape-font-specification:MalOtf;font-family:MalOtf;font-weight:normal;font-style:normal;font-stretch:normal;font-variant:normal;"><rect
           id="rect2991-8-9-5-7-9"
           width="816.64679"
           height="333.42978"
           x="120.55251"
           y="265.53046"
           style="font-style:normal;font-variant:normal;font-weight:normal;font-stretch:normal;font-family:MalOtf;-inkscape-font-specification:MalOtf;" /></flowRegion><flowPara
         style="font-size:48px;line-height:1.25;text-align:center;text-anchor:middle;-inkscape-font-specification:MalOtf;font-family:MalOtf;font-weight:normal;font-style:normal;font-stretch:normal;font-variant:normal;"
         id="flowPara3073">Betcoba do jin sojuster!</flowPara></flowRoot>    <flowRoot
       xml:space="preserve"
       id="flowRoot2987-9-2-0-6-0-6"
       style="font-style:normal;font-variant:normal;font-weight:normal;font-stretch:normal;font-size:12.80000019px;line-height:0.01%;font-family:Lavi;-inkscape-font-specification:Lavi;letter-spacing:0px;word-spacing:0px;display:inline;fill:#000000;fill-opacity:1;stroke:none;stroke-width:1.06666672"><flowRegion
         id="flowRegion2989-8-1-0-6-3-4"
         style="stroke-width:1.06666672"><rect
           id="rect2991-8-9-5-7-9-1"
           width="871.0899"
           height="355.65842"
           x="-229.23093"
           y="2262.8264"
           style="font-style:normal;font-variant:normal;font-weight:normal;font-stretch:normal;font-family:Lavi;-inkscape-font-specification:Lavi;stroke-width:1.13777781" /></flowRegion><flowPara
         style="font-size:51.20000076px;line-height:1.25;text-align:center;text-anchor:middle;stroke-width:1.06666672"
         id="flowPara3211-0-7">Bufux…</flowPara></flowRoot>    <flowRoot
       xml:space="preserve"
       id="flowRoot2987-9-2-0-6-0-6-3"
       style="font-style:normal;font-variant:normal;font-weight:normal;font-stretch:normal;font-size:12.80000019px;line-height:0.01%;font-family:Lavi;-inkscape-font-specification:Lavi;letter-spacing:0px;word-spacing:0px;display:inline;fill:#000000;fill-opacity:1;stroke:none;stroke-width:1.06666672"><flowRegion
         id="flowRegion2989-8-1-0-6-3-4-7"
         style="stroke-width:1.06666672"><rect
           id="rect2991-8-9-5-7-9-1-9"
           width="871.0899"
           height="355.65842"
           x="128.08061"
           y="2381.7014"
           style="font-style:normal;font-variant:normal;font-weight:normal;font-stretch:normal;font-family:Lavi;-inkscape-font-specification:Lavi;stroke-width:1.13777781" /></flowRegion><flowPara
         style="font-size:51.20000076px;line-height:1.25;text-align:center;text-anchor:middle;stroke-width:1.06666672"
         id="flowPara3084">Vu um ugal</flowPara><flowPara
         style="font-size:51.20000076px;line-height:1.25;text-align:center;text-anchor:middle;stroke-width:1.06666672"
         id="flowPara85">ta egara va kona</flowPara><flowPara
         style="font-size:51.20000076px;line-height:1.25;text-align:center;text-anchor:middle;stroke-width:1.06666672"
         id="flowPara89">lokiewafa wan dadi</flowPara></flowRoot>    <flowRoot
       xml:space="preserve"
       id="flowRoot2987-9-2-0-6-0-6-8"
       style="font-style:normal;font-variant:normal;font-weight:normal;font-stretch:normal;line-height:0.01%;font-family:Lavi;-inkscape-font-specification:Lavi;letter-spacing:0px;word-spacing:0px;display:inline;fill:#ffffff;fill-opacity:1;stroke:none"
       transform="matrix(1.5096751,-0.30839509,-0.04677158,1.776152,1404.6723,2269.3508)"><flowRegion
         id="flowRegion2989-8-1-0-6-3-4-1"><rect
           id="rect2991-8-9-5-7-9-1-8"
           width="816.64679"
           height="333.42978"
           x="120.55251"
           y="265.53046"
           style="font-style:normal;font-variant:normal;font-weight:normal;font-stretch:normal;font-family:Lavi;-inkscape-font-specification:Lavi;fill:#ffffff" /></flowRegion><flowPara
         style="font-size:48px;line-height:1.25;text-align:center;text-anchor:middle;fill:#ffffff"
         id="flowPara3211-0-7-0">CLAShshShshShh !</flowPara></flowRoot>    <flowRoot
       xml:space="preserve"
       id="flowRoot2987-9-2-0-6-0-6-3-9"
       style="font-style:normal;font-variant:normal;font-weight:normal;font-stretch:normal;line-height:0.01%;font-family:Lavi;-inkscape-font-specification:Lavi;letter-spacing:0px;word-spacing:0px;display:inline;fill:#000000;fill-opacity:1;stroke:none"
       transform="matrix(0.87956032,0,0,0.90834659,1378.1362,2930.7559)"><flowRegion
         id="flowRegion2989-8-1-0-6-3-4-7-5"><rect
           id="rect2991-8-9-5-7-9-1-9-4"
           width="816.64679"
           height="333.42978"
           x="120.55251"
           y="265.53046"
           style="font-style:normal;font-variant:normal;font-weight:normal;font-stretch:normal;font-family:Lavi;-inkscape-font-specification:Lavi" /></flowRegion><flowPara
         style="font-size:48px;line-height:1.25;text-align:center;text-anchor:middle"
         id="flowPara3088">… mielkiavá,</flowPara><flowPara
         style="font-size:48px;line-height:1.25;text-align:center;text-anchor:middle"
         id="flowPara95">va Carrot…</flowPara></flowRoot>    <flowRoot
       xml:space="preserve"
       id="flowRoot2987-9-2-0-6-0-6-3-3"
       style="font-style:normal;font-variant:normal;font-weight:normal;font-stretch:normal;font-size:12.80000019px;line-height:0.01%;font-family:Lavi;-inkscape-font-specification:Lavi;letter-spacing:0px;word-spacing:0px;display:inline;fill:#000000;fill-opacity:1;stroke:none;stroke-width:1.06666672"><flowRegion
         id="flowRegion2989-8-1-0-6-3-4-7-7"
         style="stroke-width:1.06666672"><rect
           id="rect2991-8-9-5-7-9-1-9-3"
           width="871.0899"
           height="355.65842"
           x="1840.5701"
           y="3643.6636"
           style="font-style:normal;font-variant:normal;font-weight:normal;font-stretch:normal;font-family:Lavi;-inkscape-font-specification:Lavi;stroke-width:1.13777781" /></flowRegion><flowPara
         style="font-size:51.20000076px;line-height:1.25;text-align:center;text-anchor:middle;stroke-width:1.06666672"
         id="flowPara3333-0">wanutuna…</flowPara></flowRoot>  </g>
</svg>
