<?xml version="1.0" encoding="UTF-8" standalone="no"?>
<!-- Created with Inkscape (http://www.inkscape.org/) -->

<svg
   xmlns:dc="http://purl.org/dc/elements/1.1/"
   xmlns:cc="http://creativecommons.org/ns#"
   xmlns:rdf="http://www.w3.org/1999/02/22-rdf-syntax-ns#"
   xmlns:svg="http://www.w3.org/2000/svg"
   xmlns="http://www.w3.org/2000/svg"
   xmlns:xlink="http://www.w3.org/1999/xlink"
   xmlns:sodipodi="http://sodipodi.sourceforge.net/DTD/sodipodi-0.dtd"
   xmlns:inkscape="http://www.inkscape.org/namespaces/inkscape"
   id="svg2"
   version="1.1"
   inkscape:version="0.91 r"
   width="2481"
   height="3503"
   sodipodi:docname="Pepper-and-Carrot_by-David-Revoy_E04P03.svg">
  <metadata
     id="metadata8">
    <rdf:RDF>
      <cc:Work
         rdf:about="">
        <dc:format>image/svg+xml</dc:format>
        <dc:type
           rdf:resource="http://purl.org/dc/dcmitype/StillImage" />
        <dc:title />
      </cc:Work>
    </rdf:RDF>
  </metadata>
  <defs
     id="defs6" />
  <sodipodi:namedview
     pagecolor="#ffffff"
     bordercolor="#666666"
     borderopacity="1"
     objecttolerance="10"
     gridtolerance="10"
     guidetolerance="10"
     inkscape:pageopacity="0"
     inkscape:pageshadow="2"
     inkscape:window-width="1572"
     inkscape:window-height="996"
     id="namedview4"
     showgrid="false"
     inkscape:zoom="0.36045078"
     inkscape:cx="1151.7332"
     inkscape:cy="3049.4173"
     inkscape:window-x="1969"
     inkscape:window-y="41"
     inkscape:window-maximized="0"
     inkscape:current-layer="layer1" />
  <g
     inkscape:groupmode="layer"
     id="layer2"
     inkscape:label="artwork"
     sodipodi:insensitive="true">
    <image
       sodipodi:absref="/home/deevad/Production/Webcomics/2014-11-21_ep04_Moment-of-genius/lang/eo/../gfx_Pepper-and-Carrot_by-David-Revoy_E04P03.png"
       xlink:href="../gfx_Pepper-and-Carrot_by-David-Revoy_E04P03.png"
       y="0"
       x="0"
       id="image10"
       height="3503"
       width="2481" />
  </g>
  <g
     inkscape:groupmode="layer"
     id="layer3"
     inkscape:label="speechbubbles">
    <path
       style="fill:#ffffff;stroke:none"
       d="M 85.0306,227.83535 C 83.909177,171.75551 108.58036,105.09456 148.95138,94.513463 189.3224,83.932359 439.39844,73.351257 460.70534,80.758029 c 21.30693,7.406772 47.09953,21.162211 68.40645,41.266301 21.30693,20.10409 38.12819,53.96361 34.76394,81.47449 -3.36426,27.51086 -19.0641,83.5907 -33.64252,98.40424 -14.57842,14.81356 -53.82802,49.73119 -93.07763,56.07985 -39.2496,6.34866 -85.22769,11.63921 -103.17036,10.58111 -17.94268,-1.05811 -109.89889,-7.40678 -109.89889,-7.40678 0,0 -49.34235,4.23244 -65.0422,-6.34866 C 143.3443,344.22748 102.97328,326.2396 90.637686,281.79897 78.3021,237.35835 85.0306,265.92733 85.0306,227.83535 z"
       id="path3971"
       inkscape:connector-curvature="0" />
    <path
       style="fill:#ffffff;stroke:none;stroke-width:1px;stroke-linecap:butt;stroke-linejoin:miter;stroke-opacity:1;color:#000000;fill-opacity:1;fill-rule:nonzero;marker:none;visibility:visible;display:inline;overflow:visible;enable-background:accumulate"
       d="m 570.91828,456.50332 c -88.75621,-26.38698 -125.93786,-37.18166 -148.72661,-95.95266 -22.78876,-58.77099 -39.58047,-5.99704 -39.58047,-5.99704 0,0 8.39585,103.1491 188.30708,101.9497 z"
       id="path3984"
       inkscape:connector-curvature="0" />
    <path
       style="color:#000000;fill:#ffffff;fill-opacity:1;fill-rule:nonzero;stroke:none;stroke-width:1px;marker:none;visibility:visible;display:inline;overflow:visible;enable-background:accumulate"
       d="m 1051.876,287.94492 c -34.2913,-45.76645 -30.6173,-135.01103 -20.8197,-155.60594 9.7975,-20.59489 23.269,-51.48725 69.8073,-51.48725 46.5382,0 369.8562,-21.739064 417.6191,26.31571 47.7628,48.05478 46.5382,131.57854 4.8988,187.64245 -41.6395,56.0639 -264.533,44.62229 -264.533,44.62229 0,0 -154.3108,6.86497 -206.9725,-51.48726 z"
       id="path3992"
       inkscape:connector-curvature="0" />
    <path
       style="color:#000000;fill:#ffffff;fill-opacity:1;fill-rule:nonzero;stroke:none;stroke-width:1px;marker:none;visibility:visible;display:inline;overflow:visible;enable-background:accumulate"
       d="m 1146.6342,456.50332 c 86.3574,-52.77396 115.6987,-98.14741 141.122,-142.99485 11.9623,-21.10173 -40.3717,-44.11282 -40.3717,-44.11282 l -16.7917,47.97632 c 0,0 -16.7645,81.67766 -83.9586,139.13135 z"
       id="path4000"
       inkscape:connector-curvature="0"
       sodipodi:nodetypes="csccc" />
    <path
       style="color:#000000;fill:#ffffff;fill-opacity:1;fill-rule:nonzero;stroke:none;stroke-width:1px;marker:none;visibility:visible;display:inline;overflow:visible;enable-background:accumulate"
       d="m 387.54447,849.03818 c 61.39324,-62.46734 380.86944,-68.09366 421.61362,-21.18469 40.74417,46.90896 74.4024,161.91157 17.71487,199.74141 -56.68756,37.8297 -405.67027,52.9617 -442.87145,-3.0264 -37.2012,-55.98819 -57.85027,-113.06298 3.54296,-175.53032 z"
       id="path4008"
       inkscape:connector-curvature="0"
       sodipodi:nodetypes="zsssz" />
    <path
       style="color:#000000;fill:#ffffff;fill-opacity:1;fill-rule:nonzero;stroke:none;stroke-width:1px;marker:none;visibility:visible;display:inline;overflow:visible;enable-background:accumulate"
       d="m 1160.1232,935.7964 c -49.0008,-20.0037 -97.9419,-41.56623 -150.0414,-52.21341 -37.19822,-7.6505 -76.8151,-7.22074 -112.57578,6.5553 -35.00721,13.11851 -65.15164,36.51979 -91.29538,62.81897 -9.06208,-6.0945 -11.5338,-17.77222 -13.95556,-27.72319 -2.27162,-11.1248 -3.35111,-22.47353 -3.64675,-33.8162 27.51904,-19.03397 59.72066,-30.57617 92.42783,-36.8561 63.06125,-11.94227 128.93434,-0.29129 186.93494,26.05934 32.7474,14.69243 63.4668,33.66121 92.1521,55.17529 z"
       id="path4010"
       inkscape:connector-curvature="0" />
    <path
       style="fill:#ffffff;stroke:none;stroke-width:1px;stroke-linecap:butt;stroke-linejoin:miter;stroke-opacity:1;color:#000000;fill-opacity:1;fill-rule:nonzero;marker:none;visibility:visible;display:inline;overflow:visible;enable-background:accumulate"
       d="m 1944.831,1785.1574 -11.6581,-2.0573 2.7431,19.2015 c -18.4465,1.0419 -28.0575,-4.9846 -41.1459,-8.2292 l 20.5729,24.6875 -3.4288,6.8577 c 3.3401,4.0097 8.38,6.7445 9.6007,12.3438 -9.3185,3.4893 -16.0183,3.487 -23.7247,4.8268 7.2512,4.6372 13.2882,10.0028 17.5528,16.4319 l -24.6875,10.9722 22.6287,9.5992 c -17.0206,15.7848 -38.4133,25.74 -58.2885,37.7187 l 70.6338,-5.4862 -10.9722,12.3438 c 7.0598,6.4246 6.4359,3.2445 9.6007,4.8004 1.5412,4.6235 -24.2819,23.8474 -21.9445,21.9445 2.7431,-0.6858 26.0591,-3.4289 26.0591,-3.4289 0,0 -20.573,19.2015 -17.8299,19.2015 2.743,0 25.3733,-4.8004 25.3733,-4.8004 l -7.5434,18.5157 29.4879,-10.2865 -12.3438,23.0224 c 7.672,-1.3544 12.622,-1.8272 9.8944,6.1781 -18.4591,28.5047 -46.7501,71.897 -42.2223,81.6014 15.6428,-10.9487 39.4501,-43.4171 61.8158,-55.2549 15.1973,1.9773 16.1118,10.0758 22.6303,15.7726 l 27.4306,-24.0018 4.8004,16.4584 20.5729,-20.573 0,21.2588 c 12.7673,-1.4877 19.263,-13.9505 26.7449,-24.6876 l 2.0573,79.5488 44.5747,-67.205 8.915,28.1164 6.8577,-26.0591 2.0573,21.9445 19.2014,-29.4879 14.4011,26.7448 13.7153,-24.6875 c 12.5486,26.9972 30.6086,48.483 51.4324,67.205 -2.8946,-27.6831 -5.3101,-54.5679 -4.1146,-75.4342 7.772,-2.1744 15.544,2.1747 23.316,8.2292 l -4.1146,-18.5157 28.8022,12.3438 -13.0296,-28.8022 c 43.9655,-0.9228 35.1394,4.0201 45.2606,6.8577 l -8.2292,-18.5157 30.1737,14.4011 c -8.2429,-15.3223 -19.0698,-31.9366 -24.6876,-45.9463 l 31.5452,3.4288 c -12.3615,-12.3266 -27.8924,-21.4838 -36.5408,-37.5234 l 27.6259,-1.5652 -26.0591,-20.573 20.5729,-11.658 -16.4583,-2.7431 27.4306,-24.6875 -36.3456,-2.0573 43.889,-44.5748 -50.7466,9.6008 4.1145,-32.231 -28.1163,23.316 28.1163,-80.9203 c -22.7165,28.9445 -40.2199,52.1236 -71.0227,72.9817 l -9.9023,-8.1261 -10.9675,4.2083 2.743,-23.1176 -40.4601,28.1163 4.1146,-13.0295 -12.3438,12.3438 2.743,-17.1442 -21.2587,20.573 1.9573,-17.9252 -10.1865,11.7533 -3.1367,-11.2628 -11.9501,7.1482 c -3.5957,-29.7165 2.5827,-59.433 6.8576,-89.1495 -14.0302,34.0184 -31.848,64.7903 -55.547,90.5211 l -7.5434,-13.0249 -9.4055,12.0439 -9.5007,-15.5681 -14.3042,18.6033 c -11.3117,-14.1725 -17.8998,-22.8558 -22.3366,-37.0283 2.1881,13.2826 3.779,22.2054 0.5873,36.8329 -41.7573,-22.3951 -40.5072,-24.3922 -56.1343,-36.8329 -4.2821,15.9904 -8.5493,21.3145 -10.9722,33.6025 z"
       id="path4024"
       inkscape:connector-curvature="0"
       sodipodi:nodetypes="cccccccccccccccccsccccccccccccccccccccccccccccccccccccccccccccccccccccccccccccccccccc" />
    <path
       style="color:#000000;fill:#ffffff;fill-opacity:1;fill-rule:nonzero;stroke:none;stroke-width:1px;marker:none;visibility:visible;display:inline;overflow:visible;enable-background:accumulate"
       d="m 1848.5853,1575.0785 c 10.0461,44.0989 27.0514,87.1709 29.0118,132.4629 l 18.7724,-35.7599 c 9.4018,15.7423 8.3262,35.1951 10.8083,53.3881 l 15.3592,-20.1465 c 21.7256,37.425 24.8572,77.202 36.9759,115.8421 l 23.8921,-37.271 c -16.9368,-37.6417 -39.8877,-72.0885 -50.0597,-113.3238 l -17.0658,18.1319 c -5.5461,-13.7459 -10.5425,-27.7351 -13.0837,-42.8112 l -19.3412,24.6794 z"
       id="path4032"
       inkscape:connector-curvature="0"
       sodipodi:nodetypes="cccccccccccc" />
    <path
       style="color:#000000;fill:#ffffff;fill-opacity:1;fill-rule:nonzero;stroke:none;stroke-width:1px;marker:none;visibility:visible;display:inline;overflow:visible;enable-background:accumulate"
       d="m 505.06344,2347.478 c 24.18607,-30.8288 228.34353,-64.2916 300.09753,-0.7599 71.75397,63.5317 28.23107,139.7698 -12.93925,164.0273 -41.17033,24.2576 -162.32871,50.8254 -217.61458,30.0332 -55.28586,-20.7922 -98.35009,-51.8725 -101.16136,-115.5122 -1.1474,-25.9739 7.43157,-46.9595 31.61766,-77.7884 z"
       id="path4040"
       inkscape:connector-curvature="0"
       sodipodi:nodetypes="zssssz" />
    <path
       style="color:#000000;fill:#ffffff;fill-opacity:1;fill-rule:nonzero;stroke:none;stroke-width:1px;marker:none;visibility:visible;display:inline;overflow:visible;enable-background:accumulate"
       d="m 852.77712,2508.4484 c -46.71679,38.0588 -143.61096,79.6886 -134.17151,-10.1374 8.50339,-80.9185 -28.62326,-41.7422 -28.62326,-41.7422 l -16.6969,47.7054 c 0,0 42.33857,151.4647 179.49167,4.1742 z"
       id="path4048"
       inkscape:connector-curvature="0"
       sodipodi:nodetypes="csccc" />
    <path
       style="color:#000000;fill:#ffffff;fill-opacity:1;fill-rule:nonzero;stroke:none;stroke-width:1px;marker:none;visibility:visible;display:inline;overflow:visible;enable-background:accumulate"
       d="m 1747.2347,2675.0108 c -31.5132,-41.0032 -49.1914,-91.3254 -39.1995,-129.5331 9.9922,-38.2077 29.9762,-124.8737 83.7793,-128.6013 53.8031,-3.7275 326.6619,-41.9352 358.1753,27.025 31.5133,68.9601 53.8031,176.1278 29.2074,202.2209 -24.5958,26.0928 -69.944,59.641 -106.069,59.641 -36.1252,0 -83.0106,13.0465 -100.6888,9.319 -17.6783,-3.7276 -60.7208,-12.1145 -66.1011,-12.1145 -5.3803,0 -87.6222,0 -96.0772,-2.7958 -8.4545,-2.7957 -46.8855,8.387 -63.0264,-25.1612 z"
       id="path4056"
       inkscape:connector-curvature="0" />
    <path
       style="color:#000000;fill:#ffffff;fill-opacity:1;fill-rule:nonzero;stroke:none;stroke-width:1px;marker:none;visibility:visible;display:inline;overflow:visible;enable-background:accumulate"
       d="m 1712.2199,2596.6918 c -30.8355,22.6731 -69.8333,55.3224 -105.2033,-7.2554 2.7207,2.7208 22.6731,97.9479 121.5279,44.4393 98.8548,-53.5086 105.2033,-71.6471 105.2033,-71.6471 z"
       id="path4064"
       inkscape:connector-curvature="0"
       sodipodi:nodetypes="ccscc" />
  </g>
  <g
     inkscape:groupmode="layer"
     id="layer1"
     inkscape:label="txt">
    <flowRoot
       xml:space="preserve"
       id="flowRoot2987"
       style="font-size:12px;font-style:normal;font-variant:normal;font-weight:normal;font-stretch:normal;line-height:125%;letter-spacing:0px;word-spacing:0px;fill:#000000;fill-opacity:1;stroke:none;font-family:Lavi;-inkscape-font-specification:Lavi"
       transform="matrix(0.97226124,0,0,0.98626652,-401.44212,-147.04846)"><flowRegion
         id="flowRegion2989"><rect
           id="rect2991"
           width="1228.9047"
           height="338.34705"
           x="120.55251"
           y="265.53046"
           style="font-style:normal;font-variant:normal;font-weight:normal;font-stretch:normal;font-family:Lavi;-inkscape-font-specification:Lavi" /></flowRegion><flowPara
         id="flowPara2995"
         style="font-size:48px;text-align:center;text-anchor:middle">Ha, kara Karoĉjo!</flowPara><flowPara
         style="font-size:48px;text-align:center;text-anchor:middle"
         id="flowPara3757">Kia bonkora kateto!</flowPara><flowPara
         style="font-size:48px;text-align:center;text-anchor:middle"
         id="flowPara3034">Memvole vi revenis,</flowPara><flowPara
         style="font-size:48px;text-align:center;text-anchor:middle"
         id="flowPara3038">ĉu ne?</flowPara></flowRoot>    <flowRoot
       xml:space="preserve"
       id="flowRoot2987-4"
       style="font-style:normal;font-variant:normal;font-weight:normal;font-stretch:normal;font-size:12px;line-height:125%;font-family:Lavi;-inkscape-font-specification:Lavi;letter-spacing:0px;word-spacing:0px;fill:#000000;fill-opacity:1;stroke:none"
       transform="matrix(0.97226124,0,0,0.98626652,571.64689,-136.83612)"><flowRegion
         id="flowRegion2989-4"><rect
           id="rect2991-6"
           width="1228.9047"
           height="338.34705"
           x="120.55251"
           y="265.53046"
           style="font-style:normal;font-variant:normal;font-weight:normal;font-stretch:normal;font-family:Lavi;-inkscape-font-specification:Lavi" /></flowRegion><flowPara
         style="font-size:48px;text-align:center;text-anchor:middle"
         id="flowPara3810">Gustegatempe, kiam</flowPara><flowPara
         style="font-size:48px;text-align:center;text-anchor:middle"
         id="flowPara3047">mi bezonas mian</flowPara><flowPara
         style="font-size:48px;text-align:center;text-anchor:middle"
         id="flowPara3051">favoratan helpanton</flowPara></flowRoot>    <flowRoot
       xml:space="preserve"
       id="flowRoot2987-0"
       style="font-size:12px;font-style:normal;font-variant:normal;font-weight:normal;font-stretch:normal;line-height:125%;letter-spacing:0px;word-spacing:0px;fill:#000000;fill-opacity:1;stroke:none;font-family:Lavi;-inkscape-font-specification:Lavi"
       transform="matrix(0.97226124,0,0,0.98626652,-107.05583,583.66739)"><flowRegion
         id="flowRegion2989-5"><rect
           id="rect2991-3"
           width="1228.9047"
           height="338.34705"
           x="120.55251"
           y="265.53046"
           style="font-style:normal;font-variant:normal;font-weight:normal;font-stretch:normal;font-family:Lavi;-inkscape-font-specification:Lavi" /></flowRegion><flowPara
         style="font-size:48px;text-align:center;text-anchor:middle"
         id="flowPara3859">Tambur!…</flowPara><flowPara
         style="font-size:48px;text-align:center;text-anchor:middle"
         id="flowPara3058">Mi prezentas al vi</flowPara><flowPara
         style="font-size:48px;text-align:center;text-anchor:middle"
         id="flowPara3062">mian ĉefverkon</flowPara></flowRoot>    <flowRoot
       xml:space="preserve"
       id="flowRoot2987-0-8"
       style="font-size:12px;font-style:normal;font-variant:normal;font-weight:normal;font-stretch:normal;line-height:125%;letter-spacing:0px;word-spacing:0px;fill:#000000;fill-opacity:1;stroke:none;font-family:Lavi;-inkscape-font-specification:Lavi"
       transform="matrix(1.4223517,0,0,1.37337,1076.39,1451.7713)"><flowRegion
         id="flowRegion2989-5-3"><rect
           id="rect2991-3-9"
           width="1228.9047"
           height="338.34705"
           x="120.55251"
           y="265.53046"
           style="font-style:normal;font-variant:normal;font-weight:normal;font-stretch:normal;font-family:Lavi;-inkscape-font-specification:Lavi" /></flowRegion><flowPara
         style="font-size:48px;text-align:center;text-anchor:middle"
         id="flowPara3899">la trinkaĵo </flowPara><flowPara
         style="font-size:48px;text-align:center;text-anchor:middle"
         id="flowPara3068">de Genioj</flowPara></flowRoot>    <flowRoot
       xml:space="preserve"
       id="flowRoot2987-0-8-0"
       style="font-size:12px;font-style:normal;font-variant:normal;font-weight:normal;font-stretch:normal;line-height:125%;letter-spacing:0px;word-spacing:0px;fill:#000000;fill-opacity:1;stroke:none;font-family:Lavi;-inkscape-font-specification:Lavi"
       transform="matrix(0.99729969,0,0,0.93985282,-78.83126,2110.9828)"><flowRegion
         id="flowRegion2989-5-3-2"><rect
           id="rect2991-3-9-7"
           width="1228.9047"
           height="338.34705"
           x="120.55251"
           y="265.53046"
           style="font-style:normal;font-variant:normal;font-weight:normal;font-stretch:normal;font-family:Lavi;-inkscape-font-specification:Lavi" /></flowRegion><flowPara
         style="font-size:48px;text-align:center;text-anchor:middle"
         id="flowPara3933">Nur unu </flowPara><flowPara
         style="font-size:48px;text-align:center;text-anchor:middle"
         id="flowPara3072">gluteton</flowPara><flowPara
         style="font-size:48px;text-align:center;text-anchor:middle"
         id="flowPara3074">...</flowPara></flowRoot>    <flowRoot
       xml:space="preserve"
       id="flowRoot2987-0-8-0-9"
       style="font-size:12px;font-style:normal;font-variant:normal;font-weight:normal;font-stretch:normal;line-height:125%;letter-spacing:0px;word-spacing:0px;fill:#000000;fill-opacity:1;stroke:none;font-family:Lavi;-inkscape-font-specification:Lavi"
       transform="matrix(0.99729969,0,0,0.93985282,1216.185,2260.1044)"><flowRegion
         id="flowRegion2989-5-3-2-1"><rect
           id="rect2991-3-9-7-5"
           width="1228.9047"
           height="338.34705"
           x="120.55251"
           y="265.53046"
           style="font-style:normal;font-variant:normal;font-weight:normal;font-stretch:normal;font-family:Lavi;-inkscape-font-specification:Lavi" /></flowRegion><flowPara
         style="font-size:48px;text-align:center;text-anchor:middle"
         id="flowPara3091">… kaj vi estu</flowPara><flowPara
         style="font-size:48px;text-align:center;text-anchor:middle"
         id="flowPara3085">frapata de </flowPara><flowPara
         style="font-size:48px;text-align:center;text-anchor:middle"
         id="flowPara3087">genia ekfulmo</flowPara><flowPara
         style="font-size:48px;text-align:center;text-anchor:middle"
         id="flowPara3083" /></flowRoot>    <g
       style="font-style:normal;font-variant:normal;font-weight:normal;font-stretch:normal;font-size:47.00374985px;line-height:125%;font-family:Lavi;-inkscape-font-specification:'Lavi, Normal';text-align:center;letter-spacing:0px;word-spacing:0px;writing-mode:lr-tb;text-anchor:middle;fill:#000000;fill-opacity:1;stroke:none;stroke-width:1px;stroke-linecap:butt;stroke-linejoin:miter;stroke-opacity:1"
       id="text4185"
       transform="matrix(0.83417819,0,0,0.85808306,180.16439,17.444212)">
      <path
         d="m 1102.1293,126.30145 -3.6951,3.69512 -8.928,-11.10831 -8.6984,11.33782 -3.6951,-3.2361 12.4853,-15.03294 12.5313,14.34441 z"
         id="path4190"
         inkscape:connector-curvature="0" />
    </g>
  </g>
</svg>
